midi.Pattern(format=1, resolution=240, tracks=\
[midi.Track(\
  [midi.TimeSignatureEvent(tick=0, data=[4, 2, 24, 8]),
   midi.KeySignatureEvent(tick=0, data=[0, 0]),
   midi.SetTempoEvent(tick=0, data=[6, 162, 95]),
   midi.MarkerEvent(tick=0, text='Welcome To The Machine', data=[87, 101, 108, 99, 111, 109, 101, 32, 84, 111, 32, 84, 104, 101, 32, 77, 97, 99, 104, 105, 110, 101]),
   midi.TimeSignatureEvent(tick=27840, data=[3, 2, 24, 8]),
   midi.TimeSignatureEvent(tick=720, data=[4, 2, 24, 8]),
   midi.TimeSignatureEvent(tick=41280, data=[3, 2, 24, 8]),
   midi.TimeSignatureEvent(tick=40320, data=[4, 2, 24, 8]),
   midi.TimeSignatureEvent(tick=10560, data=[3, 2, 24, 8]),
   midi.TimeSignatureEvent(tick=720, data=[4, 2, 24, 8]),
   midi.EndOfTrackEvent(tick=0, data=[])]),
 midi.Track(\
  [midi.PortEvent(tick=0, data=[0]),
   midi.TrackNameEvent(tick=0, text=' ', data=[32]),
   midi.ControlChangeEvent(tick=0, channel=0, data=[7, 96]),
   midi.EndOfTrackEvent(tick=0, data=[])]),
 midi.Track(\
  [midi.PortEvent(tick=0, data=[0]),
   midi.TrackNameEvent(tick=0, text='Vocal', data=[86, 111, 99, 97, 108]),
   midi.ProgramChangeEvent(tick=0, channel=1, data=[94]),
   midi.ControlChangeEvent(tick=0, channel=1, data=[7, 102]),
   midi.ControlChangeEvent(tick=480, channel=1, data=[0, 0]),
   midi.ControlChangeEvent(tick=5, channel=1, data=[32, 0]),
   midi.ControlChangeEvent(tick=10, channel=1, data=[1, 54]),
   midi.ControlChangeEvent(tick=10, channel=1, data=[10, 18]),
   midi.ControlChangeEvent(tick=5, channel=1, data=[11, 127]),
   midi.ControlChangeEvent(tick=5, channel=1, data=[64, 0]),
   midi.ControlChangeEvent(tick=5, channel=1, data=[91, 127]),
   midi.ControlChangeEvent(tick=5, channel=1, data=[93, 32]),
   midi.PitchWheelEvent(tick=5, channel=1, data=[0, 64]),
   midi.ControlChangeEvent(tick=670, channel=1, data=[93, 32]),
   midi.ControlChangeEvent(tick=0, channel=1, data=[7, 102]),
   midi.ControlChangeEvent(tick=0, channel=1, data=[1, 54]),
   midi.ControlChangeEvent(tick=0, channel=1, data=[91, 127]),
   midi.NoteOnEvent(tick=16320, channel=1, data=[79, 79]),
   midi.NoteOnEvent(tick=80, channel=1, data=[79, 0]),
   midi.NoteOnEvent(tick=40, channel=1, data=[79, 79]),
   midi.NoteOnEvent(tick=280, channel=1, data=[79, 0]),
   midi.NoteOnEvent(tick=80, channel=1, data=[78, 79]),
   midi.NoteOnEvent(tick=160, channel=1, data=[78, 0]),
   midi.NoteOnEvent(tick=80, channel=1, data=[79, 79]),
   midi.NoteOnEvent(tick=160, channel=1, data=[79, 0]),
   midi.NoteOnEvent(tick=1040, channel=1, data=[79, 79]),
   midi.NoteOnEvent(tick=80, channel=1, data=[79, 0]),
   midi.NoteOnEvent(tick=40, channel=1, data=[79, 79]),
   midi.NoteOnEvent(tick=435, channel=1, data=[79, 0]),
   midi.NoteOnEvent(tick=405, channel=1, data=[79, 79]),
   midi.NoteOnEvent(tick=320, channel=1, data=[79, 0]),
   midi.NoteOnEvent(tick=40, channel=1, data=[76, 79]),
   midi.NoteOnEvent(tick=80, channel=1, data=[76, 0]),
   midi.NoteOnEvent(tick=40, channel=1, data=[79, 79]),
   midi.NoteOnEvent(tick=80, channel=1, data=[79, 0]),
   midi.NoteOnEvent(tick=40, channel=1, data=[78, 79]),
   midi.NoteOnEvent(tick=360, channel=1, data=[78, 0]),
   midi.NoteOnEvent(tick=120, channel=1, data=[76, 79]),
   midi.NoteOnEvent(tick=280, channel=1, data=[76, 0]),
   midi.NoteOnEvent(tick=3440, channel=1, data=[79, 79]),
   midi.NoteOnEvent(tick=80, channel=1, data=[79, 0]),
   midi.NoteOnEvent(tick=40, channel=1, data=[79, 79]),
   midi.NoteOnEvent(tick=200, channel=1, data=[79, 0]),
   midi.NoteOnEvent(tick=40, channel=1, data=[76, 79]),
   midi.NoteOnEvent(tick=80, channel=1, data=[76, 0]),
   midi.NoteOnEvent(tick=40, channel=1, data=[79, 79]),
   midi.NoteOnEvent(tick=160, channel=1, data=[79, 0]),
   midi.NoteOnEvent(tick=1280, channel=1, data=[81, 79]),
   midi.NoteOnEvent(tick=80, channel=1, data=[81, 0]),
   midi.NoteOnEvent(tick=40, channel=1, data=[81, 79]),
   midi.NoteOnEvent(tick=200, channel=1, data=[81, 0]),
   midi.NoteOnEvent(tick=40, channel=1, data=[81, 79]),
   midi.NoteOnEvent(tick=200, channel=1, data=[81, 0]),
   midi.NoteOnEvent(tick=40, channel=1, data=[79, 79]),
   midi.NoteOnEvent(tick=80, channel=1, data=[79, 0]),
   midi.NoteOnEvent(tick=40, channel=1, data=[81, 79]),
   midi.NoteOnEvent(tick=240, channel=1, data=[81, 0]),
   midi.NoteOnEvent(tick=0, channel=1, data=[79, 79]),
   midi.NoteOnEvent(tick=80, channel=1, data=[79, 0]),
   midi.NoteOnEvent(tick=40, channel=1, data=[81, 79]),
   midi.NoteOnEvent(tick=200, channel=1, data=[81, 0]),
   midi.NoteOnEvent(tick=40, channel=1, data=[79, 79]),
   midi.NoteOnEvent(tick=80, channel=1, data=[79, 0]),
   midi.NoteOnEvent(tick=40, channel=1, data=[83, 95]),
   midi.NoteOnEvent(tick=160, channel=1, data=[83, 0]),
   midi.NoteOnEvent(tick=3920, channel=1, data=[79, 79]),
   midi.NoteOnEvent(tick=80, channel=1, data=[79, 0]),
   midi.NoteOnEvent(tick=40, channel=1, data=[79, 79]),
   midi.NoteOnEvent(tick=200, channel=1, data=[79, 0]),
   midi.NoteOnEvent(tick=40, channel=1, data=[78, 79]),
   midi.NoteOnEvent(tick=80, channel=1, data=[78, 0]),
   midi.NoteOnEvent(tick=40, channel=1, data=[76, 79]),
   midi.NoteOnEvent(tick=80, channel=1, data=[76, 0]),
   midi.NoteOnEvent(tick=40, channel=1, data=[79, 79]),
   midi.NoteOnEvent(tick=200, channel=1, data=[79, 0]),
   midi.NoteOnEvent(tick=40, channel=1, data=[79, 79]),
   midi.NoteOnEvent(tick=80, channel=1, data=[79, 0]),
   midi.NoteOnEvent(tick=280, channel=1, data=[79, 79]),
   midi.NoteOnEvent(tick=80, channel=1, data=[79, 0]),
   midi.NoteOnEvent(tick=40, channel=1, data=[78, 79]),
   midi.NoteOnEvent(tick=80, channel=1, data=[78, 0]),
   midi.NoteOnEvent(tick=40, channel=1, data=[76, 79]),
   midi.NoteOnEvent(tick=80, channel=1, data=[76, 0]),
   midi.NoteOnEvent(tick=40, channel=1, data=[79, 79]),
   midi.NoteOnEvent(tick=280, channel=1, data=[79, 0]),
   midi.NoteOnEvent(tick=2000, channel=1, data=[78, 79]),
   midi.NoteOnEvent(tick=80, channel=1, data=[78, 0]),
   midi.NoteOnEvent(tick=40, channel=1, data=[78, 79]),
   midi.NoteOnEvent(tick=200, channel=1, data=[78, 0]),
   midi.NoteOnEvent(tick=40, channel=1, data=[78, 79]),
   midi.NoteOnEvent(tick=80, channel=1, data=[78, 0]),
   midi.NoteOnEvent(tick=40, channel=1, data=[76, 79]),
   midi.NoteOnEvent(tick=80, channel=1, data=[76, 0]),
   midi.NoteOnEvent(tick=40, channel=1, data=[78, 95]),
   midi.NoteOnEvent(tick=360, channel=1, data=[78, 0]),
   midi.NoteOnEvent(tick=120, channel=1, data=[76, 79]),
   midi.NoteOnEvent(tick=80, channel=1, data=[76, 0]),
   midi.NoteOnEvent(tick=40, channel=1, data=[78, 79]),
   midi.NoteOnEvent(tick=80, channel=1, data=[78, 0]),
   midi.NoteOnEvent(tick=40, channel=1, data=[78, 79]),
   midi.NoteOnEvent(tick=80, channel=1, data=[78, 0]),
   midi.NoteOnEvent(tick=40, channel=1, data=[76, 79]),
   midi.NoteOnEvent(tick=80, channel=1, data=[76, 0]),
   midi.NoteOnEvent(tick=40, channel=1, data=[78, 95]),
   midi.NoteOnEvent(tick=280, channel=1, data=[78, 0]),
   midi.NoteOnEvent(tick=2000, channel=1, data=[79, 79]),
   midi.NoteOnEvent(tick=80, channel=1, data=[79, 0]),
   midi.NoteOnEvent(tick=40, channel=1, data=[79, 79]),
   midi.NoteOnEvent(tick=200, channel=1, data=[79, 0]),
   midi.NoteOnEvent(tick=40, channel=1, data=[78, 79]),
   midi.NoteOnEvent(tick=80, channel=1, data=[78, 0]),
   midi.NoteOnEvent(tick=40, channel=1, data=[76, 79]),
   midi.NoteOnEvent(tick=80, channel=1, data=[76, 0]),
   midi.NoteOnEvent(tick=40, channel=1, data=[79, 79]),
   midi.NoteOnEvent(tick=360, channel=1, data=[79, 0]),
   midi.NoteOnEvent(tick=120, channel=1, data=[79, 79]),
   midi.NoteOnEvent(tick=80, channel=1, data=[79, 0]),
   midi.NoteOnEvent(tick=40, channel=1, data=[79, 79]),
   midi.NoteOnEvent(tick=80, channel=1, data=[79, 0]),
   midi.NoteOnEvent(tick=40, channel=1, data=[78, 79]),
   midi.NoteOnEvent(tick=80, channel=1, data=[78, 0]),
   midi.NoteOnEvent(tick=40, channel=1, data=[76, 79]),
   midi.NoteOnEvent(tick=80, channel=1, data=[76, 0]),
   midi.NoteOnEvent(tick=40, channel=1, data=[79, 95]),
   midi.NoteOnEvent(tick=280, channel=1, data=[79, 0]),
   midi.NoteOnEvent(tick=1880, channel=1, data=[78, 79]),
   midi.NoteOnEvent(tick=80, channel=1, data=[78, 0]),
   midi.NoteOnEvent(tick=40, channel=1, data=[78, 79]),
   midi.NoteOnEvent(tick=80, channel=1, data=[78, 0]),
   midi.NoteOnEvent(tick=40, channel=1, data=[78, 79]),
   midi.NoteOnEvent(tick=200, channel=1, data=[78, 0]),
   midi.NoteOnEvent(tick=40, channel=1, data=[78, 79]),
   midi.NoteOnEvent(tick=80, channel=1, data=[78, 0]),
   midi.NoteOnEvent(tick=40, channel=1, data=[78, 79]),
   midi.NoteOnEvent(tick=80, channel=1, data=[78, 0]),
   midi.NoteOnEvent(tick=40, channel=1, data=[78, 79]),
   midi.NoteOnEvent(tick=280, channel=1, data=[78, 0]),
   midi.NoteOnEvent(tick=560, channel=1, data=[76, 79]),
   midi.NoteOnEvent(tick=80, channel=1, data=[76, 0]),
   midi.NoteOnEvent(tick=40, channel=1, data=[76, 79]),
   midi.NoteOnEvent(tick=80, channel=1, data=[76, 0]),
   midi.NoteOnEvent(tick=40, channel=1, data=[78, 79]),
   midi.NoteOnEvent(tick=160, channel=1, data=[78, 0]),
   midi.NoteOnEvent(tick=80, channel=1, data=[76, 79]),
   midi.NoteOnEvent(tick=80, channel=1, data=[76, 0]),
   midi.NoteOnEvent(tick=40, channel=1, data=[78, 79]),
   midi.NoteOnEvent(tick=200, channel=1, data=[78, 0]),
   midi.NoteOnEvent(tick=40, channel=1, data=[78, 79]),
   midi.NoteOnEvent(tick=80, channel=1, data=[78, 0]),
   midi.NoteOnEvent(tick=40, channel=1, data=[76, 79]),
   midi.NoteOnEvent(tick=80, channel=1, data=[76, 0]),
   midi.NoteOnEvent(tick=40, channel=1, data=[79, 79]),
   midi.NoteOnEvent(tick=840, channel=1, data=[79, 0]),
   midi.NoteOnEvent(tick=0, channel=1, data=[78, 95]),
   midi.NoteOnEvent(tick=480, channel=1, data=[78, 0]),
   midi.NoteOnEvent(tick=0, channel=1, data=[76, 95]),
   midi.NoteOnEvent(tick=555, channel=1, data=[76, 0]),
   midi.NoteOnEvent(tick=1845, channel=1, data=[76, 79]),
   midi.NoteOnEvent(tick=160, channel=1, data=[76, 0]),
   midi.NoteOnEvent(tick=80, channel=1, data=[79, 79]),
   midi.NoteOnEvent(tick=160, channel=1, data=[79, 0]),
   midi.NoteOnEvent(tick=80, channel=1, data=[79, 79]),
   midi.NoteOnEvent(tick=2800, channel=1, data=[79, 0]),
   midi.NoteOnEvent(tick=80, channel=1, data=[79, 79]),
   midi.NoteOnEvent(tick=320, channel=1, data=[79, 0]),
   midi.NoteOnEvent(tick=40, channel=1, data=[76, 79]),
   midi.NoteOnEvent(tick=80, channel=1, data=[76, 0]),
   midi.NoteOnEvent(tick=40, channel=1, data=[79, 79]),
   midi.NoteOnEvent(tick=80, channel=1, data=[79, 0]),
   midi.NoteOnEvent(tick=40, channel=1, data=[78, 79]),
   midi.NoteOnEvent(tick=1240, channel=1, data=[78, 0]),
   midi.NoteOnEvent(tick=54800, channel=1, data=[79, 79]),
   midi.NoteOnEvent(tick=80, channel=1, data=[79, 0]),
   midi.NoteOnEvent(tick=40, channel=1, data=[79, 79]),
   midi.NoteOnEvent(tick=280, channel=1, data=[79, 0]),
   midi.NoteOnEvent(tick=80, channel=1, data=[78, 79]),
   midi.NoteOnEvent(tick=160, channel=1, data=[78, 0]),
   midi.NoteOnEvent(tick=80, channel=1, data=[79, 79]),
   midi.NoteOnEvent(tick=160, channel=1, data=[79, 0]),
   midi.NoteOnEvent(tick=1040, channel=1, data=[79, 79]),
   midi.NoteOnEvent(tick=80, channel=1, data=[79, 0]),
   midi.NoteOnEvent(tick=40, channel=1, data=[79, 79]),
   midi.NoteOnEvent(tick=435, channel=1, data=[79, 0]),
   midi.NoteOnEvent(tick=405, channel=1, data=[79, 79]),
   midi.NoteOnEvent(tick=320, channel=1, data=[79, 0]),
   midi.NoteOnEvent(tick=40, channel=1, data=[76, 79]),
   midi.NoteOnEvent(tick=80, channel=1, data=[76, 0]),
   midi.NoteOnEvent(tick=40, channel=1, data=[79, 79]),
   midi.NoteOnEvent(tick=80, channel=1, data=[79, 0]),
   midi.NoteOnEvent(tick=40, channel=1, data=[78, 79]),
   midi.NoteOnEvent(tick=480, channel=1, data=[78, 0]),
   midi.NoteOnEvent(tick=0, channel=1, data=[76, 79]),
   midi.NoteOnEvent(tick=280, channel=1, data=[76, 0]),
   midi.NoteOnEvent(tick=3440, channel=1, data=[79, 79]),
   midi.NoteOnEvent(tick=80, channel=1, data=[79, 0]),
   midi.NoteOnEvent(tick=40, channel=1, data=[79, 79]),
   midi.NoteOnEvent(tick=200, channel=1, data=[79, 0]),
   midi.NoteOnEvent(tick=40, channel=1, data=[76, 79]),
   midi.NoteOnEvent(tick=80, channel=1, data=[76, 0]),
   midi.NoteOnEvent(tick=40, channel=1, data=[79, 79]),
   midi.NoteOnEvent(tick=160, channel=1, data=[79, 0]),
   midi.NoteOnEvent(tick=1280, channel=1, data=[81, 79]),
   midi.NoteOnEvent(tick=80, channel=1, data=[81, 0]),
   midi.NoteOnEvent(tick=40, channel=1, data=[81, 79]),
   midi.NoteOnEvent(tick=200, channel=1, data=[81, 0]),
   midi.NoteOnEvent(tick=40, channel=1, data=[81, 79]),
   midi.NoteOnEvent(tick=200, channel=1, data=[81, 0]),
   midi.NoteOnEvent(tick=40, channel=1, data=[79, 79]),
   midi.NoteOnEvent(tick=80, channel=1, data=[79, 0]),
   midi.NoteOnEvent(tick=40, channel=1, data=[81, 79]),
   midi.NoteOnEvent(tick=160, channel=1, data=[81, 0]),
   midi.NoteOnEvent(tick=80, channel=1, data=[79, 79]),
   midi.NoteOnEvent(tick=80, channel=1, data=[79, 0]),
   midi.NoteOnEvent(tick=40, channel=1, data=[81, 79]),
   midi.NoteOnEvent(tick=200, channel=1, data=[81, 0]),
   midi.NoteOnEvent(tick=40, channel=1, data=[79, 79]),
   midi.NoteOnEvent(tick=80, channel=1, data=[79, 0]),
   midi.NoteOnEvent(tick=40, channel=1, data=[83, 79]),
   midi.NoteOnEvent(tick=160, channel=1, data=[83, 0]),
   midi.NoteOnEvent(tick=3920, channel=1, data=[79, 79]),
   midi.NoteOnEvent(tick=80, channel=1, data=[79, 0]),
   midi.NoteOnEvent(tick=40, channel=1, data=[79, 79]),
   midi.NoteOnEvent(tick=200, channel=1, data=[79, 0]),
   midi.NoteOnEvent(tick=40, channel=1, data=[78, 79]),
   midi.NoteOnEvent(tick=80, channel=1, data=[78, 0]),
   midi.NoteOnEvent(tick=40, channel=1, data=[76, 79]),
   midi.NoteOnEvent(tick=80, channel=1, data=[76, 0]),
   midi.NoteOnEvent(tick=40, channel=1, data=[79, 79]),
   midi.NoteOnEvent(tick=280, channel=1, data=[79, 0]),
   midi.NoteOnEvent(tick=80, channel=1, data=[79, 79]),
   midi.NoteOnEvent(tick=160, channel=1, data=[79, 0]),
   midi.NoteOnEvent(tick=2720, channel=1, data=[78, 79]),
   midi.NoteOnEvent(tick=80, channel=1, data=[78, 0]),
   midi.NoteOnEvent(tick=40, channel=1, data=[78, 79]),
   midi.NoteOnEvent(tick=280, channel=1, data=[78, 0]),
   midi.NoteOnEvent(tick=80, channel=1, data=[76, 79]),
   midi.NoteOnEvent(tick=80, channel=1, data=[76, 0]),
   midi.NoteOnEvent(tick=40, channel=1, data=[78, 79]),
   midi.NoteOnEvent(tick=280, channel=1, data=[78, 0]),
   midi.NoteOnEvent(tick=80, channel=1, data=[76, 79]),
   midi.NoteOnEvent(tick=80, channel=1, data=[76, 0]),
   midi.NoteOnEvent(tick=40, channel=1, data=[78, 79]),
   midi.NoteOnEvent(tick=280, channel=1, data=[78, 0]),
   midi.NoteOnEvent(tick=2120, channel=1, data=[76, 79]),
   midi.NoteOnEvent(tick=80, channel=1, data=[76, 0]),
   midi.NoteOnEvent(tick=40, channel=1, data=[79, 79]),
   midi.NoteOnEvent(tick=160, channel=1, data=[79, 0]),
   midi.NoteOnEvent(tick=80, channel=1, data=[76, 79]),
   midi.NoteOnEvent(tick=80, channel=1, data=[76, 0]),
   midi.NoteOnEvent(tick=40, channel=1, data=[79, 79]),
   midi.NoteOnEvent(tick=200, channel=1, data=[79, 0]),
   midi.NoteOnEvent(tick=40, channel=1, data=[78, 79]),
   midi.NoteOnEvent(tick=80, channel=1, data=[78, 0]),
   midi.NoteOnEvent(tick=40, channel=1, data=[76, 79]),
   midi.NoteOnEvent(tick=80, channel=1, data=[76, 0]),
   midi.NoteOnEvent(tick=40, channel=1, data=[79, 79]),
   midi.NoteOnEvent(tick=280, channel=1, data=[79, 0]),
   midi.NoteOnEvent(tick=2600, channel=1, data=[76, 79]),
   midi.NoteOnEvent(tick=80, channel=1, data=[76, 0]),
   midi.NoteOnEvent(tick=40, channel=1, data=[78, 79]),
   midi.NoteOnEvent(tick=160, channel=1, data=[78, 0]),
   midi.NoteOnEvent(tick=80, channel=1, data=[76, 79]),
   midi.NoteOnEvent(tick=80, channel=1, data=[76, 0]),
   midi.NoteOnEvent(tick=40, channel=1, data=[78, 79]),
   midi.NoteOnEvent(tick=200, channel=1, data=[78, 0]),
   midi.NoteOnEvent(tick=40, channel=1, data=[78, 79]),
   midi.NoteOnEvent(tick=80, channel=1, data=[78, 0]),
   midi.NoteOnEvent(tick=40, channel=1, data=[76, 79]),
   midi.NoteOnEvent(tick=80, channel=1, data=[76, 0]),
   midi.NoteOnEvent(tick=40, channel=1, data=[78, 79]),
   midi.NoteOnEvent(tick=200, channel=1, data=[78, 0]),
   midi.NoteOnEvent(tick=40, channel=1, data=[76, 79]),
   midi.NoteOnEvent(tick=120, channel=1, data=[76, 0]),
   midi.NoteOnEvent(tick=0, channel=1, data=[78, 79]),
   midi.NoteOnEvent(tick=160, channel=1, data=[78, 0]),
   midi.NoteOnEvent(tick=2240, channel=1, data=[76, 79]),
   midi.NoteOnEvent(tick=160, channel=1, data=[76, 0]),
   midi.NoteOnEvent(tick=80, channel=1, data=[79, 79]),
   midi.NoteOnEvent(tick=160, channel=1, data=[79, 0]),
   midi.NoteOnEvent(tick=80, channel=1, data=[79, 79]),
   midi.NoteOnEvent(tick=2795, channel=1, data=[79, 0]),
   midi.NoteOnEvent(tick=85, channel=1, data=[79, 79]),
   midi.NoteOnEvent(tick=320, channel=1, data=[79, 0]),
   midi.NoteOnEvent(tick=40, channel=1, data=[76, 79]),
   midi.NoteOnEvent(tick=80, channel=1, data=[76, 0]),
   midi.NoteOnEvent(tick=40, channel=1, data=[79, 79]),
   midi.NoteOnEvent(tick=80, channel=1, data=[79, 0]),
   midi.NoteOnEvent(tick=40, channel=1, data=[78, 79]),
   midi.NoteOnEvent(tick=1240, channel=1, data=[78, 0]),
   midi.EndOfTrackEvent(tick=0, data=[])]),
 midi.Track(\
  [midi.PortEvent(tick=0, data=[0]),
   midi.TrackNameEvent(tick=0, text='Strings', data=[83, 116, 114, 105, 110, 103, 115]),
   midi.ProgramChangeEvent(tick=0, channel=2, data=[48]),
   midi.ControlChangeEvent(tick=0, channel=2, data=[7, 32]),
   midi.ControlChangeEvent(tick=480, channel=2, data=[0, 0]),
   midi.ControlChangeEvent(tick=5, channel=2, data=[32, 0]),
   midi.ControlChangeEvent(tick=10, channel=2, data=[1, 0]),
   midi.ControlChangeEvent(tick=10, channel=2, data=[10, 90]),
   midi.ControlChangeEvent(tick=5, channel=2, data=[11, 127]),
   midi.ControlChangeEvent(tick=5, channel=2, data=[64, 0]),
   midi.ControlChangeEvent(tick=5, channel=2, data=[91, 64]),
   midi.ControlChangeEvent(tick=5, channel=2, data=[93, 0]),
   midi.PitchWheelEvent(tick=5, channel=2, data=[0, 64]),
   midi.ControlChangeEvent(tick=670, channel=2, data=[91, 64]),
   midi.ControlChangeEvent(tick=90, channel=2, data=[7, 33]),
   midi.ControlChangeEvent(tick=330, channel=2, data=[7, 34]),
   midi.ControlChangeEvent(tick=300, channel=2, data=[7, 35]),
   midi.ControlChangeEvent(tick=330, channel=2, data=[7, 36]),
   midi.ControlChangeEvent(tick=330, channel=2, data=[7, 37]),
   midi.ControlChangeEvent(tick=300, channel=2, data=[7, 38]),
   midi.ControlChangeEvent(tick=330, channel=2, data=[7, 39]),
   midi.ControlChangeEvent(tick=330, channel=2, data=[7, 40]),
   midi.ControlChangeEvent(tick=300, channel=2, data=[7, 41]),
   midi.ControlChangeEvent(tick=330, channel=2, data=[7, 42]),
   midi.ControlChangeEvent(tick=330, channel=2, data=[7, 43]),
   midi.ControlChangeEvent(tick=300, channel=2, data=[7, 44]),
   midi.ControlChangeEvent(tick=330, channel=2, data=[7, 45]),
   midi.ControlChangeEvent(tick=330, channel=2, data=[7, 46]),
   midi.ControlChangeEvent(tick=300, channel=2, data=[7, 47]),
   midi.ControlChangeEvent(tick=330, channel=2, data=[7, 48]),
   midi.ControlChangeEvent(tick=330, channel=2, data=[7, 49]),
   midi.ControlChangeEvent(tick=300, channel=2, data=[7, 50]),
   midi.ControlChangeEvent(tick=330, channel=2, data=[7, 51]),
   midi.ControlChangeEvent(tick=330, channel=2, data=[7, 52]),
   midi.ControlChangeEvent(tick=300, channel=2, data=[7, 53]),
   midi.ControlChangeEvent(tick=330, channel=2, data=[7, 54]),
   midi.ControlChangeEvent(tick=330, channel=2, data=[7, 55]),
   midi.NoteOnEvent(tick=300, channel=2, data=[64, 79]),
   midi.NoteOnEvent(tick=0, channel=2, data=[55, 79]),
   midi.NoteOnEvent(tick=0, channel=2, data=[59, 79]),
   midi.ControlChangeEvent(tick=0, channel=2, data=[7, 56]),
   midi.ControlChangeEvent(tick=330, channel=2, data=[7, 57]),
   midi.ControlChangeEvent(tick=330, channel=2, data=[7, 58]),
   midi.ControlChangeEvent(tick=300, channel=2, data=[7, 59]),
   midi.ControlChangeEvent(tick=330, channel=2, data=[7, 60]),
   midi.ControlChangeEvent(tick=330, channel=2, data=[7, 61]),
   midi.ControlChangeEvent(tick=300, channel=2, data=[7, 62]),
   midi.ControlChangeEvent(tick=330, channel=2, data=[7, 63]),
   midi.NoteOnEvent(tick=305, channel=2, data=[59, 0]),
   midi.NoteOnEvent(tick=0, channel=2, data=[55, 0]),
   midi.NoteOnEvent(tick=0, channel=2, data=[64, 0]),
   midi.ControlChangeEvent(tick=25, channel=2, data=[7, 64]),
   midi.NoteOnEvent(tick=180, channel=2, data=[60, 79]),
   midi.NoteOnEvent(tick=60, channel=2, data=[60, 0]),
   midi.NoteOnEvent(tick=0, channel=2, data=[64, 79]),
   midi.NoteOnEvent(tick=60, channel=2, data=[64, 0]),
   midi.NoteOnEvent(tick=0, channel=2, data=[67, 79]),
   midi.NoteOnEvent(tick=0, channel=2, data=[60, 79]),
   midi.NoteOnEvent(tick=0, channel=2, data=[64, 79]),
   midi.ControlChangeEvent(tick=0, channel=2, data=[7, 65]),
   midi.ControlChangeEvent(tick=330, channel=2, data=[7, 66]),
   midi.ControlChangeEvent(tick=330, channel=2, data=[7, 67]),
   midi.ControlChangeEvent(tick=300, channel=2, data=[7, 68]),
   midi.ControlChangeEvent(tick=330, channel=2, data=[7, 69]),
   midi.ControlChangeEvent(tick=330, channel=2, data=[7, 70]),
   midi.ControlChangeEvent(tick=300, channel=2, data=[7, 71]),
   midi.ControlChangeEvent(tick=330, channel=2, data=[7, 72]),
   midi.NoteOnEvent(tick=305, channel=2, data=[64, 0]),
   midi.NoteOnEvent(tick=0, channel=2, data=[60, 0]),
   midi.NoteOnEvent(tick=0, channel=2, data=[67, 0]),
   midi.ControlChangeEvent(tick=25, channel=2, data=[7, 73]),
   midi.NoteOnEvent(tick=180, channel=2, data=[55, 79]),
   midi.NoteOnEvent(tick=60, channel=2, data=[55, 0]),
   midi.NoteOnEvent(tick=0, channel=2, data=[59, 79]),
   midi.NoteOnEvent(tick=60, channel=2, data=[59, 0]),
   midi.NoteOnEvent(tick=0, channel=2, data=[64, 79]),
   midi.NoteOnEvent(tick=0, channel=2, data=[55, 79]),
   midi.NoteOnEvent(tick=0, channel=2, data=[59, 79]),
   midi.ControlChangeEvent(tick=0, channel=2, data=[7, 74]),
   midi.ControlChangeEvent(tick=330, channel=2, data=[7, 75]),
   midi.ControlChangeEvent(tick=330, channel=2, data=[7, 76]),
   midi.ControlChangeEvent(tick=300, channel=2, data=[7, 77]),
   midi.ControlChangeEvent(tick=330, channel=2, data=[7, 78]),
   midi.ControlChangeEvent(tick=330, channel=2, data=[7, 79]),
   midi.ControlChangeEvent(tick=300, channel=2, data=[7, 80]),
   midi.ControlChangeEvent(tick=330, channel=2, data=[7, 81]),
   midi.NoteOnEvent(tick=305, channel=2, data=[59, 0]),
   midi.NoteOnEvent(tick=0, channel=2, data=[55, 0]),
   midi.NoteOnEvent(tick=0, channel=2, data=[64, 0]),
   midi.ControlChangeEvent(tick=25, channel=2, data=[7, 82]),
   midi.ControlChangeEvent(tick=30, channel=2, data=[7, 83]),
   midi.ControlChangeEvent(tick=0, channel=2, data=[7, 96]),
   midi.NoteOnEvent(tick=150, channel=2, data=[55, 79]),
   midi.NoteOnEvent(tick=60, channel=2, data=[55, 0]),
   midi.NoteOnEvent(tick=0, channel=2, data=[59, 79]),
   midi.NoteOnEvent(tick=60, channel=2, data=[59, 0]),
   midi.NoteOnEvent(tick=0, channel=2, data=[64, 79]),
   midi.NoteOnEvent(tick=0, channel=2, data=[55, 79]),
   midi.NoteOnEvent(tick=0, channel=2, data=[59, 79]),
   midi.ControlChangeEvent(tick=0, channel=2, data=[7, 83]),
   midi.ControlChangeEvent(tick=60, channel=2, data=[7, 83]),
   midi.NoteOnEvent(tick=1535, channel=2, data=[59, 0]),
   midi.NoteOnEvent(tick=0, channel=2, data=[55, 0]),
   midi.NoteOnEvent(tick=0, channel=2, data=[64, 0]),
   midi.NoteOnEvent(tick=325, channel=2, data=[67, 79]),
   midi.NoteOnEvent(tick=0, channel=2, data=[59, 79]),
   midi.NoteOnEvent(tick=0, channel=2, data=[64, 79]),
   midi.NoteOnEvent(tick=1595, channel=2, data=[64, 0]),
   midi.NoteOnEvent(tick=0, channel=2, data=[59, 0]),
   midi.NoteOnEvent(tick=0, channel=2, data=[67, 0]),
   midi.NoteOnEvent(tick=325, channel=2, data=[64, 79]),
   midi.NoteOnEvent(tick=0, channel=2, data=[55, 79]),
   midi.NoteOnEvent(tick=0, channel=2, data=[59, 79]),
   midi.NoteOnEvent(tick=3515, channel=2, data=[59, 0]),
   midi.NoteOnEvent(tick=0, channel=2, data=[55, 0]),
   midi.NoteOnEvent(tick=0, channel=2, data=[64, 0]),
   midi.NoteOnEvent(tick=325, channel=2, data=[67, 79]),
   midi.NoteOnEvent(tick=0, channel=2, data=[59, 79]),
   midi.NoteOnEvent(tick=0, channel=2, data=[64, 79]),
   midi.NoteOnEvent(tick=1595, channel=2, data=[64, 0]),
   midi.NoteOnEvent(tick=0, channel=2, data=[59, 0]),
   midi.NoteOnEvent(tick=0, channel=2, data=[67, 0]),
   midi.NoteOnEvent(tick=325, channel=2, data=[69, 79]),
   midi.NoteOnEvent(tick=0, channel=2, data=[60, 79]),
   midi.NoteOnEvent(tick=0, channel=2, data=[64, 79]),
   midi.NoteOnEvent(tick=1435, channel=2, data=[64, 0]),
   midi.NoteOnEvent(tick=0, channel=2, data=[60, 0]),
   midi.NoteOnEvent(tick=0, channel=2, data=[69, 0]),
   midi.NoteOnEvent(tick=245, channel=2, data=[71, 79]),
   midi.NoteOnEvent(tick=0, channel=2, data=[64, 79]),
   midi.NoteOnEvent(tick=0, channel=2, data=[67, 79]),
   midi.NoteOnEvent(tick=3515, channel=2, data=[67, 0]),
   midi.NoteOnEvent(tick=0, channel=2, data=[64, 0]),
   midi.NoteOnEvent(tick=0, channel=2, data=[71, 0]),
   midi.NoteOnEvent(tick=325, channel=2, data=[71, 79]),
   midi.NoteOnEvent(tick=0, channel=2, data=[60, 79]),
   midi.NoteOnEvent(tick=0, channel=2, data=[64, 79]),
   midi.NoteOnEvent(tick=0, channel=2, data=[67, 79]),
   midi.NoteOnEvent(tick=1595, channel=2, data=[67, 0]),
   midi.NoteOnEvent(tick=0, channel=2, data=[71, 0]),
   midi.NoteOnEvent(tick=0, channel=2, data=[60, 0]),
   midi.NoteOnEvent(tick=0, channel=2, data=[64, 0]),
   midi.NoteOnEvent(tick=325, channel=2, data=[88, 79]),
   midi.NoteOnEvent(tick=0, channel=2, data=[76, 79]),
   midi.NoteOnEvent(tick=0, channel=2, data=[79, 79]),
   midi.NoteOnEvent(tick=0, channel=2, data=[83, 79]),
   midi.NoteOnEvent(tick=1595, channel=2, data=[83, 0]),
   midi.NoteOnEvent(tick=0, channel=2, data=[88, 0]),
   midi.NoteOnEvent(tick=0, channel=2, data=[76, 0]),
   midi.NoteOnEvent(tick=0, channel=2, data=[79, 0]),
   midi.NoteOnEvent(tick=325, channel=2, data=[64, 79]),
   midi.NoteOnEvent(tick=0, channel=2, data=[55, 79]),
   midi.NoteOnEvent(tick=0, channel=2, data=[59, 79]),
   midi.NoteOnEvent(tick=1595, channel=2, data=[59, 0]),
   midi.NoteOnEvent(tick=0, channel=2, data=[55, 0]),
   midi.NoteOnEvent(tick=0, channel=2, data=[64, 0]),
   midi.NoteOnEvent(tick=325, channel=2, data=[78, 79]),
   midi.NoteOnEvent(tick=0, channel=2, data=[67, 79]),
   midi.NoteOnEvent(tick=0, channel=2, data=[71, 79]),
   midi.NoteOnEvent(tick=0, channel=2, data=[74, 79]),
   midi.NoteOnEvent(tick=1595, channel=2, data=[74, 0]),
   midi.NoteOnEvent(tick=0, channel=2, data=[78, 0]),
   midi.NoteOnEvent(tick=0, channel=2, data=[67, 0]),
   midi.NoteOnEvent(tick=0, channel=2, data=[71, 0]),
   midi.NoteOnEvent(tick=325, channel=2, data=[71, 79]),
   midi.NoteOnEvent(tick=0, channel=2, data=[60, 79]),
   midi.NoteOnEvent(tick=0, channel=2, data=[64, 79]),
   midi.NoteOnEvent(tick=0, channel=2, data=[67, 79]),
   midi.NoteOnEvent(tick=1595, channel=2, data=[67, 0]),
   midi.NoteOnEvent(tick=0, channel=2, data=[71, 0]),
   midi.NoteOnEvent(tick=0, channel=2, data=[60, 0]),
   midi.NoteOnEvent(tick=0, channel=2, data=[64, 0]),
   midi.NoteOnEvent(tick=325, channel=2, data=[88, 79]),
   midi.NoteOnEvent(tick=0, channel=2, data=[76, 79]),
   midi.NoteOnEvent(tick=0, channel=2, data=[79, 79]),
   midi.NoteOnEvent(tick=0, channel=2, data=[83, 79]),
   midi.NoteOnEvent(tick=1595, channel=2, data=[83, 0]),
   midi.NoteOnEvent(tick=0, channel=2, data=[88, 0]),
   midi.NoteOnEvent(tick=0, channel=2, data=[76, 0]),
   midi.NoteOnEvent(tick=0, channel=2, data=[79, 0]),
   midi.NoteOnEvent(tick=325, channel=2, data=[64, 79]),
   midi.NoteOnEvent(tick=0, channel=2, data=[55, 79]),
   midi.NoteOnEvent(tick=0, channel=2, data=[59, 79]),
   midi.NoteOnEvent(tick=2555, channel=2, data=[59, 0]),
   midi.NoteOnEvent(tick=0, channel=2, data=[55, 0]),
   midi.NoteOnEvent(tick=0, channel=2, data=[64, 0]),
   midi.NoteOnEvent(tick=325, channel=2, data=[83, 79]),
   midi.NoteOnEvent(tick=0, channel=2, data=[76, 79]),
   midi.NoteOnEvent(tick=0, channel=2, data=[79, 79]),
   midi.NoteOnEvent(tick=3515, channel=2, data=[79, 0]),
   midi.NoteOnEvent(tick=0, channel=2, data=[76, 0]),
   midi.NoteOnEvent(tick=0, channel=2, data=[83, 0]),
   midi.NoteOnEvent(tick=85, channel=2, data=[59, 79]),
   midi.NoteOnEvent(tick=60, channel=2, data=[59, 0]),
   midi.NoteOnEvent(tick=60, channel=2, data=[64, 79]),
   midi.NoteOnEvent(tick=60, channel=2, data=[64, 0]),
   midi.NoteOnEvent(tick=60, channel=2, data=[64, 79]),
   midi.NoteOnEvent(tick=0, channel=2, data=[59, 79]),
   midi.NoteOnEvent(tick=0, channel=2, data=[67, 79]),
   midi.NoteOnEvent(tick=475, channel=2, data=[67, 0]),
   midi.NoteOnEvent(tick=0, channel=2, data=[59, 0]),
   midi.NoteOnEvent(tick=0, channel=2, data=[64, 0]),
   midi.NoteOnEvent(tick=245, channel=2, data=[64, 79]),
   midi.NoteOnEvent(tick=0, channel=2, data=[59, 79]),
   midi.NoteOnEvent(tick=0, channel=2, data=[67, 79]),
   midi.NoteOnEvent(tick=80, channel=2, data=[67, 0]),
   midi.NoteOnEvent(tick=0, channel=2, data=[59, 0]),
   midi.NoteOnEvent(tick=0, channel=2, data=[64, 0]),
   midi.NoteOnEvent(tick=40, channel=2, data=[64, 79]),
   midi.NoteOnEvent(tick=0, channel=2, data=[59, 79]),
   midi.NoteOnEvent(tick=0, channel=2, data=[67, 79]),
   midi.NoteOnEvent(tick=80, channel=2, data=[67, 0]),
   midi.NoteOnEvent(tick=0, channel=2, data=[59, 0]),
   midi.NoteOnEvent(tick=0, channel=2, data=[64, 0]),
   midi.NoteOnEvent(tick=40, channel=2, data=[67, 79]),
   midi.NoteOnEvent(tick=0, channel=2, data=[64, 79]),
   midi.NoteOnEvent(tick=0, channel=2, data=[60, 79]),
   midi.NoteOnEvent(tick=0, channel=2, data=[71, 79]),
   midi.NoteOnEvent(tick=475, channel=2, data=[71, 0]),
   midi.NoteOnEvent(tick=0, channel=2, data=[67, 0]),
   midi.NoteOnEvent(tick=0, channel=2, data=[64, 0]),
   midi.NoteOnEvent(tick=0, channel=2, data=[60, 0]),
   midi.NoteOnEvent(tick=245, channel=2, data=[67, 79]),
   midi.NoteOnEvent(tick=0, channel=2, data=[64, 79]),
   midi.NoteOnEvent(tick=0, channel=2, data=[60, 79]),
   midi.NoteOnEvent(tick=0, channel=2, data=[71, 79]),
   midi.NoteOnEvent(tick=80, channel=2, data=[71, 0]),
   midi.NoteOnEvent(tick=0, channel=2, data=[67, 0]),
   midi.NoteOnEvent(tick=0, channel=2, data=[64, 0]),
   midi.NoteOnEvent(tick=0, channel=2, data=[60, 0]),
   midi.NoteOnEvent(tick=40, channel=2, data=[67, 79]),
   midi.NoteOnEvent(tick=0, channel=2, data=[64, 79]),
   midi.NoteOnEvent(tick=0, channel=2, data=[60, 79]),
   midi.NoteOnEvent(tick=0, channel=2, data=[71, 79]),
   midi.NoteOnEvent(tick=80, channel=2, data=[71, 0]),
   midi.NoteOnEvent(tick=0, channel=2, data=[67, 0]),
   midi.NoteOnEvent(tick=0, channel=2, data=[64, 0]),
   midi.NoteOnEvent(tick=0, channel=2, data=[60, 0]),
   midi.NoteOnEvent(tick=40, channel=2, data=[71, 79]),
   midi.NoteOnEvent(tick=0, channel=2, data=[67, 79]),
   midi.NoteOnEvent(tick=0, channel=2, data=[76, 79]),
   midi.NoteOnEvent(tick=475, channel=2, data=[76, 0]),
   midi.NoteOnEvent(tick=0, channel=2, data=[67, 0]),
   midi.NoteOnEvent(tick=0, channel=2, data=[71, 0]),
   midi.NoteOnEvent(tick=245, channel=2, data=[71, 79]),
   midi.NoteOnEvent(tick=0, channel=2, data=[67, 79]),
   midi.NoteOnEvent(tick=0, channel=2, data=[76, 79]),
   midi.NoteOnEvent(tick=80, channel=2, data=[76, 0]),
   midi.NoteOnEvent(tick=0, channel=2, data=[67, 0]),
   midi.NoteOnEvent(tick=0, channel=2, data=[71, 0]),
   midi.NoteOnEvent(tick=40, channel=2, data=[71, 79]),
   midi.NoteOnEvent(tick=0, channel=2, data=[67, 79]),
   midi.NoteOnEvent(tick=0, channel=2, data=[76, 79]),
   midi.NoteOnEvent(tick=80, channel=2, data=[76, 0]),
   midi.NoteOnEvent(tick=0, channel=2, data=[67, 0]),
   midi.NoteOnEvent(tick=0, channel=2, data=[71, 0]),
   midi.NoteOnEvent(tick=40, channel=2, data=[76, 79]),
   midi.NoteOnEvent(tick=0, channel=2, data=[71, 79]),
   midi.NoteOnEvent(tick=0, channel=2, data=[79, 79]),
   midi.NoteOnEvent(tick=635, channel=2, data=[79, 0]),
   midi.NoteOnEvent(tick=0, channel=2, data=[71, 0]),
   midi.NoteOnEvent(tick=0, channel=2, data=[76, 0]),
   midi.NoteOnEvent(tick=325, channel=2, data=[83, 79]),
   midi.NoteOnEvent(tick=0, channel=2, data=[76, 79]),
   midi.NoteOnEvent(tick=0, channel=2, data=[79, 79]),
   midi.NoteOnEvent(tick=3515, channel=2, data=[79, 0]),
   midi.NoteOnEvent(tick=0, channel=2, data=[76, 0]),
   midi.NoteOnEvent(tick=0, channel=2, data=[83, 0]),
   midi.NoteOnEvent(tick=325, channel=2, data=[71, 79]),
   midi.NoteOnEvent(tick=0, channel=2, data=[67, 79]),
   midi.NoteOnEvent(tick=0, channel=2, data=[76, 79]),
   midi.NoteOnEvent(tick=310, channel=2, data=[67, 0]),
   midi.NoteOnEvent(tick=0, channel=2, data=[71, 0]),
   midi.NoteOnEvent(tick=5, channel=2, data=[76, 0]),
   midi.NoteOnEvent(tick=165, channel=2, data=[71, 79]),
   midi.NoteOnEvent(tick=0, channel=2, data=[67, 79]),
   midi.NoteOnEvent(tick=0, channel=2, data=[76, 79]),
   midi.NoteOnEvent(tick=310, channel=2, data=[67, 0]),
   midi.NoteOnEvent(tick=0, channel=2, data=[71, 0]),
   midi.NoteOnEvent(tick=5, channel=2, data=[76, 0]),
   midi.NoteOnEvent(tick=165, channel=2, data=[71, 79]),
   midi.NoteOnEvent(tick=0, channel=2, data=[67, 79]),
   midi.NoteOnEvent(tick=0, channel=2, data=[76, 79]),
   midi.NoteOnEvent(tick=310, channel=2, data=[76, 0]),
   midi.NoteOnEvent(tick=0, channel=2, data=[67, 0]),
   midi.NoteOnEvent(tick=0, channel=2, data=[71, 0]),
   midi.NoteOnEvent(tick=170, channel=2, data=[71, 79]),
   midi.NoteOnEvent(tick=0, channel=2, data=[67, 79]),
   midi.NoteOnEvent(tick=0, channel=2, data=[76, 79]),
   midi.NoteOnEvent(tick=80, channel=2, data=[76, 0]),
   midi.NoteOnEvent(tick=0, channel=2, data=[67, 0]),
   midi.NoteOnEvent(tick=0, channel=2, data=[71, 0]),
   midi.NoteOnEvent(tick=40, channel=2, data=[71, 79]),
   midi.NoteOnEvent(tick=0, channel=2, data=[67, 79]),
   midi.NoteOnEvent(tick=0, channel=2, data=[76, 79]),
   midi.NoteOnEvent(tick=280, channel=2, data=[76, 0]),
   midi.NoteOnEvent(tick=0, channel=2, data=[67, 0]),
   midi.NoteOnEvent(tick=0, channel=2, data=[71, 0]),
   midi.NoteOnEvent(tick=80, channel=2, data=[67, 79]),
   midi.NoteOnEvent(tick=0, channel=2, data=[71, 79]),
   midi.NoteOnEvent(tick=0, channel=2, data=[76, 79]),
   midi.NoteOnEvent(tick=315, channel=2, data=[76, 0]),
   midi.NoteOnEvent(tick=0, channel=2, data=[71, 0]),
   midi.NoteOnEvent(tick=0, channel=2, data=[67, 0]),
   midi.NoteOnEvent(tick=165, channel=2, data=[67, 79]),
   midi.NoteOnEvent(tick=0, channel=2, data=[71, 79]),
   midi.NoteOnEvent(tick=0, channel=2, data=[76, 79]),
   midi.NoteOnEvent(tick=310, channel=2, data=[76, 0]),
   midi.NoteOnEvent(tick=0, channel=2, data=[71, 0]),
   midi.NoteOnEvent(tick=0, channel=2, data=[67, 0]),
   midi.NoteOnEvent(tick=170, channel=2, data=[71, 79]),
   midi.NoteOnEvent(tick=0, channel=2, data=[67, 79]),
   midi.NoteOnEvent(tick=0, channel=2, data=[76, 79]),
   midi.NoteOnEvent(tick=310, channel=2, data=[76, 0]),
   midi.NoteOnEvent(tick=0, channel=2, data=[67, 0]),
   midi.NoteOnEvent(tick=0, channel=2, data=[71, 0]),
   midi.NoteOnEvent(tick=170, channel=2, data=[71, 79]),
   midi.NoteOnEvent(tick=0, channel=2, data=[67, 79]),
   midi.NoteOnEvent(tick=0, channel=2, data=[76, 79]),
   midi.NoteOnEvent(tick=75, channel=2, data=[76, 0]),
   midi.NoteOnEvent(tick=0, channel=2, data=[67, 0]),
   midi.NoteOnEvent(tick=0, channel=2, data=[71, 0]),
   midi.NoteOnEvent(tick=45, channel=2, data=[71, 79]),
   midi.NoteOnEvent(tick=0, channel=2, data=[67, 79]),
   midi.NoteOnEvent(tick=0, channel=2, data=[76, 79]),
   midi.NoteOnEvent(tick=280, channel=2, data=[76, 0]),
   midi.NoteOnEvent(tick=0, channel=2, data=[67, 0]),
   midi.NoteOnEvent(tick=0, channel=2, data=[71, 0]),
   midi.NoteOnEvent(tick=80, channel=2, data=[83, 79]),
   midi.NoteOnEvent(tick=0, channel=2, data=[79, 79]),
   midi.NoteOnEvent(tick=3505, channel=2, data=[79, 0]),
   midi.NoteOnEvent(tick=10, channel=2, data=[83, 0]),
   midi.NoteOnEvent(tick=325, channel=2, data=[76, 79]),
   midi.NoteOnEvent(tick=0, channel=2, data=[71, 79]),
   midi.NoteOnEvent(tick=3505, channel=2, data=[71, 0]),
   midi.NoteOnEvent(tick=10, channel=2, data=[76, 0]),
   midi.NoteOnEvent(tick=325, channel=2, data=[59, 79]),
   midi.NoteOnEvent(tick=0, channel=2, data=[55, 79]),
   midi.NoteOnEvent(tick=0, channel=2, data=[64, 79]),
   midi.NoteOnEvent(tick=475, channel=2, data=[64, 0]),
   midi.NoteOnEvent(tick=0, channel=2, data=[55, 0]),
   midi.NoteOnEvent(tick=0, channel=2, data=[59, 0]),
   midi.NoteOnEvent(tick=245, channel=2, data=[59, 79]),
   midi.NoteOnEvent(tick=0, channel=2, data=[55, 79]),
   midi.NoteOnEvent(tick=0, channel=2, data=[64, 79]),
   midi.NoteOnEvent(tick=475, channel=2, data=[64, 0]),
   midi.NoteOnEvent(tick=0, channel=2, data=[55, 0]),
   midi.NoteOnEvent(tick=0, channel=2, data=[59, 0]),
   midi.NoteOnEvent(tick=245, channel=2, data=[55, 79]),
   midi.NoteOnEvent(tick=0, channel=2, data=[59, 79]),
   midi.NoteOnEvent(tick=475, channel=2, data=[59, 0]),
   midi.NoteOnEvent(tick=0, channel=2, data=[55, 0]),
   midi.NoteOnEvent(tick=245, channel=2, data=[59, 79]),
   midi.NoteOnEvent(tick=0, channel=2, data=[64, 79]),
   midi.NoteOnEvent(tick=475, channel=2, data=[64, 0]),
   midi.NoteOnEvent(tick=0, channel=2, data=[59, 0]),
   midi.NoteOnEvent(tick=245, channel=2, data=[59, 79]),
   midi.NoteOnEvent(tick=0, channel=2, data=[64, 79]),
   midi.NoteOnEvent(tick=475, channel=2, data=[64, 0]),
   midi.NoteOnEvent(tick=0, channel=2, data=[59, 0]),
   midi.NoteOnEvent(tick=245, channel=2, data=[64, 79]),
   midi.NoteOnEvent(tick=0, channel=2, data=[59, 79]),
   midi.NoteOnEvent(tick=0, channel=2, data=[67, 79]),
   midi.NoteOnEvent(tick=475, channel=2, data=[67, 0]),
   midi.NoteOnEvent(tick=0, channel=2, data=[59, 0]),
   midi.NoteOnEvent(tick=0, channel=2, data=[64, 0]),
   midi.NoteOnEvent(tick=245, channel=2, data=[59, 79]),
   midi.NoteOnEvent(tick=0, channel=2, data=[64, 79]),
   midi.NoteOnEvent(tick=475, channel=2, data=[64, 0]),
   midi.NoteOnEvent(tick=0, channel=2, data=[59, 0]),
   midi.NoteOnEvent(tick=245, channel=2, data=[59, 79]),
   midi.NoteOnEvent(tick=0, channel=2, data=[64, 79]),
   midi.NoteOnEvent(tick=475, channel=2, data=[64, 0]),
   midi.NoteOnEvent(tick=0, channel=2, data=[59, 0]),
   midi.NoteOnEvent(tick=245, channel=2, data=[79, 79]),
   midi.NoteOnEvent(tick=0, channel=2, data=[72, 79]),
   midi.NoteOnEvent(tick=0, channel=2, data=[76, 79]),
   midi.NoteOnEvent(tick=1195, channel=2, data=[76, 0]),
   midi.NoteOnEvent(tick=0, channel=2, data=[72, 0]),
   midi.NoteOnEvent(tick=0, channel=2, data=[79, 0]),
   midi.NoteOnEvent(tick=245, channel=2, data=[71, 111]),
   midi.NoteOnEvent(tick=0, channel=2, data=[76, 111]),
   midi.NoteOnEvent(tick=470, channel=2, data=[76, 0]),
   midi.NoteOnEvent(tick=0, channel=2, data=[71, 0]),
   midi.NoteOnEvent(tick=250, channel=2, data=[72, 111]),
   midi.NoteOnEvent(tick=0, channel=2, data=[76, 111]),
   midi.NoteOnEvent(tick=470, channel=2, data=[76, 0]),
   midi.NoteOnEvent(tick=0, channel=2, data=[72, 0]),
   midi.NoteOnEvent(tick=250, channel=2, data=[76, 111]),
   midi.NoteOnEvent(tick=0, channel=2, data=[67, 111]),
   midi.NoteOnEvent(tick=0, channel=2, data=[71, 111]),
   midi.NoteOnEvent(tick=2635, channel=2, data=[71, 0]),
   midi.NoteOnEvent(tick=0, channel=2, data=[67, 0]),
   midi.NoteOnEvent(tick=0, channel=2, data=[76, 0]),
   midi.NoteOnEvent(tick=245, channel=2, data=[59, 79]),
   midi.NoteOnEvent(tick=0, channel=2, data=[55, 79]),
   midi.NoteOnEvent(tick=0, channel=2, data=[64, 79]),
   midi.NoteOnEvent(tick=470, channel=2, data=[64, 0]),
   midi.NoteOnEvent(tick=0, channel=2, data=[55, 0]),
   midi.NoteOnEvent(tick=0, channel=2, data=[59, 0]),
   midi.NoteOnEvent(tick=250, channel=2, data=[59, 79]),
   midi.NoteOnEvent(tick=0, channel=2, data=[55, 79]),
   midi.NoteOnEvent(tick=0, channel=2, data=[64, 79]),
   midi.NoteOnEvent(tick=470, channel=2, data=[64, 0]),
   midi.NoteOnEvent(tick=0, channel=2, data=[55, 0]),
   midi.NoteOnEvent(tick=0, channel=2, data=[59, 0]),
   midi.NoteOnEvent(tick=250, channel=2, data=[55, 79]),
   midi.NoteOnEvent(tick=0, channel=2, data=[59, 79]),
   midi.NoteOnEvent(tick=470, channel=2, data=[59, 0]),
   midi.NoteOnEvent(tick=0, channel=2, data=[55, 0]),
   midi.NoteOnEvent(tick=250, channel=2, data=[59, 79]),
   midi.NoteOnEvent(tick=0, channel=2, data=[64, 79]),
   midi.NoteOnEvent(tick=470, channel=2, data=[64, 0]),
   midi.NoteOnEvent(tick=0, channel=2, data=[59, 0]),
   midi.NoteOnEvent(tick=250, channel=2, data=[59, 79]),
   midi.NoteOnEvent(tick=0, channel=2, data=[64, 79]),
   midi.NoteOnEvent(tick=475, channel=2, data=[64, 0]),
   midi.NoteOnEvent(tick=0, channel=2, data=[59, 0]),
   midi.NoteOnEvent(tick=245, channel=2, data=[64, 79]),
   midi.NoteOnEvent(tick=0, channel=2, data=[59, 79]),
   midi.NoteOnEvent(tick=0, channel=2, data=[67, 79]),
   midi.NoteOnEvent(tick=475, channel=2, data=[67, 0]),
   midi.NoteOnEvent(tick=0, channel=2, data=[59, 0]),
   midi.NoteOnEvent(tick=0, channel=2, data=[64, 0]),
   midi.NoteOnEvent(tick=245, channel=2, data=[59, 79]),
   midi.NoteOnEvent(tick=0, channel=2, data=[64, 79]),
   midi.NoteOnEvent(tick=475, channel=2, data=[64, 0]),
   midi.NoteOnEvent(tick=0, channel=2, data=[59, 0]),
   midi.NoteOnEvent(tick=245, channel=2, data=[59, 79]),
   midi.NoteOnEvent(tick=0, channel=2, data=[64, 79]),
   midi.NoteOnEvent(tick=475, channel=2, data=[64, 0]),
   midi.NoteOnEvent(tick=0, channel=2, data=[59, 0]),
   midi.NoteOnEvent(tick=245, channel=2, data=[79, 79]),
   midi.NoteOnEvent(tick=0, channel=2, data=[72, 79]),
   midi.NoteOnEvent(tick=0, channel=2, data=[76, 79]),
   midi.NoteOnEvent(tick=1195, channel=2, data=[76, 0]),
   midi.NoteOnEvent(tick=0, channel=2, data=[72, 0]),
   midi.NoteOnEvent(tick=0, channel=2, data=[79, 0]),
   midi.NoteOnEvent(tick=245, channel=2, data=[71, 79]),
   midi.NoteOnEvent(tick=0, channel=2, data=[76, 79]),
   midi.NoteOnEvent(tick=475, channel=2, data=[76, 0]),
   midi.NoteOnEvent(tick=0, channel=2, data=[71, 0]),
   midi.NoteOnEvent(tick=245, channel=2, data=[72, 79]),
   midi.NoteOnEvent(tick=0, channel=2, data=[76, 79]),
   midi.NoteOnEvent(tick=475, channel=2, data=[76, 0]),
   midi.NoteOnEvent(tick=0, channel=2, data=[72, 0]),
   midi.NoteOnEvent(tick=245, channel=2, data=[76, 79]),
   midi.NoteOnEvent(tick=0, channel=2, data=[67, 79]),
   midi.NoteOnEvent(tick=0, channel=2, data=[71, 79]),
   midi.NoteOnEvent(tick=2635, channel=2, data=[71, 0]),
   midi.NoteOnEvent(tick=0, channel=2, data=[67, 0]),
   midi.NoteOnEvent(tick=0, channel=2, data=[76, 0]),
   midi.NoteOnEvent(tick=245, channel=2, data=[67, 79]),
   midi.NoteOnEvent(tick=0, channel=2, data=[64, 79]),
   midi.NoteOnEvent(tick=0, channel=2, data=[60, 79]),
   midi.NoteOnEvent(tick=0, channel=2, data=[71, 79]),
   midi.NoteOnEvent(tick=470, channel=2, data=[71, 0]),
   midi.NoteOnEvent(tick=0, channel=2, data=[67, 0]),
   midi.NoteOnEvent(tick=0, channel=2, data=[64, 0]),
   midi.NoteOnEvent(tick=0, channel=2, data=[60, 0]),
   midi.NoteOnEvent(tick=250, channel=2, data=[67, 79]),
   midi.NoteOnEvent(tick=0, channel=2, data=[64, 79]),
   midi.NoteOnEvent(tick=0, channel=2, data=[60, 79]),
   midi.NoteOnEvent(tick=0, channel=2, data=[71, 79]),
   midi.NoteOnEvent(tick=470, channel=2, data=[71, 0]),
   midi.NoteOnEvent(tick=0, channel=2, data=[67, 0]),
   midi.NoteOnEvent(tick=0, channel=2, data=[64, 0]),
   midi.NoteOnEvent(tick=0, channel=2, data=[60, 0]),
   midi.NoteOnEvent(tick=250, channel=2, data=[64, 79]),
   midi.NoteOnEvent(tick=0, channel=2, data=[59, 79]),
   midi.NoteOnEvent(tick=0, channel=2, data=[67, 79]),
   midi.NoteOnEvent(tick=470, channel=2, data=[67, 0]),
   midi.NoteOnEvent(tick=0, channel=2, data=[59, 0]),
   midi.NoteOnEvent(tick=0, channel=2, data=[64, 0]),
   midi.NoteOnEvent(tick=250, channel=2, data=[64, 79]),
   midi.NoteOnEvent(tick=0, channel=2, data=[59, 79]),
   midi.NoteOnEvent(tick=0, channel=2, data=[67, 79]),
   midi.NoteOnEvent(tick=160, channel=2, data=[67, 0]),
   midi.NoteOnEvent(tick=0, channel=2, data=[59, 0]),
   midi.NoteOnEvent(tick=0, channel=2, data=[64, 0]),
   midi.NoteOnEvent(tick=80, channel=2, data=[64, 79]),
   midi.NoteOnEvent(tick=0, channel=2, data=[59, 79]),
   midi.NoteOnEvent(tick=0, channel=2, data=[67, 79]),
   midi.NoteOnEvent(tick=80, channel=2, data=[67, 0]),
   midi.NoteOnEvent(tick=0, channel=2, data=[59, 0]),
   midi.NoteOnEvent(tick=0, channel=2, data=[64, 0]),
   midi.NoteOnEvent(tick=40, channel=2, data=[64, 79]),
   midi.NoteOnEvent(tick=0, channel=2, data=[59, 79]),
   midi.NoteOnEvent(tick=0, channel=2, data=[67, 79]),
   midi.NoteOnEvent(tick=80, channel=2, data=[67, 0]),
   midi.NoteOnEvent(tick=0, channel=2, data=[59, 0]),
   midi.NoteOnEvent(tick=0, channel=2, data=[64, 0]),
   midi.NoteOnEvent(tick=40, channel=2, data=[64, 79]),
   midi.NoteOnEvent(tick=0, channel=2, data=[59, 79]),
   midi.NoteOnEvent(tick=0, channel=2, data=[67, 79]),
   midi.NoteOnEvent(tick=160, channel=2, data=[67, 0]),
   midi.NoteOnEvent(tick=0, channel=2, data=[59, 0]),
   midi.NoteOnEvent(tick=0, channel=2, data=[64, 0]),
   midi.NoteOnEvent(tick=80, channel=2, data=[67, 79]),
   midi.NoteOnEvent(tick=0, channel=2, data=[64, 79]),
   midi.NoteOnEvent(tick=0, channel=2, data=[60, 79]),
   midi.NoteOnEvent(tick=0, channel=2, data=[71, 79]),
   midi.NoteOnEvent(tick=475, channel=2, data=[71, 0]),
   midi.NoteOnEvent(tick=0, channel=2, data=[67, 0]),
   midi.NoteOnEvent(tick=0, channel=2, data=[64, 0]),
   midi.NoteOnEvent(tick=0, channel=2, data=[60, 0]),
   midi.NoteOnEvent(tick=245, channel=2, data=[71, 79]),
   midi.NoteOnEvent(tick=0, channel=2, data=[67, 79]),
   midi.NoteOnEvent(tick=0, channel=2, data=[64, 79]),
   midi.NoteOnEvent(tick=0, channel=2, data=[60, 79]),
   midi.NoteOnEvent(tick=475, channel=2, data=[60, 0]),
   midi.NoteOnEvent(tick=0, channel=2, data=[71, 0]),
   midi.NoteOnEvent(tick=0, channel=2, data=[67, 0]),
   midi.NoteOnEvent(tick=0, channel=2, data=[64, 0]),
   midi.NoteOnEvent(tick=245, channel=2, data=[64, 79]),
   midi.NoteOnEvent(tick=0, channel=2, data=[59, 79]),
   midi.NoteOnEvent(tick=0, channel=2, data=[67, 79]),
   midi.NoteOnEvent(tick=470, channel=2, data=[67, 0]),
   midi.NoteOnEvent(tick=0, channel=2, data=[59, 0]),
   midi.NoteOnEvent(tick=0, channel=2, data=[64, 0]),
   midi.NoteOnEvent(tick=250, channel=2, data=[64, 79]),
   midi.NoteOnEvent(tick=0, channel=2, data=[59, 79]),
   midi.NoteOnEvent(tick=0, channel=2, data=[67, 79]),
   midi.NoteOnEvent(tick=155, channel=2, data=[67, 0]),
   midi.NoteOnEvent(tick=0, channel=2, data=[59, 0]),
   midi.NoteOnEvent(tick=0, channel=2, data=[64, 0]),
   midi.NoteOnEvent(tick=85, channel=2, data=[64, 79]),
   midi.NoteOnEvent(tick=0, channel=2, data=[59, 79]),
   midi.NoteOnEvent(tick=0, channel=2, data=[67, 79]),
   midi.NoteOnEvent(tick=80, channel=2, data=[67, 0]),
   midi.NoteOnEvent(tick=0, channel=2, data=[59, 0]),
   midi.NoteOnEvent(tick=0, channel=2, data=[64, 0]),
   midi.NoteOnEvent(tick=40, channel=2, data=[64, 79]),
   midi.NoteOnEvent(tick=0, channel=2, data=[59, 79]),
   midi.NoteOnEvent(tick=0, channel=2, data=[67, 79]),
   midi.NoteOnEvent(tick=80, channel=2, data=[67, 0]),
   midi.NoteOnEvent(tick=0, channel=2, data=[59, 0]),
   midi.NoteOnEvent(tick=0, channel=2, data=[64, 0]),
   midi.NoteOnEvent(tick=40, channel=2, data=[64, 79]),
   midi.NoteOnEvent(tick=0, channel=2, data=[59, 79]),
   midi.NoteOnEvent(tick=0, channel=2, data=[67, 79]),
   midi.NoteOnEvent(tick=155, channel=2, data=[67, 0]),
   midi.NoteOnEvent(tick=0, channel=2, data=[59, 0]),
   midi.NoteOnEvent(tick=0, channel=2, data=[64, 0]),
   midi.NoteOnEvent(tick=85, channel=2, data=[64, 79]),
   midi.NoteOnEvent(tick=0, channel=2, data=[59, 79]),
   midi.NoteOnEvent(tick=0, channel=2, data=[55, 79]),
   midi.NoteOnEvent(tick=475, channel=2, data=[55, 0]),
   midi.NoteOnEvent(tick=0, channel=2, data=[59, 0]),
   midi.NoteOnEvent(tick=0, channel=2, data=[64, 0]),
   midi.NoteOnEvent(tick=245, channel=2, data=[64, 79]),
   midi.NoteOnEvent(tick=0, channel=2, data=[59, 79]),
   midi.NoteOnEvent(tick=0, channel=2, data=[55, 79]),
   midi.NoteOnEvent(tick=475, channel=2, data=[55, 0]),
   midi.NoteOnEvent(tick=0, channel=2, data=[59, 0]),
   midi.NoteOnEvent(tick=0, channel=2, data=[64, 0]),
   midi.NoteOnEvent(tick=245, channel=2, data=[55, 79]),
   midi.NoteOnEvent(tick=0, channel=2, data=[59, 79]),
   midi.NoteOnEvent(tick=470, channel=2, data=[59, 0]),
   midi.NoteOnEvent(tick=0, channel=2, data=[55, 0]),
   midi.NoteOnEvent(tick=250, channel=2, data=[59, 79]),
   midi.NoteOnEvent(tick=0, channel=2, data=[64, 79]),
   midi.NoteOnEvent(tick=470, channel=2, data=[64, 0]),
   midi.NoteOnEvent(tick=0, channel=2, data=[59, 0]),
   midi.NoteOnEvent(tick=250, channel=2, data=[59, 79]),
   midi.NoteOnEvent(tick=0, channel=2, data=[64, 79]),
   midi.NoteOnEvent(tick=470, channel=2, data=[64, 0]),
   midi.NoteOnEvent(tick=0, channel=2, data=[59, 0]),
   midi.NoteOnEvent(tick=250, channel=2, data=[64, 79]),
   midi.NoteOnEvent(tick=0, channel=2, data=[59, 79]),
   midi.NoteOnEvent(tick=0, channel=2, data=[67, 79]),
   midi.NoteOnEvent(tick=470, channel=2, data=[67, 0]),
   midi.NoteOnEvent(tick=0, channel=2, data=[59, 0]),
   midi.NoteOnEvent(tick=0, channel=2, data=[64, 0]),
   midi.NoteOnEvent(tick=250, channel=2, data=[59, 79]),
   midi.NoteOnEvent(tick=0, channel=2, data=[64, 79]),
   midi.NoteOnEvent(tick=470, channel=2, data=[64, 0]),
   midi.NoteOnEvent(tick=0, channel=2, data=[59, 0]),
   midi.NoteOnEvent(tick=250, channel=2, data=[59, 79]),
   midi.NoteOnEvent(tick=0, channel=2, data=[64, 79]),
   midi.NoteOnEvent(tick=470, channel=2, data=[64, 0]),
   midi.NoteOnEvent(tick=0, channel=2, data=[59, 0]),
   midi.NoteOnEvent(tick=250, channel=2, data=[79, 79]),
   midi.NoteOnEvent(tick=0, channel=2, data=[72, 79]),
   midi.NoteOnEvent(tick=0, channel=2, data=[76, 79]),
   midi.NoteOnEvent(tick=1190, channel=2, data=[76, 0]),
   midi.NoteOnEvent(tick=0, channel=2, data=[72, 0]),
   midi.NoteOnEvent(tick=0, channel=2, data=[79, 0]),
   midi.NoteOnEvent(tick=250, channel=2, data=[71, 79]),
   midi.NoteOnEvent(tick=0, channel=2, data=[76, 79]),
   midi.NoteOnEvent(tick=475, channel=2, data=[76, 0]),
   midi.NoteOnEvent(tick=0, channel=2, data=[71, 0]),
   midi.NoteOnEvent(tick=245, channel=2, data=[72, 79]),
   midi.NoteOnEvent(tick=0, channel=2, data=[76, 79]),
   midi.NoteOnEvent(tick=475, channel=2, data=[76, 0]),
   midi.NoteOnEvent(tick=0, channel=2, data=[72, 0]),
   midi.NoteOnEvent(tick=245, channel=2, data=[76, 79]),
   midi.NoteOnEvent(tick=0, channel=2, data=[67, 79]),
   midi.NoteOnEvent(tick=0, channel=2, data=[71, 79]),
   midi.NoteOnEvent(tick=2635, channel=2, data=[71, 0]),
   midi.NoteOnEvent(tick=0, channel=2, data=[67, 0]),
   midi.NoteOnEvent(tick=0, channel=2, data=[76, 0]),
   midi.NoteOnEvent(tick=125, channel=2, data=[55, 79]),
   midi.NoteOnEvent(tick=60, channel=2, data=[55, 0]),
   midi.NoteOnEvent(tick=0, channel=2, data=[59, 79]),
   midi.NoteOnEvent(tick=60, channel=2, data=[59, 0]),
   midi.NoteOnEvent(tick=0, channel=2, data=[64, 79]),
   midi.NoteOnEvent(tick=0, channel=2, data=[55, 79]),
   midi.NoteOnEvent(tick=0, channel=2, data=[59, 79]),
   midi.NoteOnEvent(tick=1595, channel=2, data=[59, 0]),
   midi.NoteOnEvent(tick=0, channel=2, data=[55, 0]),
   midi.NoteOnEvent(tick=0, channel=2, data=[64, 0]),
   midi.NoteOnEvent(tick=325, channel=2, data=[67, 79]),
   midi.NoteOnEvent(tick=0, channel=2, data=[59, 79]),
   midi.NoteOnEvent(tick=0, channel=2, data=[64, 79]),
   midi.NoteOnEvent(tick=1595, channel=2, data=[64, 0]),
   midi.NoteOnEvent(tick=0, channel=2, data=[59, 0]),
   midi.NoteOnEvent(tick=0, channel=2, data=[67, 0]),
   midi.NoteOnEvent(tick=325, channel=2, data=[64, 79]),
   midi.NoteOnEvent(tick=0, channel=2, data=[55, 79]),
   midi.NoteOnEvent(tick=0, channel=2, data=[59, 79]),
   midi.NoteOnEvent(tick=3515, channel=2, data=[59, 0]),
   midi.NoteOnEvent(tick=0, channel=2, data=[55, 0]),
   midi.NoteOnEvent(tick=0, channel=2, data=[64, 0]),
   midi.NoteOnEvent(tick=325, channel=2, data=[67, 79]),
   midi.NoteOnEvent(tick=0, channel=2, data=[59, 79]),
   midi.NoteOnEvent(tick=0, channel=2, data=[64, 79]),
   midi.NoteOnEvent(tick=1595, channel=2, data=[64, 0]),
   midi.NoteOnEvent(tick=0, channel=2, data=[59, 0]),
   midi.NoteOnEvent(tick=0, channel=2, data=[67, 0]),
   midi.NoteOnEvent(tick=325, channel=2, data=[69, 79]),
   midi.NoteOnEvent(tick=0, channel=2, data=[61, 79]),
   midi.NoteOnEvent(tick=0, channel=2, data=[64, 79]),
   midi.NoteOnEvent(tick=1435, channel=2, data=[64, 0]),
   midi.NoteOnEvent(tick=0, channel=2, data=[61, 0]),
   midi.NoteOnEvent(tick=0, channel=2, data=[69, 0]),
   midi.NoteOnEvent(tick=245, channel=2, data=[71, 79]),
   midi.NoteOnEvent(tick=0, channel=2, data=[67, 79]),
   midi.NoteOnEvent(tick=0, channel=2, data=[64, 79]),
   midi.NoteOnEvent(tick=3515, channel=2, data=[64, 0]),
   midi.NoteOnEvent(tick=0, channel=2, data=[67, 0]),
   midi.NoteOnEvent(tick=0, channel=2, data=[71, 0]),
   midi.NoteOnEvent(tick=325, channel=2, data=[71, 79]),
   midi.NoteOnEvent(tick=0, channel=2, data=[60, 79]),
   midi.NoteOnEvent(tick=0, channel=2, data=[64, 79]),
   midi.NoteOnEvent(tick=0, channel=2, data=[67, 79]),
   midi.NoteOnEvent(tick=1595, channel=2, data=[67, 0]),
   midi.NoteOnEvent(tick=0, channel=2, data=[71, 0]),
   midi.NoteOnEvent(tick=0, channel=2, data=[60, 0]),
   midi.NoteOnEvent(tick=0, channel=2, data=[64, 0]),
   midi.NoteOnEvent(tick=325, channel=2, data=[88, 79]),
   midi.NoteOnEvent(tick=0, channel=2, data=[76, 79]),
   midi.NoteOnEvent(tick=0, channel=2, data=[79, 79]),
   midi.NoteOnEvent(tick=0, channel=2, data=[83, 79]),
   midi.NoteOnEvent(tick=1595, channel=2, data=[83, 0]),
   midi.NoteOnEvent(tick=0, channel=2, data=[88, 0]),
   midi.NoteOnEvent(tick=0, channel=2, data=[76, 0]),
   midi.NoteOnEvent(tick=0, channel=2, data=[79, 0]),
   midi.NoteOnEvent(tick=325, channel=2, data=[64, 79]),
   midi.NoteOnEvent(tick=0, channel=2, data=[55, 79]),
   midi.NoteOnEvent(tick=0, channel=2, data=[59, 79]),
   midi.NoteOnEvent(tick=1595, channel=2, data=[59, 0]),
   midi.NoteOnEvent(tick=0, channel=2, data=[55, 0]),
   midi.NoteOnEvent(tick=0, channel=2, data=[64, 0]),
   midi.NoteOnEvent(tick=325, channel=2, data=[78, 79]),
   midi.NoteOnEvent(tick=0, channel=2, data=[67, 79]),
   midi.NoteOnEvent(tick=0, channel=2, data=[71, 79]),
   midi.NoteOnEvent(tick=0, channel=2, data=[74, 79]),
   midi.NoteOnEvent(tick=1595, channel=2, data=[74, 0]),
   midi.NoteOnEvent(tick=0, channel=2, data=[78, 0]),
   midi.NoteOnEvent(tick=0, channel=2, data=[67, 0]),
   midi.NoteOnEvent(tick=0, channel=2, data=[71, 0]),
   midi.NoteOnEvent(tick=325, channel=2, data=[71, 79]),
   midi.NoteOnEvent(tick=0, channel=2, data=[60, 79]),
   midi.NoteOnEvent(tick=0, channel=2, data=[64, 79]),
   midi.NoteOnEvent(tick=0, channel=2, data=[67, 79]),
   midi.NoteOnEvent(tick=1595, channel=2, data=[67, 0]),
   midi.NoteOnEvent(tick=0, channel=2, data=[71, 0]),
   midi.NoteOnEvent(tick=0, channel=2, data=[60, 0]),
   midi.NoteOnEvent(tick=0, channel=2, data=[64, 0]),
   midi.NoteOnEvent(tick=325, channel=2, data=[88, 79]),
   midi.NoteOnEvent(tick=0, channel=2, data=[76, 79]),
   midi.NoteOnEvent(tick=0, channel=2, data=[79, 79]),
   midi.NoteOnEvent(tick=0, channel=2, data=[83, 79]),
   midi.NoteOnEvent(tick=1595, channel=2, data=[83, 0]),
   midi.NoteOnEvent(tick=0, channel=2, data=[88, 0]),
   midi.NoteOnEvent(tick=0, channel=2, data=[76, 0]),
   midi.NoteOnEvent(tick=0, channel=2, data=[79, 0]),
   midi.NoteOnEvent(tick=325, channel=2, data=[64, 79]),
   midi.NoteOnEvent(tick=0, channel=2, data=[59, 79]),
   midi.NoteOnEvent(tick=0, channel=2, data=[55, 79]),
   midi.NoteOnEvent(tick=3515, channel=2, data=[55, 0]),
   midi.NoteOnEvent(tick=0, channel=2, data=[59, 0]),
   midi.NoteOnEvent(tick=0, channel=2, data=[64, 0]),
   midi.NoteOnEvent(tick=205, channel=2, data=[59, 79]),
   midi.NoteOnEvent(tick=60, channel=2, data=[59, 0]),
   midi.NoteOnEvent(tick=0, channel=2, data=[64, 79]),
   midi.NoteOnEvent(tick=60, channel=2, data=[64, 0]),
   midi.NoteOnEvent(tick=0, channel=2, data=[64, 79]),
   midi.NoteOnEvent(tick=0, channel=2, data=[59, 79]),
   midi.NoteOnEvent(tick=0, channel=2, data=[67, 79]),
   midi.NoteOnEvent(tick=475, channel=2, data=[67, 0]),
   midi.NoteOnEvent(tick=0, channel=2, data=[59, 0]),
   midi.NoteOnEvent(tick=0, channel=2, data=[64, 0]),
   midi.NoteOnEvent(tick=245, channel=2, data=[64, 79]),
   midi.NoteOnEvent(tick=0, channel=2, data=[59, 79]),
   midi.NoteOnEvent(tick=0, channel=2, data=[67, 79]),
   midi.NoteOnEvent(tick=80, channel=2, data=[67, 0]),
   midi.NoteOnEvent(tick=0, channel=2, data=[59, 0]),
   midi.NoteOnEvent(tick=0, channel=2, data=[64, 0]),
   midi.NoteOnEvent(tick=40, channel=2, data=[64, 79]),
   midi.NoteOnEvent(tick=0, channel=2, data=[59, 79]),
   midi.NoteOnEvent(tick=0, channel=2, data=[67, 79]),
   midi.NoteOnEvent(tick=80, channel=2, data=[67, 0]),
   midi.NoteOnEvent(tick=0, channel=2, data=[59, 0]),
   midi.NoteOnEvent(tick=0, channel=2, data=[64, 0]),
   midi.NoteOnEvent(tick=40, channel=2, data=[67, 79]),
   midi.NoteOnEvent(tick=0, channel=2, data=[64, 79]),
   midi.NoteOnEvent(tick=0, channel=2, data=[60, 79]),
   midi.NoteOnEvent(tick=0, channel=2, data=[71, 79]),
   midi.NoteOnEvent(tick=475, channel=2, data=[71, 0]),
   midi.NoteOnEvent(tick=0, channel=2, data=[67, 0]),
   midi.NoteOnEvent(tick=0, channel=2, data=[64, 0]),
   midi.NoteOnEvent(tick=0, channel=2, data=[60, 0]),
   midi.NoteOnEvent(tick=245, channel=2, data=[67, 79]),
   midi.NoteOnEvent(tick=0, channel=2, data=[64, 79]),
   midi.NoteOnEvent(tick=0, channel=2, data=[60, 79]),
   midi.NoteOnEvent(tick=0, channel=2, data=[71, 79]),
   midi.NoteOnEvent(tick=80, channel=2, data=[71, 0]),
   midi.NoteOnEvent(tick=0, channel=2, data=[67, 0]),
   midi.NoteOnEvent(tick=0, channel=2, data=[64, 0]),
   midi.NoteOnEvent(tick=0, channel=2, data=[60, 0]),
   midi.NoteOnEvent(tick=40, channel=2, data=[67, 79]),
   midi.NoteOnEvent(tick=0, channel=2, data=[64, 79]),
   midi.NoteOnEvent(tick=0, channel=2, data=[60, 79]),
   midi.NoteOnEvent(tick=0, channel=2, data=[71, 79]),
   midi.NoteOnEvent(tick=80, channel=2, data=[71, 0]),
   midi.NoteOnEvent(tick=0, channel=2, data=[67, 0]),
   midi.NoteOnEvent(tick=0, channel=2, data=[64, 0]),
   midi.NoteOnEvent(tick=0, channel=2, data=[60, 0]),
   midi.NoteOnEvent(tick=40, channel=2, data=[71, 79]),
   midi.NoteOnEvent(tick=0, channel=2, data=[67, 79]),
   midi.NoteOnEvent(tick=0, channel=2, data=[76, 79]),
   midi.NoteOnEvent(tick=475, channel=2, data=[76, 0]),
   midi.NoteOnEvent(tick=0, channel=2, data=[67, 0]),
   midi.NoteOnEvent(tick=0, channel=2, data=[71, 0]),
   midi.NoteOnEvent(tick=245, channel=2, data=[71, 79]),
   midi.NoteOnEvent(tick=0, channel=2, data=[67, 79]),
   midi.NoteOnEvent(tick=0, channel=2, data=[76, 79]),
   midi.NoteOnEvent(tick=80, channel=2, data=[76, 0]),
   midi.NoteOnEvent(tick=0, channel=2, data=[67, 0]),
   midi.NoteOnEvent(tick=0, channel=2, data=[71, 0]),
   midi.NoteOnEvent(tick=40, channel=2, data=[71, 79]),
   midi.NoteOnEvent(tick=0, channel=2, data=[67, 79]),
   midi.NoteOnEvent(tick=0, channel=2, data=[76, 79]),
   midi.NoteOnEvent(tick=80, channel=2, data=[76, 0]),
   midi.NoteOnEvent(tick=0, channel=2, data=[67, 0]),
   midi.NoteOnEvent(tick=0, channel=2, data=[71, 0]),
   midi.NoteOnEvent(tick=40, channel=2, data=[76, 79]),
   midi.NoteOnEvent(tick=0, channel=2, data=[71, 79]),
   midi.NoteOnEvent(tick=0, channel=2, data=[79, 79]),
   midi.NoteOnEvent(tick=635, channel=2, data=[79, 0]),
   midi.NoteOnEvent(tick=0, channel=2, data=[71, 0]),
   midi.NoteOnEvent(tick=0, channel=2, data=[76, 0]),
   midi.NoteOnEvent(tick=325, channel=2, data=[83, 79]),
   midi.NoteOnEvent(tick=0, channel=2, data=[76, 79]),
   midi.NoteOnEvent(tick=0, channel=2, data=[79, 79]),
   midi.NoteOnEvent(tick=3515, channel=2, data=[79, 0]),
   midi.NoteOnEvent(tick=0, channel=2, data=[76, 0]),
   midi.NoteOnEvent(tick=0, channel=2, data=[83, 0]),
   midi.ControlChangeEvent(tick=325, channel=2, data=[7, 83]),
   midi.NoteOnEvent(tick=0, channel=2, data=[76, 79]),
   midi.NoteOnEvent(tick=0, channel=2, data=[71, 79]),
   midi.NoteOnEvent(tick=0, channel=2, data=[79, 79]),
   midi.ControlChangeEvent(tick=210, channel=2, data=[7, 82]),
   midi.NoteOnEvent(tick=105, channel=2, data=[79, 0]),
   midi.NoteOnEvent(tick=0, channel=2, data=[71, 0]),
   midi.NoteOnEvent(tick=0, channel=2, data=[76, 0]),
   midi.ControlChangeEvent(tick=75, channel=2, data=[7, 81]),
   midi.NoteOnEvent(tick=90, channel=2, data=[76, 79]),
   midi.NoteOnEvent(tick=0, channel=2, data=[71, 79]),
   midi.NoteOnEvent(tick=0, channel=2, data=[79, 79]),
   midi.ControlChangeEvent(tick=90, channel=2, data=[7, 80]),
   midi.ControlChangeEvent(tick=180, channel=2, data=[7, 79]),
   midi.NoteOnEvent(tick=45, channel=2, data=[79, 0]),
   midi.NoteOnEvent(tick=0, channel=2, data=[71, 0]),
   midi.NoteOnEvent(tick=0, channel=2, data=[76, 0]),
   midi.ControlChangeEvent(tick=135, channel=2, data=[7, 78]),
   midi.NoteOnEvent(tick=30, channel=2, data=[76, 79]),
   midi.NoteOnEvent(tick=0, channel=2, data=[71, 79]),
   midi.NoteOnEvent(tick=0, channel=2, data=[79, 79]),
   midi.ControlChangeEvent(tick=180, channel=2, data=[7, 77]),
   midi.NoteOnEvent(tick=135, channel=2, data=[79, 0]),
   midi.NoteOnEvent(tick=0, channel=2, data=[71, 0]),
   midi.NoteOnEvent(tick=0, channel=2, data=[76, 0]),
   midi.ControlChangeEvent(tick=45, channel=2, data=[7, 76]),
   midi.NoteOnEvent(tick=120, channel=2, data=[76, 79]),
   midi.NoteOnEvent(tick=0, channel=2, data=[71, 79]),
   midi.NoteOnEvent(tick=0, channel=2, data=[79, 79]),
   midi.ControlChangeEvent(tick=60, channel=2, data=[7, 75]),
   midi.NoteOnEvent(tick=20, channel=2, data=[79, 0]),
   midi.NoteOnEvent(tick=0, channel=2, data=[71, 0]),
   midi.NoteOnEvent(tick=0, channel=2, data=[76, 0]),
   midi.NoteOnEvent(tick=160, channel=2, data=[79, 79]),
   midi.NoteOnEvent(tick=0, channel=2, data=[71, 79]),
   midi.NoteOnEvent(tick=0, channel=2, data=[76, 79]),
   midi.ControlChangeEvent(tick=0, channel=2, data=[7, 74]),
   midi.ControlChangeEvent(tick=180, channel=2, data=[7, 73]),
   midi.NoteOnEvent(tick=60, channel=2, data=[76, 0]),
   midi.NoteOnEvent(tick=0, channel=2, data=[71, 0]),
   midi.NoteOnEvent(tick=0, channel=2, data=[79, 0]),
   midi.NoteOnEvent(tick=0, channel=2, data=[76, 79]),
   midi.NoteOnEvent(tick=0, channel=2, data=[71, 79]),
   midi.NoteOnEvent(tick=0, channel=2, data=[79, 79]),
   midi.ControlChangeEvent(tick=120, channel=2, data=[7, 72]),
   midi.NoteOnEvent(tick=195, channel=2, data=[79, 0]),
   midi.NoteOnEvent(tick=0, channel=2, data=[71, 0]),
   midi.NoteOnEvent(tick=0, channel=2, data=[76, 0]),
   midi.ControlChangeEvent(tick=15, channel=2, data=[7, 71]),
   midi.NoteOnEvent(tick=150, channel=2, data=[76, 79]),
   midi.NoteOnEvent(tick=0, channel=2, data=[71, 79]),
   midi.NoteOnEvent(tick=0, channel=2, data=[79, 79]),
   midi.ControlChangeEvent(tick=30, channel=2, data=[7, 70]),
   midi.ControlChangeEvent(tick=180, channel=2, data=[7, 69]),
   midi.NoteOnEvent(tick=105, channel=2, data=[79, 0]),
   midi.NoteOnEvent(tick=0, channel=2, data=[71, 0]),
   midi.NoteOnEvent(tick=0, channel=2, data=[76, 0]),
   midi.ControlChangeEvent(tick=75, channel=2, data=[7, 68]),
   midi.NoteOnEvent(tick=90, channel=2, data=[76, 79]),
   midi.NoteOnEvent(tick=0, channel=2, data=[71, 79]),
   midi.NoteOnEvent(tick=0, channel=2, data=[79, 79]),
   midi.ControlChangeEvent(tick=90, channel=2, data=[7, 67]),
   midi.ControlChangeEvent(tick=180, channel=2, data=[7, 66]),
   midi.NoteOnEvent(tick=45, channel=2, data=[79, 0]),
   midi.NoteOnEvent(tick=0, channel=2, data=[71, 0]),
   midi.NoteOnEvent(tick=0, channel=2, data=[76, 0]),
   midi.ControlChangeEvent(tick=165, channel=2, data=[7, 65]),
   midi.NoteOnEvent(tick=0, channel=2, data=[76, 79]),
   midi.NoteOnEvent(tick=0, channel=2, data=[71, 79]),
   midi.NoteOnEvent(tick=0, channel=2, data=[79, 79]),
   midi.NoteOnEvent(tick=80, channel=2, data=[79, 0]),
   midi.NoteOnEvent(tick=0, channel=2, data=[71, 0]),
   midi.NoteOnEvent(tick=0, channel=2, data=[76, 0]),
   midi.NoteOnEvent(tick=40, channel=2, data=[76, 79]),
   midi.NoteOnEvent(tick=0, channel=2, data=[71, 79]),
   midi.NoteOnEvent(tick=0, channel=2, data=[79, 79]),
   midi.ControlChangeEvent(tick=60, channel=2, data=[7, 64]),
   midi.ControlChangeEvent(tick=180, channel=2, data=[7, 63]),
   midi.NoteOnEvent(tick=40, channel=2, data=[79, 0]),
   midi.NoteOnEvent(tick=0, channel=2, data=[71, 0]),
   midi.NoteOnEvent(tick=0, channel=2, data=[76, 0]),
   midi.NoteOnEvent(tick=80, channel=2, data=[76, 79]),
   midi.NoteOnEvent(tick=0, channel=2, data=[71, 79]),
   midi.NoteOnEvent(tick=0, channel=2, data=[79, 79]),
   midi.ControlChangeEvent(tick=60, channel=2, data=[7, 62]),
   midi.ControlChangeEvent(tick=180, channel=2, data=[7, 61]),
   midi.NoteOnEvent(tick=75, channel=2, data=[79, 0]),
   midi.NoteOnEvent(tick=0, channel=2, data=[71, 0]),
   midi.NoteOnEvent(tick=0, channel=2, data=[76, 0]),
   midi.ControlChangeEvent(tick=105, channel=2, data=[7, 60]),
   midi.NoteOnEvent(tick=60, channel=2, data=[76, 79]),
   midi.NoteOnEvent(tick=0, channel=2, data=[71, 79]),
   midi.NoteOnEvent(tick=0, channel=2, data=[79, 79]),
   midi.ControlChangeEvent(tick=150, channel=2, data=[7, 59]),
   midi.NoteOnEvent(tick=165, channel=2, data=[79, 0]),
   midi.NoteOnEvent(tick=0, channel=2, data=[71, 0]),
   midi.NoteOnEvent(tick=0, channel=2, data=[76, 0]),
   midi.ControlChangeEvent(tick=15, channel=2, data=[7, 58]),
   midi.NoteOnEvent(tick=150, channel=2, data=[76, 79]),
   midi.NoteOnEvent(tick=0, channel=2, data=[71, 79]),
   midi.NoteOnEvent(tick=0, channel=2, data=[79, 79]),
   midi.ControlChangeEvent(tick=30, channel=2, data=[7, 57]),
   midi.ControlChangeEvent(tick=180, channel=2, data=[7, 56]),
   midi.NoteOnEvent(tick=105, channel=2, data=[79, 0]),
   midi.NoteOnEvent(tick=0, channel=2, data=[71, 0]),
   midi.NoteOnEvent(tick=0, channel=2, data=[76, 0]),
   midi.ControlChangeEvent(tick=75, channel=2, data=[7, 55]),
   midi.NoteOnEvent(tick=90, channel=2, data=[76, 79]),
   midi.NoteOnEvent(tick=0, channel=2, data=[71, 79]),
   midi.NoteOnEvent(tick=0, channel=2, data=[79, 79]),
   midi.NoteOnEvent(tick=80, channel=2, data=[79, 0]),
   midi.NoteOnEvent(tick=0, channel=2, data=[71, 0]),
   midi.NoteOnEvent(tick=0, channel=2, data=[76, 0]),
   midi.ControlChangeEvent(tick=10, channel=2, data=[7, 54]),
   midi.NoteOnEvent(tick=150, channel=2, data=[79, 79]),
   midi.NoteOnEvent(tick=0, channel=2, data=[71, 79]),
   midi.NoteOnEvent(tick=0, channel=2, data=[76, 79]),
   midi.ControlChangeEvent(tick=60, channel=2, data=[7, 53]),
   midi.NoteOnEvent(tick=180, channel=2, data=[76, 0]),
   midi.NoteOnEvent(tick=0, channel=2, data=[71, 0]),
   midi.NoteOnEvent(tick=0, channel=2, data=[79, 0]),
   midi.ControlChangeEvent(tick=0, channel=2, data=[7, 52]),
   midi.NoteOnEvent(tick=0, channel=2, data=[76, 79]),
   midi.NoteOnEvent(tick=0, channel=2, data=[71, 79]),
   midi.NoteOnEvent(tick=0, channel=2, data=[79, 79]),
   midi.ControlChangeEvent(tick=180, channel=2, data=[7, 51]),
   midi.NoteOnEvent(tick=135, channel=2, data=[79, 0]),
   midi.NoteOnEvent(tick=0, channel=2, data=[71, 0]),
   midi.NoteOnEvent(tick=0, channel=2, data=[76, 0]),
   midi.ControlChangeEvent(tick=45, channel=2, data=[7, 50]),
   midi.NoteOnEvent(tick=120, channel=2, data=[76, 79]),
   midi.NoteOnEvent(tick=0, channel=2, data=[71, 79]),
   midi.NoteOnEvent(tick=0, channel=2, data=[79, 79]),
   midi.ControlChangeEvent(tick=60, channel=2, data=[7, 49]),
   midi.ControlChangeEvent(tick=180, channel=2, data=[7, 48]),
   midi.NoteOnEvent(tick=75, channel=2, data=[79, 0]),
   midi.NoteOnEvent(tick=0, channel=2, data=[71, 0]),
   midi.NoteOnEvent(tick=0, channel=2, data=[76, 0]),
   midi.ControlChangeEvent(tick=135, channel=2, data=[7, 47]),
   midi.NoteOnEvent(tick=30, channel=2, data=[76, 79]),
   midi.NoteOnEvent(tick=0, channel=2, data=[71, 79]),
   midi.NoteOnEvent(tick=0, channel=2, data=[79, 79]),
   midi.ControlChangeEvent(tick=150, channel=2, data=[7, 46]),
   midi.NoteOnEvent(tick=165, channel=2, data=[79, 0]),
   midi.NoteOnEvent(tick=0, channel=2, data=[71, 0]),
   midi.NoteOnEvent(tick=0, channel=2, data=[76, 0]),
   midi.ControlChangeEvent(tick=15, channel=2, data=[7, 45]),
   midi.NoteOnEvent(tick=150, channel=2, data=[76, 79]),
   midi.NoteOnEvent(tick=0, channel=2, data=[71, 79]),
   midi.NoteOnEvent(tick=0, channel=2, data=[79, 79]),
   midi.ControlChangeEvent(tick=30, channel=2, data=[7, 44]),
   midi.NoteOnEvent(tick=50, channel=2, data=[79, 0]),
   midi.NoteOnEvent(tick=0, channel=2, data=[71, 0]),
   midi.NoteOnEvent(tick=0, channel=2, data=[76, 0]),
   midi.NoteOnEvent(tick=40, channel=2, data=[76, 79]),
   midi.NoteOnEvent(tick=0, channel=2, data=[71, 79]),
   midi.NoteOnEvent(tick=0, channel=2, data=[79, 79]),
   midi.ControlChangeEvent(tick=90, channel=2, data=[7, 43]),
   midi.ControlChangeEvent(tick=180, channel=2, data=[7, 42]),
   midi.NoteOnEvent(tick=10, channel=2, data=[79, 0]),
   midi.NoteOnEvent(tick=0, channel=2, data=[71, 0]),
   midi.NoteOnEvent(tick=0, channel=2, data=[76, 0]),
   midi.NoteOnEvent(tick=80, channel=2, data=[76, 79]),
   midi.NoteOnEvent(tick=0, channel=2, data=[71, 79]),
   midi.NoteOnEvent(tick=0, channel=2, data=[79, 79]),
   midi.ControlChangeEvent(tick=120, channel=2, data=[7, 41]),
   midi.ControlChangeEvent(tick=180, channel=2, data=[7, 40]),
   midi.NoteOnEvent(tick=15, channel=2, data=[79, 0]),
   midi.NoteOnEvent(tick=0, channel=2, data=[71, 0]),
   midi.NoteOnEvent(tick=0, channel=2, data=[76, 0]),
   midi.ControlChangeEvent(tick=165, channel=2, data=[7, 39]),
   midi.NoteOnEvent(tick=0, channel=2, data=[76, 79]),
   midi.NoteOnEvent(tick=0, channel=2, data=[71, 79]),
   midi.NoteOnEvent(tick=0, channel=2, data=[79, 79]),
   midi.ControlChangeEvent(tick=180, channel=2, data=[7, 38]),
   midi.NoteOnEvent(tick=135, channel=2, data=[79, 0]),
   midi.NoteOnEvent(tick=0, channel=2, data=[71, 0]),
   midi.NoteOnEvent(tick=0, channel=2, data=[76, 0]),
   midi.ControlChangeEvent(tick=45, channel=2, data=[7, 37]),
   midi.NoteOnEvent(tick=120, channel=2, data=[76, 79]),
   midi.NoteOnEvent(tick=0, channel=2, data=[71, 79]),
   midi.NoteOnEvent(tick=0, channel=2, data=[79, 79]),
   midi.ControlChangeEvent(tick=60, channel=2, data=[7, 36]),
   midi.ControlChangeEvent(tick=210, channel=2, data=[7, 35]),
   midi.NoteOnEvent(tick=45, channel=2, data=[79, 0]),
   midi.NoteOnEvent(tick=0, channel=2, data=[71, 0]),
   midi.NoteOnEvent(tick=0, channel=2, data=[76, 0]),
   midi.ControlChangeEvent(tick=135, channel=2, data=[7, 34]),
   midi.NoteOnEvent(tick=30, channel=2, data=[76, 79]),
   midi.NoteOnEvent(tick=0, channel=2, data=[71, 79]),
   midi.NoteOnEvent(tick=0, channel=2, data=[79, 79]),
   midi.NoteOnEvent(tick=80, channel=2, data=[79, 0]),
   midi.NoteOnEvent(tick=0, channel=2, data=[71, 0]),
   midi.NoteOnEvent(tick=0, channel=2, data=[76, 0]),
   midi.ControlChangeEvent(tick=70, channel=2, data=[7, 33]),
   midi.NoteOnEvent(tick=90, channel=2, data=[79, 79]),
   midi.NoteOnEvent(tick=0, channel=2, data=[71, 79]),
   midi.NoteOnEvent(tick=0, channel=2, data=[76, 79]),
   midi.ControlChangeEvent(tick=90, channel=2, data=[7, 32]),
   midi.NoteOnEvent(tick=150, channel=2, data=[76, 0]),
   midi.NoteOnEvent(tick=0, channel=2, data=[71, 0]),
   midi.NoteOnEvent(tick=0, channel=2, data=[79, 0]),
   midi.NoteOnEvent(tick=0, channel=2, data=[76, 79]),
   midi.NoteOnEvent(tick=0, channel=2, data=[71, 79]),
   midi.NoteOnEvent(tick=0, channel=2, data=[79, 79]),
   midi.ControlChangeEvent(tick=30, channel=2, data=[7, 31]),
   midi.ControlChangeEvent(tick=180, channel=2, data=[7, 30]),
   midi.NoteOnEvent(tick=105, channel=2, data=[79, 0]),
   midi.NoteOnEvent(tick=0, channel=2, data=[71, 0]),
   midi.NoteOnEvent(tick=0, channel=2, data=[76, 0]),
   midi.ControlChangeEvent(tick=105, channel=2, data=[7, 29]),
   midi.NoteOnEvent(tick=60, channel=2, data=[76, 79]),
   midi.NoteOnEvent(tick=0, channel=2, data=[71, 79]),
   midi.NoteOnEvent(tick=0, channel=2, data=[79, 79]),
   midi.ControlChangeEvent(tick=120, channel=2, data=[7, 28]),
   midi.ControlChangeEvent(tick=180, channel=2, data=[7, 27]),
   midi.NoteOnEvent(tick=15, channel=2, data=[79, 0]),
   midi.NoteOnEvent(tick=0, channel=2, data=[71, 0]),
   midi.NoteOnEvent(tick=0, channel=2, data=[76, 0]),
   midi.ControlChangeEvent(tick=165, channel=2, data=[7, 26]),
   midi.NoteOnEvent(tick=0, channel=2, data=[76, 79]),
   midi.NoteOnEvent(tick=0, channel=2, data=[71, 79]),
   midi.NoteOnEvent(tick=0, channel=2, data=[79, 79]),
   midi.ControlChangeEvent(tick=180, channel=2, data=[7, 25]),
   midi.NoteOnEvent(tick=135, channel=2, data=[79, 0]),
   midi.NoteOnEvent(tick=0, channel=2, data=[71, 0]),
   midi.NoteOnEvent(tick=0, channel=2, data=[76, 0]),
   midi.ControlChangeEvent(tick=45, channel=2, data=[7, 24]),
   midi.NoteOnEvent(tick=120, channel=2, data=[76, 79]),
   midi.NoteOnEvent(tick=0, channel=2, data=[71, 79]),
   midi.NoteOnEvent(tick=0, channel=2, data=[79, 79]),
   midi.NoteOnEvent(tick=80, channel=2, data=[79, 0]),
   midi.NoteOnEvent(tick=0, channel=2, data=[71, 0]),
   midi.NoteOnEvent(tick=0, channel=2, data=[76, 0]),
   midi.ControlChangeEvent(tick=10, channel=2, data=[7, 23]),
   midi.NoteOnEvent(tick=30, channel=2, data=[76, 79]),
   midi.NoteOnEvent(tick=0, channel=2, data=[71, 79]),
   midi.NoteOnEvent(tick=0, channel=2, data=[79, 79]),
   midi.ControlChangeEvent(tick=150, channel=2, data=[7, 22]),
   midi.NoteOnEvent(tick=130, channel=2, data=[79, 0]),
   midi.NoteOnEvent(tick=0, channel=2, data=[71, 0]),
   midi.NoteOnEvent(tick=0, channel=2, data=[76, 0]),
   midi.ControlChangeEvent(tick=50, channel=2, data=[7, 21]),
   midi.NoteOnEvent(tick=30, channel=2, data=[76, 79]),
   midi.NoteOnEvent(tick=0, channel=2, data=[71, 79]),
   midi.NoteOnEvent(tick=0, channel=2, data=[79, 79]),
   midi.ControlChangeEvent(tick=150, channel=2, data=[7, 20]),
   midi.NoteOnEvent(tick=165, channel=2, data=[79, 0]),
   midi.NoteOnEvent(tick=0, channel=2, data=[71, 0]),
   midi.NoteOnEvent(tick=0, channel=2, data=[76, 0]),
   midi.ControlChangeEvent(tick=15, channel=2, data=[7, 19]),
   midi.NoteOnEvent(tick=150, channel=2, data=[76, 79]),
   midi.NoteOnEvent(tick=0, channel=2, data=[71, 79]),
   midi.NoteOnEvent(tick=0, channel=2, data=[79, 79]),
   midi.ControlChangeEvent(tick=30, channel=2, data=[7, 18]),
   midi.ControlChangeEvent(tick=210, channel=2, data=[7, 17]),
   midi.NoteOnEvent(tick=75, channel=2, data=[79, 0]),
   midi.NoteOnEvent(tick=0, channel=2, data=[71, 0]),
   midi.NoteOnEvent(tick=0, channel=2, data=[76, 0]),
   midi.ControlChangeEvent(tick=105, channel=2, data=[7, 16]),
   midi.NoteOnEvent(tick=60, channel=2, data=[76, 79]),
   midi.NoteOnEvent(tick=0, channel=2, data=[71, 79]),
   midi.NoteOnEvent(tick=0, channel=2, data=[79, 79]),
   midi.ControlChangeEvent(tick=120, channel=2, data=[7, 15]),
   midi.ControlChangeEvent(tick=180, channel=2, data=[7, 14]),
   midi.NoteOnEvent(tick=15, channel=2, data=[79, 0]),
   midi.NoteOnEvent(tick=0, channel=2, data=[71, 0]),
   midi.NoteOnEvent(tick=0, channel=2, data=[76, 0]),
   midi.ControlChangeEvent(tick=165, channel=2, data=[7, 13]),
   midi.NoteOnEvent(tick=0, channel=2, data=[76, 79]),
   midi.NoteOnEvent(tick=0, channel=2, data=[71, 79]),
   midi.NoteOnEvent(tick=0, channel=2, data=[79, 79]),
   midi.NoteOnEvent(tick=80, channel=2, data=[79, 0]),
   midi.NoteOnEvent(tick=0, channel=2, data=[71, 0]),
   midi.NoteOnEvent(tick=0, channel=2, data=[76, 0]),
   midi.ControlChangeEvent(tick=100, channel=2, data=[7, 12]),
   midi.NoteOnEvent(tick=60, channel=2, data=[79, 79]),
   midi.NoteOnEvent(tick=0, channel=2, data=[71, 79]),
   midi.NoteOnEvent(tick=0, channel=2, data=[76, 79]),
   midi.ControlChangeEvent(tick=150, channel=2, data=[7, 11]),
   midi.NoteOnEvent(tick=90, channel=2, data=[76, 0]),
   midi.NoteOnEvent(tick=0, channel=2, data=[71, 0]),
   midi.NoteOnEvent(tick=0, channel=2, data=[79, 0]),
   midi.NoteOnEvent(tick=0, channel=2, data=[76, 79]),
   midi.NoteOnEvent(tick=0, channel=2, data=[71, 79]),
   midi.NoteOnEvent(tick=0, channel=2, data=[79, 79]),
   midi.ControlChangeEvent(tick=90, channel=2, data=[7, 10]),
   midi.ControlChangeEvent(tick=180, channel=2, data=[7, 9]),
   midi.NoteOnEvent(tick=45, channel=2, data=[79, 0]),
   midi.NoteOnEvent(tick=0, channel=2, data=[71, 0]),
   midi.NoteOnEvent(tick=0, channel=2, data=[76, 0]),
   midi.ControlChangeEvent(tick=135, channel=2, data=[7, 8]),
   midi.NoteOnEvent(tick=30, channel=2, data=[76, 79]),
   midi.NoteOnEvent(tick=0, channel=2, data=[71, 79]),
   midi.NoteOnEvent(tick=0, channel=2, data=[79, 79]),
   midi.ControlChangeEvent(tick=150, channel=2, data=[7, 7]),
   midi.NoteOnEvent(tick=165, channel=2, data=[79, 0]),
   midi.NoteOnEvent(tick=0, channel=2, data=[71, 0]),
   midi.NoteOnEvent(tick=0, channel=2, data=[76, 0]),
   midi.ControlChangeEvent(tick=15, channel=2, data=[7, 6]),
   midi.NoteOnEvent(tick=150, channel=2, data=[76, 79]),
   midi.NoteOnEvent(tick=0, channel=2, data=[71, 79]),
   midi.NoteOnEvent(tick=0, channel=2, data=[79, 79]),
   midi.ControlChangeEvent(tick=60, channel=2, data=[7, 5]),
   midi.ControlChangeEvent(tick=180, channel=2, data=[7, 4]),
   midi.NoteOnEvent(tick=75, channel=2, data=[79, 0]),
   midi.NoteOnEvent(tick=0, channel=2, data=[71, 0]),
   midi.NoteOnEvent(tick=0, channel=2, data=[76, 0]),
   midi.ControlChangeEvent(tick=105, channel=2, data=[7, 3]),
   midi.NoteOnEvent(tick=60, channel=2, data=[76, 79]),
   midi.NoteOnEvent(tick=0, channel=2, data=[71, 79]),
   midi.NoteOnEvent(tick=0, channel=2, data=[79, 79]),
   midi.NoteOnEvent(tick=80, channel=2, data=[79, 0]),
   midi.NoteOnEvent(tick=0, channel=2, data=[71, 0]),
   midi.NoteOnEvent(tick=0, channel=2, data=[76, 0]),
   midi.ControlChangeEvent(tick=40, channel=2, data=[7, 2]),
   midi.NoteOnEvent(tick=0, channel=2, data=[76, 79]),
   midi.NoteOnEvent(tick=0, channel=2, data=[71, 79]),
   midi.NoteOnEvent(tick=0, channel=2, data=[79, 79]),
   midi.ControlChangeEvent(tick=180, channel=2, data=[7, 1]),
   midi.ControlChangeEvent(tick=30, channel=2, data=[7, 0]),
   midi.NoteOnEvent(tick=70, channel=2, data=[79, 0]),
   midi.NoteOnEvent(tick=0, channel=2, data=[71, 0]),
   midi.NoteOnEvent(tick=0, channel=2, data=[76, 0]),
   midi.EndOfTrackEvent(tick=0, data=[])]),
 midi.Track(\
  [midi.PortEvent(tick=0, data=[0]),
   midi.TrackNameEvent(tick=0, text='Bass', data=[66, 97, 115, 115]),
   midi.ProgramChangeEvent(tick=0, channel=3, data=[94]),
   midi.ControlChangeEvent(tick=0, channel=3, data=[7, 33]),
   midi.ControlChangeEvent(tick=480, channel=3, data=[0, 0]),
   midi.ControlChangeEvent(tick=5, channel=3, data=[32, 0]),
   midi.ControlChangeEvent(tick=10, channel=3, data=[1, 0]),
   midi.ControlChangeEvent(tick=10, channel=3, data=[10, 18]),
   midi.ControlChangeEvent(tick=5, channel=3, data=[11, 127]),
   midi.ControlChangeEvent(tick=5, channel=3, data=[64, 0]),
   midi.ControlChangeEvent(tick=5, channel=3, data=[91, 64]),
   midi.ControlChangeEvent(tick=5, channel=3, data=[93, 64]),
   midi.PitchWheelEvent(tick=5, channel=3, data=[0, 64]),
   midi.NoteOnEvent(tick=430, channel=3, data=[28, 79]),
   midi.NoteOnEvent(tick=160, channel=3, data=[28, 0]),
   midi.ControlChangeEvent(tick=50, channel=3, data=[7, 34]),
   midi.ControlChangeEvent(tick=30, channel=3, data=[93, 64]),
   midi.ControlChangeEvent(tick=0, channel=3, data=[10, 108]),
   midi.ControlChangeEvent(tick=0, channel=3, data=[91, 64]),
   midi.NoteOnEvent(tick=0, channel=3, data=[28, 79]),
   midi.ControlChangeEvent(tick=150, channel=3, data=[7, 35]),
   midi.NoteOnEvent(tick=10, channel=3, data=[28, 0]),
   midi.ControlChangeEvent(tick=80, channel=3, data=[10, 18]),
   midi.NoteOnEvent(tick=0, channel=3, data=[28, 79]),
   midi.ControlChangeEvent(tick=90, channel=3, data=[7, 36]),
   midi.NoteOnEvent(tick=70, channel=3, data=[28, 0]),
   midi.ControlChangeEvent(tick=80, channel=3, data=[10, 108]),
   midi.NoteOnEvent(tick=0, channel=3, data=[28, 79]),
   midi.ControlChangeEvent(tick=30, channel=3, data=[7, 37]),
   midi.NoteOnEvent(tick=130, channel=3, data=[28, 0]),
   midi.ControlChangeEvent(tick=50, channel=3, data=[7, 38]),
   midi.ControlChangeEvent(tick=30, channel=3, data=[10, 18]),
   midi.NoteOnEvent(tick=0, channel=3, data=[28, 79]),
   midi.NoteOnEvent(tick=160, channel=3, data=[28, 0]),
   midi.ControlChangeEvent(tick=20, channel=3, data=[7, 39]),
   midi.ControlChangeEvent(tick=60, channel=3, data=[10, 108]),
   midi.NoteOnEvent(tick=0, channel=3, data=[28, 79]),
   midi.ControlChangeEvent(tick=120, channel=3, data=[7, 40]),
   midi.NoteOnEvent(tick=40, channel=3, data=[28, 0]),
   midi.ControlChangeEvent(tick=80, channel=3, data=[10, 18]),
   midi.NoteOnEvent(tick=0, channel=3, data=[28, 79]),
   midi.ControlChangeEvent(tick=60, channel=3, data=[7, 41]),
   midi.NoteOnEvent(tick=100, channel=3, data=[28, 0]),
   midi.ControlChangeEvent(tick=80, channel=3, data=[10, 108]),
   midi.NoteOnEvent(tick=0, channel=3, data=[28, 79]),
   midi.NoteOnEvent(tick=160, channel=3, data=[28, 0]),
   midi.ControlChangeEvent(tick=20, channel=3, data=[7, 43]),
   midi.ControlChangeEvent(tick=60, channel=3, data=[10, 18]),
   midi.NoteOnEvent(tick=0, channel=3, data=[28, 79]),
   midi.ControlChangeEvent(tick=120, channel=3, data=[7, 44]),
   midi.NoteOnEvent(tick=40, channel=3, data=[28, 0]),
   midi.ControlChangeEvent(tick=80, channel=3, data=[10, 108]),
   midi.NoteOnEvent(tick=0, channel=3, data=[28, 79]),
   midi.ControlChangeEvent(tick=90, channel=3, data=[7, 45]),
   midi.NoteOnEvent(tick=70, channel=3, data=[28, 0]),
   midi.ControlChangeEvent(tick=80, channel=3, data=[10, 18]),
   midi.NoteOnEvent(tick=0, channel=3, data=[28, 79]),
   midi.ControlChangeEvent(tick=30, channel=3, data=[7, 46]),
   midi.NoteOnEvent(tick=130, channel=3, data=[28, 0]),
   midi.ControlChangeEvent(tick=50, channel=3, data=[7, 47]),
   midi.ControlChangeEvent(tick=30, channel=3, data=[10, 108]),
   midi.NoteOnEvent(tick=0, channel=3, data=[28, 79]),
   midi.ControlChangeEvent(tick=150, channel=3, data=[7, 48]),
   midi.NoteOnEvent(tick=10, channel=3, data=[28, 0]),
   midi.ControlChangeEvent(tick=80, channel=3, data=[10, 18]),
   midi.NoteOnEvent(tick=0, channel=3, data=[28, 79]),
   midi.ControlChangeEvent(tick=90, channel=3, data=[7, 49]),
   midi.NoteOnEvent(tick=70, channel=3, data=[28, 0]),
   midi.ControlChangeEvent(tick=80, channel=3, data=[10, 108]),
   midi.NoteOnEvent(tick=0, channel=3, data=[28, 79]),
   midi.ControlChangeEvent(tick=60, channel=3, data=[7, 50]),
   midi.NoteOnEvent(tick=100, channel=3, data=[28, 0]),
   midi.ControlChangeEvent(tick=80, channel=3, data=[10, 18]),
   midi.NoteOnEvent(tick=0, channel=3, data=[28, 79]),
   midi.NoteOnEvent(tick=160, channel=3, data=[28, 0]),
   midi.ControlChangeEvent(tick=20, channel=3, data=[7, 52]),
   midi.ControlChangeEvent(tick=60, channel=3, data=[10, 108]),
   midi.NoteOnEvent(tick=0, channel=3, data=[28, 79]),
   midi.ControlChangeEvent(tick=120, channel=3, data=[7, 53]),
   midi.NoteOnEvent(tick=40, channel=3, data=[28, 0]),
   midi.ControlChangeEvent(tick=80, channel=3, data=[10, 18]),
   midi.NoteOnEvent(tick=0, channel=3, data=[28, 79]),
   midi.ControlChangeEvent(tick=60, channel=3, data=[7, 54]),
   midi.NoteOnEvent(tick=100, channel=3, data=[28, 0]),
   midi.ControlChangeEvent(tick=80, channel=3, data=[10, 108]),
   midi.NoteOnEvent(tick=0, channel=3, data=[28, 79]),
   midi.NoteOnEvent(tick=160, channel=3, data=[28, 0]),
   midi.ControlChangeEvent(tick=50, channel=3, data=[7, 56]),
   midi.ControlChangeEvent(tick=30, channel=3, data=[10, 18]),
   midi.NoteOnEvent(tick=0, channel=3, data=[28, 79]),
   midi.ControlChangeEvent(tick=150, channel=3, data=[7, 57]),
   midi.NoteOnEvent(tick=10, channel=3, data=[28, 0]),
   midi.ControlChangeEvent(tick=80, channel=3, data=[10, 108]),
   midi.NoteOnEvent(tick=0, channel=3, data=[28, 79]),
   midi.ControlChangeEvent(tick=90, channel=3, data=[7, 58]),
   midi.NoteOnEvent(tick=70, channel=3, data=[28, 0]),
   midi.ControlChangeEvent(tick=80, channel=3, data=[10, 18]),
   midi.NoteOnEvent(tick=0, channel=3, data=[28, 79]),
   midi.ControlChangeEvent(tick=30, channel=3, data=[7, 59]),
   midi.NoteOnEvent(tick=130, channel=3, data=[28, 0]),
   midi.ControlChangeEvent(tick=50, channel=3, data=[7, 60]),
   midi.ControlChangeEvent(tick=30, channel=3, data=[10, 108]),
   midi.NoteOnEvent(tick=0, channel=3, data=[28, 79]),
   midi.NoteOnEvent(tick=160, channel=3, data=[28, 0]),
   midi.ControlChangeEvent(tick=20, channel=3, data=[7, 61]),
   midi.ControlChangeEvent(tick=60, channel=3, data=[10, 18]),
   midi.NoteOnEvent(tick=0, channel=3, data=[28, 79]),
   midi.ControlChangeEvent(tick=120, channel=3, data=[7, 62]),
   midi.NoteOnEvent(tick=40, channel=3, data=[28, 0]),
   midi.ControlChangeEvent(tick=80, channel=3, data=[10, 108]),
   midi.NoteOnEvent(tick=0, channel=3, data=[28, 79]),
   midi.ControlChangeEvent(tick=60, channel=3, data=[7, 63]),
   midi.NoteOnEvent(tick=100, channel=3, data=[28, 0]),
   midi.ControlChangeEvent(tick=80, channel=3, data=[10, 18]),
   midi.NoteOnEvent(tick=0, channel=3, data=[28, 79]),
   midi.NoteOnEvent(tick=160, channel=3, data=[28, 0]),
   midi.ControlChangeEvent(tick=20, channel=3, data=[7, 65]),
   midi.ControlChangeEvent(tick=60, channel=3, data=[10, 108]),
   midi.NoteOnEvent(tick=0, channel=3, data=[28, 79]),
   midi.ControlChangeEvent(tick=120, channel=3, data=[7, 66]),
   midi.NoteOnEvent(tick=40, channel=3, data=[28, 0]),
   midi.ControlChangeEvent(tick=80, channel=3, data=[10, 18]),
   midi.NoteOnEvent(tick=0, channel=3, data=[28, 79]),
   midi.ControlChangeEvent(tick=90, channel=3, data=[7, 67]),
   midi.NoteOnEvent(tick=70, channel=3, data=[28, 0]),
   midi.ControlChangeEvent(tick=80, channel=3, data=[10, 108]),
   midi.NoteOnEvent(tick=0, channel=3, data=[28, 79]),
   midi.ControlChangeEvent(tick=30, channel=3, data=[7, 68]),
   midi.NoteOnEvent(tick=130, channel=3, data=[28, 0]),
   midi.ControlChangeEvent(tick=50, channel=3, data=[7, 69]),
   midi.ControlChangeEvent(tick=30, channel=3, data=[10, 18]),
   midi.NoteOnEvent(tick=0, channel=3, data=[28, 79]),
   midi.ControlChangeEvent(tick=150, channel=3, data=[7, 70]),
   midi.NoteOnEvent(tick=10, channel=3, data=[28, 0]),
   midi.ControlChangeEvent(tick=80, channel=3, data=[10, 108]),
   midi.NoteOnEvent(tick=0, channel=3, data=[28, 79]),
   midi.ControlChangeEvent(tick=90, channel=3, data=[7, 71]),
   midi.NoteOnEvent(tick=70, channel=3, data=[28, 0]),
   midi.ControlChangeEvent(tick=80, channel=3, data=[10, 18]),
   midi.NoteOnEvent(tick=0, channel=3, data=[28, 79]),
   midi.ControlChangeEvent(tick=60, channel=3, data=[7, 72]),
   midi.NoteOnEvent(tick=100, channel=3, data=[28, 0]),
   midi.ControlChangeEvent(tick=80, channel=3, data=[10, 108]),
   midi.NoteOnEvent(tick=0, channel=3, data=[28, 79]),
   midi.NoteOnEvent(tick=160, channel=3, data=[28, 0]),
   midi.ControlChangeEvent(tick=20, channel=3, data=[7, 74]),
   midi.ControlChangeEvent(tick=60, channel=3, data=[10, 18]),
   midi.NoteOnEvent(tick=0, channel=3, data=[28, 79]),
   midi.ControlChangeEvent(tick=120, channel=3, data=[7, 75]),
   midi.NoteOnEvent(tick=40, channel=3, data=[28, 0]),
   midi.ControlChangeEvent(tick=50, channel=3, data=[10, 108]),
   midi.NoteOnEvent(tick=30, channel=3, data=[28, 79]),
   midi.ControlChangeEvent(tick=60, channel=3, data=[7, 76]),
   midi.NoteOnEvent(tick=100, channel=3, data=[28, 0]),
   midi.ControlChangeEvent(tick=50, channel=3, data=[10, 18]),
   midi.ControlChangeEvent(tick=30, channel=3, data=[7, 77]),
   midi.NoteOnEvent(tick=0, channel=3, data=[28, 79]),
   midi.NoteOnEvent(tick=160, channel=3, data=[28, 0]),
   midi.ControlChangeEvent(tick=50, channel=3, data=[10, 108]),
   midi.NoteOnEvent(tick=30, channel=3, data=[28, 79]),
   midi.ControlChangeEvent(tick=150, channel=3, data=[7, 79]),
   midi.NoteOnEvent(tick=10, channel=3, data=[28, 0]),
   midi.ControlChangeEvent(tick=50, channel=3, data=[10, 18]),
   midi.ControlChangeEvent(tick=30, channel=3, data=[10, 18]),
   midi.NoteOnEvent(tick=0, channel=3, data=[28, 79]),
   midi.ControlChangeEvent(tick=90, channel=3, data=[7, 80]),
   midi.NoteOnEvent(tick=70, channel=3, data=[28, 0]),
   midi.ControlChangeEvent(tick=50, channel=3, data=[10, 108]),
   midi.NoteOnEvent(tick=30, channel=3, data=[28, 79]),
   midi.ControlChangeEvent(tick=30, channel=3, data=[7, 81]),
   midi.NoteOnEvent(tick=130, channel=3, data=[28, 0]),
   midi.ControlChangeEvent(tick=50, channel=3, data=[10, 18]),
   midi.NoteOnEvent(tick=30, channel=3, data=[28, 79]),
   midi.NoteOnEvent(tick=160, channel=3, data=[28, 0]),
   midi.ControlChangeEvent(tick=20, channel=3, data=[7, 83]),
   midi.ControlChangeEvent(tick=30, channel=3, data=[10, 108]),
   midi.NoteOnEvent(tick=30, channel=3, data=[28, 79]),
   midi.ControlChangeEvent(tick=120, channel=3, data=[7, 84]),
   midi.NoteOnEvent(tick=40, channel=3, data=[28, 0]),
   midi.ControlChangeEvent(tick=50, channel=3, data=[10, 18]),
   midi.ControlChangeEvent(tick=30, channel=3, data=[10, 18]),
   midi.NoteOnEvent(tick=0, channel=3, data=[28, 79]),
   midi.ControlChangeEvent(tick=60, channel=3, data=[7, 85]),
   midi.NoteOnEvent(tick=100, channel=3, data=[28, 0]),
   midi.ControlChangeEvent(tick=50, channel=3, data=[10, 108]),
   midi.ControlChangeEvent(tick=30, channel=3, data=[7, 86]),
   midi.NoteOnEvent(tick=0, channel=3, data=[28, 79]),
   midi.NoteOnEvent(tick=160, channel=3, data=[28, 0]),
   midi.ControlChangeEvent(tick=20, channel=3, data=[7, 87]),
   midi.ControlChangeEvent(tick=30, channel=3, data=[10, 18]),
   midi.NoteOnEvent(tick=30, channel=3, data=[28, 79]),
   midi.ControlChangeEvent(tick=120, channel=3, data=[7, 88]),
   midi.NoteOnEvent(tick=40, channel=3, data=[28, 0]),
   midi.ControlChangeEvent(tick=50, channel=3, data=[10, 108]),
   midi.NoteOnEvent(tick=30, channel=3, data=[28, 79]),
   midi.ControlChangeEvent(tick=90, channel=3, data=[7, 89]),
   midi.NoteOnEvent(tick=70, channel=3, data=[28, 0]),
   midi.ControlChangeEvent(tick=50, channel=3, data=[10, 18]),
   midi.ControlChangeEvent(tick=30, channel=3, data=[10, 18]),
   midi.NoteOnEvent(tick=0, channel=3, data=[28, 79]),
   midi.ControlChangeEvent(tick=30, channel=3, data=[7, 90]),
   midi.NoteOnEvent(tick=130, channel=3, data=[28, 0]),
   midi.ControlChangeEvent(tick=50, channel=3, data=[10, 108]),
   midi.NoteOnEvent(tick=30, channel=3, data=[28, 79]),
   midi.ControlChangeEvent(tick=150, channel=3, data=[7, 92]),
   midi.NoteOnEvent(tick=10, channel=3, data=[28, 0]),
   midi.ControlChangeEvent(tick=50, channel=3, data=[10, 18]),
   midi.NoteOnEvent(tick=30, channel=3, data=[28, 79]),
   midi.ControlChangeEvent(tick=90, channel=3, data=[7, 93]),
   midi.NoteOnEvent(tick=70, channel=3, data=[28, 0]),
   midi.ControlChangeEvent(tick=50, channel=3, data=[10, 108]),
   midi.NoteOnEvent(tick=30, channel=3, data=[28, 79]),
   midi.ControlChangeEvent(tick=60, channel=3, data=[7, 94]),
   midi.NoteOnEvent(tick=100, channel=3, data=[28, 0]),
   midi.ControlChangeEvent(tick=50, channel=3, data=[10, 18]),
   midi.ControlChangeEvent(tick=30, channel=3, data=[7, 95]),
   midi.ControlChangeEvent(tick=0, channel=3, data=[10, 18]),
   midi.NoteOnEvent(tick=0, channel=3, data=[28, 79]),
   midi.NoteOnEvent(tick=160, channel=3, data=[28, 0]),
   midi.ControlChangeEvent(tick=20, channel=3, data=[7, 96]),
   midi.ControlChangeEvent(tick=30, channel=3, data=[10, 108]),
   midi.NoteOnEvent(tick=30, channel=3, data=[28, 79]),
   midi.ControlChangeEvent(tick=120, channel=3, data=[7, 97]),
   midi.NoteOnEvent(tick=40, channel=3, data=[28, 0]),
   midi.ControlChangeEvent(tick=50, channel=3, data=[10, 18]),
   midi.NoteOnEvent(tick=30, channel=3, data=[28, 79]),
   midi.ControlChangeEvent(tick=60, channel=3, data=[7, 98]),
   midi.NoteOnEvent(tick=100, channel=3, data=[28, 0]),
   midi.ControlChangeEvent(tick=50, channel=3, data=[10, 108]),
   midi.ControlChangeEvent(tick=30, channel=3, data=[7, 99]),
   midi.NoteOnEvent(tick=0, channel=3, data=[28, 79]),
   midi.NoteOnEvent(tick=160, channel=3, data=[28, 0]),
   midi.ControlChangeEvent(tick=50, channel=3, data=[10, 18]),
   midi.ControlChangeEvent(tick=30, channel=3, data=[10, 18]),
   midi.NoteOnEvent(tick=0, channel=3, data=[28, 79]),
   midi.ControlChangeEvent(tick=150, channel=3, data=[7, 101]),
   midi.NoteOnEvent(tick=10, channel=3, data=[28, 0]),
   midi.ControlChangeEvent(tick=50, channel=3, data=[10, 108]),
   midi.NoteOnEvent(tick=30, channel=3, data=[28, 79]),
   midi.ControlChangeEvent(tick=90, channel=3, data=[7, 102]),
   midi.NoteOnEvent(tick=70, channel=3, data=[28, 0]),
   midi.ControlChangeEvent(tick=50, channel=3, data=[10, 18]),
   midi.NoteOnEvent(tick=30, channel=3, data=[28, 79]),
   midi.ControlChangeEvent(tick=30, channel=3, data=[7, 103]),
   midi.NoteOnEvent(tick=130, channel=3, data=[28, 0]),
   midi.ControlChangeEvent(tick=50, channel=3, data=[10, 108]),
   midi.NoteOnEvent(tick=30, channel=3, data=[28, 79]),
   midi.NoteOnEvent(tick=160, channel=3, data=[28, 0]),
   midi.ControlChangeEvent(tick=20, channel=3, data=[7, 105]),
   midi.ControlChangeEvent(tick=30, channel=3, data=[10, 18]),
   midi.ControlChangeEvent(tick=30, channel=3, data=[10, 18]),
   midi.NoteOnEvent(tick=0, channel=3, data=[28, 79]),
   midi.ControlChangeEvent(tick=120, channel=3, data=[7, 106]),
   midi.NoteOnEvent(tick=40, channel=3, data=[28, 0]),
   midi.ControlChangeEvent(tick=50, channel=3, data=[10, 108]),
   midi.NoteOnEvent(tick=30, channel=3, data=[28, 79]),
   midi.ControlChangeEvent(tick=60, channel=3, data=[7, 107]),
   midi.NoteOnEvent(tick=100, channel=3, data=[28, 0]),
   midi.ControlChangeEvent(tick=50, channel=3, data=[10, 18]),
   midi.ControlChangeEvent(tick=30, channel=3, data=[7, 108]),
   midi.NoteOnEvent(tick=0, channel=3, data=[28, 79]),
   midi.NoteOnEvent(tick=160, channel=3, data=[28, 0]),
   midi.ControlChangeEvent(tick=20, channel=3, data=[7, 109]),
   midi.ControlChangeEvent(tick=30, channel=3, data=[10, 108]),
   midi.NoteOnEvent(tick=30, channel=3, data=[28, 79]),
   midi.ControlChangeEvent(tick=120, channel=3, data=[7, 110]),
   midi.NoteOnEvent(tick=40, channel=3, data=[28, 0]),
   midi.ControlChangeEvent(tick=50, channel=3, data=[10, 18]),
   midi.ControlChangeEvent(tick=30, channel=3, data=[10, 18]),
   midi.NoteOnEvent(tick=0, channel=3, data=[28, 79]),
   midi.ControlChangeEvent(tick=90, channel=3, data=[7, 111]),
   midi.NoteOnEvent(tick=70, channel=3, data=[28, 0]),
   midi.ControlChangeEvent(tick=50, channel=3, data=[10, 108]),
   midi.NoteOnEvent(tick=30, channel=3, data=[28, 79]),
   midi.ControlChangeEvent(tick=30, channel=3, data=[7, 112]),
   midi.NoteOnEvent(tick=130, channel=3, data=[28, 0]),
   midi.ControlChangeEvent(tick=50, channel=3, data=[10, 18]),
   midi.NoteOnEvent(tick=30, channel=3, data=[28, 79]),
   midi.ControlChangeEvent(tick=150, channel=3, data=[7, 114]),
   midi.NoteOnEvent(tick=10, channel=3, data=[28, 0]),
   midi.ControlChangeEvent(tick=50, channel=3, data=[10, 108]),
   midi.NoteOnEvent(tick=30, channel=3, data=[28, 79]),
   midi.ControlChangeEvent(tick=90, channel=3, data=[7, 115]),
   midi.NoteOnEvent(tick=70, channel=3, data=[28, 0]),
   midi.ControlChangeEvent(tick=50, channel=3, data=[10, 18]),
   midi.ControlChangeEvent(tick=30, channel=3, data=[10, 18]),
   midi.NoteOnEvent(tick=0, channel=3, data=[28, 79]),
   midi.ControlChangeEvent(tick=60, channel=3, data=[7, 116]),
   midi.NoteOnEvent(tick=100, channel=3, data=[28, 0]),
   midi.ControlChangeEvent(tick=50, channel=3, data=[10, 108]),
   midi.ControlChangeEvent(tick=30, channel=3, data=[7, 117]),
   midi.NoteOnEvent(tick=0, channel=3, data=[28, 79]),
   midi.NoteOnEvent(tick=160, channel=3, data=[28, 0]),
   midi.ControlChangeEvent(tick=20, channel=3, data=[7, 118]),
   midi.ControlChangeEvent(tick=30, channel=3, data=[10, 18]),
   midi.NoteOnEvent(tick=30, channel=3, data=[28, 79]),
   midi.ControlChangeEvent(tick=120, channel=3, data=[7, 119]),
   midi.NoteOnEvent(tick=40, channel=3, data=[28, 0]),
   midi.ControlChangeEvent(tick=50, channel=3, data=[10, 108]),
   midi.NoteOnEvent(tick=30, channel=3, data=[28, 79]),
   midi.ControlChangeEvent(tick=60, channel=3, data=[7, 120]),
   midi.ControlChangeEvent(tick=30, channel=3, data=[7, 121]),
   midi.NoteOnEvent(tick=70, channel=3, data=[28, 0]),
   midi.ControlChangeEvent(tick=80, channel=3, data=[10, 18]),
   midi.NoteOnEvent(tick=0, channel=3, data=[28, 79]),
   midi.ControlChangeEvent(tick=120, channel=3, data=[10, 18]),
   midi.NoteOnEvent(tick=40, channel=3, data=[28, 0]),
   midi.ControlChangeEvent(tick=80, channel=3, data=[10, 108]),
   midi.NoteOnEvent(tick=0, channel=3, data=[28, 79]),
   midi.ControlChangeEvent(tick=120, channel=3, data=[10, 108]),
   midi.NoteOnEvent(tick=40, channel=3, data=[28, 0]),
   midi.ControlChangeEvent(tick=80, channel=3, data=[10, 18]),
   midi.NoteOnEvent(tick=0, channel=3, data=[28, 79]),
   midi.ControlChangeEvent(tick=150, channel=3, data=[10, 18]),
   midi.NoteOnEvent(tick=10, channel=3, data=[28, 0]),
   midi.ControlChangeEvent(tick=80, channel=3, data=[10, 108]),
   midi.NoteOnEvent(tick=0, channel=3, data=[28, 79]),
   midi.ControlChangeEvent(tick=120, channel=3, data=[10, 108]),
   midi.NoteOnEvent(tick=40, channel=3, data=[28, 0]),
   midi.ControlChangeEvent(tick=80, channel=3, data=[10, 18]),
   midi.NoteOnEvent(tick=0, channel=3, data=[28, 79]),
   midi.ControlChangeEvent(tick=120, channel=3, data=[10, 18]),
   midi.NoteOnEvent(tick=40, channel=3, data=[28, 0]),
   midi.ControlChangeEvent(tick=80, channel=3, data=[10, 108]),
   midi.NoteOnEvent(tick=0, channel=3, data=[28, 79]),
   midi.ControlChangeEvent(tick=120, channel=3, data=[10, 108]),
   midi.NoteOnEvent(tick=40, channel=3, data=[28, 0]),
   midi.ControlChangeEvent(tick=80, channel=3, data=[10, 18]),
   midi.NoteOnEvent(tick=0, channel=3, data=[28, 79]),
   midi.ControlChangeEvent(tick=120, channel=3, data=[10, 18]),
   midi.ControlChangeEvent(tick=30, channel=3, data=[10, 18]),
   midi.NoteOnEvent(tick=10, channel=3, data=[28, 0]),
   midi.ControlChangeEvent(tick=80, channel=3, data=[10, 108]),
   midi.NoteOnEvent(tick=0, channel=3, data=[28, 79]),
   midi.ControlChangeEvent(tick=120, channel=3, data=[10, 108]),
   midi.NoteOnEvent(tick=40, channel=3, data=[28, 0]),
   midi.NoteOnEvent(tick=80, channel=3, data=[24, 79]),
   midi.ControlChangeEvent(tick=60, channel=3, data=[10, 18]),
   midi.NoteOnEvent(tick=100, channel=3, data=[24, 0]),
   midi.NoteOnEvent(tick=80, channel=3, data=[24, 79]),
   midi.ControlChangeEvent(tick=60, channel=3, data=[10, 108]),
   midi.NoteOnEvent(tick=100, channel=3, data=[24, 0]),
   midi.NoteOnEvent(tick=80, channel=3, data=[24, 79]),
   midi.ControlChangeEvent(tick=60, channel=3, data=[10, 18]),
   midi.NoteOnEvent(tick=100, channel=3, data=[24, 0]),
   midi.NoteOnEvent(tick=80, channel=3, data=[24, 79]),
   midi.ControlChangeEvent(tick=60, channel=3, data=[10, 108]),
   midi.NoteOnEvent(tick=100, channel=3, data=[24, 0]),
   midi.NoteOnEvent(tick=80, channel=3, data=[24, 79]),
   midi.ControlChangeEvent(tick=60, channel=3, data=[10, 18]),
   midi.NoteOnEvent(tick=100, channel=3, data=[24, 0]),
   midi.NoteOnEvent(tick=80, channel=3, data=[24, 79]),
   midi.ControlChangeEvent(tick=60, channel=3, data=[10, 108]),
   midi.NoteOnEvent(tick=100, channel=3, data=[24, 0]),
   midi.NoteOnEvent(tick=80, channel=3, data=[24, 79]),
   midi.ControlChangeEvent(tick=60, channel=3, data=[10, 18]),
   midi.NoteOnEvent(tick=100, channel=3, data=[24, 0]),
   midi.NoteOnEvent(tick=80, channel=3, data=[24, 79]),
   midi.ControlChangeEvent(tick=60, channel=3, data=[10, 108]),
   midi.NoteOnEvent(tick=100, channel=3, data=[24, 0]),
   midi.ControlChangeEvent(tick=80, channel=3, data=[10, 18]),
   midi.NoteOnEvent(tick=0, channel=3, data=[28, 79]),
   midi.ControlChangeEvent(tick=120, channel=3, data=[10, 18]),
   midi.NoteOnEvent(tick=40, channel=3, data=[28, 0]),
   midi.ControlChangeEvent(tick=80, channel=3, data=[10, 108]),
   midi.NoteOnEvent(tick=0, channel=3, data=[28, 79]),
   midi.ControlChangeEvent(tick=120, channel=3, data=[10, 108]),
   midi.NoteOnEvent(tick=40, channel=3, data=[28, 0]),
   midi.ControlChangeEvent(tick=80, channel=3, data=[10, 18]),
   midi.NoteOnEvent(tick=0, channel=3, data=[28, 79]),
   midi.ControlChangeEvent(tick=120, channel=3, data=[10, 18]),
   midi.ControlChangeEvent(tick=30, channel=3, data=[10, 18]),
   midi.NoteOnEvent(tick=10, channel=3, data=[28, 0]),
   midi.ControlChangeEvent(tick=80, channel=3, data=[10, 108]),
   midi.NoteOnEvent(tick=0, channel=3, data=[28, 79]),
   midi.ControlChangeEvent(tick=120, channel=3, data=[10, 108]),
   midi.NoteOnEvent(tick=40, channel=3, data=[28, 0]),
   midi.ControlChangeEvent(tick=80, channel=3, data=[10, 18]),
   midi.NoteOnEvent(tick=0, channel=3, data=[28, 79]),
   midi.ControlChangeEvent(tick=120, channel=3, data=[10, 18]),
   midi.NoteOnEvent(tick=40, channel=3, data=[28, 0]),
   midi.ControlChangeEvent(tick=80, channel=3, data=[10, 108]),
   midi.NoteOnEvent(tick=0, channel=3, data=[28, 79]),
   midi.ControlChangeEvent(tick=120, channel=3, data=[10, 108]),
   midi.NoteOnEvent(tick=40, channel=3, data=[28, 0]),
   midi.ControlChangeEvent(tick=80, channel=3, data=[10, 18]),
   midi.NoteOnEvent(tick=0, channel=3, data=[28, 79]),
   midi.ControlChangeEvent(tick=120, channel=3, data=[10, 18]),
   midi.ControlChangeEvent(tick=30, channel=3, data=[10, 18]),
   midi.NoteOnEvent(tick=10, channel=3, data=[28, 0]),
   midi.ControlChangeEvent(tick=80, channel=3, data=[10, 108]),
   midi.NoteOnEvent(tick=0, channel=3, data=[28, 79]),
   midi.ControlChangeEvent(tick=120, channel=3, data=[10, 108]),
   midi.NoteOnEvent(tick=40, channel=3, data=[28, 0]),
   midi.ControlChangeEvent(tick=80, channel=3, data=[10, 18]),
   midi.NoteOnEvent(tick=0, channel=3, data=[28, 79]),
   midi.ControlChangeEvent(tick=120, channel=3, data=[10, 18]),
   midi.NoteOnEvent(tick=40, channel=3, data=[28, 0]),
   midi.ControlChangeEvent(tick=80, channel=3, data=[10, 108]),
   midi.NoteOnEvent(tick=0, channel=3, data=[28, 79]),
   midi.ControlChangeEvent(tick=120, channel=3, data=[10, 108]),
   midi.NoteOnEvent(tick=40, channel=3, data=[28, 0]),
   midi.ControlChangeEvent(tick=80, channel=3, data=[10, 18]),
   midi.NoteOnEvent(tick=0, channel=3, data=[28, 79]),
   midi.ControlChangeEvent(tick=120, channel=3, data=[10, 18]),
   midi.ControlChangeEvent(tick=30, channel=3, data=[10, 18]),
   midi.NoteOnEvent(tick=10, channel=3, data=[28, 0]),
   midi.ControlChangeEvent(tick=80, channel=3, data=[10, 108]),
   midi.NoteOnEvent(tick=0, channel=3, data=[28, 79]),
   midi.ControlChangeEvent(tick=120, channel=3, data=[10, 108]),
   midi.NoteOnEvent(tick=40, channel=3, data=[28, 0]),
   midi.ControlChangeEvent(tick=80, channel=3, data=[10, 18]),
   midi.NoteOnEvent(tick=0, channel=3, data=[28, 79]),
   midi.ControlChangeEvent(tick=120, channel=3, data=[10, 18]),
   midi.NoteOnEvent(tick=40, channel=3, data=[28, 0]),
   midi.ControlChangeEvent(tick=80, channel=3, data=[10, 108]),
   midi.NoteOnEvent(tick=0, channel=3, data=[28, 79]),
   midi.ControlChangeEvent(tick=120, channel=3, data=[10, 108]),
   midi.NoteOnEvent(tick=40, channel=3, data=[28, 0]),
   midi.ControlChangeEvent(tick=80, channel=3, data=[10, 18]),
   midi.NoteOnEvent(tick=0, channel=3, data=[28, 79]),
   midi.ControlChangeEvent(tick=120, channel=3, data=[10, 18]),
   midi.NoteOnEvent(tick=40, channel=3, data=[28, 0]),
   midi.ControlChangeEvent(tick=80, channel=3, data=[10, 108]),
   midi.NoteOnEvent(tick=0, channel=3, data=[28, 79]),
   midi.ControlChangeEvent(tick=150, channel=3, data=[10, 108]),
   midi.NoteOnEvent(tick=10, channel=3, data=[28, 0]),
   midi.ControlChangeEvent(tick=80, channel=3, data=[10, 18]),
   midi.NoteOnEvent(tick=0, channel=3, data=[24, 79]),
   midi.ControlChangeEvent(tick=150, channel=3, data=[10, 18]),
   midi.NoteOnEvent(tick=10, channel=3, data=[24, 0]),
   midi.ControlChangeEvent(tick=80, channel=3, data=[10, 108]),
   midi.NoteOnEvent(tick=0, channel=3, data=[24, 79]),
   midi.ControlChangeEvent(tick=150, channel=3, data=[10, 108]),
   midi.NoteOnEvent(tick=10, channel=3, data=[24, 0]),
   midi.ControlChangeEvent(tick=80, channel=3, data=[10, 108]),
   midi.NoteOnEvent(tick=0, channel=3, data=[24, 79]),
   midi.ControlChangeEvent(tick=150, channel=3, data=[10, 18]),
   midi.NoteOnEvent(tick=10, channel=3, data=[24, 0]),
   midi.ControlChangeEvent(tick=80, channel=3, data=[10, 108]),
   midi.NoteOnEvent(tick=0, channel=3, data=[24, 79]),
   midi.ControlChangeEvent(tick=150, channel=3, data=[10, 108]),
   midi.NoteOnEvent(tick=10, channel=3, data=[24, 0]),
   midi.ControlChangeEvent(tick=80, channel=3, data=[10, 18]),
   midi.NoteOnEvent(tick=0, channel=3, data=[24, 79]),
   midi.ControlChangeEvent(tick=150, channel=3, data=[10, 18]),
   midi.NoteOnEvent(tick=10, channel=3, data=[24, 0]),
   midi.ControlChangeEvent(tick=80, channel=3, data=[10, 108]),
   midi.NoteOnEvent(tick=0, channel=3, data=[24, 79]),
   midi.ControlChangeEvent(tick=150, channel=3, data=[10, 108]),
   midi.NoteOnEvent(tick=10, channel=3, data=[24, 0]),
   midi.ControlChangeEvent(tick=80, channel=3, data=[10, 18]),
   midi.NoteOnEvent(tick=0, channel=3, data=[24, 79]),
   midi.ControlChangeEvent(tick=150, channel=3, data=[10, 18]),
   midi.NoteOnEvent(tick=10, channel=3, data=[24, 0]),
   midi.ControlChangeEvent(tick=80, channel=3, data=[10, 108]),
   midi.NoteOnEvent(tick=0, channel=3, data=[24, 79]),
   midi.ControlChangeEvent(tick=150, channel=3, data=[10, 108]),
   midi.NoteOnEvent(tick=10, channel=3, data=[24, 0]),
   midi.ControlChangeEvent(tick=80, channel=3, data=[10, 18]),
   midi.NoteOnEvent(tick=0, channel=3, data=[33, 79]),
   midi.ControlChangeEvent(tick=150, channel=3, data=[10, 18]),
   midi.NoteOnEvent(tick=10, channel=3, data=[33, 0]),
   midi.ControlChangeEvent(tick=80, channel=3, data=[10, 108]),
   midi.NoteOnEvent(tick=0, channel=3, data=[33, 79]),
   midi.ControlChangeEvent(tick=150, channel=3, data=[10, 108]),
   midi.NoteOnEvent(tick=10, channel=3, data=[33, 0]),
   midi.ControlChangeEvent(tick=80, channel=3, data=[10, 18]),
   midi.NoteOnEvent(tick=0, channel=3, data=[33, 79]),
   midi.ControlChangeEvent(tick=150, channel=3, data=[10, 18]),
   midi.NoteOnEvent(tick=10, channel=3, data=[33, 0]),
   midi.ControlChangeEvent(tick=80, channel=3, data=[10, 108]),
   midi.NoteOnEvent(tick=0, channel=3, data=[33, 79]),
   midi.ControlChangeEvent(tick=150, channel=3, data=[10, 108]),
   midi.NoteOnEvent(tick=10, channel=3, data=[33, 0]),
   midi.ControlChangeEvent(tick=80, channel=3, data=[10, 18]),
   midi.NoteOnEvent(tick=0, channel=3, data=[33, 79]),
   midi.ControlChangeEvent(tick=150, channel=3, data=[10, 63]),
   midi.NoteOnEvent(tick=10, channel=3, data=[33, 0]),
   midi.ControlChangeEvent(tick=80, channel=3, data=[10, 108]),
   midi.NoteOnEvent(tick=0, channel=3, data=[33, 79]),
   midi.NoteOnEvent(tick=160, channel=3, data=[33, 0]),
   midi.ControlChangeEvent(tick=80, channel=3, data=[10, 63]),
   midi.NoteOnEvent(tick=0, channel=3, data=[33, 79]),
   midi.NoteOnEvent(tick=160, channel=3, data=[33, 0]),
   midi.ControlChangeEvent(tick=80, channel=3, data=[10, 18]),
   midi.NoteOnEvent(tick=0, channel=3, data=[28, 79]),
   midi.NoteOnEvent(tick=160, channel=3, data=[28, 0]),
   midi.ControlChangeEvent(tick=80, channel=3, data=[10, 108]),
   midi.NoteOnEvent(tick=0, channel=3, data=[28, 79]),
   midi.NoteOnEvent(tick=160, channel=3, data=[28, 0]),
   midi.ControlChangeEvent(tick=80, channel=3, data=[10, 18]),
   midi.NoteOnEvent(tick=0, channel=3, data=[28, 79]),
   midi.NoteOnEvent(tick=160, channel=3, data=[28, 0]),
   midi.ControlChangeEvent(tick=80, channel=3, data=[10, 108]),
   midi.NoteOnEvent(tick=0, channel=3, data=[28, 79]),
   midi.NoteOnEvent(tick=160, channel=3, data=[28, 0]),
   midi.ControlChangeEvent(tick=80, channel=3, data=[10, 18]),
   midi.NoteOnEvent(tick=0, channel=3, data=[28, 79]),
   midi.NoteOnEvent(tick=160, channel=3, data=[28, 0]),
   midi.ControlChangeEvent(tick=80, channel=3, data=[10, 108]),
   midi.NoteOnEvent(tick=0, channel=3, data=[28, 79]),
   midi.NoteOnEvent(tick=160, channel=3, data=[28, 0]),
   midi.ControlChangeEvent(tick=80, channel=3, data=[10, 18]),
   midi.NoteOnEvent(tick=0, channel=3, data=[28, 79]),
   midi.NoteOnEvent(tick=160, channel=3, data=[28, 0]),
   midi.ControlChangeEvent(tick=80, channel=3, data=[10, 108]),
   midi.NoteOnEvent(tick=0, channel=3, data=[28, 79]),
   midi.NoteOnEvent(tick=160, channel=3, data=[28, 0]),
   midi.ControlChangeEvent(tick=80, channel=3, data=[10, 18]),
   midi.NoteOnEvent(tick=0, channel=3, data=[28, 79]),
   midi.NoteOnEvent(tick=160, channel=3, data=[28, 0]),
   midi.ControlChangeEvent(tick=80, channel=3, data=[10, 108]),
   midi.NoteOnEvent(tick=0, channel=3, data=[28, 79]),
   midi.NoteOnEvent(tick=160, channel=3, data=[28, 0]),
   midi.ControlChangeEvent(tick=80, channel=3, data=[10, 18]),
   midi.NoteOnEvent(tick=0, channel=3, data=[28, 79]),
   midi.NoteOnEvent(tick=160, channel=3, data=[28, 0]),
   midi.ControlChangeEvent(tick=80, channel=3, data=[10, 108]),
   midi.NoteOnEvent(tick=0, channel=3, data=[28, 79]),
   midi.NoteOnEvent(tick=160, channel=3, data=[28, 0]),
   midi.ControlChangeEvent(tick=80, channel=3, data=[10, 18]),
   midi.NoteOnEvent(tick=0, channel=3, data=[28, 79]),
   midi.NoteOnEvent(tick=160, channel=3, data=[28, 0]),
   midi.ControlChangeEvent(tick=80, channel=3, data=[10, 108]),
   midi.NoteOnEvent(tick=0, channel=3, data=[28, 79]),
   midi.NoteOnEvent(tick=160, channel=3, data=[28, 0]),
   midi.ControlChangeEvent(tick=80, channel=3, data=[10, 18]),
   midi.NoteOnEvent(tick=0, channel=3, data=[28, 79]),
   midi.NoteOnEvent(tick=160, channel=3, data=[28, 0]),
   midi.ControlChangeEvent(tick=80, channel=3, data=[10, 108]),
   midi.NoteOnEvent(tick=0, channel=3, data=[28, 79]),
   midi.NoteOnEvent(tick=80, channel=3, data=[28, 0]),
   midi.NoteOnEvent(tick=40, channel=3, data=[26, 79]),
   midi.NoteOnEvent(tick=80, channel=3, data=[26, 0]),
   midi.ControlChangeEvent(tick=40, channel=3, data=[10, 18]),
   midi.NoteOnEvent(tick=0, channel=3, data=[24, 79]),
   midi.NoteOnEvent(tick=160, channel=3, data=[24, 0]),
   midi.ControlChangeEvent(tick=80, channel=3, data=[10, 108]),
   midi.NoteOnEvent(tick=0, channel=3, data=[24, 79]),
   midi.NoteOnEvent(tick=160, channel=3, data=[24, 0]),
   midi.ControlChangeEvent(tick=80, channel=3, data=[10, 18]),
   midi.NoteOnEvent(tick=0, channel=3, data=[24, 79]),
   midi.NoteOnEvent(tick=160, channel=3, data=[24, 0]),
   midi.ControlChangeEvent(tick=80, channel=3, data=[10, 108]),
   midi.NoteOnEvent(tick=0, channel=3, data=[24, 79]),
   midi.NoteOnEvent(tick=160, channel=3, data=[24, 0]),
   midi.ControlChangeEvent(tick=80, channel=3, data=[10, 18]),
   midi.NoteOnEvent(tick=0, channel=3, data=[24, 79]),
   midi.NoteOnEvent(tick=160, channel=3, data=[24, 0]),
   midi.ControlChangeEvent(tick=80, channel=3, data=[10, 108]),
   midi.NoteOnEvent(tick=0, channel=3, data=[24, 79]),
   midi.NoteOnEvent(tick=160, channel=3, data=[24, 0]),
   midi.ControlChangeEvent(tick=80, channel=3, data=[10, 18]),
   midi.NoteOnEvent(tick=0, channel=3, data=[24, 79]),
   midi.NoteOnEvent(tick=160, channel=3, data=[24, 0]),
   midi.ControlChangeEvent(tick=80, channel=3, data=[10, 108]),
   midi.NoteOnEvent(tick=0, channel=3, data=[24, 79]),
   midi.NoteOnEvent(tick=160, channel=3, data=[24, 0]),
   midi.ControlChangeEvent(tick=80, channel=3, data=[10, 18]),
   midi.NoteOnEvent(tick=0, channel=3, data=[24, 79]),
   midi.NoteOnEvent(tick=160, channel=3, data=[24, 0]),
   midi.ControlChangeEvent(tick=80, channel=3, data=[10, 108]),
   midi.NoteOnEvent(tick=0, channel=3, data=[24, 79]),
   midi.NoteOnEvent(tick=160, channel=3, data=[24, 0]),
   midi.ControlChangeEvent(tick=80, channel=3, data=[10, 18]),
   midi.NoteOnEvent(tick=0, channel=3, data=[24, 79]),
   midi.NoteOnEvent(tick=160, channel=3, data=[24, 0]),
   midi.ControlChangeEvent(tick=80, channel=3, data=[10, 108]),
   midi.NoteOnEvent(tick=0, channel=3, data=[24, 79]),
   midi.NoteOnEvent(tick=160, channel=3, data=[24, 0]),
   midi.ControlChangeEvent(tick=80, channel=3, data=[10, 18]),
   midi.NoteOnEvent(tick=0, channel=3, data=[24, 79]),
   midi.NoteOnEvent(tick=160, channel=3, data=[24, 0]),
   midi.ControlChangeEvent(tick=80, channel=3, data=[10, 108]),
   midi.NoteOnEvent(tick=0, channel=3, data=[24, 79]),
   midi.NoteOnEvent(tick=160, channel=3, data=[24, 0]),
   midi.ControlChangeEvent(tick=80, channel=3, data=[10, 18]),
   midi.NoteOnEvent(tick=0, channel=3, data=[24, 79]),
   midi.NoteOnEvent(tick=160, channel=3, data=[24, 0]),
   midi.ControlChangeEvent(tick=80, channel=3, data=[10, 18]),
   midi.NoteOnEvent(tick=0, channel=3, data=[24, 79]),
   midi.NoteOnEvent(tick=160, channel=3, data=[24, 0]),
   midi.ControlChangeEvent(tick=80, channel=3, data=[10, 18]),
   midi.NoteOnEvent(tick=0, channel=3, data=[28, 79]),
   midi.NoteOnEvent(tick=160, channel=3, data=[28, 0]),
   midi.ControlChangeEvent(tick=80, channel=3, data=[10, 108]),
   midi.NoteOnEvent(tick=0, channel=3, data=[28, 79]),
   midi.NoteOnEvent(tick=160, channel=3, data=[28, 0]),
   midi.ControlChangeEvent(tick=80, channel=3, data=[10, 18]),
   midi.NoteOnEvent(tick=0, channel=3, data=[28, 79]),
   midi.NoteOnEvent(tick=160, channel=3, data=[28, 0]),
   midi.ControlChangeEvent(tick=80, channel=3, data=[10, 108]),
   midi.NoteOnEvent(tick=0, channel=3, data=[28, 79]),
   midi.NoteOnEvent(tick=160, channel=3, data=[28, 0]),
   midi.ControlChangeEvent(tick=80, channel=3, data=[10, 18]),
   midi.NoteOnEvent(tick=0, channel=3, data=[28, 79]),
   midi.NoteOnEvent(tick=160, channel=3, data=[28, 0]),
   midi.ControlChangeEvent(tick=80, channel=3, data=[10, 108]),
   midi.NoteOnEvent(tick=0, channel=3, data=[28, 79]),
   midi.NoteOnEvent(tick=160, channel=3, data=[28, 0]),
   midi.ControlChangeEvent(tick=80, channel=3, data=[10, 18]),
   midi.NoteOnEvent(tick=0, channel=3, data=[28, 79]),
   midi.NoteOnEvent(tick=160, channel=3, data=[28, 0]),
   midi.ControlChangeEvent(tick=80, channel=3, data=[10, 108]),
   midi.NoteOnEvent(tick=0, channel=3, data=[28, 79]),
   midi.NoteOnEvent(tick=160, channel=3, data=[28, 0]),
   midi.ControlChangeEvent(tick=80, channel=3, data=[10, 18]),
   midi.NoteOnEvent(tick=0, channel=3, data=[28, 79]),
   midi.NoteOnEvent(tick=160, channel=3, data=[28, 0]),
   midi.ControlChangeEvent(tick=80, channel=3, data=[10, 108]),
   midi.NoteOnEvent(tick=0, channel=3, data=[28, 79]),
   midi.NoteOnEvent(tick=160, channel=3, data=[28, 0]),
   midi.ControlChangeEvent(tick=80, channel=3, data=[10, 18]),
   midi.NoteOnEvent(tick=0, channel=3, data=[28, 79]),
   midi.NoteOnEvent(tick=160, channel=3, data=[28, 0]),
   midi.ControlChangeEvent(tick=80, channel=3, data=[10, 108]),
   midi.NoteOnEvent(tick=0, channel=3, data=[28, 79]),
   midi.NoteOnEvent(tick=160, channel=3, data=[28, 0]),
   midi.ControlChangeEvent(tick=80, channel=3, data=[10, 18]),
   midi.NoteOnEvent(tick=0, channel=3, data=[28, 79]),
   midi.NoteOnEvent(tick=160, channel=3, data=[28, 0]),
   midi.ControlChangeEvent(tick=80, channel=3, data=[10, 108]),
   midi.NoteOnEvent(tick=0, channel=3, data=[28, 79]),
   midi.NoteOnEvent(tick=160, channel=3, data=[28, 0]),
   midi.ControlChangeEvent(tick=80, channel=3, data=[10, 18]),
   midi.NoteOnEvent(tick=0, channel=3, data=[28, 79]),
   midi.NoteOnEvent(tick=160, channel=3, data=[28, 0]),
   midi.ControlChangeEvent(tick=80, channel=3, data=[10, 108]),
   midi.NoteOnEvent(tick=0, channel=3, data=[28, 79]),
   midi.NoteOnEvent(tick=80, channel=3, data=[28, 0]),
   midi.NoteOnEvent(tick=40, channel=3, data=[26, 79]),
   midi.NoteOnEvent(tick=80, channel=3, data=[26, 0]),
   midi.ControlChangeEvent(tick=40, channel=3, data=[10, 18]),
   midi.NoteOnEvent(tick=0, channel=3, data=[24, 79]),
   midi.NoteOnEvent(tick=160, channel=3, data=[24, 0]),
   midi.ControlChangeEvent(tick=80, channel=3, data=[10, 108]),
   midi.NoteOnEvent(tick=0, channel=3, data=[24, 79]),
   midi.NoteOnEvent(tick=160, channel=3, data=[24, 0]),
   midi.ControlChangeEvent(tick=80, channel=3, data=[10, 18]),
   midi.NoteOnEvent(tick=0, channel=3, data=[24, 79]),
   midi.NoteOnEvent(tick=160, channel=3, data=[24, 0]),
   midi.ControlChangeEvent(tick=80, channel=3, data=[10, 108]),
   midi.NoteOnEvent(tick=0, channel=3, data=[24, 79]),
   midi.NoteOnEvent(tick=160, channel=3, data=[24, 0]),
   midi.ControlChangeEvent(tick=80, channel=3, data=[10, 18]),
   midi.NoteOnEvent(tick=0, channel=3, data=[24, 79]),
   midi.NoteOnEvent(tick=160, channel=3, data=[24, 0]),
   midi.ControlChangeEvent(tick=80, channel=3, data=[10, 108]),
   midi.NoteOnEvent(tick=0, channel=3, data=[24, 79]),
   midi.NoteOnEvent(tick=160, channel=3, data=[24, 0]),
   midi.ControlChangeEvent(tick=80, channel=3, data=[10, 18]),
   midi.NoteOnEvent(tick=0, channel=3, data=[24, 79]),
   midi.NoteOnEvent(tick=160, channel=3, data=[24, 0]),
   midi.ControlChangeEvent(tick=80, channel=3, data=[10, 108]),
   midi.NoteOnEvent(tick=0, channel=3, data=[24, 79]),
   midi.NoteOnEvent(tick=160, channel=3, data=[24, 0]),
   midi.ControlChangeEvent(tick=80, channel=3, data=[10, 18]),
   midi.NoteOnEvent(tick=0, channel=3, data=[24, 79]),
   midi.NoteOnEvent(tick=160, channel=3, data=[24, 0]),
   midi.ControlChangeEvent(tick=80, channel=3, data=[10, 108]),
   midi.NoteOnEvent(tick=0, channel=3, data=[24, 79]),
   midi.NoteOnEvent(tick=160, channel=3, data=[24, 0]),
   midi.ControlChangeEvent(tick=80, channel=3, data=[10, 18]),
   midi.NoteOnEvent(tick=0, channel=3, data=[24, 79]),
   midi.NoteOnEvent(tick=160, channel=3, data=[24, 0]),
   midi.ControlChangeEvent(tick=80, channel=3, data=[10, 108]),
   midi.NoteOnEvent(tick=0, channel=3, data=[24, 79]),
   midi.NoteOnEvent(tick=160, channel=3, data=[24, 0]),
   midi.ControlChangeEvent(tick=80, channel=3, data=[10, 18]),
   midi.NoteOnEvent(tick=0, channel=3, data=[24, 79]),
   midi.NoteOnEvent(tick=160, channel=3, data=[24, 0]),
   midi.ControlChangeEvent(tick=80, channel=3, data=[10, 108]),
   midi.NoteOnEvent(tick=0, channel=3, data=[24, 79]),
   midi.NoteOnEvent(tick=160, channel=3, data=[24, 0]),
   midi.ControlChangeEvent(tick=80, channel=3, data=[10, 18]),
   midi.NoteOnEvent(tick=0, channel=3, data=[24, 79]),
   midi.NoteOnEvent(tick=160, channel=3, data=[24, 0]),
   midi.ControlChangeEvent(tick=80, channel=3, data=[10, 108]),
   midi.NoteOnEvent(tick=0, channel=3, data=[24, 79]),
   midi.NoteOnEvent(tick=160, channel=3, data=[24, 0]),
   midi.ControlChangeEvent(tick=80, channel=3, data=[10, 18]),
   midi.NoteOnEvent(tick=0, channel=3, data=[28, 79]),
   midi.NoteOnEvent(tick=160, channel=3, data=[28, 0]),
   midi.ControlChangeEvent(tick=80, channel=3, data=[10, 108]),
   midi.NoteOnEvent(tick=0, channel=3, data=[28, 79]),
   midi.NoteOnEvent(tick=160, channel=3, data=[28, 0]),
   midi.ControlChangeEvent(tick=80, channel=3, data=[10, 18]),
   midi.NoteOnEvent(tick=0, channel=3, data=[28, 79]),
   midi.NoteOnEvent(tick=160, channel=3, data=[28, 0]),
   midi.ControlChangeEvent(tick=80, channel=3, data=[10, 108]),
   midi.NoteOnEvent(tick=0, channel=3, data=[28, 79]),
   midi.NoteOnEvent(tick=160, channel=3, data=[28, 0]),
   midi.ControlChangeEvent(tick=80, channel=3, data=[10, 18]),
   midi.NoteOnEvent(tick=0, channel=3, data=[28, 79]),
   midi.NoteOnEvent(tick=160, channel=3, data=[28, 0]),
   midi.ControlChangeEvent(tick=80, channel=3, data=[10, 108]),
   midi.NoteOnEvent(tick=0, channel=3, data=[28, 79]),
   midi.NoteOnEvent(tick=160, channel=3, data=[28, 0]),
   midi.ControlChangeEvent(tick=80, channel=3, data=[10, 18]),
   midi.NoteOnEvent(tick=0, channel=3, data=[28, 79]),
   midi.NoteOnEvent(tick=160, channel=3, data=[28, 0]),
   midi.ControlChangeEvent(tick=80, channel=3, data=[10, 108]),
   midi.NoteOnEvent(tick=0, channel=3, data=[28, 79]),
   midi.NoteOnEvent(tick=160, channel=3, data=[28, 0]),
   midi.ControlChangeEvent(tick=80, channel=3, data=[10, 18]),
   midi.NoteOnEvent(tick=0, channel=3, data=[28, 79]),
   midi.NoteOnEvent(tick=160, channel=3, data=[28, 0]),
   midi.ControlChangeEvent(tick=80, channel=3, data=[10, 108]),
   midi.NoteOnEvent(tick=0, channel=3, data=[28, 79]),
   midi.NoteOnEvent(tick=160, channel=3, data=[28, 0]),
   midi.ControlChangeEvent(tick=80, channel=3, data=[10, 18]),
   midi.NoteOnEvent(tick=0, channel=3, data=[28, 79]),
   midi.NoteOnEvent(tick=160, channel=3, data=[28, 0]),
   midi.ControlChangeEvent(tick=80, channel=3, data=[10, 108]),
   midi.NoteOnEvent(tick=0, channel=3, data=[28, 79]),
   midi.NoteOnEvent(tick=160, channel=3, data=[28, 0]),
   midi.ControlChangeEvent(tick=80, channel=3, data=[10, 18]),
   midi.NoteOnEvent(tick=0, channel=3, data=[28, 79]),
   midi.NoteOnEvent(tick=160, channel=3, data=[28, 0]),
   midi.ControlChangeEvent(tick=80, channel=3, data=[10, 108]),
   midi.NoteOnEvent(tick=0, channel=3, data=[28, 79]),
   midi.NoteOnEvent(tick=160, channel=3, data=[28, 0]),
   midi.ControlChangeEvent(tick=80, channel=3, data=[10, 18]),
   midi.NoteOnEvent(tick=0, channel=3, data=[28, 79]),
   midi.NoteOnEvent(tick=160, channel=3, data=[28, 0]),
   midi.ControlChangeEvent(tick=80, channel=3, data=[10, 108]),
   midi.NoteOnEvent(tick=0, channel=3, data=[28, 79]),
   midi.NoteOnEvent(tick=160, channel=3, data=[28, 0]),
   midi.ControlChangeEvent(tick=80, channel=3, data=[10, 18]),
   midi.NoteOnEvent(tick=0, channel=3, data=[28, 79]),
   midi.NoteOnEvent(tick=160, channel=3, data=[28, 0]),
   midi.ControlChangeEvent(tick=80, channel=3, data=[10, 108]),
   midi.NoteOnEvent(tick=0, channel=3, data=[28, 79]),
   midi.NoteOnEvent(tick=160, channel=3, data=[28, 0]),
   midi.ControlChangeEvent(tick=80, channel=3, data=[10, 18]),
   midi.NoteOnEvent(tick=0, channel=3, data=[28, 79]),
   midi.NoteOnEvent(tick=160, channel=3, data=[28, 0]),
   midi.ControlChangeEvent(tick=80, channel=3, data=[10, 108]),
   midi.NoteOnEvent(tick=0, channel=3, data=[28, 79]),
   midi.NoteOnEvent(tick=160, channel=3, data=[28, 0]),
   midi.ControlChangeEvent(tick=80, channel=3, data=[10, 18]),
   midi.NoteOnEvent(tick=0, channel=3, data=[28, 79]),
   midi.NoteOnEvent(tick=160, channel=3, data=[28, 0]),
   midi.ControlChangeEvent(tick=80, channel=3, data=[10, 108]),
   midi.NoteOnEvent(tick=0, channel=3, data=[28, 79]),
   midi.NoteOnEvent(tick=160, channel=3, data=[28, 0]),
   midi.ControlChangeEvent(tick=80, channel=3, data=[10, 18]),
   midi.NoteOnEvent(tick=0, channel=3, data=[28, 79]),
   midi.NoteOnEvent(tick=160, channel=3, data=[28, 0]),
   midi.ControlChangeEvent(tick=80, channel=3, data=[10, 108]),
   midi.NoteOnEvent(tick=0, channel=3, data=[28, 79]),
   midi.NoteOnEvent(tick=160, channel=3, data=[28, 0]),
   midi.ControlChangeEvent(tick=80, channel=3, data=[10, 18]),
   midi.NoteOnEvent(tick=0, channel=3, data=[28, 79]),
   midi.NoteOnEvent(tick=160, channel=3, data=[28, 0]),
   midi.ControlChangeEvent(tick=80, channel=3, data=[10, 108]),
   midi.NoteOnEvent(tick=0, channel=3, data=[28, 79]),
   midi.NoteOnEvent(tick=160, channel=3, data=[28, 0]),
   midi.ControlChangeEvent(tick=80, channel=3, data=[10, 18]),
   midi.NoteOnEvent(tick=0, channel=3, data=[28, 79]),
   midi.NoteOnEvent(tick=160, channel=3, data=[28, 0]),
   midi.ControlChangeEvent(tick=80, channel=3, data=[10, 108]),
   midi.NoteOnEvent(tick=0, channel=3, data=[28, 79]),
   midi.NoteOnEvent(tick=80, channel=3, data=[28, 0]),
   midi.NoteOnEvent(tick=40, channel=3, data=[26, 79]),
   midi.NoteOnEvent(tick=80, channel=3, data=[26, 0]),
   midi.ControlChangeEvent(tick=40, channel=3, data=[10, 18]),
   midi.NoteOnEvent(tick=0, channel=3, data=[24, 79]),
   midi.NoteOnEvent(tick=160, channel=3, data=[24, 0]),
   midi.ControlChangeEvent(tick=80, channel=3, data=[10, 108]),
   midi.NoteOnEvent(tick=0, channel=3, data=[24, 79]),
   midi.NoteOnEvent(tick=160, channel=3, data=[24, 0]),
   midi.ControlChangeEvent(tick=80, channel=3, data=[10, 18]),
   midi.NoteOnEvent(tick=0, channel=3, data=[24, 79]),
   midi.NoteOnEvent(tick=160, channel=3, data=[24, 0]),
   midi.ControlChangeEvent(tick=80, channel=3, data=[10, 108]),
   midi.NoteOnEvent(tick=0, channel=3, data=[24, 79]),
   midi.NoteOnEvent(tick=160, channel=3, data=[24, 0]),
   midi.ControlChangeEvent(tick=80, channel=3, data=[10, 18]),
   midi.NoteOnEvent(tick=0, channel=3, data=[24, 79]),
   midi.NoteOnEvent(tick=160, channel=3, data=[24, 0]),
   midi.ControlChangeEvent(tick=80, channel=3, data=[10, 108]),
   midi.NoteOnEvent(tick=0, channel=3, data=[24, 79]),
   midi.NoteOnEvent(tick=160, channel=3, data=[24, 0]),
   midi.ControlChangeEvent(tick=80, channel=3, data=[10, 18]),
   midi.NoteOnEvent(tick=0, channel=3, data=[24, 79]),
   midi.NoteOnEvent(tick=160, channel=3, data=[24, 0]),
   midi.ControlChangeEvent(tick=80, channel=3, data=[10, 108]),
   midi.NoteOnEvent(tick=0, channel=3, data=[24, 79]),
   midi.NoteOnEvent(tick=160, channel=3, data=[24, 0]),
   midi.ControlChangeEvent(tick=80, channel=3, data=[10, 18]),
   midi.NoteOnEvent(tick=0, channel=3, data=[24, 79]),
   midi.NoteOnEvent(tick=160, channel=3, data=[24, 0]),
   midi.ControlChangeEvent(tick=80, channel=3, data=[10, 108]),
   midi.NoteOnEvent(tick=0, channel=3, data=[24, 79]),
   midi.NoteOnEvent(tick=160, channel=3, data=[24, 0]),
   midi.ControlChangeEvent(tick=80, channel=3, data=[10, 18]),
   midi.NoteOnEvent(tick=0, channel=3, data=[24, 79]),
   midi.NoteOnEvent(tick=160, channel=3, data=[24, 0]),
   midi.ControlChangeEvent(tick=80, channel=3, data=[10, 108]),
   midi.NoteOnEvent(tick=0, channel=3, data=[24, 79]),
   midi.NoteOnEvent(tick=160, channel=3, data=[24, 0]),
   midi.ControlChangeEvent(tick=80, channel=3, data=[10, 18]),
   midi.NoteOnEvent(tick=0, channel=3, data=[24, 79]),
   midi.NoteOnEvent(tick=160, channel=3, data=[24, 0]),
   midi.ControlChangeEvent(tick=80, channel=3, data=[10, 108]),
   midi.NoteOnEvent(tick=0, channel=3, data=[24, 79]),
   midi.NoteOnEvent(tick=160, channel=3, data=[24, 0]),
   midi.ControlChangeEvent(tick=80, channel=3, data=[10, 18]),
   midi.NoteOnEvent(tick=0, channel=3, data=[24, 79]),
   midi.NoteOnEvent(tick=160, channel=3, data=[24, 0]),
   midi.ControlChangeEvent(tick=80, channel=3, data=[10, 108]),
   midi.NoteOnEvent(tick=0, channel=3, data=[24, 79]),
   midi.NoteOnEvent(tick=160, channel=3, data=[24, 0]),
   midi.NoteOnEvent(tick=80, channel=3, data=[28, 79]),
   midi.ControlChangeEvent(tick=60, channel=3, data=[10, 18]),
   midi.NoteOnEvent(tick=100, channel=3, data=[28, 0]),
   midi.NoteOnEvent(tick=80, channel=3, data=[28, 79]),
   midi.ControlChangeEvent(tick=60, channel=3, data=[10, 108]),
   midi.NoteOnEvent(tick=100, channel=3, data=[28, 0]),
   midi.NoteOnEvent(tick=80, channel=3, data=[28, 79]),
   midi.ControlChangeEvent(tick=60, channel=3, data=[10, 18]),
   midi.NoteOnEvent(tick=100, channel=3, data=[28, 0]),
   midi.NoteOnEvent(tick=80, channel=3, data=[28, 79]),
   midi.ControlChangeEvent(tick=60, channel=3, data=[10, 108]),
   midi.NoteOnEvent(tick=100, channel=3, data=[28, 0]),
   midi.NoteOnEvent(tick=80, channel=3, data=[28, 79]),
   midi.ControlChangeEvent(tick=60, channel=3, data=[10, 18]),
   midi.NoteOnEvent(tick=100, channel=3, data=[28, 0]),
   midi.NoteOnEvent(tick=80, channel=3, data=[28, 79]),
   midi.ControlChangeEvent(tick=60, channel=3, data=[10, 108]),
   midi.NoteOnEvent(tick=100, channel=3, data=[28, 0]),
   midi.NoteOnEvent(tick=80, channel=3, data=[28, 79]),
   midi.ControlChangeEvent(tick=60, channel=3, data=[10, 18]),
   midi.NoteOnEvent(tick=100, channel=3, data=[28, 0]),
   midi.NoteOnEvent(tick=80, channel=3, data=[28, 79]),
   midi.ControlChangeEvent(tick=60, channel=3, data=[10, 108]),
   midi.NoteOnEvent(tick=100, channel=3, data=[28, 0]),
   midi.NoteOnEvent(tick=80, channel=3, data=[28, 79]),
   midi.ControlChangeEvent(tick=60, channel=3, data=[10, 18]),
   midi.NoteOnEvent(tick=100, channel=3, data=[28, 0]),
   midi.NoteOnEvent(tick=80, channel=3, data=[28, 79]),
   midi.ControlChangeEvent(tick=60, channel=3, data=[10, 108]),
   midi.NoteOnEvent(tick=100, channel=3, data=[28, 0]),
   midi.NoteOnEvent(tick=80, channel=3, data=[28, 79]),
   midi.ControlChangeEvent(tick=60, channel=3, data=[10, 18]),
   midi.NoteOnEvent(tick=100, channel=3, data=[28, 0]),
   midi.NoteOnEvent(tick=80, channel=3, data=[28, 79]),
   midi.ControlChangeEvent(tick=60, channel=3, data=[10, 108]),
   midi.NoteOnEvent(tick=100, channel=3, data=[28, 0]),
   midi.NoteOnEvent(tick=80, channel=3, data=[28, 79]),
   midi.ControlChangeEvent(tick=60, channel=3, data=[10, 18]),
   midi.NoteOnEvent(tick=100, channel=3, data=[28, 0]),
   midi.NoteOnEvent(tick=80, channel=3, data=[28, 79]),
   midi.ControlChangeEvent(tick=60, channel=3, data=[10, 108]),
   midi.NoteOnEvent(tick=100, channel=3, data=[28, 0]),
   midi.NoteOnEvent(tick=80, channel=3, data=[28, 79]),
   midi.ControlChangeEvent(tick=60, channel=3, data=[10, 18]),
   midi.NoteOnEvent(tick=100, channel=3, data=[28, 0]),
   midi.NoteOnEvent(tick=80, channel=3, data=[28, 79]),
   midi.ControlChangeEvent(tick=60, channel=3, data=[10, 108]),
   midi.NoteOnEvent(tick=100, channel=3, data=[28, 0]),
   midi.NoteOnEvent(tick=80, channel=3, data=[28, 79]),
   midi.ControlChangeEvent(tick=60, channel=3, data=[10, 18]),
   midi.NoteOnEvent(tick=100, channel=3, data=[28, 0]),
   midi.NoteOnEvent(tick=80, channel=3, data=[28, 79]),
   midi.ControlChangeEvent(tick=60, channel=3, data=[10, 108]),
   midi.NoteOnEvent(tick=100, channel=3, data=[28, 0]),
   midi.NoteOnEvent(tick=80, channel=3, data=[28, 79]),
   midi.ControlChangeEvent(tick=60, channel=3, data=[10, 18]),
   midi.NoteOnEvent(tick=100, channel=3, data=[28, 0]),
   midi.NoteOnEvent(tick=80, channel=3, data=[28, 79]),
   midi.ControlChangeEvent(tick=60, channel=3, data=[10, 108]),
   midi.NoteOnEvent(tick=100, channel=3, data=[28, 0]),
   midi.NoteOnEvent(tick=80, channel=3, data=[28, 79]),
   midi.ControlChangeEvent(tick=60, channel=3, data=[10, 18]),
   midi.NoteOnEvent(tick=100, channel=3, data=[28, 0]),
   midi.NoteOnEvent(tick=80, channel=3, data=[28, 79]),
   midi.ControlChangeEvent(tick=60, channel=3, data=[10, 108]),
   midi.NoteOnEvent(tick=100, channel=3, data=[28, 0]),
   midi.NoteOnEvent(tick=80, channel=3, data=[28, 79]),
   midi.ControlChangeEvent(tick=60, channel=3, data=[10, 18]),
   midi.NoteOnEvent(tick=100, channel=3, data=[28, 0]),
   midi.NoteOnEvent(tick=80, channel=3, data=[28, 79]),
   midi.ControlChangeEvent(tick=60, channel=3, data=[10, 108]),
   midi.NoteOnEvent(tick=100, channel=3, data=[28, 0]),
   midi.NoteOnEvent(tick=80, channel=3, data=[28, 79]),
   midi.ControlChangeEvent(tick=60, channel=3, data=[10, 18]),
   midi.NoteOnEvent(tick=100, channel=3, data=[28, 0]),
   midi.NoteOnEvent(tick=80, channel=3, data=[28, 79]),
   midi.ControlChangeEvent(tick=60, channel=3, data=[10, 108]),
   midi.NoteOnEvent(tick=100, channel=3, data=[28, 0]),
   midi.NoteOnEvent(tick=80, channel=3, data=[28, 79]),
   midi.ControlChangeEvent(tick=60, channel=3, data=[10, 18]),
   midi.NoteOnEvent(tick=100, channel=3, data=[28, 0]),
   midi.NoteOnEvent(tick=80, channel=3, data=[28, 79]),
   midi.ControlChangeEvent(tick=60, channel=3, data=[10, 108]),
   midi.NoteOnEvent(tick=100, channel=3, data=[28, 0]),
   midi.NoteOnEvent(tick=80, channel=3, data=[28, 79]),
   midi.ControlChangeEvent(tick=60, channel=3, data=[10, 18]),
   midi.NoteOnEvent(tick=100, channel=3, data=[28, 0]),
   midi.NoteOnEvent(tick=80, channel=3, data=[28, 79]),
   midi.ControlChangeEvent(tick=60, channel=3, data=[10, 108]),
   midi.NoteOnEvent(tick=100, channel=3, data=[28, 0]),
   midi.NoteOnEvent(tick=80, channel=3, data=[28, 79]),
   midi.ControlChangeEvent(tick=60, channel=3, data=[10, 18]),
   midi.NoteOnEvent(tick=100, channel=3, data=[28, 0]),
   midi.NoteOnEvent(tick=80, channel=3, data=[28, 79]),
   midi.ControlChangeEvent(tick=60, channel=3, data=[10, 108]),
   midi.NoteOnEvent(tick=20, channel=3, data=[28, 0]),
   midi.NoteOnEvent(tick=55, channel=3, data=[26, 79]),
   midi.NoteOnEvent(tick=80, channel=3, data=[26, 0]),
   midi.ControlChangeEvent(tick=25, channel=3, data=[10, 18]),
   midi.NoteOnEvent(tick=0, channel=3, data=[24, 79]),
   midi.NoteOnEvent(tick=160, channel=3, data=[24, 0]),
   midi.ControlChangeEvent(tick=80, channel=3, data=[10, 108]),
   midi.NoteOnEvent(tick=0, channel=3, data=[24, 79]),
   midi.NoteOnEvent(tick=160, channel=3, data=[24, 0]),
   midi.ControlChangeEvent(tick=80, channel=3, data=[10, 18]),
   midi.NoteOnEvent(tick=0, channel=3, data=[24, 79]),
   midi.NoteOnEvent(tick=160, channel=3, data=[24, 0]),
   midi.ControlChangeEvent(tick=80, channel=3, data=[10, 108]),
   midi.NoteOnEvent(tick=0, channel=3, data=[24, 79]),
   midi.NoteOnEvent(tick=160, channel=3, data=[24, 0]),
   midi.ControlChangeEvent(tick=80, channel=3, data=[10, 18]),
   midi.NoteOnEvent(tick=0, channel=3, data=[24, 79]),
   midi.NoteOnEvent(tick=160, channel=3, data=[24, 0]),
   midi.ControlChangeEvent(tick=80, channel=3, data=[10, 108]),
   midi.NoteOnEvent(tick=0, channel=3, data=[24, 79]),
   midi.NoteOnEvent(tick=160, channel=3, data=[24, 0]),
   midi.ControlChangeEvent(tick=80, channel=3, data=[10, 18]),
   midi.NoteOnEvent(tick=0, channel=3, data=[24, 79]),
   midi.NoteOnEvent(tick=160, channel=3, data=[24, 0]),
   midi.ControlChangeEvent(tick=80, channel=3, data=[10, 108]),
   midi.NoteOnEvent(tick=0, channel=3, data=[24, 79]),
   midi.NoteOnEvent(tick=160, channel=3, data=[24, 0]),
   midi.ControlChangeEvent(tick=80, channel=3, data=[10, 18]),
   midi.NoteOnEvent(tick=0, channel=3, data=[24, 79]),
   midi.NoteOnEvent(tick=160, channel=3, data=[24, 0]),
   midi.ControlChangeEvent(tick=80, channel=3, data=[10, 108]),
   midi.NoteOnEvent(tick=0, channel=3, data=[24, 79]),
   midi.NoteOnEvent(tick=160, channel=3, data=[24, 0]),
   midi.ControlChangeEvent(tick=80, channel=3, data=[10, 18]),
   midi.NoteOnEvent(tick=0, channel=3, data=[24, 79]),
   midi.NoteOnEvent(tick=160, channel=3, data=[24, 0]),
   midi.ControlChangeEvent(tick=80, channel=3, data=[10, 108]),
   midi.NoteOnEvent(tick=0, channel=3, data=[24, 79]),
   midi.NoteOnEvent(tick=160, channel=3, data=[24, 0]),
   midi.ControlChangeEvent(tick=80, channel=3, data=[10, 18]),
   midi.NoteOnEvent(tick=0, channel=3, data=[24, 79]),
   midi.NoteOnEvent(tick=160, channel=3, data=[24, 0]),
   midi.ControlChangeEvent(tick=80, channel=3, data=[10, 108]),
   midi.NoteOnEvent(tick=0, channel=3, data=[24, 79]),
   midi.NoteOnEvent(tick=160, channel=3, data=[24, 0]),
   midi.ControlChangeEvent(tick=80, channel=3, data=[10, 18]),
   midi.NoteOnEvent(tick=0, channel=3, data=[24, 79]),
   midi.NoteOnEvent(tick=160, channel=3, data=[24, 0]),
   midi.ControlChangeEvent(tick=80, channel=3, data=[10, 108]),
   midi.NoteOnEvent(tick=0, channel=3, data=[24, 79]),
   midi.NoteOnEvent(tick=80, channel=3, data=[24, 0]),
   midi.NoteOnEvent(tick=40, channel=3, data=[23, 79]),
   midi.NoteOnEvent(tick=80, channel=3, data=[23, 0]),
   midi.ControlChangeEvent(tick=40, channel=3, data=[10, 18]),
   midi.NoteOnEvent(tick=0, channel=3, data=[28, 79]),
   midi.NoteOnEvent(tick=160, channel=3, data=[28, 0]),
   midi.ControlChangeEvent(tick=80, channel=3, data=[10, 108]),
   midi.NoteOnEvent(tick=0, channel=3, data=[28, 79]),
   midi.NoteOnEvent(tick=160, channel=3, data=[28, 0]),
   midi.ControlChangeEvent(tick=80, channel=3, data=[10, 18]),
   midi.NoteOnEvent(tick=0, channel=3, data=[28, 79]),
   midi.NoteOnEvent(tick=160, channel=3, data=[28, 0]),
   midi.ControlChangeEvent(tick=80, channel=3, data=[10, 108]),
   midi.NoteOnEvent(tick=0, channel=3, data=[28, 79]),
   midi.NoteOnEvent(tick=160, channel=3, data=[28, 0]),
   midi.ControlChangeEvent(tick=80, channel=3, data=[10, 18]),
   midi.NoteOnEvent(tick=0, channel=3, data=[28, 79]),
   midi.NoteOnEvent(tick=160, channel=3, data=[28, 0]),
   midi.ControlChangeEvent(tick=80, channel=3, data=[10, 108]),
   midi.NoteOnEvent(tick=0, channel=3, data=[28, 79]),
   midi.NoteOnEvent(tick=160, channel=3, data=[28, 0]),
   midi.ControlChangeEvent(tick=80, channel=3, data=[10, 18]),
   midi.NoteOnEvent(tick=0, channel=3, data=[28, 79]),
   midi.NoteOnEvent(tick=160, channel=3, data=[28, 0]),
   midi.ControlChangeEvent(tick=80, channel=3, data=[10, 108]),
   midi.NoteOnEvent(tick=0, channel=3, data=[28, 79]),
   midi.NoteOnEvent(tick=160, channel=3, data=[28, 0]),
   midi.ControlChangeEvent(tick=80, channel=3, data=[10, 18]),
   midi.NoteOnEvent(tick=0, channel=3, data=[28, 79]),
   midi.NoteOnEvent(tick=160, channel=3, data=[28, 0]),
   midi.ControlChangeEvent(tick=80, channel=3, data=[10, 108]),
   midi.NoteOnEvent(tick=0, channel=3, data=[28, 79]),
   midi.NoteOnEvent(tick=160, channel=3, data=[28, 0]),
   midi.ControlChangeEvent(tick=80, channel=3, data=[10, 18]),
   midi.NoteOnEvent(tick=0, channel=3, data=[28, 79]),
   midi.NoteOnEvent(tick=160, channel=3, data=[28, 0]),
   midi.ControlChangeEvent(tick=80, channel=3, data=[10, 108]),
   midi.NoteOnEvent(tick=0, channel=3, data=[28, 79]),
   midi.NoteOnEvent(tick=160, channel=3, data=[28, 0]),
   midi.ControlChangeEvent(tick=80, channel=3, data=[10, 18]),
   midi.NoteOnEvent(tick=0, channel=3, data=[28, 79]),
   midi.NoteOnEvent(tick=160, channel=3, data=[28, 0]),
   midi.ControlChangeEvent(tick=80, channel=3, data=[10, 108]),
   midi.NoteOnEvent(tick=0, channel=3, data=[28, 79]),
   midi.NoteOnEvent(tick=160, channel=3, data=[28, 0]),
   midi.ControlChangeEvent(tick=80, channel=3, data=[10, 18]),
   midi.NoteOnEvent(tick=0, channel=3, data=[28, 79]),
   midi.NoteOnEvent(tick=160, channel=3, data=[28, 0]),
   midi.ControlChangeEvent(tick=80, channel=3, data=[10, 108]),
   midi.NoteOnEvent(tick=0, channel=3, data=[28, 79]),
   midi.NoteOnEvent(tick=160, channel=3, data=[28, 0]),
   midi.ControlChangeEvent(tick=80, channel=3, data=[10, 18]),
   midi.NoteOnEvent(tick=0, channel=3, data=[28, 79]),
   midi.NoteOnEvent(tick=160, channel=3, data=[28, 0]),
   midi.ControlChangeEvent(tick=80, channel=3, data=[10, 63]),
   midi.NoteOnEvent(tick=0, channel=3, data=[28, 79]),
   midi.NoteOnEvent(tick=160, channel=3, data=[28, 0]),
   midi.ControlChangeEvent(tick=80, channel=3, data=[10, 108]),
   midi.NoteOnEvent(tick=0, channel=3, data=[28, 79]),
   midi.NoteOnEvent(tick=160, channel=3, data=[28, 0]),
   midi.ControlChangeEvent(tick=80, channel=3, data=[10, 18]),
   midi.NoteOnEvent(tick=0, channel=3, data=[28, 79]),
   midi.NoteOnEvent(tick=160, channel=3, data=[28, 0]),
   midi.ControlChangeEvent(tick=80, channel=3, data=[10, 63]),
   midi.NoteOnEvent(tick=0, channel=3, data=[28, 79]),
   midi.NoteOnEvent(tick=160, channel=3, data=[28, 0]),
   midi.ControlChangeEvent(tick=80, channel=3, data=[10, 108]),
   midi.NoteOnEvent(tick=0, channel=3, data=[28, 79]),
   midi.NoteOnEvent(tick=160, channel=3, data=[28, 0]),
   midi.ControlChangeEvent(tick=80, channel=3, data=[10, 18]),
   midi.NoteOnEvent(tick=0, channel=3, data=[28, 79]),
   midi.NoteOnEvent(tick=160, channel=3, data=[28, 0]),
   midi.ControlChangeEvent(tick=80, channel=3, data=[10, 63]),
   midi.NoteOnEvent(tick=0, channel=3, data=[28, 79]),
   midi.NoteOnEvent(tick=160, channel=3, data=[28, 0]),
   midi.ControlChangeEvent(tick=80, channel=3, data=[10, 108]),
   midi.NoteOnEvent(tick=0, channel=3, data=[28, 79]),
   midi.NoteOnEvent(tick=160, channel=3, data=[28, 0]),
   midi.ControlChangeEvent(tick=80, channel=3, data=[10, 18]),
   midi.NoteOnEvent(tick=0, channel=3, data=[28, 79]),
   midi.NoteOnEvent(tick=160, channel=3, data=[28, 0]),
   midi.ControlChangeEvent(tick=80, channel=3, data=[10, 63]),
   midi.NoteOnEvent(tick=0, channel=3, data=[28, 79]),
   midi.NoteOnEvent(tick=160, channel=3, data=[28, 0]),
   midi.ControlChangeEvent(tick=80, channel=3, data=[10, 108]),
   midi.NoteOnEvent(tick=0, channel=3, data=[28, 79]),
   midi.NoteOnEvent(tick=160, channel=3, data=[28, 0]),
   midi.ControlChangeEvent(tick=80, channel=3, data=[10, 18]),
   midi.NoteOnEvent(tick=0, channel=3, data=[28, 79]),
   midi.NoteOnEvent(tick=160, channel=3, data=[28, 0]),
   midi.ControlChangeEvent(tick=80, channel=3, data=[10, 63]),
   midi.NoteOnEvent(tick=0, channel=3, data=[28, 79]),
   midi.NoteOnEvent(tick=160, channel=3, data=[28, 0]),
   midi.ControlChangeEvent(tick=80, channel=3, data=[10, 108]),
   midi.NoteOnEvent(tick=0, channel=3, data=[28, 79]),
   midi.NoteOnEvent(tick=160, channel=3, data=[28, 0]),
   midi.ControlChangeEvent(tick=80, channel=3, data=[10, 18]),
   midi.NoteOnEvent(tick=0, channel=3, data=[28, 79]),
   midi.NoteOnEvent(tick=160, channel=3, data=[28, 0]),
   midi.ControlChangeEvent(tick=80, channel=3, data=[10, 63]),
   midi.NoteOnEvent(tick=0, channel=3, data=[28, 79]),
   midi.NoteOnEvent(tick=160, channel=3, data=[28, 0]),
   midi.ControlChangeEvent(tick=80, channel=3, data=[10, 108]),
   midi.NoteOnEvent(tick=0, channel=3, data=[28, 79]),
   midi.NoteOnEvent(tick=160, channel=3, data=[28, 0]),
   midi.ControlChangeEvent(tick=80, channel=3, data=[10, 18]),
   midi.NoteOnEvent(tick=0, channel=3, data=[28, 79]),
   midi.NoteOnEvent(tick=160, channel=3, data=[28, 0]),
   midi.ControlChangeEvent(tick=80, channel=3, data=[10, 63]),
   midi.NoteOnEvent(tick=0, channel=3, data=[28, 79]),
   midi.NoteOnEvent(tick=160, channel=3, data=[28, 0]),
   midi.ControlChangeEvent(tick=80, channel=3, data=[10, 108]),
   midi.NoteOnEvent(tick=0, channel=3, data=[28, 79]),
   midi.NoteOnEvent(tick=160, channel=3, data=[28, 0]),
   midi.ControlChangeEvent(tick=80, channel=3, data=[10, 18]),
   midi.NoteOnEvent(tick=0, channel=3, data=[28, 79]),
   midi.NoteOnEvent(tick=160, channel=3, data=[28, 0]),
   midi.ControlChangeEvent(tick=80, channel=3, data=[10, 63]),
   midi.NoteOnEvent(tick=0, channel=3, data=[28, 79]),
   midi.NoteOnEvent(tick=160, channel=3, data=[28, 0]),
   midi.ControlChangeEvent(tick=80, channel=3, data=[10, 108]),
   midi.NoteOnEvent(tick=0, channel=3, data=[28, 79]),
   midi.NoteOnEvent(tick=160, channel=3, data=[28, 0]),
   midi.ControlChangeEvent(tick=80, channel=3, data=[10, 18]),
   midi.NoteOnEvent(tick=0, channel=3, data=[24, 79]),
   midi.NoteOnEvent(tick=200, channel=3, data=[24, 0]),
   midi.ControlChangeEvent(tick=40, channel=3, data=[10, 63]),
   midi.NoteOnEvent(tick=0, channel=3, data=[24, 79]),
   midi.NoteOnEvent(tick=200, channel=3, data=[24, 0]),
   midi.ControlChangeEvent(tick=40, channel=3, data=[10, 108]),
   midi.NoteOnEvent(tick=0, channel=3, data=[24, 79]),
   midi.NoteOnEvent(tick=200, channel=3, data=[24, 0]),
   midi.ControlChangeEvent(tick=40, channel=3, data=[10, 18]),
   midi.NoteOnEvent(tick=0, channel=3, data=[24, 79]),
   midi.NoteOnEvent(tick=200, channel=3, data=[24, 0]),
   midi.ControlChangeEvent(tick=40, channel=3, data=[10, 63]),
   midi.NoteOnEvent(tick=0, channel=3, data=[24, 79]),
   midi.NoteOnEvent(tick=200, channel=3, data=[24, 0]),
   midi.ControlChangeEvent(tick=40, channel=3, data=[10, 108]),
   midi.NoteOnEvent(tick=0, channel=3, data=[24, 79]),
   midi.NoteOnEvent(tick=200, channel=3, data=[24, 0]),
   midi.ControlChangeEvent(tick=40, channel=3, data=[10, 18]),
   midi.NoteOnEvent(tick=0, channel=3, data=[24, 79]),
   midi.NoteOnEvent(tick=200, channel=3, data=[24, 0]),
   midi.ControlChangeEvent(tick=40, channel=3, data=[10, 63]),
   midi.NoteOnEvent(tick=0, channel=3, data=[24, 79]),
   midi.NoteOnEvent(tick=200, channel=3, data=[24, 0]),
   midi.ControlChangeEvent(tick=40, channel=3, data=[10, 108]),
   midi.NoteOnEvent(tick=0, channel=3, data=[24, 79]),
   midi.NoteOnEvent(tick=200, channel=3, data=[24, 0]),
   midi.ControlChangeEvent(tick=40, channel=3, data=[10, 18]),
   midi.NoteOnEvent(tick=0, channel=3, data=[24, 79]),
   midi.NoteOnEvent(tick=200, channel=3, data=[24, 0]),
   midi.ControlChangeEvent(tick=40, channel=3, data=[10, 63]),
   midi.NoteOnEvent(tick=0, channel=3, data=[24, 79]),
   midi.NoteOnEvent(tick=200, channel=3, data=[24, 0]),
   midi.ControlChangeEvent(tick=40, channel=3, data=[10, 108]),
   midi.NoteOnEvent(tick=0, channel=3, data=[24, 79]),
   midi.NoteOnEvent(tick=200, channel=3, data=[24, 0]),
   midi.ControlChangeEvent(tick=40, channel=3, data=[10, 18]),
   midi.NoteOnEvent(tick=0, channel=3, data=[28, 79]),
   midi.NoteOnEvent(tick=160, channel=3, data=[28, 0]),
   midi.ControlChangeEvent(tick=80, channel=3, data=[10, 63]),
   midi.NoteOnEvent(tick=0, channel=3, data=[28, 79]),
   midi.NoteOnEvent(tick=160, channel=3, data=[28, 0]),
   midi.ControlChangeEvent(tick=80, channel=3, data=[10, 108]),
   midi.NoteOnEvent(tick=0, channel=3, data=[28, 79]),
   midi.NoteOnEvent(tick=160, channel=3, data=[28, 0]),
   midi.ControlChangeEvent(tick=80, channel=3, data=[10, 18]),
   midi.NoteOnEvent(tick=0, channel=3, data=[28, 79]),
   midi.NoteOnEvent(tick=160, channel=3, data=[28, 0]),
   midi.ControlChangeEvent(tick=80, channel=3, data=[10, 63]),
   midi.NoteOnEvent(tick=0, channel=3, data=[28, 79]),
   midi.NoteOnEvent(tick=160, channel=3, data=[28, 0]),
   midi.ControlChangeEvent(tick=80, channel=3, data=[10, 108]),
   midi.NoteOnEvent(tick=0, channel=3, data=[28, 79]),
   midi.NoteOnEvent(tick=160, channel=3, data=[28, 0]),
   midi.ControlChangeEvent(tick=80, channel=3, data=[10, 18]),
   midi.NoteOnEvent(tick=0, channel=3, data=[28, 79]),
   midi.NoteOnEvent(tick=160, channel=3, data=[28, 0]),
   midi.ControlChangeEvent(tick=80, channel=3, data=[10, 63]),
   midi.NoteOnEvent(tick=0, channel=3, data=[28, 79]),
   midi.NoteOnEvent(tick=160, channel=3, data=[28, 0]),
   midi.ControlChangeEvent(tick=80, channel=3, data=[10, 108]),
   midi.NoteOnEvent(tick=0, channel=3, data=[28, 79]),
   midi.NoteOnEvent(tick=160, channel=3, data=[28, 0]),
   midi.ControlChangeEvent(tick=80, channel=3, data=[10, 18]),
   midi.NoteOnEvent(tick=0, channel=3, data=[28, 79]),
   midi.NoteOnEvent(tick=160, channel=3, data=[28, 0]),
   midi.ControlChangeEvent(tick=80, channel=3, data=[10, 63]),
   midi.NoteOnEvent(tick=0, channel=3, data=[28, 79]),
   midi.NoteOnEvent(tick=160, channel=3, data=[28, 0]),
   midi.ControlChangeEvent(tick=80, channel=3, data=[10, 108]),
   midi.NoteOnEvent(tick=0, channel=3, data=[28, 79]),
   midi.NoteOnEvent(tick=160, channel=3, data=[28, 0]),
   midi.ControlChangeEvent(tick=80, channel=3, data=[10, 18]),
   midi.NoteOnEvent(tick=0, channel=3, data=[28, 79]),
   midi.NoteOnEvent(tick=160, channel=3, data=[28, 0]),
   midi.ControlChangeEvent(tick=80, channel=3, data=[10, 63]),
   midi.NoteOnEvent(tick=0, channel=3, data=[28, 79]),
   midi.NoteOnEvent(tick=160, channel=3, data=[28, 0]),
   midi.ControlChangeEvent(tick=80, channel=3, data=[10, 108]),
   midi.NoteOnEvent(tick=0, channel=3, data=[28, 79]),
   midi.NoteOnEvent(tick=160, channel=3, data=[28, 0]),
   midi.ControlChangeEvent(tick=80, channel=3, data=[10, 18]),
   midi.NoteOnEvent(tick=0, channel=3, data=[28, 79]),
   midi.NoteOnEvent(tick=160, channel=3, data=[28, 0]),
   midi.ControlChangeEvent(tick=80, channel=3, data=[10, 63]),
   midi.NoteOnEvent(tick=0, channel=3, data=[28, 79]),
   midi.NoteOnEvent(tick=160, channel=3, data=[28, 0]),
   midi.ControlChangeEvent(tick=80, channel=3, data=[10, 108]),
   midi.NoteOnEvent(tick=0, channel=3, data=[28, 79]),
   midi.NoteOnEvent(tick=160, channel=3, data=[28, 0]),
   midi.ControlChangeEvent(tick=80, channel=3, data=[10, 18]),
   midi.NoteOnEvent(tick=0, channel=3, data=[28, 79]),
   midi.NoteOnEvent(tick=160, channel=3, data=[28, 0]),
   midi.ControlChangeEvent(tick=80, channel=3, data=[10, 63]),
   midi.NoteOnEvent(tick=0, channel=3, data=[28, 79]),
   midi.NoteOnEvent(tick=160, channel=3, data=[28, 0]),
   midi.ControlChangeEvent(tick=80, channel=3, data=[10, 108]),
   midi.NoteOnEvent(tick=0, channel=3, data=[28, 79]),
   midi.NoteOnEvent(tick=160, channel=3, data=[28, 0]),
   midi.ControlChangeEvent(tick=80, channel=3, data=[10, 18]),
   midi.NoteOnEvent(tick=0, channel=3, data=[28, 79]),
   midi.NoteOnEvent(tick=160, channel=3, data=[28, 0]),
   midi.ControlChangeEvent(tick=80, channel=3, data=[10, 63]),
   midi.NoteOnEvent(tick=0, channel=3, data=[28, 79]),
   midi.NoteOnEvent(tick=160, channel=3, data=[28, 0]),
   midi.ControlChangeEvent(tick=80, channel=3, data=[10, 108]),
   midi.NoteOnEvent(tick=0, channel=3, data=[28, 79]),
   midi.NoteOnEvent(tick=160, channel=3, data=[28, 0]),
   midi.ControlChangeEvent(tick=80, channel=3, data=[10, 18]),
   midi.NoteOnEvent(tick=0, channel=3, data=[28, 79]),
   midi.NoteOnEvent(tick=160, channel=3, data=[28, 0]),
   midi.ControlChangeEvent(tick=80, channel=3, data=[10, 63]),
   midi.NoteOnEvent(tick=0, channel=3, data=[28, 79]),
   midi.NoteOnEvent(tick=160, channel=3, data=[28, 0]),
   midi.ControlChangeEvent(tick=80, channel=3, data=[10, 108]),
   midi.NoteOnEvent(tick=0, channel=3, data=[28, 79]),
   midi.NoteOnEvent(tick=160, channel=3, data=[28, 0]),
   midi.ControlChangeEvent(tick=80, channel=3, data=[10, 18]),
   midi.NoteOnEvent(tick=0, channel=3, data=[28, 79]),
   midi.NoteOnEvent(tick=160, channel=3, data=[28, 0]),
   midi.ControlChangeEvent(tick=80, channel=3, data=[10, 63]),
   midi.NoteOnEvent(tick=0, channel=3, data=[28, 79]),
   midi.NoteOnEvent(tick=160, channel=3, data=[28, 0]),
   midi.ControlChangeEvent(tick=80, channel=3, data=[10, 108]),
   midi.NoteOnEvent(tick=0, channel=3, data=[28, 79]),
   midi.NoteOnEvent(tick=160, channel=3, data=[28, 0]),
   midi.ControlChangeEvent(tick=80, channel=3, data=[10, 18]),
   midi.NoteOnEvent(tick=0, channel=3, data=[28, 79]),
   midi.NoteOnEvent(tick=160, channel=3, data=[28, 0]),
   midi.ControlChangeEvent(tick=80, channel=3, data=[10, 63]),
   midi.NoteOnEvent(tick=0, channel=3, data=[28, 79]),
   midi.NoteOnEvent(tick=160, channel=3, data=[28, 0]),
   midi.ControlChangeEvent(tick=80, channel=3, data=[10, 108]),
   midi.NoteOnEvent(tick=0, channel=3, data=[28, 79]),
   midi.NoteOnEvent(tick=160, channel=3, data=[28, 0]),
   midi.ControlChangeEvent(tick=80, channel=3, data=[10, 18]),
   midi.NoteOnEvent(tick=0, channel=3, data=[28, 79]),
   midi.NoteOnEvent(tick=160, channel=3, data=[28, 0]),
   midi.ControlChangeEvent(tick=80, channel=3, data=[10, 63]),
   midi.NoteOnEvent(tick=0, channel=3, data=[28, 79]),
   midi.NoteOnEvent(tick=160, channel=3, data=[28, 0]),
   midi.ControlChangeEvent(tick=80, channel=3, data=[10, 108]),
   midi.NoteOnEvent(tick=0, channel=3, data=[28, 79]),
   midi.NoteOnEvent(tick=160, channel=3, data=[28, 0]),
   midi.ControlChangeEvent(tick=80, channel=3, data=[10, 18]),
   midi.NoteOnEvent(tick=0, channel=3, data=[24, 79]),
   midi.NoteOnEvent(tick=200, channel=3, data=[24, 0]),
   midi.ControlChangeEvent(tick=40, channel=3, data=[10, 63]),
   midi.NoteOnEvent(tick=0, channel=3, data=[24, 79]),
   midi.NoteOnEvent(tick=200, channel=3, data=[24, 0]),
   midi.ControlChangeEvent(tick=40, channel=3, data=[10, 108]),
   midi.NoteOnEvent(tick=0, channel=3, data=[24, 79]),
   midi.NoteOnEvent(tick=200, channel=3, data=[24, 0]),
   midi.ControlChangeEvent(tick=40, channel=3, data=[10, 18]),
   midi.NoteOnEvent(tick=0, channel=3, data=[24, 79]),
   midi.NoteOnEvent(tick=200, channel=3, data=[24, 0]),
   midi.ControlChangeEvent(tick=40, channel=3, data=[10, 63]),
   midi.NoteOnEvent(tick=0, channel=3, data=[24, 79]),
   midi.NoteOnEvent(tick=200, channel=3, data=[24, 0]),
   midi.ControlChangeEvent(tick=40, channel=3, data=[10, 108]),
   midi.NoteOnEvent(tick=0, channel=3, data=[24, 79]),
   midi.NoteOnEvent(tick=200, channel=3, data=[24, 0]),
   midi.ControlChangeEvent(tick=40, channel=3, data=[10, 18]),
   midi.NoteOnEvent(tick=0, channel=3, data=[24, 79]),
   midi.NoteOnEvent(tick=200, channel=3, data=[24, 0]),
   midi.ControlChangeEvent(tick=40, channel=3, data=[10, 63]),
   midi.NoteOnEvent(tick=0, channel=3, data=[24, 79]),
   midi.NoteOnEvent(tick=200, channel=3, data=[24, 0]),
   midi.ControlChangeEvent(tick=40, channel=3, data=[10, 108]),
   midi.NoteOnEvent(tick=0, channel=3, data=[24, 79]),
   midi.NoteOnEvent(tick=200, channel=3, data=[24, 0]),
   midi.ControlChangeEvent(tick=40, channel=3, data=[10, 18]),
   midi.NoteOnEvent(tick=0, channel=3, data=[24, 79]),
   midi.NoteOnEvent(tick=200, channel=3, data=[24, 0]),
   midi.ControlChangeEvent(tick=40, channel=3, data=[10, 63]),
   midi.NoteOnEvent(tick=0, channel=3, data=[24, 79]),
   midi.NoteOnEvent(tick=200, channel=3, data=[24, 0]),
   midi.ControlChangeEvent(tick=40, channel=3, data=[10, 108]),
   midi.NoteOnEvent(tick=0, channel=3, data=[24, 79]),
   midi.NoteOnEvent(tick=200, channel=3, data=[24, 0]),
   midi.ControlChangeEvent(tick=40, channel=3, data=[10, 18]),
   midi.NoteOnEvent(tick=0, channel=3, data=[28, 79]),
   midi.NoteOnEvent(tick=160, channel=3, data=[28, 0]),
   midi.ControlChangeEvent(tick=80, channel=3, data=[10, 63]),
   midi.NoteOnEvent(tick=0, channel=3, data=[28, 79]),
   midi.NoteOnEvent(tick=160, channel=3, data=[28, 0]),
   midi.ControlChangeEvent(tick=80, channel=3, data=[10, 108]),
   midi.NoteOnEvent(tick=0, channel=3, data=[28, 79]),
   midi.NoteOnEvent(tick=160, channel=3, data=[28, 0]),
   midi.ControlChangeEvent(tick=80, channel=3, data=[10, 18]),
   midi.NoteOnEvent(tick=0, channel=3, data=[28, 79]),
   midi.NoteOnEvent(tick=160, channel=3, data=[28, 0]),
   midi.ControlChangeEvent(tick=80, channel=3, data=[10, 63]),
   midi.NoteOnEvent(tick=0, channel=3, data=[28, 79]),
   midi.NoteOnEvent(tick=160, channel=3, data=[28, 0]),
   midi.ControlChangeEvent(tick=80, channel=3, data=[10, 108]),
   midi.NoteOnEvent(tick=0, channel=3, data=[28, 79]),
   midi.NoteOnEvent(tick=160, channel=3, data=[28, 0]),
   midi.ControlChangeEvent(tick=80, channel=3, data=[10, 18]),
   midi.NoteOnEvent(tick=0, channel=3, data=[28, 79]),
   midi.NoteOnEvent(tick=160, channel=3, data=[28, 0]),
   midi.ControlChangeEvent(tick=80, channel=3, data=[10, 63]),
   midi.NoteOnEvent(tick=0, channel=3, data=[28, 79]),
   midi.NoteOnEvent(tick=160, channel=3, data=[28, 0]),
   midi.ControlChangeEvent(tick=80, channel=3, data=[10, 108]),
   midi.NoteOnEvent(tick=0, channel=3, data=[28, 79]),
   midi.NoteOnEvent(tick=160, channel=3, data=[28, 0]),
   midi.ControlChangeEvent(tick=80, channel=3, data=[10, 18]),
   midi.NoteOnEvent(tick=0, channel=3, data=[28, 79]),
   midi.NoteOnEvent(tick=160, channel=3, data=[28, 0]),
   midi.ControlChangeEvent(tick=80, channel=3, data=[10, 63]),
   midi.NoteOnEvent(tick=0, channel=3, data=[28, 79]),
   midi.NoteOnEvent(tick=160, channel=3, data=[28, 0]),
   midi.ControlChangeEvent(tick=80, channel=3, data=[10, 108]),
   midi.NoteOnEvent(tick=0, channel=3, data=[28, 79]),
   midi.NoteOnEvent(tick=160, channel=3, data=[28, 0]),
   midi.ControlChangeEvent(tick=80, channel=3, data=[10, 18]),
   midi.NoteOnEvent(tick=0, channel=3, data=[24, 79]),
   midi.NoteOnEvent(tick=200, channel=3, data=[24, 0]),
   midi.ControlChangeEvent(tick=40, channel=3, data=[10, 63]),
   midi.NoteOnEvent(tick=0, channel=3, data=[24, 79]),
   midi.NoteOnEvent(tick=200, channel=3, data=[24, 0]),
   midi.ControlChangeEvent(tick=40, channel=3, data=[10, 108]),
   midi.NoteOnEvent(tick=0, channel=3, data=[24, 79]),
   midi.NoteOnEvent(tick=200, channel=3, data=[24, 0]),
   midi.ControlChangeEvent(tick=40, channel=3, data=[10, 18]),
   midi.NoteOnEvent(tick=0, channel=3, data=[24, 79]),
   midi.NoteOnEvent(tick=200, channel=3, data=[24, 0]),
   midi.ControlChangeEvent(tick=40, channel=3, data=[10, 63]),
   midi.NoteOnEvent(tick=0, channel=3, data=[24, 79]),
   midi.NoteOnEvent(tick=200, channel=3, data=[24, 0]),
   midi.ControlChangeEvent(tick=40, channel=3, data=[10, 108]),
   midi.NoteOnEvent(tick=0, channel=3, data=[24, 79]),
   midi.NoteOnEvent(tick=200, channel=3, data=[24, 0]),
   midi.ControlChangeEvent(tick=40, channel=3, data=[10, 18]),
   midi.NoteOnEvent(tick=0, channel=3, data=[28, 79]),
   midi.NoteOnEvent(tick=160, channel=3, data=[28, 0]),
   midi.ControlChangeEvent(tick=80, channel=3, data=[10, 63]),
   midi.NoteOnEvent(tick=0, channel=3, data=[28, 79]),
   midi.NoteOnEvent(tick=160, channel=3, data=[28, 0]),
   midi.ControlChangeEvent(tick=80, channel=3, data=[10, 108]),
   midi.NoteOnEvent(tick=0, channel=3, data=[28, 79]),
   midi.NoteOnEvent(tick=160, channel=3, data=[28, 0]),
   midi.ControlChangeEvent(tick=80, channel=3, data=[10, 18]),
   midi.NoteOnEvent(tick=0, channel=3, data=[28, 79]),
   midi.NoteOnEvent(tick=160, channel=3, data=[28, 0]),
   midi.ControlChangeEvent(tick=80, channel=3, data=[10, 63]),
   midi.NoteOnEvent(tick=0, channel=3, data=[28, 79]),
   midi.NoteOnEvent(tick=160, channel=3, data=[28, 0]),
   midi.ControlChangeEvent(tick=80, channel=3, data=[10, 108]),
   midi.NoteOnEvent(tick=0, channel=3, data=[28, 79]),
   midi.NoteOnEvent(tick=160, channel=3, data=[28, 0]),
   midi.ControlChangeEvent(tick=80, channel=3, data=[10, 18]),
   midi.NoteOnEvent(tick=0, channel=3, data=[24, 79]),
   midi.NoteOnEvent(tick=200, channel=3, data=[24, 0]),
   midi.ControlChangeEvent(tick=40, channel=3, data=[10, 63]),
   midi.NoteOnEvent(tick=0, channel=3, data=[24, 79]),
   midi.NoteOnEvent(tick=200, channel=3, data=[24, 0]),
   midi.ControlChangeEvent(tick=40, channel=3, data=[10, 108]),
   midi.NoteOnEvent(tick=0, channel=3, data=[24, 79]),
   midi.NoteOnEvent(tick=200, channel=3, data=[24, 0]),
   midi.ControlChangeEvent(tick=40, channel=3, data=[10, 18]),
   midi.NoteOnEvent(tick=0, channel=3, data=[24, 79]),
   midi.NoteOnEvent(tick=200, channel=3, data=[24, 0]),
   midi.ControlChangeEvent(tick=40, channel=3, data=[10, 63]),
   midi.NoteOnEvent(tick=0, channel=3, data=[24, 79]),
   midi.NoteOnEvent(tick=200, channel=3, data=[24, 0]),
   midi.ControlChangeEvent(tick=40, channel=3, data=[10, 108]),
   midi.NoteOnEvent(tick=0, channel=3, data=[24, 79]),
   midi.NoteOnEvent(tick=200, channel=3, data=[24, 0]),
   midi.ControlChangeEvent(tick=40, channel=3, data=[10, 18]),
   midi.NoteOnEvent(tick=0, channel=3, data=[28, 79]),
   midi.NoteOnEvent(tick=160, channel=3, data=[28, 0]),
   midi.ControlChangeEvent(tick=80, channel=3, data=[10, 63]),
   midi.NoteOnEvent(tick=0, channel=3, data=[28, 79]),
   midi.NoteOnEvent(tick=160, channel=3, data=[28, 0]),
   midi.ControlChangeEvent(tick=80, channel=3, data=[10, 108]),
   midi.NoteOnEvent(tick=0, channel=3, data=[28, 79]),
   midi.NoteOnEvent(tick=160, channel=3, data=[28, 0]),
   midi.ControlChangeEvent(tick=80, channel=3, data=[10, 18]),
   midi.NoteOnEvent(tick=0, channel=3, data=[28, 79]),
   midi.NoteOnEvent(tick=160, channel=3, data=[28, 0]),
   midi.ControlChangeEvent(tick=80, channel=3, data=[10, 63]),
   midi.NoteOnEvent(tick=0, channel=3, data=[28, 79]),
   midi.NoteOnEvent(tick=160, channel=3, data=[28, 0]),
   midi.ControlChangeEvent(tick=80, channel=3, data=[10, 108]),
   midi.NoteOnEvent(tick=0, channel=3, data=[28, 79]),
   midi.NoteOnEvent(tick=160, channel=3, data=[28, 0]),
   midi.ControlChangeEvent(tick=80, channel=3, data=[10, 18]),
   midi.NoteOnEvent(tick=0, channel=3, data=[28, 79]),
   midi.NoteOnEvent(tick=160, channel=3, data=[28, 0]),
   midi.ControlChangeEvent(tick=80, channel=3, data=[10, 63]),
   midi.NoteOnEvent(tick=0, channel=3, data=[28, 79]),
   midi.NoteOnEvent(tick=160, channel=3, data=[28, 0]),
   midi.ControlChangeEvent(tick=80, channel=3, data=[10, 108]),
   midi.NoteOnEvent(tick=0, channel=3, data=[28, 79]),
   midi.NoteOnEvent(tick=160, channel=3, data=[28, 0]),
   midi.ControlChangeEvent(tick=80, channel=3, data=[10, 18]),
   midi.NoteOnEvent(tick=0, channel=3, data=[28, 79]),
   midi.NoteOnEvent(tick=160, channel=3, data=[28, 0]),
   midi.ControlChangeEvent(tick=80, channel=3, data=[10, 63]),
   midi.NoteOnEvent(tick=0, channel=3, data=[28, 79]),
   midi.NoteOnEvent(tick=160, channel=3, data=[28, 0]),
   midi.ControlChangeEvent(tick=80, channel=3, data=[10, 108]),
   midi.NoteOnEvent(tick=0, channel=3, data=[28, 79]),
   midi.NoteOnEvent(tick=160, channel=3, data=[28, 0]),
   midi.ControlChangeEvent(tick=80, channel=3, data=[10, 18]),
   midi.NoteOnEvent(tick=0, channel=3, data=[28, 79]),
   midi.NoteOnEvent(tick=160, channel=3, data=[28, 0]),
   midi.ControlChangeEvent(tick=80, channel=3, data=[10, 63]),
   midi.NoteOnEvent(tick=0, channel=3, data=[28, 79]),
   midi.NoteOnEvent(tick=160, channel=3, data=[28, 0]),
   midi.ControlChangeEvent(tick=80, channel=3, data=[10, 108]),
   midi.NoteOnEvent(tick=0, channel=3, data=[28, 79]),
   midi.NoteOnEvent(tick=160, channel=3, data=[28, 0]),
   midi.ControlChangeEvent(tick=80, channel=3, data=[10, 18]),
   midi.NoteOnEvent(tick=0, channel=3, data=[28, 79]),
   midi.NoteOnEvent(tick=160, channel=3, data=[28, 0]),
   midi.ControlChangeEvent(tick=80, channel=3, data=[10, 63]),
   midi.NoteOnEvent(tick=0, channel=3, data=[28, 79]),
   midi.NoteOnEvent(tick=160, channel=3, data=[28, 0]),
   midi.ControlChangeEvent(tick=80, channel=3, data=[10, 108]),
   midi.NoteOnEvent(tick=0, channel=3, data=[28, 79]),
   midi.NoteOnEvent(tick=160, channel=3, data=[28, 0]),
   midi.ControlChangeEvent(tick=80, channel=3, data=[10, 18]),
   midi.NoteOnEvent(tick=0, channel=3, data=[28, 79]),
   midi.NoteOnEvent(tick=160, channel=3, data=[28, 0]),
   midi.ControlChangeEvent(tick=80, channel=3, data=[10, 63]),
   midi.NoteOnEvent(tick=0, channel=3, data=[28, 79]),
   midi.NoteOnEvent(tick=160, channel=3, data=[28, 0]),
   midi.ControlChangeEvent(tick=80, channel=3, data=[10, 108]),
   midi.NoteOnEvent(tick=0, channel=3, data=[28, 79]),
   midi.NoteOnEvent(tick=160, channel=3, data=[28, 0]),
   midi.ControlChangeEvent(tick=80, channel=3, data=[10, 18]),
   midi.NoteOnEvent(tick=0, channel=3, data=[28, 79]),
   midi.NoteOnEvent(tick=160, channel=3, data=[28, 0]),
   midi.ControlChangeEvent(tick=80, channel=3, data=[10, 63]),
   midi.NoteOnEvent(tick=0, channel=3, data=[28, 79]),
   midi.NoteOnEvent(tick=160, channel=3, data=[28, 0]),
   midi.ControlChangeEvent(tick=80, channel=3, data=[10, 108]),
   midi.NoteOnEvent(tick=0, channel=3, data=[28, 79]),
   midi.NoteOnEvent(tick=160, channel=3, data=[28, 0]),
   midi.ControlChangeEvent(tick=80, channel=3, data=[10, 18]),
   midi.NoteOnEvent(tick=0, channel=3, data=[28, 79]),
   midi.NoteOnEvent(tick=160, channel=3, data=[28, 0]),
   midi.ControlChangeEvent(tick=80, channel=3, data=[10, 63]),
   midi.NoteOnEvent(tick=0, channel=3, data=[28, 79]),
   midi.NoteOnEvent(tick=160, channel=3, data=[28, 0]),
   midi.ControlChangeEvent(tick=80, channel=3, data=[10, 108]),
   midi.NoteOnEvent(tick=0, channel=3, data=[28, 79]),
   midi.NoteOnEvent(tick=160, channel=3, data=[28, 0]),
   midi.ControlChangeEvent(tick=80, channel=3, data=[10, 18]),
   midi.NoteOnEvent(tick=0, channel=3, data=[28, 79]),
   midi.NoteOnEvent(tick=160, channel=3, data=[28, 0]),
   midi.ControlChangeEvent(tick=80, channel=3, data=[10, 63]),
   midi.NoteOnEvent(tick=0, channel=3, data=[28, 79]),
   midi.NoteOnEvent(tick=160, channel=3, data=[28, 0]),
   midi.ControlChangeEvent(tick=80, channel=3, data=[10, 108]),
   midi.NoteOnEvent(tick=0, channel=3, data=[28, 79]),
   midi.NoteOnEvent(tick=160, channel=3, data=[28, 0]),
   midi.ControlChangeEvent(tick=80, channel=3, data=[10, 18]),
   midi.NoteOnEvent(tick=0, channel=3, data=[24, 79]),
   midi.NoteOnEvent(tick=200, channel=3, data=[24, 0]),
   midi.ControlChangeEvent(tick=40, channel=3, data=[10, 63]),
   midi.NoteOnEvent(tick=0, channel=3, data=[24, 79]),
   midi.NoteOnEvent(tick=200, channel=3, data=[24, 0]),
   midi.ControlChangeEvent(tick=40, channel=3, data=[10, 108]),
   midi.NoteOnEvent(tick=0, channel=3, data=[24, 79]),
   midi.NoteOnEvent(tick=200, channel=3, data=[24, 0]),
   midi.ControlChangeEvent(tick=40, channel=3, data=[10, 18]),
   midi.NoteOnEvent(tick=0, channel=3, data=[24, 79]),
   midi.NoteOnEvent(tick=200, channel=3, data=[24, 0]),
   midi.ControlChangeEvent(tick=40, channel=3, data=[10, 63]),
   midi.NoteOnEvent(tick=0, channel=3, data=[24, 79]),
   midi.NoteOnEvent(tick=200, channel=3, data=[24, 0]),
   midi.ControlChangeEvent(tick=40, channel=3, data=[10, 108]),
   midi.NoteOnEvent(tick=0, channel=3, data=[24, 79]),
   midi.NoteOnEvent(tick=200, channel=3, data=[24, 0]),
   midi.ControlChangeEvent(tick=40, channel=3, data=[10, 18]),
   midi.NoteOnEvent(tick=0, channel=3, data=[24, 79]),
   midi.NoteOnEvent(tick=200, channel=3, data=[24, 0]),
   midi.ControlChangeEvent(tick=40, channel=3, data=[10, 63]),
   midi.NoteOnEvent(tick=0, channel=3, data=[24, 79]),
   midi.NoteOnEvent(tick=200, channel=3, data=[24, 0]),
   midi.ControlChangeEvent(tick=40, channel=3, data=[10, 108]),
   midi.NoteOnEvent(tick=0, channel=3, data=[24, 79]),
   midi.NoteOnEvent(tick=200, channel=3, data=[24, 0]),
   midi.ControlChangeEvent(tick=40, channel=3, data=[10, 18]),
   midi.NoteOnEvent(tick=0, channel=3, data=[24, 79]),
   midi.NoteOnEvent(tick=200, channel=3, data=[24, 0]),
   midi.ControlChangeEvent(tick=40, channel=3, data=[10, 63]),
   midi.NoteOnEvent(tick=0, channel=3, data=[24, 79]),
   midi.NoteOnEvent(tick=200, channel=3, data=[24, 0]),
   midi.ControlChangeEvent(tick=40, channel=3, data=[10, 108]),
   midi.NoteOnEvent(tick=0, channel=3, data=[24, 79]),
   midi.NoteOnEvent(tick=200, channel=3, data=[24, 0]),
   midi.ControlChangeEvent(tick=40, channel=3, data=[10, 18]),
   midi.NoteOnEvent(tick=0, channel=3, data=[28, 79]),
   midi.NoteOnEvent(tick=160, channel=3, data=[28, 0]),
   midi.ControlChangeEvent(tick=80, channel=3, data=[10, 63]),
   midi.NoteOnEvent(tick=0, channel=3, data=[28, 79]),
   midi.NoteOnEvent(tick=160, channel=3, data=[28, 0]),
   midi.ControlChangeEvent(tick=80, channel=3, data=[10, 108]),
   midi.NoteOnEvent(tick=0, channel=3, data=[28, 79]),
   midi.NoteOnEvent(tick=160, channel=3, data=[28, 0]),
   midi.ControlChangeEvent(tick=80, channel=3, data=[10, 18]),
   midi.NoteOnEvent(tick=0, channel=3, data=[28, 79]),
   midi.NoteOnEvent(tick=160, channel=3, data=[28, 0]),
   midi.ControlChangeEvent(tick=80, channel=3, data=[10, 63]),
   midi.NoteOnEvent(tick=0, channel=3, data=[28, 79]),
   midi.NoteOnEvent(tick=160, channel=3, data=[28, 0]),
   midi.ControlChangeEvent(tick=80, channel=3, data=[10, 108]),
   midi.NoteOnEvent(tick=0, channel=3, data=[28, 79]),
   midi.NoteOnEvent(tick=160, channel=3, data=[28, 0]),
   midi.ControlChangeEvent(tick=80, channel=3, data=[10, 18]),
   midi.NoteOnEvent(tick=0, channel=3, data=[28, 79]),
   midi.NoteOnEvent(tick=160, channel=3, data=[28, 0]),
   midi.ControlChangeEvent(tick=80, channel=3, data=[10, 63]),
   midi.NoteOnEvent(tick=0, channel=3, data=[28, 79]),
   midi.NoteOnEvent(tick=160, channel=3, data=[28, 0]),
   midi.ControlChangeEvent(tick=80, channel=3, data=[10, 108]),
   midi.NoteOnEvent(tick=0, channel=3, data=[28, 79]),
   midi.NoteOnEvent(tick=160, channel=3, data=[28, 0]),
   midi.ControlChangeEvent(tick=80, channel=3, data=[10, 18]),
   midi.NoteOnEvent(tick=0, channel=3, data=[28, 79]),
   midi.NoteOnEvent(tick=160, channel=3, data=[28, 0]),
   midi.ControlChangeEvent(tick=80, channel=3, data=[10, 63]),
   midi.NoteOnEvent(tick=0, channel=3, data=[28, 79]),
   midi.NoteOnEvent(tick=160, channel=3, data=[28, 0]),
   midi.ControlChangeEvent(tick=80, channel=3, data=[10, 108]),
   midi.NoteOnEvent(tick=0, channel=3, data=[28, 79]),
   midi.NoteOnEvent(tick=160, channel=3, data=[28, 0]),
   midi.ControlChangeEvent(tick=80, channel=3, data=[10, 18]),
   midi.NoteOnEvent(tick=0, channel=3, data=[28, 79]),
   midi.NoteOnEvent(tick=160, channel=3, data=[28, 0]),
   midi.ControlChangeEvent(tick=80, channel=3, data=[10, 108]),
   midi.NoteOnEvent(tick=0, channel=3, data=[28, 79]),
   midi.NoteOnEvent(tick=160, channel=3, data=[28, 0]),
   midi.ControlChangeEvent(tick=80, channel=3, data=[10, 18]),
   midi.NoteOnEvent(tick=0, channel=3, data=[28, 79]),
   midi.NoteOnEvent(tick=160, channel=3, data=[28, 0]),
   midi.ControlChangeEvent(tick=80, channel=3, data=[10, 108]),
   midi.NoteOnEvent(tick=0, channel=3, data=[28, 79]),
   midi.NoteOnEvent(tick=160, channel=3, data=[28, 0]),
   midi.ControlChangeEvent(tick=80, channel=3, data=[10, 18]),
   midi.NoteOnEvent(tick=0, channel=3, data=[28, 79]),
   midi.NoteOnEvent(tick=160, channel=3, data=[28, 0]),
   midi.ControlChangeEvent(tick=80, channel=3, data=[10, 108]),
   midi.NoteOnEvent(tick=0, channel=3, data=[28, 79]),
   midi.NoteOnEvent(tick=160, channel=3, data=[28, 0]),
   midi.ControlChangeEvent(tick=80, channel=3, data=[10, 18]),
   midi.NoteOnEvent(tick=0, channel=3, data=[28, 79]),
   midi.NoteOnEvent(tick=160, channel=3, data=[28, 0]),
   midi.ControlChangeEvent(tick=80, channel=3, data=[10, 108]),
   midi.NoteOnEvent(tick=0, channel=3, data=[28, 79]),
   midi.NoteOnEvent(tick=160, channel=3, data=[28, 0]),
   midi.ControlChangeEvent(tick=80, channel=3, data=[10, 18]),
   midi.NoteOnEvent(tick=0, channel=3, data=[24, 79]),
   midi.NoteOnEvent(tick=160, channel=3, data=[24, 0]),
   midi.ControlChangeEvent(tick=80, channel=3, data=[10, 108]),
   midi.NoteOnEvent(tick=0, channel=3, data=[24, 79]),
   midi.NoteOnEvent(tick=160, channel=3, data=[24, 0]),
   midi.ControlChangeEvent(tick=80, channel=3, data=[10, 18]),
   midi.NoteOnEvent(tick=0, channel=3, data=[24, 79]),
   midi.NoteOnEvent(tick=160, channel=3, data=[24, 0]),
   midi.ControlChangeEvent(tick=80, channel=3, data=[10, 108]),
   midi.NoteOnEvent(tick=0, channel=3, data=[24, 79]),
   midi.NoteOnEvent(tick=160, channel=3, data=[24, 0]),
   midi.ControlChangeEvent(tick=80, channel=3, data=[10, 18]),
   midi.NoteOnEvent(tick=0, channel=3, data=[24, 79]),
   midi.NoteOnEvent(tick=160, channel=3, data=[24, 0]),
   midi.ControlChangeEvent(tick=80, channel=3, data=[10, 108]),
   midi.NoteOnEvent(tick=0, channel=3, data=[24, 79]),
   midi.NoteOnEvent(tick=160, channel=3, data=[24, 0]),
   midi.ControlChangeEvent(tick=80, channel=3, data=[10, 18]),
   midi.NoteOnEvent(tick=0, channel=3, data=[24, 79]),
   midi.NoteOnEvent(tick=160, channel=3, data=[24, 0]),
   midi.ControlChangeEvent(tick=80, channel=3, data=[10, 108]),
   midi.NoteOnEvent(tick=0, channel=3, data=[24, 79]),
   midi.NoteOnEvent(tick=160, channel=3, data=[24, 0]),
   midi.ControlChangeEvent(tick=80, channel=3, data=[10, 18]),
   midi.NoteOnEvent(tick=0, channel=3, data=[28, 79]),
   midi.NoteOnEvent(tick=160, channel=3, data=[28, 0]),
   midi.ControlChangeEvent(tick=80, channel=3, data=[10, 108]),
   midi.NoteOnEvent(tick=0, channel=3, data=[28, 79]),
   midi.NoteOnEvent(tick=160, channel=3, data=[28, 0]),
   midi.ControlChangeEvent(tick=80, channel=3, data=[10, 18]),
   midi.NoteOnEvent(tick=0, channel=3, data=[28, 79]),
   midi.NoteOnEvent(tick=160, channel=3, data=[28, 0]),
   midi.ControlChangeEvent(tick=80, channel=3, data=[10, 108]),
   midi.NoteOnEvent(tick=0, channel=3, data=[28, 79]),
   midi.NoteOnEvent(tick=160, channel=3, data=[28, 0]),
   midi.ControlChangeEvent(tick=80, channel=3, data=[10, 18]),
   midi.NoteOnEvent(tick=0, channel=3, data=[28, 79]),
   midi.NoteOnEvent(tick=160, channel=3, data=[28, 0]),
   midi.ControlChangeEvent(tick=80, channel=3, data=[10, 108]),
   midi.NoteOnEvent(tick=0, channel=3, data=[28, 79]),
   midi.NoteOnEvent(tick=160, channel=3, data=[28, 0]),
   midi.ControlChangeEvent(tick=80, channel=3, data=[10, 18]),
   midi.NoteOnEvent(tick=0, channel=3, data=[28, 79]),
   midi.NoteOnEvent(tick=160, channel=3, data=[28, 0]),
   midi.ControlChangeEvent(tick=80, channel=3, data=[10, 108]),
   midi.NoteOnEvent(tick=0, channel=3, data=[28, 79]),
   midi.NoteOnEvent(tick=160, channel=3, data=[28, 0]),
   midi.ControlChangeEvent(tick=80, channel=3, data=[10, 18]),
   midi.NoteOnEvent(tick=0, channel=3, data=[28, 79]),
   midi.NoteOnEvent(tick=160, channel=3, data=[28, 0]),
   midi.ControlChangeEvent(tick=80, channel=3, data=[10, 108]),
   midi.NoteOnEvent(tick=0, channel=3, data=[28, 79]),
   midi.NoteOnEvent(tick=160, channel=3, data=[28, 0]),
   midi.ControlChangeEvent(tick=80, channel=3, data=[10, 18]),
   midi.NoteOnEvent(tick=0, channel=3, data=[28, 79]),
   midi.NoteOnEvent(tick=160, channel=3, data=[28, 0]),
   midi.ControlChangeEvent(tick=80, channel=3, data=[10, 108]),
   midi.NoteOnEvent(tick=0, channel=3, data=[28, 79]),
   midi.NoteOnEvent(tick=160, channel=3, data=[28, 0]),
   midi.ControlChangeEvent(tick=80, channel=3, data=[10, 18]),
   midi.NoteOnEvent(tick=0, channel=3, data=[28, 79]),
   midi.NoteOnEvent(tick=160, channel=3, data=[28, 0]),
   midi.ControlChangeEvent(tick=80, channel=3, data=[10, 108]),
   midi.NoteOnEvent(tick=0, channel=3, data=[28, 79]),
   midi.NoteOnEvent(tick=160, channel=3, data=[28, 0]),
   midi.ControlChangeEvent(tick=80, channel=3, data=[10, 18]),
   midi.NoteOnEvent(tick=0, channel=3, data=[28, 79]),
   midi.NoteOnEvent(tick=160, channel=3, data=[28, 0]),
   midi.ControlChangeEvent(tick=80, channel=3, data=[10, 108]),
   midi.NoteOnEvent(tick=0, channel=3, data=[28, 79]),
   midi.NoteOnEvent(tick=160, channel=3, data=[28, 0]),
   midi.ControlChangeEvent(tick=80, channel=3, data=[10, 18]),
   midi.NoteOnEvent(tick=0, channel=3, data=[24, 79]),
   midi.NoteOnEvent(tick=160, channel=3, data=[24, 0]),
   midi.ControlChangeEvent(tick=80, channel=3, data=[10, 108]),
   midi.NoteOnEvent(tick=0, channel=3, data=[24, 79]),
   midi.NoteOnEvent(tick=160, channel=3, data=[24, 0]),
   midi.ControlChangeEvent(tick=80, channel=3, data=[10, 18]),
   midi.NoteOnEvent(tick=0, channel=3, data=[24, 79]),
   midi.NoteOnEvent(tick=160, channel=3, data=[24, 0]),
   midi.ControlChangeEvent(tick=80, channel=3, data=[10, 108]),
   midi.NoteOnEvent(tick=0, channel=3, data=[24, 79]),
   midi.NoteOnEvent(tick=160, channel=3, data=[24, 0]),
   midi.ControlChangeEvent(tick=80, channel=3, data=[10, 18]),
   midi.NoteOnEvent(tick=0, channel=3, data=[24, 79]),
   midi.NoteOnEvent(tick=160, channel=3, data=[24, 0]),
   midi.ControlChangeEvent(tick=80, channel=3, data=[10, 108]),
   midi.NoteOnEvent(tick=0, channel=3, data=[24, 79]),
   midi.NoteOnEvent(tick=160, channel=3, data=[24, 0]),
   midi.ControlChangeEvent(tick=80, channel=3, data=[10, 18]),
   midi.NoteOnEvent(tick=0, channel=3, data=[24, 79]),
   midi.NoteOnEvent(tick=160, channel=3, data=[24, 0]),
   midi.ControlChangeEvent(tick=80, channel=3, data=[10, 108]),
   midi.NoteOnEvent(tick=0, channel=3, data=[24, 79]),
   midi.NoteOnEvent(tick=160, channel=3, data=[24, 0]),
   midi.ControlChangeEvent(tick=80, channel=3, data=[10, 18]),
   midi.NoteOnEvent(tick=0, channel=3, data=[21, 79]),
   midi.NoteOnEvent(tick=160, channel=3, data=[21, 0]),
   midi.ControlChangeEvent(tick=80, channel=3, data=[10, 108]),
   midi.NoteOnEvent(tick=0, channel=3, data=[21, 79]),
   midi.NoteOnEvent(tick=160, channel=3, data=[21, 0]),
   midi.ControlChangeEvent(tick=80, channel=3, data=[10, 18]),
   midi.NoteOnEvent(tick=0, channel=3, data=[21, 79]),
   midi.NoteOnEvent(tick=160, channel=3, data=[21, 0]),
   midi.ControlChangeEvent(tick=80, channel=3, data=[10, 108]),
   midi.NoteOnEvent(tick=0, channel=3, data=[21, 79]),
   midi.NoteOnEvent(tick=160, channel=3, data=[21, 0]),
   midi.ControlChangeEvent(tick=80, channel=3, data=[10, 18]),
   midi.NoteOnEvent(tick=0, channel=3, data=[21, 79]),
   midi.NoteOnEvent(tick=160, channel=3, data=[21, 0]),
   midi.ControlChangeEvent(tick=80, channel=3, data=[10, 63]),
   midi.NoteOnEvent(tick=0, channel=3, data=[21, 79]),
   midi.NoteOnEvent(tick=160, channel=3, data=[21, 0]),
   midi.ControlChangeEvent(tick=80, channel=3, data=[10, 108]),
   midi.NoteOnEvent(tick=0, channel=3, data=[21, 79]),
   midi.NoteOnEvent(tick=160, channel=3, data=[21, 0]),
   midi.ControlChangeEvent(tick=80, channel=3, data=[10, 18]),
   midi.NoteOnEvent(tick=0, channel=3, data=[28, 79]),
   midi.NoteOnEvent(tick=160, channel=3, data=[28, 0]),
   midi.ControlChangeEvent(tick=80, channel=3, data=[10, 108]),
   midi.NoteOnEvent(tick=0, channel=3, data=[28, 79]),
   midi.NoteOnEvent(tick=160, channel=3, data=[28, 0]),
   midi.ControlChangeEvent(tick=80, channel=3, data=[10, 18]),
   midi.NoteOnEvent(tick=0, channel=3, data=[28, 79]),
   midi.NoteOnEvent(tick=160, channel=3, data=[28, 0]),
   midi.ControlChangeEvent(tick=80, channel=3, data=[10, 108]),
   midi.NoteOnEvent(tick=0, channel=3, data=[28, 79]),
   midi.NoteOnEvent(tick=160, channel=3, data=[28, 0]),
   midi.ControlChangeEvent(tick=80, channel=3, data=[10, 18]),
   midi.NoteOnEvent(tick=0, channel=3, data=[28, 79]),
   midi.NoteOnEvent(tick=160, channel=3, data=[28, 0]),
   midi.ControlChangeEvent(tick=80, channel=3, data=[10, 108]),
   midi.NoteOnEvent(tick=0, channel=3, data=[28, 79]),
   midi.NoteOnEvent(tick=160, channel=3, data=[28, 0]),
   midi.ControlChangeEvent(tick=80, channel=3, data=[10, 18]),
   midi.NoteOnEvent(tick=0, channel=3, data=[28, 79]),
   midi.NoteOnEvent(tick=160, channel=3, data=[28, 0]),
   midi.ControlChangeEvent(tick=80, channel=3, data=[10, 108]),
   midi.NoteOnEvent(tick=0, channel=3, data=[28, 79]),
   midi.NoteOnEvent(tick=160, channel=3, data=[28, 0]),
   midi.ControlChangeEvent(tick=80, channel=3, data=[10, 18]),
   midi.NoteOnEvent(tick=0, channel=3, data=[28, 79]),
   midi.NoteOnEvent(tick=160, channel=3, data=[28, 0]),
   midi.ControlChangeEvent(tick=80, channel=3, data=[10, 108]),
   midi.NoteOnEvent(tick=0, channel=3, data=[28, 79]),
   midi.NoteOnEvent(tick=160, channel=3, data=[28, 0]),
   midi.ControlChangeEvent(tick=80, channel=3, data=[10, 18]),
   midi.NoteOnEvent(tick=0, channel=3, data=[28, 79]),
   midi.NoteOnEvent(tick=160, channel=3, data=[28, 0]),
   midi.ControlChangeEvent(tick=80, channel=3, data=[10, 108]),
   midi.NoteOnEvent(tick=0, channel=3, data=[28, 79]),
   midi.NoteOnEvent(tick=160, channel=3, data=[28, 0]),
   midi.ControlChangeEvent(tick=80, channel=3, data=[10, 18]),
   midi.NoteOnEvent(tick=0, channel=3, data=[28, 79]),
   midi.NoteOnEvent(tick=160, channel=3, data=[28, 0]),
   midi.ControlChangeEvent(tick=80, channel=3, data=[10, 108]),
   midi.NoteOnEvent(tick=0, channel=3, data=[28, 79]),
   midi.NoteOnEvent(tick=160, channel=3, data=[28, 0]),
   midi.ControlChangeEvent(tick=80, channel=3, data=[10, 18]),
   midi.NoteOnEvent(tick=0, channel=3, data=[28, 79]),
   midi.NoteOnEvent(tick=160, channel=3, data=[28, 0]),
   midi.ControlChangeEvent(tick=80, channel=3, data=[10, 108]),
   midi.NoteOnEvent(tick=0, channel=3, data=[28, 79]),
   midi.NoteOnEvent(tick=80, channel=3, data=[28, 0]),
   midi.NoteOnEvent(tick=40, channel=3, data=[26, 79]),
   midi.NoteOnEvent(tick=80, channel=3, data=[26, 0]),
   midi.ControlChangeEvent(tick=40, channel=3, data=[10, 18]),
   midi.NoteOnEvent(tick=0, channel=3, data=[24, 79]),
   midi.NoteOnEvent(tick=160, channel=3, data=[24, 0]),
   midi.ControlChangeEvent(tick=80, channel=3, data=[10, 108]),
   midi.NoteOnEvent(tick=0, channel=3, data=[24, 79]),
   midi.NoteOnEvent(tick=160, channel=3, data=[24, 0]),
   midi.ControlChangeEvent(tick=80, channel=3, data=[10, 18]),
   midi.NoteOnEvent(tick=0, channel=3, data=[24, 79]),
   midi.NoteOnEvent(tick=160, channel=3, data=[24, 0]),
   midi.ControlChangeEvent(tick=80, channel=3, data=[10, 108]),
   midi.NoteOnEvent(tick=0, channel=3, data=[24, 79]),
   midi.NoteOnEvent(tick=160, channel=3, data=[24, 0]),
   midi.ControlChangeEvent(tick=80, channel=3, data=[10, 18]),
   midi.NoteOnEvent(tick=0, channel=3, data=[24, 79]),
   midi.NoteOnEvent(tick=160, channel=3, data=[24, 0]),
   midi.ControlChangeEvent(tick=80, channel=3, data=[10, 108]),
   midi.NoteOnEvent(tick=0, channel=3, data=[24, 79]),
   midi.NoteOnEvent(tick=160, channel=3, data=[24, 0]),
   midi.ControlChangeEvent(tick=80, channel=3, data=[10, 18]),
   midi.NoteOnEvent(tick=0, channel=3, data=[24, 79]),
   midi.NoteOnEvent(tick=160, channel=3, data=[24, 0]),
   midi.ControlChangeEvent(tick=80, channel=3, data=[10, 108]),
   midi.NoteOnEvent(tick=0, channel=3, data=[24, 79]),
   midi.NoteOnEvent(tick=160, channel=3, data=[24, 0]),
   midi.ControlChangeEvent(tick=80, channel=3, data=[10, 18]),
   midi.NoteOnEvent(tick=0, channel=3, data=[24, 79]),
   midi.NoteOnEvent(tick=160, channel=3, data=[24, 0]),
   midi.ControlChangeEvent(tick=80, channel=3, data=[10, 108]),
   midi.NoteOnEvent(tick=0, channel=3, data=[24, 79]),
   midi.NoteOnEvent(tick=160, channel=3, data=[24, 0]),
   midi.ControlChangeEvent(tick=80, channel=3, data=[10, 18]),
   midi.NoteOnEvent(tick=0, channel=3, data=[24, 79]),
   midi.NoteOnEvent(tick=160, channel=3, data=[24, 0]),
   midi.ControlChangeEvent(tick=80, channel=3, data=[10, 108]),
   midi.NoteOnEvent(tick=0, channel=3, data=[24, 79]),
   midi.NoteOnEvent(tick=160, channel=3, data=[24, 0]),
   midi.ControlChangeEvent(tick=80, channel=3, data=[10, 18]),
   midi.NoteOnEvent(tick=0, channel=3, data=[24, 79]),
   midi.NoteOnEvent(tick=160, channel=3, data=[24, 0]),
   midi.ControlChangeEvent(tick=80, channel=3, data=[10, 108]),
   midi.NoteOnEvent(tick=0, channel=3, data=[24, 79]),
   midi.NoteOnEvent(tick=160, channel=3, data=[24, 0]),
   midi.ControlChangeEvent(tick=80, channel=3, data=[10, 18]),
   midi.NoteOnEvent(tick=0, channel=3, data=[24, 79]),
   midi.NoteOnEvent(tick=160, channel=3, data=[24, 0]),
   midi.ControlChangeEvent(tick=80, channel=3, data=[10, 108]),
   midi.NoteOnEvent(tick=0, channel=3, data=[24, 79]),
   midi.NoteOnEvent(tick=160, channel=3, data=[24, 0]),
   midi.ControlChangeEvent(tick=80, channel=3, data=[10, 18]),
   midi.NoteOnEvent(tick=0, channel=3, data=[28, 79]),
   midi.NoteOnEvent(tick=160, channel=3, data=[28, 0]),
   midi.ControlChangeEvent(tick=80, channel=3, data=[10, 108]),
   midi.NoteOnEvent(tick=0, channel=3, data=[28, 79]),
   midi.NoteOnEvent(tick=160, channel=3, data=[28, 0]),
   midi.ControlChangeEvent(tick=80, channel=3, data=[10, 18]),
   midi.NoteOnEvent(tick=0, channel=3, data=[28, 79]),
   midi.NoteOnEvent(tick=160, channel=3, data=[28, 0]),
   midi.ControlChangeEvent(tick=80, channel=3, data=[10, 108]),
   midi.NoteOnEvent(tick=0, channel=3, data=[28, 79]),
   midi.NoteOnEvent(tick=160, channel=3, data=[28, 0]),
   midi.ControlChangeEvent(tick=80, channel=3, data=[10, 18]),
   midi.NoteOnEvent(tick=0, channel=3, data=[28, 79]),
   midi.NoteOnEvent(tick=160, channel=3, data=[28, 0]),
   midi.ControlChangeEvent(tick=80, channel=3, data=[10, 108]),
   midi.NoteOnEvent(tick=0, channel=3, data=[28, 79]),
   midi.NoteOnEvent(tick=160, channel=3, data=[28, 0]),
   midi.ControlChangeEvent(tick=80, channel=3, data=[10, 18]),
   midi.NoteOnEvent(tick=0, channel=3, data=[28, 79]),
   midi.NoteOnEvent(tick=160, channel=3, data=[28, 0]),
   midi.ControlChangeEvent(tick=80, channel=3, data=[10, 108]),
   midi.NoteOnEvent(tick=0, channel=3, data=[28, 79]),
   midi.NoteOnEvent(tick=160, channel=3, data=[28, 0]),
   midi.ControlChangeEvent(tick=80, channel=3, data=[10, 18]),
   midi.NoteOnEvent(tick=0, channel=3, data=[28, 79]),
   midi.NoteOnEvent(tick=160, channel=3, data=[28, 0]),
   midi.ControlChangeEvent(tick=80, channel=3, data=[10, 108]),
   midi.NoteOnEvent(tick=0, channel=3, data=[28, 79]),
   midi.NoteOnEvent(tick=160, channel=3, data=[28, 0]),
   midi.ControlChangeEvent(tick=80, channel=3, data=[10, 18]),
   midi.NoteOnEvent(tick=0, channel=3, data=[28, 79]),
   midi.NoteOnEvent(tick=160, channel=3, data=[28, 0]),
   midi.ControlChangeEvent(tick=80, channel=3, data=[10, 108]),
   midi.NoteOnEvent(tick=0, channel=3, data=[28, 79]),
   midi.NoteOnEvent(tick=160, channel=3, data=[28, 0]),
   midi.ControlChangeEvent(tick=80, channel=3, data=[10, 18]),
   midi.NoteOnEvent(tick=0, channel=3, data=[28, 79]),
   midi.NoteOnEvent(tick=160, channel=3, data=[28, 0]),
   midi.ControlChangeEvent(tick=80, channel=3, data=[10, 108]),
   midi.NoteOnEvent(tick=0, channel=3, data=[28, 79]),
   midi.NoteOnEvent(tick=160, channel=3, data=[28, 0]),
   midi.ControlChangeEvent(tick=80, channel=3, data=[10, 18]),
   midi.NoteOnEvent(tick=0, channel=3, data=[28, 79]),
   midi.NoteOnEvent(tick=160, channel=3, data=[28, 0]),
   midi.ControlChangeEvent(tick=80, channel=3, data=[10, 108]),
   midi.NoteOnEvent(tick=0, channel=3, data=[28, 79]),
   midi.NoteOnEvent(tick=160, channel=3, data=[28, 0]),
   midi.ControlChangeEvent(tick=80, channel=3, data=[10, 18]),
   midi.NoteOnEvent(tick=0, channel=3, data=[24, 79]),
   midi.NoteOnEvent(tick=160, channel=3, data=[24, 0]),
   midi.ControlChangeEvent(tick=80, channel=3, data=[10, 108]),
   midi.NoteOnEvent(tick=0, channel=3, data=[24, 79]),
   midi.NoteOnEvent(tick=160, channel=3, data=[24, 0]),
   midi.ControlChangeEvent(tick=80, channel=3, data=[10, 18]),
   midi.NoteOnEvent(tick=0, channel=3, data=[24, 79]),
   midi.NoteOnEvent(tick=160, channel=3, data=[24, 0]),
   midi.ControlChangeEvent(tick=80, channel=3, data=[10, 108]),
   midi.NoteOnEvent(tick=0, channel=3, data=[24, 79]),
   midi.NoteOnEvent(tick=160, channel=3, data=[24, 0]),
   midi.ControlChangeEvent(tick=80, channel=3, data=[10, 18]),
   midi.NoteOnEvent(tick=0, channel=3, data=[24, 79]),
   midi.NoteOnEvent(tick=160, channel=3, data=[24, 0]),
   midi.ControlChangeEvent(tick=80, channel=3, data=[10, 108]),
   midi.NoteOnEvent(tick=0, channel=3, data=[24, 79]),
   midi.NoteOnEvent(tick=160, channel=3, data=[24, 0]),
   midi.ControlChangeEvent(tick=80, channel=3, data=[10, 18]),
   midi.NoteOnEvent(tick=0, channel=3, data=[24, 79]),
   midi.NoteOnEvent(tick=160, channel=3, data=[24, 0]),
   midi.ControlChangeEvent(tick=80, channel=3, data=[10, 108]),
   midi.NoteOnEvent(tick=0, channel=3, data=[24, 79]),
   midi.NoteOnEvent(tick=160, channel=3, data=[24, 0]),
   midi.ControlChangeEvent(tick=80, channel=3, data=[10, 18]),
   midi.NoteOnEvent(tick=0, channel=3, data=[24, 79]),
   midi.NoteOnEvent(tick=160, channel=3, data=[24, 0]),
   midi.ControlChangeEvent(tick=80, channel=3, data=[10, 108]),
   midi.NoteOnEvent(tick=0, channel=3, data=[24, 79]),
   midi.NoteOnEvent(tick=160, channel=3, data=[24, 0]),
   midi.ControlChangeEvent(tick=80, channel=3, data=[10, 18]),
   midi.NoteOnEvent(tick=0, channel=3, data=[24, 79]),
   midi.NoteOnEvent(tick=160, channel=3, data=[24, 0]),
   midi.ControlChangeEvent(tick=80, channel=3, data=[10, 108]),
   midi.NoteOnEvent(tick=0, channel=3, data=[24, 79]),
   midi.NoteOnEvent(tick=160, channel=3, data=[24, 0]),
   midi.ControlChangeEvent(tick=80, channel=3, data=[10, 18]),
   midi.NoteOnEvent(tick=0, channel=3, data=[24, 79]),
   midi.NoteOnEvent(tick=160, channel=3, data=[24, 0]),
   midi.ControlChangeEvent(tick=80, channel=3, data=[10, 108]),
   midi.NoteOnEvent(tick=0, channel=3, data=[24, 79]),
   midi.NoteOnEvent(tick=160, channel=3, data=[24, 0]),
   midi.ControlChangeEvent(tick=80, channel=3, data=[10, 18]),
   midi.NoteOnEvent(tick=0, channel=3, data=[24, 79]),
   midi.NoteOnEvent(tick=160, channel=3, data=[24, 0]),
   midi.ControlChangeEvent(tick=80, channel=3, data=[10, 108]),
   midi.NoteOnEvent(tick=0, channel=3, data=[24, 79]),
   midi.NoteOnEvent(tick=160, channel=3, data=[24, 0]),
   midi.ControlChangeEvent(tick=80, channel=3, data=[10, 18]),
   midi.NoteOnEvent(tick=0, channel=3, data=[28, 79]),
   midi.NoteOnEvent(tick=160, channel=3, data=[28, 0]),
   midi.ControlChangeEvent(tick=80, channel=3, data=[10, 108]),
   midi.NoteOnEvent(tick=0, channel=3, data=[28, 79]),
   midi.NoteOnEvent(tick=160, channel=3, data=[28, 0]),
   midi.ControlChangeEvent(tick=80, channel=3, data=[10, 18]),
   midi.NoteOnEvent(tick=0, channel=3, data=[28, 79]),
   midi.NoteOnEvent(tick=160, channel=3, data=[28, 0]),
   midi.ControlChangeEvent(tick=80, channel=3, data=[10, 108]),
   midi.NoteOnEvent(tick=0, channel=3, data=[28, 79]),
   midi.NoteOnEvent(tick=160, channel=3, data=[28, 0]),
   midi.ControlChangeEvent(tick=80, channel=3, data=[10, 18]),
   midi.NoteOnEvent(tick=0, channel=3, data=[28, 79]),
   midi.NoteOnEvent(tick=160, channel=3, data=[28, 0]),
   midi.ControlChangeEvent(tick=80, channel=3, data=[10, 108]),
   midi.NoteOnEvent(tick=0, channel=3, data=[28, 79]),
   midi.NoteOnEvent(tick=160, channel=3, data=[28, 0]),
   midi.ControlChangeEvent(tick=80, channel=3, data=[10, 18]),
   midi.NoteOnEvent(tick=0, channel=3, data=[28, 79]),
   midi.NoteOnEvent(tick=160, channel=3, data=[28, 0]),
   midi.ControlChangeEvent(tick=80, channel=3, data=[10, 108]),
   midi.NoteOnEvent(tick=0, channel=3, data=[28, 79]),
   midi.NoteOnEvent(tick=160, channel=3, data=[28, 0]),
   midi.ControlChangeEvent(tick=80, channel=3, data=[10, 18]),
   midi.NoteOnEvent(tick=0, channel=3, data=[28, 79]),
   midi.NoteOnEvent(tick=160, channel=3, data=[28, 0]),
   midi.ControlChangeEvent(tick=80, channel=3, data=[10, 108]),
   midi.NoteOnEvent(tick=0, channel=3, data=[28, 79]),
   midi.NoteOnEvent(tick=160, channel=3, data=[28, 0]),
   midi.ControlChangeEvent(tick=80, channel=3, data=[10, 18]),
   midi.NoteOnEvent(tick=0, channel=3, data=[28, 79]),
   midi.NoteOnEvent(tick=160, channel=3, data=[28, 0]),
   midi.ControlChangeEvent(tick=80, channel=3, data=[10, 108]),
   midi.NoteOnEvent(tick=0, channel=3, data=[28, 79]),
   midi.NoteOnEvent(tick=160, channel=3, data=[28, 0]),
   midi.ControlChangeEvent(tick=80, channel=3, data=[10, 18]),
   midi.NoteOnEvent(tick=0, channel=3, data=[28, 79]),
   midi.NoteOnEvent(tick=160, channel=3, data=[28, 0]),
   midi.ControlChangeEvent(tick=80, channel=3, data=[10, 108]),
   midi.NoteOnEvent(tick=0, channel=3, data=[28, 79]),
   midi.NoteOnEvent(tick=160, channel=3, data=[28, 0]),
   midi.ControlChangeEvent(tick=80, channel=3, data=[10, 18]),
   midi.NoteOnEvent(tick=0, channel=3, data=[28, 79]),
   midi.NoteOnEvent(tick=160, channel=3, data=[28, 0]),
   midi.ControlChangeEvent(tick=80, channel=3, data=[10, 108]),
   midi.NoteOnEvent(tick=0, channel=3, data=[28, 79]),
   midi.NoteOnEvent(tick=160, channel=3, data=[28, 0]),
   midi.ControlChangeEvent(tick=80, channel=3, data=[10, 18]),
   midi.NoteOnEvent(tick=0, channel=3, data=[24, 79]),
   midi.NoteOnEvent(tick=160, channel=3, data=[24, 0]),
   midi.ControlChangeEvent(tick=80, channel=3, data=[10, 108]),
   midi.NoteOnEvent(tick=0, channel=3, data=[24, 79]),
   midi.NoteOnEvent(tick=160, channel=3, data=[24, 0]),
   midi.ControlChangeEvent(tick=80, channel=3, data=[10, 18]),
   midi.NoteOnEvent(tick=0, channel=3, data=[24, 79]),
   midi.NoteOnEvent(tick=160, channel=3, data=[24, 0]),
   midi.ControlChangeEvent(tick=80, channel=3, data=[10, 108]),
   midi.NoteOnEvent(tick=0, channel=3, data=[24, 79]),
   midi.NoteOnEvent(tick=160, channel=3, data=[24, 0]),
   midi.ControlChangeEvent(tick=80, channel=3, data=[10, 18]),
   midi.NoteOnEvent(tick=0, channel=3, data=[24, 79]),
   midi.NoteOnEvent(tick=160, channel=3, data=[24, 0]),
   midi.ControlChangeEvent(tick=80, channel=3, data=[10, 108]),
   midi.NoteOnEvent(tick=0, channel=3, data=[24, 79]),
   midi.NoteOnEvent(tick=160, channel=3, data=[24, 0]),
   midi.ControlChangeEvent(tick=80, channel=3, data=[10, 18]),
   midi.NoteOnEvent(tick=0, channel=3, data=[24, 79]),
   midi.NoteOnEvent(tick=160, channel=3, data=[24, 0]),
   midi.ControlChangeEvent(tick=80, channel=3, data=[10, 108]),
   midi.NoteOnEvent(tick=0, channel=3, data=[24, 79]),
   midi.NoteOnEvent(tick=160, channel=3, data=[24, 0]),
   midi.ControlChangeEvent(tick=80, channel=3, data=[10, 18]),
   midi.NoteOnEvent(tick=0, channel=3, data=[24, 79]),
   midi.NoteOnEvent(tick=160, channel=3, data=[24, 0]),
   midi.ControlChangeEvent(tick=80, channel=3, data=[10, 108]),
   midi.NoteOnEvent(tick=0, channel=3, data=[24, 79]),
   midi.NoteOnEvent(tick=160, channel=3, data=[24, 0]),
   midi.ControlChangeEvent(tick=80, channel=3, data=[10, 18]),
   midi.NoteOnEvent(tick=0, channel=3, data=[24, 79]),
   midi.NoteOnEvent(tick=160, channel=3, data=[24, 0]),
   midi.ControlChangeEvent(tick=80, channel=3, data=[10, 108]),
   midi.NoteOnEvent(tick=0, channel=3, data=[24, 79]),
   midi.NoteOnEvent(tick=160, channel=3, data=[24, 0]),
   midi.ControlChangeEvent(tick=80, channel=3, data=[10, 18]),
   midi.NoteOnEvent(tick=0, channel=3, data=[24, 79]),
   midi.NoteOnEvent(tick=160, channel=3, data=[24, 0]),
   midi.ControlChangeEvent(tick=80, channel=3, data=[10, 108]),
   midi.NoteOnEvent(tick=0, channel=3, data=[24, 79]),
   midi.NoteOnEvent(tick=160, channel=3, data=[24, 0]),
   midi.ControlChangeEvent(tick=80, channel=3, data=[10, 18]),
   midi.NoteOnEvent(tick=0, channel=3, data=[24, 79]),
   midi.NoteOnEvent(tick=160, channel=3, data=[24, 0]),
   midi.ControlChangeEvent(tick=80, channel=3, data=[10, 108]),
   midi.NoteOnEvent(tick=0, channel=3, data=[24, 79]),
   midi.NoteOnEvent(tick=160, channel=3, data=[24, 0]),
   midi.ControlChangeEvent(tick=80, channel=3, data=[10, 18]),
   midi.NoteOnEvent(tick=0, channel=3, data=[28, 79]),
   midi.NoteOnEvent(tick=160, channel=3, data=[28, 0]),
   midi.ControlChangeEvent(tick=80, channel=3, data=[10, 108]),
   midi.NoteOnEvent(tick=0, channel=3, data=[28, 79]),
   midi.NoteOnEvent(tick=160, channel=3, data=[28, 0]),
   midi.ControlChangeEvent(tick=80, channel=3, data=[10, 18]),
   midi.NoteOnEvent(tick=0, channel=3, data=[28, 79]),
   midi.NoteOnEvent(tick=160, channel=3, data=[28, 0]),
   midi.ControlChangeEvent(tick=80, channel=3, data=[10, 108]),
   midi.NoteOnEvent(tick=0, channel=3, data=[28, 79]),
   midi.NoteOnEvent(tick=160, channel=3, data=[28, 0]),
   midi.ControlChangeEvent(tick=80, channel=3, data=[10, 18]),
   midi.NoteOnEvent(tick=0, channel=3, data=[28, 79]),
   midi.NoteOnEvent(tick=160, channel=3, data=[28, 0]),
   midi.ControlChangeEvent(tick=80, channel=3, data=[10, 108]),
   midi.NoteOnEvent(tick=0, channel=3, data=[28, 79]),
   midi.NoteOnEvent(tick=160, channel=3, data=[28, 0]),
   midi.ControlChangeEvent(tick=80, channel=3, data=[10, 18]),
   midi.NoteOnEvent(tick=0, channel=3, data=[28, 79]),
   midi.NoteOnEvent(tick=160, channel=3, data=[28, 0]),
   midi.ControlChangeEvent(tick=80, channel=3, data=[10, 108]),
   midi.NoteOnEvent(tick=0, channel=3, data=[28, 79]),
   midi.NoteOnEvent(tick=160, channel=3, data=[28, 0]),
   midi.ControlChangeEvent(tick=80, channel=3, data=[10, 18]),
   midi.NoteOnEvent(tick=0, channel=3, data=[28, 79]),
   midi.NoteOnEvent(tick=160, channel=3, data=[28, 0]),
   midi.ControlChangeEvent(tick=80, channel=3, data=[10, 108]),
   midi.NoteOnEvent(tick=0, channel=3, data=[28, 79]),
   midi.NoteOnEvent(tick=160, channel=3, data=[28, 0]),
   midi.ControlChangeEvent(tick=80, channel=3, data=[10, 18]),
   midi.NoteOnEvent(tick=0, channel=3, data=[28, 79]),
   midi.NoteOnEvent(tick=160, channel=3, data=[28, 0]),
   midi.ControlChangeEvent(tick=80, channel=3, data=[10, 108]),
   midi.NoteOnEvent(tick=0, channel=3, data=[28, 79]),
   midi.NoteOnEvent(tick=160, channel=3, data=[28, 0]),
   midi.ControlChangeEvent(tick=80, channel=3, data=[10, 18]),
   midi.NoteOnEvent(tick=0, channel=3, data=[28, 79]),
   midi.NoteOnEvent(tick=160, channel=3, data=[28, 0]),
   midi.ControlChangeEvent(tick=80, channel=3, data=[10, 108]),
   midi.NoteOnEvent(tick=0, channel=3, data=[28, 79]),
   midi.NoteOnEvent(tick=160, channel=3, data=[28, 0]),
   midi.ControlChangeEvent(tick=80, channel=3, data=[10, 18]),
   midi.NoteOnEvent(tick=0, channel=3, data=[28, 79]),
   midi.NoteOnEvent(tick=160, channel=3, data=[28, 0]),
   midi.ControlChangeEvent(tick=80, channel=3, data=[10, 108]),
   midi.NoteOnEvent(tick=0, channel=3, data=[28, 79]),
   midi.NoteOnEvent(tick=160, channel=3, data=[28, 0]),
   midi.ControlChangeEvent(tick=80, channel=3, data=[7, 121]),
   midi.ControlChangeEvent(tick=0, channel=3, data=[10, 18]),
   midi.NoteOnEvent(tick=0, channel=3, data=[28, 79]),
   midi.ControlChangeEvent(tick=150, channel=3, data=[7, 120]),
   midi.NoteOnEvent(tick=10, channel=3, data=[28, 0]),
   midi.ControlChangeEvent(tick=80, channel=3, data=[10, 108]),
   midi.NoteOnEvent(tick=0, channel=3, data=[28, 79]),
   midi.ControlChangeEvent(tick=30, channel=3, data=[7, 119]),
   midi.ControlChangeEvent(tick=120, channel=3, data=[7, 118]),
   midi.NoteOnEvent(tick=10, channel=3, data=[28, 0]),
   midi.ControlChangeEvent(tick=80, channel=3, data=[10, 18]),
   midi.NoteOnEvent(tick=0, channel=3, data=[28, 79]),
   midi.ControlChangeEvent(tick=30, channel=3, data=[7, 117]),
   midi.NoteOnEvent(tick=130, channel=3, data=[28, 0]),
   midi.ControlChangeEvent(tick=20, channel=3, data=[7, 116]),
   midi.ControlChangeEvent(tick=60, channel=3, data=[10, 108]),
   midi.NoteOnEvent(tick=0, channel=3, data=[28, 79]),
   midi.ControlChangeEvent(tick=60, channel=3, data=[7, 115]),
   midi.NoteOnEvent(tick=100, channel=3, data=[28, 0]),
   midi.ControlChangeEvent(tick=20, channel=3, data=[7, 114]),
   midi.ControlChangeEvent(tick=60, channel=3, data=[10, 18]),
   midi.NoteOnEvent(tick=0, channel=3, data=[28, 79]),
   midi.ControlChangeEvent(tick=60, channel=3, data=[7, 113]),
   midi.NoteOnEvent(tick=100, channel=3, data=[28, 0]),
   midi.ControlChangeEvent(tick=50, channel=3, data=[7, 112]),
   midi.ControlChangeEvent(tick=30, channel=3, data=[10, 108]),
   midi.NoteOnEvent(tick=0, channel=3, data=[28, 79]),
   midi.ControlChangeEvent(tick=90, channel=3, data=[7, 111]),
   midi.NoteOnEvent(tick=70, channel=3, data=[28, 0]),
   midi.ControlChangeEvent(tick=50, channel=3, data=[7, 110]),
   midi.ControlChangeEvent(tick=30, channel=3, data=[10, 18]),
   midi.NoteOnEvent(tick=0, channel=3, data=[28, 79]),
   midi.ControlChangeEvent(tick=90, channel=3, data=[7, 109]),
   midi.NoteOnEvent(tick=70, channel=3, data=[28, 0]),
   midi.ControlChangeEvent(tick=80, channel=3, data=[10, 108]),
   midi.NoteOnEvent(tick=0, channel=3, data=[28, 79]),
   midi.ControlChangeEvent(tick=120, channel=3, data=[7, 107]),
   midi.NoteOnEvent(tick=40, channel=3, data=[28, 0]),
   midi.ControlChangeEvent(tick=80, channel=3, data=[10, 18]),
   midi.NoteOnEvent(tick=0, channel=3, data=[28, 79]),
   midi.ControlChangeEvent(tick=120, channel=3, data=[7, 105]),
   midi.NoteOnEvent(tick=40, channel=3, data=[28, 0]),
   midi.ControlChangeEvent(tick=80, channel=3, data=[10, 108]),
   midi.NoteOnEvent(tick=0, channel=3, data=[28, 79]),
   midi.ControlChangeEvent(tick=150, channel=3, data=[7, 103]),
   midi.NoteOnEvent(tick=10, channel=3, data=[28, 0]),
   midi.ControlChangeEvent(tick=80, channel=3, data=[10, 18]),
   midi.NoteOnEvent(tick=0, channel=3, data=[28, 79]),
   midi.ControlChangeEvent(tick=30, channel=3, data=[7, 102]),
   midi.ControlChangeEvent(tick=120, channel=3, data=[7, 101]),
   midi.NoteOnEvent(tick=10, channel=3, data=[28, 0]),
   midi.ControlChangeEvent(tick=80, channel=3, data=[10, 108]),
   midi.NoteOnEvent(tick=0, channel=3, data=[28, 79]),
   midi.ControlChangeEvent(tick=30, channel=3, data=[7, 100]),
   midi.NoteOnEvent(tick=130, channel=3, data=[28, 0]),
   midi.ControlChangeEvent(tick=20, channel=3, data=[7, 99]),
   midi.ControlChangeEvent(tick=60, channel=3, data=[10, 18]),
   midi.NoteOnEvent(tick=0, channel=3, data=[28, 79]),
   midi.ControlChangeEvent(tick=60, channel=3, data=[7, 98]),
   midi.NoteOnEvent(tick=100, channel=3, data=[28, 0]),
   midi.ControlChangeEvent(tick=20, channel=3, data=[7, 97]),
   midi.ControlChangeEvent(tick=60, channel=3, data=[10, 108]),
   midi.NoteOnEvent(tick=0, channel=3, data=[28, 79]),
   midi.ControlChangeEvent(tick=60, channel=3, data=[7, 96]),
   midi.NoteOnEvent(tick=100, channel=3, data=[28, 0]),
   midi.ControlChangeEvent(tick=50, channel=3, data=[7, 95]),
   midi.ControlChangeEvent(tick=30, channel=3, data=[10, 18]),
   midi.NoteOnEvent(tick=0, channel=3, data=[28, 79]),
   midi.ControlChangeEvent(tick=90, channel=3, data=[7, 94]),
   midi.NoteOnEvent(tick=70, channel=3, data=[28, 0]),
   midi.ControlChangeEvent(tick=50, channel=3, data=[7, 93]),
   midi.ControlChangeEvent(tick=30, channel=3, data=[10, 108]),
   midi.NoteOnEvent(tick=0, channel=3, data=[28, 79]),
   midi.ControlChangeEvent(tick=90, channel=3, data=[7, 92]),
   midi.NoteOnEvent(tick=70, channel=3, data=[28, 0]),
   midi.ControlChangeEvent(tick=50, channel=3, data=[7, 91]),
   midi.ControlChangeEvent(tick=30, channel=3, data=[10, 18]),
   midi.NoteOnEvent(tick=0, channel=3, data=[28, 79]),
   midi.ControlChangeEvent(tick=120, channel=3, data=[7, 90]),
   midi.NoteOnEvent(tick=40, channel=3, data=[28, 0]),
   midi.ControlChangeEvent(tick=80, channel=3, data=[10, 108]),
   midi.NoteOnEvent(tick=0, channel=3, data=[28, 79]),
   midi.ControlChangeEvent(tick=120, channel=3, data=[7, 88]),
   midi.NoteOnEvent(tick=40, channel=3, data=[28, 0]),
   midi.ControlChangeEvent(tick=80, channel=3, data=[10, 18]),
   midi.NoteOnEvent(tick=0, channel=3, data=[28, 79]),
   midi.ControlChangeEvent(tick=150, channel=3, data=[7, 86]),
   midi.NoteOnEvent(tick=10, channel=3, data=[28, 0]),
   midi.ControlChangeEvent(tick=80, channel=3, data=[10, 108]),
   midi.NoteOnEvent(tick=0, channel=3, data=[28, 79]),
   midi.ControlChangeEvent(tick=30, channel=3, data=[7, 85]),
   midi.ControlChangeEvent(tick=120, channel=3, data=[7, 84]),
   midi.NoteOnEvent(tick=10, channel=3, data=[28, 0]),
   midi.ControlChangeEvent(tick=80, channel=3, data=[10, 18]),
   midi.NoteOnEvent(tick=0, channel=3, data=[28, 79]),
   midi.ControlChangeEvent(tick=30, channel=3, data=[7, 83]),
   midi.NoteOnEvent(tick=130, channel=3, data=[28, 0]),
   midi.ControlChangeEvent(tick=20, channel=3, data=[7, 82]),
   midi.ControlChangeEvent(tick=60, channel=3, data=[10, 108]),
   midi.NoteOnEvent(tick=0, channel=3, data=[28, 79]),
   midi.ControlChangeEvent(tick=60, channel=3, data=[7, 81]),
   midi.NoteOnEvent(tick=100, channel=3, data=[28, 0]),
   midi.ControlChangeEvent(tick=20, channel=3, data=[7, 80]),
   midi.ControlChangeEvent(tick=60, channel=3, data=[10, 18]),
   midi.NoteOnEvent(tick=0, channel=3, data=[28, 79]),
   midi.ControlChangeEvent(tick=60, channel=3, data=[7, 79]),
   midi.NoteOnEvent(tick=100, channel=3, data=[28, 0]),
   midi.ControlChangeEvent(tick=20, channel=3, data=[7, 78]),
   midi.ControlChangeEvent(tick=60, channel=3, data=[10, 108]),
   midi.NoteOnEvent(tick=0, channel=3, data=[28, 79]),
   midi.ControlChangeEvent(tick=90, channel=3, data=[7, 77]),
   midi.NoteOnEvent(tick=70, channel=3, data=[28, 0]),
   midi.ControlChangeEvent(tick=50, channel=3, data=[7, 76]),
   midi.ControlChangeEvent(tick=30, channel=3, data=[10, 18]),
   midi.NoteOnEvent(tick=0, channel=3, data=[28, 79]),
   midi.ControlChangeEvent(tick=90, channel=3, data=[7, 75]),
   midi.NoteOnEvent(tick=70, channel=3, data=[28, 0]),
   midi.ControlChangeEvent(tick=50, channel=3, data=[7, 74]),
   midi.ControlChangeEvent(tick=30, channel=3, data=[10, 108]),
   midi.NoteOnEvent(tick=0, channel=3, data=[28, 79]),
   midi.ControlChangeEvent(tick=120, channel=3, data=[7, 73]),
   midi.NoteOnEvent(tick=40, channel=3, data=[28, 0]),
   midi.ControlChangeEvent(tick=80, channel=3, data=[10, 18]),
   midi.NoteOnEvent(tick=0, channel=3, data=[28, 79]),
   midi.ControlChangeEvent(tick=120, channel=3, data=[7, 71]),
   midi.NoteOnEvent(tick=40, channel=3, data=[28, 0]),
   midi.ControlChangeEvent(tick=80, channel=3, data=[10, 108]),
   midi.NoteOnEvent(tick=0, channel=3, data=[28, 79]),
   midi.ControlChangeEvent(tick=150, channel=3, data=[7, 69]),
   midi.NoteOnEvent(tick=10, channel=3, data=[28, 0]),
   midi.ControlChangeEvent(tick=80, channel=3, data=[10, 18]),
   midi.NoteOnEvent(tick=0, channel=3, data=[28, 79]),
   midi.ControlChangeEvent(tick=30, channel=3, data=[7, 68]),
   midi.ControlChangeEvent(tick=120, channel=3, data=[7, 67]),
   midi.NoteOnEvent(tick=10, channel=3, data=[28, 0]),
   midi.ControlChangeEvent(tick=80, channel=3, data=[10, 108]),
   midi.NoteOnEvent(tick=0, channel=3, data=[28, 79]),
   midi.ControlChangeEvent(tick=30, channel=3, data=[7, 66]),
   midi.ControlChangeEvent(tick=120, channel=3, data=[7, 65]),
   midi.NoteOnEvent(tick=10, channel=3, data=[28, 0]),
   midi.ControlChangeEvent(tick=80, channel=3, data=[10, 18]),
   midi.NoteOnEvent(tick=0, channel=3, data=[28, 79]),
   midi.ControlChangeEvent(tick=60, channel=3, data=[7, 64]),
   midi.NoteOnEvent(tick=100, channel=3, data=[28, 0]),
   midi.ControlChangeEvent(tick=20, channel=3, data=[7, 63]),
   midi.ControlChangeEvent(tick=60, channel=3, data=[10, 108]),
   midi.NoteOnEvent(tick=0, channel=3, data=[28, 79]),
   midi.ControlChangeEvent(tick=60, channel=3, data=[7, 62]),
   midi.NoteOnEvent(tick=100, channel=3, data=[28, 0]),
   midi.ControlChangeEvent(tick=20, channel=3, data=[7, 61]),
   midi.ControlChangeEvent(tick=60, channel=3, data=[10, 18]),
   midi.NoteOnEvent(tick=0, channel=3, data=[28, 79]),
   midi.ControlChangeEvent(tick=90, channel=3, data=[7, 60]),
   midi.NoteOnEvent(tick=70, channel=3, data=[28, 0]),
   midi.ControlChangeEvent(tick=50, channel=3, data=[7, 59]),
   midi.ControlChangeEvent(tick=30, channel=3, data=[10, 108]),
   midi.NoteOnEvent(tick=0, channel=3, data=[28, 79]),
   midi.ControlChangeEvent(tick=90, channel=3, data=[7, 58]),
   midi.NoteOnEvent(tick=70, channel=3, data=[28, 0]),
   midi.ControlChangeEvent(tick=50, channel=3, data=[7, 57]),
   midi.ControlChangeEvent(tick=30, channel=3, data=[10, 18]),
   midi.NoteOnEvent(tick=0, channel=3, data=[28, 79]),
   midi.ControlChangeEvent(tick=120, channel=3, data=[7, 56]),
   midi.NoteOnEvent(tick=40, channel=3, data=[28, 0]),
   midi.ControlChangeEvent(tick=80, channel=3, data=[10, 108]),
   midi.NoteOnEvent(tick=0, channel=3, data=[28, 79]),
   midi.ControlChangeEvent(tick=120, channel=3, data=[7, 54]),
   midi.NoteOnEvent(tick=40, channel=3, data=[28, 0]),
   midi.ControlChangeEvent(tick=80, channel=3, data=[10, 18]),
   midi.NoteOnEvent(tick=0, channel=3, data=[28, 79]),
   midi.ControlChangeEvent(tick=120, channel=3, data=[7, 52]),
   midi.NoteOnEvent(tick=40, channel=3, data=[28, 0]),
   midi.ControlChangeEvent(tick=80, channel=3, data=[10, 108]),
   midi.NoteOnEvent(tick=0, channel=3, data=[28, 79]),
   midi.ControlChangeEvent(tick=30, channel=3, data=[7, 51]),
   midi.ControlChangeEvent(tick=120, channel=3, data=[7, 50]),
   midi.NoteOnEvent(tick=10, channel=3, data=[28, 0]),
   midi.ControlChangeEvent(tick=80, channel=3, data=[10, 18]),
   midi.NoteOnEvent(tick=0, channel=3, data=[28, 79]),
   midi.ControlChangeEvent(tick=30, channel=3, data=[7, 49]),
   midi.ControlChangeEvent(tick=120, channel=3, data=[7, 48]),
   midi.NoteOnEvent(tick=10, channel=3, data=[28, 0]),
   midi.ControlChangeEvent(tick=80, channel=3, data=[10, 108]),
   midi.NoteOnEvent(tick=0, channel=3, data=[28, 79]),
   midi.ControlChangeEvent(tick=60, channel=3, data=[7, 47]),
   midi.NoteOnEvent(tick=100, channel=3, data=[28, 0]),
   midi.ControlChangeEvent(tick=20, channel=3, data=[7, 46]),
   midi.ControlChangeEvent(tick=60, channel=3, data=[10, 18]),
   midi.NoteOnEvent(tick=0, channel=3, data=[28, 79]),
   midi.ControlChangeEvent(tick=60, channel=3, data=[7, 45]),
   midi.NoteOnEvent(tick=100, channel=3, data=[28, 0]),
   midi.ControlChangeEvent(tick=20, channel=3, data=[7, 44]),
   midi.ControlChangeEvent(tick=60, channel=3, data=[10, 108]),
   midi.NoteOnEvent(tick=0, channel=3, data=[28, 79]),
   midi.ControlChangeEvent(tick=90, channel=3, data=[7, 43]),
   midi.NoteOnEvent(tick=70, channel=3, data=[28, 0]),
   midi.ControlChangeEvent(tick=50, channel=3, data=[7, 42]),
   midi.ControlChangeEvent(tick=30, channel=3, data=[10, 18]),
   midi.NoteOnEvent(tick=0, channel=3, data=[28, 79]),
   midi.ControlChangeEvent(tick=90, channel=3, data=[7, 41]),
   midi.NoteOnEvent(tick=70, channel=3, data=[28, 0]),
   midi.ControlChangeEvent(tick=50, channel=3, data=[7, 40]),
   midi.ControlChangeEvent(tick=30, channel=3, data=[10, 108]),
   midi.NoteOnEvent(tick=0, channel=3, data=[28, 79]),
   midi.ControlChangeEvent(tick=90, channel=3, data=[7, 39]),
   midi.NoteOnEvent(tick=70, channel=3, data=[28, 0]),
   midi.ControlChangeEvent(tick=80, channel=3, data=[10, 18]),
   midi.NoteOnEvent(tick=0, channel=3, data=[28, 79]),
   midi.ControlChangeEvent(tick=120, channel=3, data=[7, 37]),
   midi.NoteOnEvent(tick=40, channel=3, data=[28, 0]),
   midi.ControlChangeEvent(tick=80, channel=3, data=[10, 108]),
   midi.NoteOnEvent(tick=0, channel=3, data=[28, 79]),
   midi.ControlChangeEvent(tick=120, channel=3, data=[7, 35]),
   midi.NoteOnEvent(tick=40, channel=3, data=[28, 0]),
   midi.ControlChangeEvent(tick=80, channel=3, data=[10, 18]),
   midi.NoteOnEvent(tick=0, channel=3, data=[28, 79]),
   midi.ControlChangeEvent(tick=30, channel=3, data=[7, 34]),
   midi.ControlChangeEvent(tick=120, channel=3, data=[7, 33]),
   midi.NoteOnEvent(tick=10, channel=3, data=[28, 0]),
   midi.ControlChangeEvent(tick=80, channel=3, data=[10, 108]),
   midi.NoteOnEvent(tick=0, channel=3, data=[28, 79]),
   midi.ControlChangeEvent(tick=30, channel=3, data=[7, 32]),
   midi.ControlChangeEvent(tick=120, channel=3, data=[7, 31]),
   midi.NoteOnEvent(tick=10, channel=3, data=[28, 0]),
   midi.ControlChangeEvent(tick=80, channel=3, data=[10, 18]),
   midi.NoteOnEvent(tick=0, channel=3, data=[28, 79]),
   midi.ControlChangeEvent(tick=60, channel=3, data=[7, 30]),
   midi.NoteOnEvent(tick=100, channel=3, data=[28, 0]),
   midi.ControlChangeEvent(tick=20, channel=3, data=[7, 29]),
   midi.ControlChangeEvent(tick=60, channel=3, data=[10, 108]),
   midi.NoteOnEvent(tick=0, channel=3, data=[28, 79]),
   midi.ControlChangeEvent(tick=60, channel=3, data=[7, 28]),
   midi.NoteOnEvent(tick=100, channel=3, data=[28, 0]),
   midi.ControlChangeEvent(tick=20, channel=3, data=[7, 27]),
   midi.ControlChangeEvent(tick=60, channel=3, data=[10, 18]),
   midi.NoteOnEvent(tick=0, channel=3, data=[28, 79]),
   midi.ControlChangeEvent(tick=60, channel=3, data=[7, 26]),
   midi.NoteOnEvent(tick=100, channel=3, data=[28, 0]),
   midi.ControlChangeEvent(tick=50, channel=3, data=[7, 25]),
   midi.ControlChangeEvent(tick=30, channel=3, data=[10, 108]),
   midi.NoteOnEvent(tick=0, channel=3, data=[28, 79]),
   midi.ControlChangeEvent(tick=90, channel=3, data=[7, 24]),
   midi.NoteOnEvent(tick=70, channel=3, data=[28, 0]),
   midi.ControlChangeEvent(tick=50, channel=3, data=[7, 23]),
   midi.ControlChangeEvent(tick=30, channel=3, data=[10, 18]),
   midi.NoteOnEvent(tick=0, channel=3, data=[28, 79]),
   midi.ControlChangeEvent(tick=90, channel=3, data=[7, 22]),
   midi.NoteOnEvent(tick=70, channel=3, data=[28, 0]),
   midi.ControlChangeEvent(tick=80, channel=3, data=[10, 108]),
   midi.NoteOnEvent(tick=0, channel=3, data=[28, 79]),
   midi.ControlChangeEvent(tick=120, channel=3, data=[7, 20]),
   midi.NoteOnEvent(tick=40, channel=3, data=[28, 0]),
   midi.ControlChangeEvent(tick=80, channel=3, data=[10, 18]),
   midi.NoteOnEvent(tick=0, channel=3, data=[28, 79]),
   midi.ControlChangeEvent(tick=120, channel=3, data=[7, 18]),
   midi.NoteOnEvent(tick=40, channel=3, data=[28, 0]),
   midi.ControlChangeEvent(tick=80, channel=3, data=[10, 108]),
   midi.NoteOnEvent(tick=0, channel=3, data=[28, 79]),
   midi.ControlChangeEvent(tick=30, channel=3, data=[7, 17]),
   midi.ControlChangeEvent(tick=120, channel=3, data=[7, 16]),
   midi.NoteOnEvent(tick=10, channel=3, data=[28, 0]),
   midi.ControlChangeEvent(tick=80, channel=3, data=[10, 18]),
   midi.NoteOnEvent(tick=0, channel=3, data=[28, 79]),
   midi.ControlChangeEvent(tick=30, channel=3, data=[7, 15]),
   midi.ControlChangeEvent(tick=120, channel=3, data=[7, 14]),
   midi.NoteOnEvent(tick=10, channel=3, data=[28, 0]),
   midi.ControlChangeEvent(tick=80, channel=3, data=[10, 108]),
   midi.NoteOnEvent(tick=0, channel=3, data=[28, 79]),
   midi.ControlChangeEvent(tick=30, channel=3, data=[7, 13]),
   midi.NoteOnEvent(tick=130, channel=3, data=[28, 0]),
   midi.ControlChangeEvent(tick=20, channel=3, data=[7, 12]),
   midi.ControlChangeEvent(tick=60, channel=3, data=[10, 18]),
   midi.NoteOnEvent(tick=0, channel=3, data=[28, 79]),
   midi.ControlChangeEvent(tick=60, channel=3, data=[7, 11]),
   midi.NoteOnEvent(tick=100, channel=3, data=[28, 0]),
   midi.ControlChangeEvent(tick=20, channel=3, data=[7, 10]),
   midi.ControlChangeEvent(tick=60, channel=3, data=[10, 108]),
   midi.NoteOnEvent(tick=0, channel=3, data=[28, 79]),
   midi.ControlChangeEvent(tick=60, channel=3, data=[7, 9]),
   midi.NoteOnEvent(tick=100, channel=3, data=[28, 0]),
   midi.ControlChangeEvent(tick=50, channel=3, data=[7, 8]),
   midi.ControlChangeEvent(tick=30, channel=3, data=[10, 18]),
   midi.NoteOnEvent(tick=0, channel=3, data=[28, 79]),
   midi.ControlChangeEvent(tick=90, channel=3, data=[7, 7]),
   midi.NoteOnEvent(tick=70, channel=3, data=[28, 0]),
   midi.ControlChangeEvent(tick=50, channel=3, data=[7, 6]),
   midi.ControlChangeEvent(tick=30, channel=3, data=[10, 108]),
   midi.NoteOnEvent(tick=0, channel=3, data=[28, 79]),
   midi.ControlChangeEvent(tick=90, channel=3, data=[7, 5]),
   midi.NoteOnEvent(tick=70, channel=3, data=[28, 0]),
   midi.ControlChangeEvent(tick=80, channel=3, data=[10, 18]),
   midi.NoteOnEvent(tick=0, channel=3, data=[28, 79]),
   midi.ControlChangeEvent(tick=120, channel=3, data=[7, 3]),
   midi.NoteOnEvent(tick=40, channel=3, data=[28, 0]),
   midi.ControlChangeEvent(tick=80, channel=3, data=[10, 108]),
   midi.NoteOnEvent(tick=0, channel=3, data=[28, 79]),
   midi.ControlChangeEvent(tick=120, channel=3, data=[7, 1]),
   midi.ControlChangeEvent(tick=30, channel=3, data=[7, 0]),
   midi.NoteOnEvent(tick=10, channel=3, data=[28, 0]),
   midi.EndOfTrackEvent(tick=0, data=[])]),
 midi.Track(\
  [midi.PortEvent(tick=0, data=[0]),
   midi.TrackNameEvent(tick=0, text='Shakuhachi', data=[83, 104, 97, 107, 117, 104, 97, 99, 104, 105]),
   midi.ProgramChangeEvent(tick=0, channel=4, data=[77]),
   midi.ControlChangeEvent(tick=0, channel=4, data=[7, 32]),
   midi.ControlChangeEvent(tick=480, channel=4, data=[0, 0]),
   midi.ControlChangeEvent(tick=5, channel=4, data=[32, 0]),
   midi.ControlChangeEvent(tick=10, channel=4, data=[1, 0]),
   midi.ControlChangeEvent(tick=10, channel=4, data=[10, 108]),
   midi.ControlChangeEvent(tick=5, channel=4, data=[11, 127]),
   midi.ControlChangeEvent(tick=5, channel=4, data=[64, 0]),
   midi.ControlChangeEvent(tick=5, channel=4, data=[91, 0]),
   midi.ControlChangeEvent(tick=5, channel=4, data=[93, 77]),
   midi.PitchWheelEvent(tick=5, channel=4, data=[0, 64]),
   midi.ControlChangeEvent(tick=0, channel=4, data=[64, 0]),
   midi.NoteOnEvent(tick=430, channel=4, data=[40, 79]),
   midi.NoteOnEvent(tick=200, channel=4, data=[40, 0]),
   midi.ControlChangeEvent(tick=40, channel=4, data=[93, 77]),
   midi.ControlChangeEvent(tick=0, channel=4, data=[7, 33]),
   midi.ControlChangeEvent(tick=0, channel=4, data=[10, 18]),
   midi.NoteOnEvent(tick=0, channel=4, data=[40, 79]),
   midi.NoteOnEvent(tick=200, channel=4, data=[40, 0]),
   midi.ControlChangeEvent(tick=10, channel=4, data=[7, 34]),
   midi.ControlChangeEvent(tick=30, channel=4, data=[10, 108]),
   midi.NoteOnEvent(tick=0, channel=4, data=[40, 79]),
   midi.ControlChangeEvent(tick=180, channel=4, data=[7, 35]),
   midi.NoteOnEvent(tick=20, channel=4, data=[40, 0]),
   midi.ControlChangeEvent(tick=40, channel=4, data=[10, 18]),
   midi.NoteOnEvent(tick=0, channel=4, data=[40, 79]),
   midi.ControlChangeEvent(tick=150, channel=4, data=[7, 36]),
   midi.NoteOnEvent(tick=50, channel=4, data=[40, 0]),
   midi.ControlChangeEvent(tick=40, channel=4, data=[10, 108]),
   midi.NoteOnEvent(tick=0, channel=4, data=[40, 79]),
   midi.ControlChangeEvent(tick=120, channel=4, data=[7, 37]),
   midi.NoteOnEvent(tick=80, channel=4, data=[40, 0]),
   midi.ControlChangeEvent(tick=40, channel=4, data=[10, 18]),
   midi.NoteOnEvent(tick=0, channel=4, data=[40, 79]),
   midi.ControlChangeEvent(tick=90, channel=4, data=[7, 38]),
   midi.NoteOnEvent(tick=110, channel=4, data=[40, 0]),
   midi.ControlChangeEvent(tick=40, channel=4, data=[10, 108]),
   midi.NoteOnEvent(tick=0, channel=4, data=[40, 79]),
   midi.ControlChangeEvent(tick=60, channel=4, data=[7, 39]),
   midi.NoteOnEvent(tick=140, channel=4, data=[40, 0]),
   midi.ControlChangeEvent(tick=40, channel=4, data=[10, 18]),
   midi.NoteOnEvent(tick=0, channel=4, data=[40, 79]),
   midi.ControlChangeEvent(tick=30, channel=4, data=[7, 40]),
   midi.NoteOnEvent(tick=170, channel=4, data=[40, 0]),
   midi.ControlChangeEvent(tick=40, channel=4, data=[10, 108]),
   midi.NoteOnEvent(tick=0, channel=4, data=[40, 79]),
   midi.NoteOnEvent(tick=200, channel=4, data=[40, 0]),
   midi.ControlChangeEvent(tick=10, channel=4, data=[7, 42]),
   midi.ControlChangeEvent(tick=30, channel=4, data=[10, 18]),
   midi.NoteOnEvent(tick=0, channel=4, data=[40, 79]),
   midi.ControlChangeEvent(tick=180, channel=4, data=[7, 43]),
   midi.NoteOnEvent(tick=20, channel=4, data=[40, 0]),
   midi.ControlChangeEvent(tick=40, channel=4, data=[10, 108]),
   midi.NoteOnEvent(tick=0, channel=4, data=[40, 79]),
   midi.ControlChangeEvent(tick=150, channel=4, data=[7, 44]),
   midi.NoteOnEvent(tick=50, channel=4, data=[40, 0]),
   midi.ControlChangeEvent(tick=40, channel=4, data=[10, 18]),
   midi.NoteOnEvent(tick=0, channel=4, data=[40, 79]),
   midi.ControlChangeEvent(tick=120, channel=4, data=[7, 45]),
   midi.NoteOnEvent(tick=80, channel=4, data=[40, 0]),
   midi.ControlChangeEvent(tick=40, channel=4, data=[10, 108]),
   midi.NoteOnEvent(tick=0, channel=4, data=[40, 79]),
   midi.ControlChangeEvent(tick=90, channel=4, data=[7, 46]),
   midi.NoteOnEvent(tick=110, channel=4, data=[40, 0]),
   midi.ControlChangeEvent(tick=40, channel=4, data=[10, 18]),
   midi.NoteOnEvent(tick=0, channel=4, data=[40, 79]),
   midi.ControlChangeEvent(tick=60, channel=4, data=[7, 47]),
   midi.NoteOnEvent(tick=140, channel=4, data=[40, 0]),
   midi.ControlChangeEvent(tick=40, channel=4, data=[10, 108]),
   midi.NoteOnEvent(tick=0, channel=4, data=[40, 79]),
   midi.ControlChangeEvent(tick=60, channel=4, data=[7, 48]),
   midi.NoteOnEvent(tick=140, channel=4, data=[40, 0]),
   midi.ControlChangeEvent(tick=40, channel=4, data=[10, 18]),
   midi.NoteOnEvent(tick=0, channel=4, data=[40, 79]),
   midi.ControlChangeEvent(tick=30, channel=4, data=[7, 49]),
   midi.NoteOnEvent(tick=170, channel=4, data=[40, 0]),
   midi.ControlChangeEvent(tick=40, channel=4, data=[10, 108]),
   midi.NoteOnEvent(tick=0, channel=4, data=[40, 79]),
   midi.NoteOnEvent(tick=200, channel=4, data=[40, 0]),
   midi.ControlChangeEvent(tick=10, channel=4, data=[7, 51]),
   midi.ControlChangeEvent(tick=30, channel=4, data=[10, 18]),
   midi.NoteOnEvent(tick=0, channel=4, data=[40, 79]),
   midi.ControlChangeEvent(tick=180, channel=4, data=[7, 52]),
   midi.NoteOnEvent(tick=20, channel=4, data=[40, 0]),
   midi.ControlChangeEvent(tick=40, channel=4, data=[10, 108]),
   midi.NoteOnEvent(tick=0, channel=4, data=[40, 79]),
   midi.ControlChangeEvent(tick=150, channel=4, data=[7, 53]),
   midi.NoteOnEvent(tick=50, channel=4, data=[40, 0]),
   midi.ControlChangeEvent(tick=40, channel=4, data=[10, 18]),
   midi.NoteOnEvent(tick=0, channel=4, data=[40, 79]),
   midi.ControlChangeEvent(tick=120, channel=4, data=[7, 54]),
   midi.NoteOnEvent(tick=80, channel=4, data=[40, 0]),
   midi.ControlChangeEvent(tick=40, channel=4, data=[10, 108]),
   midi.NoteOnEvent(tick=0, channel=4, data=[40, 79]),
   midi.ControlChangeEvent(tick=90, channel=4, data=[7, 55]),
   midi.NoteOnEvent(tick=110, channel=4, data=[40, 0]),
   midi.ControlChangeEvent(tick=40, channel=4, data=[10, 18]),
   midi.NoteOnEvent(tick=0, channel=4, data=[40, 79]),
   midi.ControlChangeEvent(tick=60, channel=4, data=[7, 56]),
   midi.NoteOnEvent(tick=140, channel=4, data=[40, 0]),
   midi.ControlChangeEvent(tick=40, channel=4, data=[10, 108]),
   midi.NoteOnEvent(tick=0, channel=4, data=[40, 79]),
   midi.ControlChangeEvent(tick=30, channel=4, data=[7, 57]),
   midi.NoteOnEvent(tick=170, channel=4, data=[40, 0]),
   midi.ControlChangeEvent(tick=40, channel=4, data=[10, 18]),
   midi.NoteOnEvent(tick=0, channel=4, data=[40, 79]),
   midi.NoteOnEvent(tick=200, channel=4, data=[40, 0]),
   midi.ControlChangeEvent(tick=10, channel=4, data=[7, 59]),
   midi.ControlChangeEvent(tick=30, channel=4, data=[10, 108]),
   midi.NoteOnEvent(tick=0, channel=4, data=[40, 79]),
   midi.ControlChangeEvent(tick=180, channel=4, data=[7, 60]),
   midi.NoteOnEvent(tick=20, channel=4, data=[40, 0]),
   midi.ControlChangeEvent(tick=40, channel=4, data=[10, 18]),
   midi.NoteOnEvent(tick=0, channel=4, data=[40, 79]),
   midi.ControlChangeEvent(tick=150, channel=4, data=[7, 61]),
   midi.NoteOnEvent(tick=50, channel=4, data=[40, 0]),
   midi.ControlChangeEvent(tick=40, channel=4, data=[10, 108]),
   midi.NoteOnEvent(tick=0, channel=4, data=[40, 79]),
   midi.ControlChangeEvent(tick=120, channel=4, data=[7, 62]),
   midi.NoteOnEvent(tick=80, channel=4, data=[40, 0]),
   midi.ControlChangeEvent(tick=40, channel=4, data=[10, 18]),
   midi.NoteOnEvent(tick=0, channel=4, data=[40, 79]),
   midi.ControlChangeEvent(tick=120, channel=4, data=[7, 63]),
   midi.NoteOnEvent(tick=80, channel=4, data=[40, 0]),
   midi.ControlChangeEvent(tick=40, channel=4, data=[10, 108]),
   midi.NoteOnEvent(tick=0, channel=4, data=[40, 79]),
   midi.ControlChangeEvent(tick=90, channel=4, data=[7, 64]),
   midi.NoteOnEvent(tick=110, channel=4, data=[40, 0]),
   midi.ControlChangeEvent(tick=40, channel=4, data=[10, 18]),
   midi.NoteOnEvent(tick=0, channel=4, data=[40, 79]),
   midi.ControlChangeEvent(tick=60, channel=4, data=[7, 65]),
   midi.NoteOnEvent(tick=140, channel=4, data=[40, 0]),
   midi.ControlChangeEvent(tick=40, channel=4, data=[10, 108]),
   midi.NoteOnEvent(tick=0, channel=4, data=[40, 79]),
   midi.ControlChangeEvent(tick=30, channel=4, data=[7, 66]),
   midi.NoteOnEvent(tick=170, channel=4, data=[40, 0]),
   midi.ControlChangeEvent(tick=40, channel=4, data=[10, 18]),
   midi.NoteOnEvent(tick=0, channel=4, data=[40, 79]),
   midi.NoteOnEvent(tick=200, channel=4, data=[40, 0]),
   midi.ControlChangeEvent(tick=10, channel=4, data=[7, 68]),
   midi.ControlChangeEvent(tick=30, channel=4, data=[10, 108]),
   midi.NoteOnEvent(tick=0, channel=4, data=[40, 79]),
   midi.ControlChangeEvent(tick=180, channel=4, data=[7, 69]),
   midi.NoteOnEvent(tick=20, channel=4, data=[40, 0]),
   midi.ControlChangeEvent(tick=40, channel=4, data=[10, 18]),
   midi.NoteOnEvent(tick=0, channel=4, data=[40, 79]),
   midi.ControlChangeEvent(tick=150, channel=4, data=[7, 70]),
   midi.NoteOnEvent(tick=50, channel=4, data=[40, 0]),
   midi.ControlChangeEvent(tick=40, channel=4, data=[10, 108]),
   midi.NoteOnEvent(tick=0, channel=4, data=[40, 79]),
   midi.ControlChangeEvent(tick=120, channel=4, data=[7, 71]),
   midi.NoteOnEvent(tick=80, channel=4, data=[40, 0]),
   midi.ControlChangeEvent(tick=40, channel=4, data=[10, 18]),
   midi.NoteOnEvent(tick=0, channel=4, data=[40, 79]),
   midi.ControlChangeEvent(tick=90, channel=4, data=[7, 72]),
   midi.NoteOnEvent(tick=110, channel=4, data=[40, 0]),
   midi.ControlChangeEvent(tick=40, channel=4, data=[10, 108]),
   midi.NoteOnEvent(tick=0, channel=4, data=[40, 79]),
   midi.ControlChangeEvent(tick=60, channel=4, data=[7, 73]),
   midi.NoteOnEvent(tick=140, channel=4, data=[40, 0]),
   midi.ControlChangeEvent(tick=40, channel=4, data=[10, 18]),
   midi.NoteOnEvent(tick=0, channel=4, data=[40, 79]),
   midi.ControlChangeEvent(tick=30, channel=4, data=[7, 74]),
   midi.NoteOnEvent(tick=170, channel=4, data=[40, 0]),
   midi.ControlChangeEvent(tick=40, channel=4, data=[10, 108]),
   midi.NoteOnEvent(tick=0, channel=4, data=[40, 79]),
   midi.NoteOnEvent(tick=200, channel=4, data=[40, 0]),
   midi.ControlChangeEvent(tick=10, channel=4, data=[7, 76]),
   midi.ControlChangeEvent(tick=30, channel=4, data=[10, 18]),
   midi.NoteOnEvent(tick=0, channel=4, data=[40, 79]),
   midi.ControlChangeEvent(tick=180, channel=4, data=[7, 77]),
   midi.NoteOnEvent(tick=20, channel=4, data=[40, 0]),
   midi.ControlChangeEvent(tick=40, channel=4, data=[10, 108]),
   midi.NoteOnEvent(tick=0, channel=4, data=[40, 79]),
   midi.ControlChangeEvent(tick=150, channel=4, data=[7, 78]),
   midi.NoteOnEvent(tick=50, channel=4, data=[40, 0]),
   midi.ControlChangeEvent(tick=40, channel=4, data=[10, 18]),
   midi.NoteOnEvent(tick=0, channel=4, data=[40, 79]),
   midi.ControlChangeEvent(tick=150, channel=4, data=[7, 79]),
   midi.NoteOnEvent(tick=50, channel=4, data=[40, 0]),
   midi.ControlChangeEvent(tick=40, channel=4, data=[10, 108]),
   midi.NoteOnEvent(tick=0, channel=4, data=[40, 79]),
   midi.ControlChangeEvent(tick=120, channel=4, data=[7, 80]),
   midi.NoteOnEvent(tick=80, channel=4, data=[40, 0]),
   midi.ControlChangeEvent(tick=40, channel=4, data=[10, 18]),
   midi.NoteOnEvent(tick=0, channel=4, data=[40, 79]),
   midi.ControlChangeEvent(tick=90, channel=4, data=[7, 81]),
   midi.NoteOnEvent(tick=110, channel=4, data=[40, 0]),
   midi.ControlChangeEvent(tick=40, channel=4, data=[10, 108]),
   midi.NoteOnEvent(tick=0, channel=4, data=[40, 79]),
   midi.ControlChangeEvent(tick=60, channel=4, data=[7, 82]),
   midi.NoteOnEvent(tick=140, channel=4, data=[40, 0]),
   midi.ControlChangeEvent(tick=40, channel=4, data=[10, 18]),
   midi.NoteOnEvent(tick=0, channel=4, data=[40, 79]),
   midi.ControlChangeEvent(tick=30, channel=4, data=[7, 83]),
   midi.NoteOnEvent(tick=170, channel=4, data=[40, 0]),
   midi.ControlChangeEvent(tick=40, channel=4, data=[10, 108]),
   midi.NoteOnEvent(tick=0, channel=4, data=[40, 79]),
   midi.NoteOnEvent(tick=200, channel=4, data=[40, 0]),
   midi.ControlChangeEvent(tick=10, channel=4, data=[7, 85]),
   midi.ControlChangeEvent(tick=30, channel=4, data=[10, 18]),
   midi.NoteOnEvent(tick=0, channel=4, data=[40, 79]),
   midi.ControlChangeEvent(tick=180, channel=4, data=[7, 86]),
   midi.NoteOnEvent(tick=20, channel=4, data=[40, 0]),
   midi.ControlChangeEvent(tick=40, channel=4, data=[10, 108]),
   midi.NoteOnEvent(tick=0, channel=4, data=[40, 79]),
   midi.ControlChangeEvent(tick=150, channel=4, data=[7, 87]),
   midi.NoteOnEvent(tick=50, channel=4, data=[40, 0]),
   midi.ControlChangeEvent(tick=40, channel=4, data=[10, 18]),
   midi.NoteOnEvent(tick=0, channel=4, data=[40, 79]),
   midi.ControlChangeEvent(tick=120, channel=4, data=[7, 88]),
   midi.NoteOnEvent(tick=80, channel=4, data=[40, 0]),
   midi.ControlChangeEvent(tick=40, channel=4, data=[10, 108]),
   midi.NoteOnEvent(tick=0, channel=4, data=[40, 79]),
   midi.ControlChangeEvent(tick=90, channel=4, data=[7, 89]),
   midi.NoteOnEvent(tick=110, channel=4, data=[40, 0]),
   midi.ControlChangeEvent(tick=40, channel=4, data=[10, 18]),
   midi.NoteOnEvent(tick=0, channel=4, data=[40, 79]),
   midi.ControlChangeEvent(tick=60, channel=4, data=[7, 90]),
   midi.NoteOnEvent(tick=140, channel=4, data=[40, 0]),
   midi.ControlChangeEvent(tick=40, channel=4, data=[10, 108]),
   midi.NoteOnEvent(tick=0, channel=4, data=[40, 79]),
   midi.ControlChangeEvent(tick=30, channel=4, data=[7, 91]),
   midi.NoteOnEvent(tick=170, channel=4, data=[40, 0]),
   midi.ControlChangeEvent(tick=40, channel=4, data=[10, 18]),
   midi.NoteOnEvent(tick=0, channel=4, data=[40, 79]),
   midi.NoteOnEvent(tick=200, channel=4, data=[40, 0]),
   midi.ControlChangeEvent(tick=10, channel=4, data=[7, 93]),
   midi.ControlChangeEvent(tick=30, channel=4, data=[10, 108]),
   midi.NoteOnEvent(tick=0, channel=4, data=[40, 79]),
   midi.NoteOnEvent(tick=200, channel=4, data=[40, 0]),
   midi.ControlChangeEvent(tick=10, channel=4, data=[7, 94]),
   midi.ControlChangeEvent(tick=30, channel=4, data=[10, 18]),
   midi.NoteOnEvent(tick=0, channel=4, data=[40, 79]),
   midi.ControlChangeEvent(tick=180, channel=4, data=[7, 95]),
   midi.NoteOnEvent(tick=20, channel=4, data=[40, 0]),
   midi.ControlChangeEvent(tick=40, channel=4, data=[10, 108]),
   midi.NoteOnEvent(tick=0, channel=4, data=[40, 79]),
   midi.ControlChangeEvent(tick=150, channel=4, data=[7, 96]),
   midi.NoteOnEvent(tick=50, channel=4, data=[40, 0]),
   midi.ControlChangeEvent(tick=40, channel=4, data=[10, 18]),
   midi.NoteOnEvent(tick=0, channel=4, data=[40, 79]),
   midi.ControlChangeEvent(tick=120, channel=4, data=[7, 97]),
   midi.NoteOnEvent(tick=80, channel=4, data=[40, 0]),
   midi.ControlChangeEvent(tick=40, channel=4, data=[10, 108]),
   midi.NoteOnEvent(tick=0, channel=4, data=[40, 79]),
   midi.ControlChangeEvent(tick=90, channel=4, data=[7, 98]),
   midi.NoteOnEvent(tick=110, channel=4, data=[40, 0]),
   midi.ControlChangeEvent(tick=40, channel=4, data=[10, 18]),
   midi.NoteOnEvent(tick=0, channel=4, data=[40, 79]),
   midi.ControlChangeEvent(tick=60, channel=4, data=[7, 99]),
   midi.NoteOnEvent(tick=140, channel=4, data=[40, 0]),
   midi.ControlChangeEvent(tick=40, channel=4, data=[10, 108]),
   midi.NoteOnEvent(tick=0, channel=4, data=[40, 79]),
   midi.ControlChangeEvent(tick=30, channel=4, data=[7, 100]),
   midi.NoteOnEvent(tick=170, channel=4, data=[40, 0]),
   midi.ControlChangeEvent(tick=40, channel=4, data=[10, 18]),
   midi.NoteOnEvent(tick=0, channel=4, data=[40, 79]),
   midi.NoteOnEvent(tick=200, channel=4, data=[40, 0]),
   midi.ControlChangeEvent(tick=10, channel=4, data=[7, 102]),
   midi.ControlChangeEvent(tick=30, channel=4, data=[10, 108]),
   midi.NoteOnEvent(tick=0, channel=4, data=[40, 79]),
   midi.ControlChangeEvent(tick=180, channel=4, data=[7, 103]),
   midi.NoteOnEvent(tick=20, channel=4, data=[40, 0]),
   midi.ControlChangeEvent(tick=40, channel=4, data=[10, 18]),
   midi.NoteOnEvent(tick=0, channel=4, data=[40, 79]),
   midi.ControlChangeEvent(tick=150, channel=4, data=[7, 104]),
   midi.NoteOnEvent(tick=50, channel=4, data=[40, 0]),
   midi.ControlChangeEvent(tick=40, channel=4, data=[10, 108]),
   midi.NoteOnEvent(tick=0, channel=4, data=[40, 79]),
   midi.ControlChangeEvent(tick=120, channel=4, data=[7, 105]),
   midi.NoteOnEvent(tick=80, channel=4, data=[40, 0]),
   midi.ControlChangeEvent(tick=40, channel=4, data=[10, 18]),
   midi.NoteOnEvent(tick=0, channel=4, data=[40, 79]),
   midi.ControlChangeEvent(tick=90, channel=4, data=[7, 106]),
   midi.NoteOnEvent(tick=110, channel=4, data=[40, 0]),
   midi.ControlChangeEvent(tick=40, channel=4, data=[10, 108]),
   midi.NoteOnEvent(tick=0, channel=4, data=[40, 79]),
   midi.ControlChangeEvent(tick=60, channel=4, data=[7, 107]),
   midi.NoteOnEvent(tick=140, channel=4, data=[40, 0]),
   midi.ControlChangeEvent(tick=40, channel=4, data=[10, 18]),
   midi.NoteOnEvent(tick=0, channel=4, data=[40, 79]),
   midi.ControlChangeEvent(tick=30, channel=4, data=[7, 108]),
   midi.ControlChangeEvent(tick=30, channel=4, data=[7, 109]),
   midi.ControlChangeEvent(tick=0, channel=4, data=[10, 108]),
   midi.NoteOnEvent(tick=140, channel=4, data=[40, 0]),
   midi.NoteOnEvent(tick=40, channel=4, data=[40, 79]),
   midi.ControlChangeEvent(tick=60, channel=4, data=[10, 18]),
   midi.NoteOnEvent(tick=140, channel=4, data=[40, 0]),
   midi.NoteOnEvent(tick=40, channel=4, data=[40, 79]),
   midi.ControlChangeEvent(tick=60, channel=4, data=[10, 108]),
   midi.NoteOnEvent(tick=140, channel=4, data=[40, 0]),
   midi.NoteOnEvent(tick=40, channel=4, data=[40, 79]),
   midi.ControlChangeEvent(tick=60, channel=4, data=[10, 18]),
   midi.NoteOnEvent(tick=140, channel=4, data=[40, 0]),
   midi.NoteOnEvent(tick=40, channel=4, data=[40, 79]),
   midi.ControlChangeEvent(tick=60, channel=4, data=[10, 108]),
   midi.NoteOnEvent(tick=140, channel=4, data=[40, 0]),
   midi.NoteOnEvent(tick=40, channel=4, data=[40, 79]),
   midi.ControlChangeEvent(tick=60, channel=4, data=[10, 18]),
   midi.NoteOnEvent(tick=140, channel=4, data=[40, 0]),
   midi.NoteOnEvent(tick=40, channel=4, data=[40, 79]),
   midi.ControlChangeEvent(tick=60, channel=4, data=[10, 108]),
   midi.NoteOnEvent(tick=140, channel=4, data=[40, 0]),
   midi.NoteOnEvent(tick=40, channel=4, data=[40, 79]),
   midi.ControlChangeEvent(tick=60, channel=4, data=[10, 18]),
   midi.NoteOnEvent(tick=140, channel=4, data=[40, 0]),
   midi.NoteOnEvent(tick=40, channel=4, data=[40, 79]),
   midi.ControlChangeEvent(tick=60, channel=4, data=[10, 108]),
   midi.NoteOnEvent(tick=140, channel=4, data=[40, 0]),
   midi.NoteOnEvent(tick=40, channel=4, data=[36, 79]),
   midi.ControlChangeEvent(tick=60, channel=4, data=[10, 18]),
   midi.NoteOnEvent(tick=140, channel=4, data=[36, 0]),
   midi.NoteOnEvent(tick=40, channel=4, data=[36, 79]),
   midi.ControlChangeEvent(tick=60, channel=4, data=[10, 108]),
   midi.NoteOnEvent(tick=140, channel=4, data=[36, 0]),
   midi.NoteOnEvent(tick=40, channel=4, data=[36, 79]),
   midi.ControlChangeEvent(tick=60, channel=4, data=[10, 18]),
   midi.NoteOnEvent(tick=140, channel=4, data=[36, 0]),
   midi.NoteOnEvent(tick=40, channel=4, data=[36, 79]),
   midi.ControlChangeEvent(tick=60, channel=4, data=[10, 108]),
   midi.NoteOnEvent(tick=140, channel=4, data=[36, 0]),
   midi.NoteOnEvent(tick=40, channel=4, data=[36, 79]),
   midi.ControlChangeEvent(tick=60, channel=4, data=[10, 18]),
   midi.NoteOnEvent(tick=140, channel=4, data=[36, 0]),
   midi.NoteOnEvent(tick=40, channel=4, data=[36, 79]),
   midi.ControlChangeEvent(tick=60, channel=4, data=[10, 108]),
   midi.NoteOnEvent(tick=140, channel=4, data=[36, 0]),
   midi.NoteOnEvent(tick=40, channel=4, data=[36, 79]),
   midi.ControlChangeEvent(tick=60, channel=4, data=[10, 18]),
   midi.NoteOnEvent(tick=140, channel=4, data=[36, 0]),
   midi.NoteOnEvent(tick=40, channel=4, data=[36, 79]),
   midi.ControlChangeEvent(tick=60, channel=4, data=[10, 108]),
   midi.NoteOnEvent(tick=140, channel=4, data=[36, 0]),
   midi.NoteOnEvent(tick=40, channel=4, data=[40, 79]),
   midi.ControlChangeEvent(tick=60, channel=4, data=[10, 18]),
   midi.NoteOnEvent(tick=140, channel=4, data=[40, 0]),
   midi.NoteOnEvent(tick=40, channel=4, data=[40, 79]),
   midi.ControlChangeEvent(tick=60, channel=4, data=[10, 108]),
   midi.NoteOnEvent(tick=140, channel=4, data=[40, 0]),
   midi.NoteOnEvent(tick=40, channel=4, data=[40, 79]),
   midi.ControlChangeEvent(tick=60, channel=4, data=[10, 18]),
   midi.NoteOnEvent(tick=140, channel=4, data=[40, 0]),
   midi.NoteOnEvent(tick=40, channel=4, data=[40, 79]),
   midi.ControlChangeEvent(tick=60, channel=4, data=[10, 108]),
   midi.NoteOnEvent(tick=140, channel=4, data=[40, 0]),
   midi.NoteOnEvent(tick=40, channel=4, data=[40, 79]),
   midi.ControlChangeEvent(tick=60, channel=4, data=[10, 18]),
   midi.NoteOnEvent(tick=140, channel=4, data=[40, 0]),
   midi.NoteOnEvent(tick=40, channel=4, data=[40, 79]),
   midi.ControlChangeEvent(tick=60, channel=4, data=[10, 108]),
   midi.NoteOnEvent(tick=140, channel=4, data=[40, 0]),
   midi.NoteOnEvent(tick=40, channel=4, data=[40, 79]),
   midi.ControlChangeEvent(tick=60, channel=4, data=[10, 18]),
   midi.NoteOnEvent(tick=140, channel=4, data=[40, 0]),
   midi.NoteOnEvent(tick=40, channel=4, data=[40, 79]),
   midi.ControlChangeEvent(tick=60, channel=4, data=[10, 108]),
   midi.NoteOnEvent(tick=140, channel=4, data=[40, 0]),
   midi.NoteOnEvent(tick=40, channel=4, data=[40, 79]),
   midi.ControlChangeEvent(tick=60, channel=4, data=[10, 18]),
   midi.NoteOnEvent(tick=140, channel=4, data=[40, 0]),
   midi.NoteOnEvent(tick=40, channel=4, data=[40, 79]),
   midi.ControlChangeEvent(tick=60, channel=4, data=[10, 108]),
   midi.NoteOnEvent(tick=140, channel=4, data=[40, 0]),
   midi.NoteOnEvent(tick=40, channel=4, data=[40, 79]),
   midi.ControlChangeEvent(tick=60, channel=4, data=[10, 18]),
   midi.NoteOnEvent(tick=140, channel=4, data=[40, 0]),
   midi.NoteOnEvent(tick=40, channel=4, data=[40, 79]),
   midi.ControlChangeEvent(tick=60, channel=4, data=[10, 108]),
   midi.NoteOnEvent(tick=140, channel=4, data=[40, 0]),
   midi.NoteOnEvent(tick=40, channel=4, data=[40, 79]),
   midi.ControlChangeEvent(tick=60, channel=4, data=[10, 18]),
   midi.NoteOnEvent(tick=140, channel=4, data=[40, 0]),
   midi.NoteOnEvent(tick=40, channel=4, data=[40, 79]),
   midi.ControlChangeEvent(tick=60, channel=4, data=[10, 108]),
   midi.NoteOnEvent(tick=140, channel=4, data=[40, 0]),
   midi.NoteOnEvent(tick=40, channel=4, data=[40, 79]),
   midi.ControlChangeEvent(tick=60, channel=4, data=[10, 18]),
   midi.NoteOnEvent(tick=140, channel=4, data=[40, 0]),
   midi.NoteOnEvent(tick=40, channel=4, data=[40, 79]),
   midi.ControlChangeEvent(tick=60, channel=4, data=[10, 108]),
   midi.NoteOnEvent(tick=140, channel=4, data=[40, 0]),
   midi.NoteOnEvent(tick=40, channel=4, data=[36, 79]),
   midi.ControlChangeEvent(tick=60, channel=4, data=[10, 18]),
   midi.NoteOnEvent(tick=140, channel=4, data=[36, 0]),
   midi.NoteOnEvent(tick=40, channel=4, data=[36, 79]),
   midi.ControlChangeEvent(tick=60, channel=4, data=[10, 108]),
   midi.NoteOnEvent(tick=140, channel=4, data=[36, 0]),
   midi.NoteOnEvent(tick=40, channel=4, data=[36, 79]),
   midi.ControlChangeEvent(tick=60, channel=4, data=[10, 18]),
   midi.NoteOnEvent(tick=140, channel=4, data=[36, 0]),
   midi.NoteOnEvent(tick=40, channel=4, data=[36, 79]),
   midi.ControlChangeEvent(tick=60, channel=4, data=[10, 108]),
   midi.NoteOnEvent(tick=140, channel=4, data=[36, 0]),
   midi.NoteOnEvent(tick=40, channel=4, data=[36, 79]),
   midi.ControlChangeEvent(tick=60, channel=4, data=[10, 18]),
   midi.NoteOnEvent(tick=140, channel=4, data=[36, 0]),
   midi.NoteOnEvent(tick=40, channel=4, data=[36, 79]),
   midi.ControlChangeEvent(tick=60, channel=4, data=[10, 108]),
   midi.NoteOnEvent(tick=140, channel=4, data=[36, 0]),
   midi.NoteOnEvent(tick=40, channel=4, data=[36, 79]),
   midi.ControlChangeEvent(tick=60, channel=4, data=[10, 18]),
   midi.NoteOnEvent(tick=140, channel=4, data=[36, 0]),
   midi.NoteOnEvent(tick=40, channel=4, data=[36, 79]),
   midi.ControlChangeEvent(tick=60, channel=4, data=[10, 108]),
   midi.NoteOnEvent(tick=140, channel=4, data=[36, 0]),
   midi.NoteOnEvent(tick=40, channel=4, data=[33, 79]),
   midi.ControlChangeEvent(tick=60, channel=4, data=[10, 18]),
   midi.NoteOnEvent(tick=140, channel=4, data=[33, 0]),
   midi.NoteOnEvent(tick=40, channel=4, data=[33, 79]),
   midi.ControlChangeEvent(tick=60, channel=4, data=[10, 108]),
   midi.NoteOnEvent(tick=140, channel=4, data=[33, 0]),
   midi.NoteOnEvent(tick=40, channel=4, data=[33, 79]),
   midi.ControlChangeEvent(tick=60, channel=4, data=[10, 18]),
   midi.NoteOnEvent(tick=140, channel=4, data=[33, 0]),
   midi.NoteOnEvent(tick=40, channel=4, data=[33, 79]),
   midi.ControlChangeEvent(tick=60, channel=4, data=[10, 108]),
   midi.NoteOnEvent(tick=140, channel=4, data=[33, 0]),
   midi.NoteOnEvent(tick=40, channel=4, data=[33, 79]),
   midi.ControlChangeEvent(tick=60, channel=4, data=[10, 18]),
   midi.NoteOnEvent(tick=140, channel=4, data=[33, 0]),
   midi.NoteOnEvent(tick=40, channel=4, data=[33, 79]),
   midi.ControlChangeEvent(tick=60, channel=4, data=[10, 63]),
   midi.NoteOnEvent(tick=140, channel=4, data=[33, 0]),
   midi.NoteOnEvent(tick=40, channel=4, data=[33, 79]),
   midi.ControlChangeEvent(tick=60, channel=4, data=[10, 108]),
   midi.NoteOnEvent(tick=140, channel=4, data=[33, 0]),
   midi.NoteOnEvent(tick=40, channel=4, data=[40, 79]),
   midi.ControlChangeEvent(tick=60, channel=4, data=[10, 18]),
   midi.NoteOnEvent(tick=140, channel=4, data=[40, 0]),
   midi.NoteOnEvent(tick=40, channel=4, data=[40, 79]),
   midi.ControlChangeEvent(tick=60, channel=4, data=[10, 108]),
   midi.NoteOnEvent(tick=140, channel=4, data=[40, 0]),
   midi.NoteOnEvent(tick=40, channel=4, data=[40, 79]),
   midi.ControlChangeEvent(tick=60, channel=4, data=[10, 18]),
   midi.NoteOnEvent(tick=140, channel=4, data=[40, 0]),
   midi.NoteOnEvent(tick=40, channel=4, data=[40, 79]),
   midi.ControlChangeEvent(tick=60, channel=4, data=[10, 108]),
   midi.NoteOnEvent(tick=140, channel=4, data=[40, 0]),
   midi.NoteOnEvent(tick=40, channel=4, data=[40, 79]),
   midi.ControlChangeEvent(tick=60, channel=4, data=[10, 18]),
   midi.NoteOnEvent(tick=140, channel=4, data=[40, 0]),
   midi.NoteOnEvent(tick=40, channel=4, data=[40, 79]),
   midi.ControlChangeEvent(tick=60, channel=4, data=[10, 108]),
   midi.NoteOnEvent(tick=140, channel=4, data=[40, 0]),
   midi.NoteOnEvent(tick=40, channel=4, data=[40, 79]),
   midi.ControlChangeEvent(tick=60, channel=4, data=[10, 18]),
   midi.NoteOnEvent(tick=140, channel=4, data=[40, 0]),
   midi.NoteOnEvent(tick=40, channel=4, data=[40, 79]),
   midi.ControlChangeEvent(tick=60, channel=4, data=[10, 108]),
   midi.NoteOnEvent(tick=140, channel=4, data=[40, 0]),
   midi.NoteOnEvent(tick=40, channel=4, data=[40, 79]),
   midi.ControlChangeEvent(tick=60, channel=4, data=[10, 18]),
   midi.NoteOnEvent(tick=140, channel=4, data=[40, 0]),
   midi.NoteOnEvent(tick=40, channel=4, data=[40, 79]),
   midi.ControlChangeEvent(tick=60, channel=4, data=[10, 108]),
   midi.NoteOnEvent(tick=140, channel=4, data=[40, 0]),
   midi.NoteOnEvent(tick=40, channel=4, data=[40, 79]),
   midi.ControlChangeEvent(tick=60, channel=4, data=[10, 18]),
   midi.NoteOnEvent(tick=140, channel=4, data=[40, 0]),
   midi.NoteOnEvent(tick=40, channel=4, data=[40, 79]),
   midi.ControlChangeEvent(tick=60, channel=4, data=[10, 108]),
   midi.NoteOnEvent(tick=140, channel=4, data=[40, 0]),
   midi.NoteOnEvent(tick=40, channel=4, data=[40, 79]),
   midi.ControlChangeEvent(tick=60, channel=4, data=[10, 18]),
   midi.NoteOnEvent(tick=140, channel=4, data=[40, 0]),
   midi.NoteOnEvent(tick=40, channel=4, data=[40, 79]),
   midi.ControlChangeEvent(tick=60, channel=4, data=[10, 108]),
   midi.NoteOnEvent(tick=140, channel=4, data=[40, 0]),
   midi.NoteOnEvent(tick=40, channel=4, data=[40, 79]),
   midi.ControlChangeEvent(tick=60, channel=4, data=[10, 18]),
   midi.NoteOnEvent(tick=140, channel=4, data=[40, 0]),
   midi.NoteOnEvent(tick=40, channel=4, data=[40, 79]),
   midi.ControlChangeEvent(tick=60, channel=4, data=[10, 108]),
   midi.NoteOnEvent(tick=140, channel=4, data=[40, 0]),
   midi.NoteOnEvent(tick=40, channel=4, data=[36, 79]),
   midi.ControlChangeEvent(tick=60, channel=4, data=[10, 18]),
   midi.NoteOnEvent(tick=140, channel=4, data=[36, 0]),
   midi.NoteOnEvent(tick=40, channel=4, data=[36, 79]),
   midi.ControlChangeEvent(tick=60, channel=4, data=[10, 108]),
   midi.NoteOnEvent(tick=140, channel=4, data=[36, 0]),
   midi.NoteOnEvent(tick=40, channel=4, data=[36, 79]),
   midi.ControlChangeEvent(tick=60, channel=4, data=[10, 18]),
   midi.NoteOnEvent(tick=140, channel=4, data=[36, 0]),
   midi.NoteOnEvent(tick=40, channel=4, data=[36, 79]),
   midi.ControlChangeEvent(tick=60, channel=4, data=[10, 108]),
   midi.NoteOnEvent(tick=140, channel=4, data=[36, 0]),
   midi.NoteOnEvent(tick=40, channel=4, data=[36, 79]),
   midi.ControlChangeEvent(tick=60, channel=4, data=[10, 18]),
   midi.NoteOnEvent(tick=140, channel=4, data=[36, 0]),
   midi.NoteOnEvent(tick=40, channel=4, data=[36, 79]),
   midi.ControlChangeEvent(tick=60, channel=4, data=[10, 108]),
   midi.NoteOnEvent(tick=140, channel=4, data=[36, 0]),
   midi.NoteOnEvent(tick=40, channel=4, data=[36, 79]),
   midi.ControlChangeEvent(tick=60, channel=4, data=[10, 18]),
   midi.NoteOnEvent(tick=140, channel=4, data=[36, 0]),
   midi.NoteOnEvent(tick=40, channel=4, data=[36, 79]),
   midi.ControlChangeEvent(tick=60, channel=4, data=[10, 108]),
   midi.NoteOnEvent(tick=140, channel=4, data=[36, 0]),
   midi.NoteOnEvent(tick=40, channel=4, data=[36, 79]),
   midi.ControlChangeEvent(tick=60, channel=4, data=[10, 18]),
   midi.NoteOnEvent(tick=140, channel=4, data=[36, 0]),
   midi.NoteOnEvent(tick=40, channel=4, data=[36, 79]),
   midi.ControlChangeEvent(tick=60, channel=4, data=[10, 108]),
   midi.NoteOnEvent(tick=140, channel=4, data=[36, 0]),
   midi.NoteOnEvent(tick=40, channel=4, data=[36, 79]),
   midi.ControlChangeEvent(tick=60, channel=4, data=[10, 18]),
   midi.NoteOnEvent(tick=140, channel=4, data=[36, 0]),
   midi.NoteOnEvent(tick=40, channel=4, data=[36, 79]),
   midi.ControlChangeEvent(tick=60, channel=4, data=[10, 108]),
   midi.NoteOnEvent(tick=140, channel=4, data=[36, 0]),
   midi.NoteOnEvent(tick=40, channel=4, data=[36, 79]),
   midi.ControlChangeEvent(tick=60, channel=4, data=[10, 18]),
   midi.NoteOnEvent(tick=140, channel=4, data=[36, 0]),
   midi.NoteOnEvent(tick=40, channel=4, data=[36, 79]),
   midi.ControlChangeEvent(tick=60, channel=4, data=[10, 108]),
   midi.NoteOnEvent(tick=140, channel=4, data=[36, 0]),
   midi.NoteOnEvent(tick=40, channel=4, data=[36, 79]),
   midi.ControlChangeEvent(tick=60, channel=4, data=[10, 18]),
   midi.NoteOnEvent(tick=140, channel=4, data=[36, 0]),
   midi.NoteOnEvent(tick=40, channel=4, data=[36, 79]),
   midi.ControlChangeEvent(tick=60, channel=4, data=[10, 108]),
   midi.NoteOnEvent(tick=140, channel=4, data=[36, 0]),
   midi.NoteOnEvent(tick=40, channel=4, data=[40, 79]),
   midi.ControlChangeEvent(tick=60, channel=4, data=[10, 18]),
   midi.NoteOnEvent(tick=140, channel=4, data=[40, 0]),
   midi.NoteOnEvent(tick=40, channel=4, data=[40, 79]),
   midi.ControlChangeEvent(tick=60, channel=4, data=[10, 108]),
   midi.NoteOnEvent(tick=140, channel=4, data=[40, 0]),
   midi.NoteOnEvent(tick=40, channel=4, data=[40, 79]),
   midi.ControlChangeEvent(tick=60, channel=4, data=[10, 18]),
   midi.NoteOnEvent(tick=140, channel=4, data=[40, 0]),
   midi.NoteOnEvent(tick=40, channel=4, data=[40, 79]),
   midi.ControlChangeEvent(tick=60, channel=4, data=[10, 108]),
   midi.NoteOnEvent(tick=140, channel=4, data=[40, 0]),
   midi.NoteOnEvent(tick=40, channel=4, data=[40, 79]),
   midi.ControlChangeEvent(tick=60, channel=4, data=[10, 18]),
   midi.NoteOnEvent(tick=140, channel=4, data=[40, 0]),
   midi.NoteOnEvent(tick=40, channel=4, data=[40, 79]),
   midi.ControlChangeEvent(tick=60, channel=4, data=[10, 108]),
   midi.NoteOnEvent(tick=140, channel=4, data=[40, 0]),
   midi.NoteOnEvent(tick=40, channel=4, data=[40, 79]),
   midi.ControlChangeEvent(tick=60, channel=4, data=[10, 18]),
   midi.NoteOnEvent(tick=140, channel=4, data=[40, 0]),
   midi.NoteOnEvent(tick=40, channel=4, data=[40, 79]),
   midi.ControlChangeEvent(tick=60, channel=4, data=[10, 108]),
   midi.NoteOnEvent(tick=140, channel=4, data=[40, 0]),
   midi.NoteOnEvent(tick=40, channel=4, data=[40, 79]),
   midi.ControlChangeEvent(tick=60, channel=4, data=[10, 18]),
   midi.NoteOnEvent(tick=140, channel=4, data=[40, 0]),
   midi.NoteOnEvent(tick=40, channel=4, data=[40, 79]),
   midi.ControlChangeEvent(tick=60, channel=4, data=[10, 108]),
   midi.NoteOnEvent(tick=140, channel=4, data=[40, 0]),
   midi.NoteOnEvent(tick=40, channel=4, data=[40, 79]),
   midi.ControlChangeEvent(tick=60, channel=4, data=[10, 18]),
   midi.NoteOnEvent(tick=140, channel=4, data=[40, 0]),
   midi.NoteOnEvent(tick=40, channel=4, data=[40, 79]),
   midi.ControlChangeEvent(tick=60, channel=4, data=[10, 108]),
   midi.NoteOnEvent(tick=140, channel=4, data=[40, 0]),
   midi.NoteOnEvent(tick=40, channel=4, data=[40, 79]),
   midi.ControlChangeEvent(tick=60, channel=4, data=[10, 18]),
   midi.NoteOnEvent(tick=140, channel=4, data=[40, 0]),
   midi.NoteOnEvent(tick=40, channel=4, data=[40, 79]),
   midi.ControlChangeEvent(tick=60, channel=4, data=[10, 108]),
   midi.NoteOnEvent(tick=140, channel=4, data=[40, 0]),
   midi.NoteOnEvent(tick=40, channel=4, data=[40, 79]),
   midi.ControlChangeEvent(tick=60, channel=4, data=[10, 18]),
   midi.NoteOnEvent(tick=140, channel=4, data=[40, 0]),
   midi.NoteOnEvent(tick=40, channel=4, data=[40, 79]),
   midi.ControlChangeEvent(tick=60, channel=4, data=[10, 108]),
   midi.NoteOnEvent(tick=140, channel=4, data=[40, 0]),
   midi.NoteOnEvent(tick=40, channel=4, data=[36, 79]),
   midi.ControlChangeEvent(tick=60, channel=4, data=[10, 18]),
   midi.NoteOnEvent(tick=140, channel=4, data=[36, 0]),
   midi.NoteOnEvent(tick=40, channel=4, data=[36, 79]),
   midi.ControlChangeEvent(tick=60, channel=4, data=[10, 108]),
   midi.NoteOnEvent(tick=140, channel=4, data=[36, 0]),
   midi.NoteOnEvent(tick=40, channel=4, data=[36, 79]),
   midi.ControlChangeEvent(tick=60, channel=4, data=[10, 18]),
   midi.NoteOnEvent(tick=140, channel=4, data=[36, 0]),
   midi.NoteOnEvent(tick=40, channel=4, data=[36, 79]),
   midi.ControlChangeEvent(tick=60, channel=4, data=[10, 108]),
   midi.NoteOnEvent(tick=140, channel=4, data=[36, 0]),
   midi.NoteOnEvent(tick=40, channel=4, data=[36, 79]),
   midi.ControlChangeEvent(tick=60, channel=4, data=[10, 18]),
   midi.NoteOnEvent(tick=140, channel=4, data=[36, 0]),
   midi.NoteOnEvent(tick=40, channel=4, data=[36, 79]),
   midi.ControlChangeEvent(tick=60, channel=4, data=[10, 108]),
   midi.NoteOnEvent(tick=140, channel=4, data=[36, 0]),
   midi.NoteOnEvent(tick=40, channel=4, data=[36, 79]),
   midi.ControlChangeEvent(tick=60, channel=4, data=[10, 18]),
   midi.NoteOnEvent(tick=140, channel=4, data=[36, 0]),
   midi.NoteOnEvent(tick=40, channel=4, data=[36, 79]),
   midi.ControlChangeEvent(tick=60, channel=4, data=[10, 108]),
   midi.NoteOnEvent(tick=140, channel=4, data=[36, 0]),
   midi.NoteOnEvent(tick=40, channel=4, data=[36, 79]),
   midi.ControlChangeEvent(tick=60, channel=4, data=[10, 18]),
   midi.NoteOnEvent(tick=140, channel=4, data=[36, 0]),
   midi.NoteOnEvent(tick=40, channel=4, data=[36, 79]),
   midi.ControlChangeEvent(tick=60, channel=4, data=[10, 108]),
   midi.NoteOnEvent(tick=140, channel=4, data=[36, 0]),
   midi.NoteOnEvent(tick=40, channel=4, data=[36, 79]),
   midi.ControlChangeEvent(tick=60, channel=4, data=[10, 18]),
   midi.NoteOnEvent(tick=140, channel=4, data=[36, 0]),
   midi.NoteOnEvent(tick=40, channel=4, data=[36, 79]),
   midi.ControlChangeEvent(tick=60, channel=4, data=[10, 108]),
   midi.NoteOnEvent(tick=140, channel=4, data=[36, 0]),
   midi.NoteOnEvent(tick=40, channel=4, data=[36, 79]),
   midi.ControlChangeEvent(tick=60, channel=4, data=[10, 18]),
   midi.NoteOnEvent(tick=140, channel=4, data=[36, 0]),
   midi.NoteOnEvent(tick=40, channel=4, data=[36, 79]),
   midi.ControlChangeEvent(tick=60, channel=4, data=[10, 108]),
   midi.NoteOnEvent(tick=140, channel=4, data=[36, 0]),
   midi.NoteOnEvent(tick=40, channel=4, data=[36, 79]),
   midi.ControlChangeEvent(tick=60, channel=4, data=[10, 18]),
   midi.NoteOnEvent(tick=140, channel=4, data=[36, 0]),
   midi.NoteOnEvent(tick=40, channel=4, data=[36, 79]),
   midi.ControlChangeEvent(tick=60, channel=4, data=[10, 108]),
   midi.NoteOnEvent(tick=140, channel=4, data=[36, 0]),
   midi.NoteOnEvent(tick=40, channel=4, data=[40, 79]),
   midi.ControlChangeEvent(tick=60, channel=4, data=[10, 18]),
   midi.NoteOnEvent(tick=140, channel=4, data=[40, 0]),
   midi.NoteOnEvent(tick=40, channel=4, data=[40, 79]),
   midi.ControlChangeEvent(tick=60, channel=4, data=[10, 108]),
   midi.NoteOnEvent(tick=140, channel=4, data=[40, 0]),
   midi.NoteOnEvent(tick=40, channel=4, data=[40, 79]),
   midi.ControlChangeEvent(tick=60, channel=4, data=[10, 18]),
   midi.NoteOnEvent(tick=140, channel=4, data=[40, 0]),
   midi.NoteOnEvent(tick=40, channel=4, data=[40, 79]),
   midi.ControlChangeEvent(tick=60, channel=4, data=[10, 108]),
   midi.NoteOnEvent(tick=140, channel=4, data=[40, 0]),
   midi.NoteOnEvent(tick=40, channel=4, data=[40, 79]),
   midi.ControlChangeEvent(tick=60, channel=4, data=[10, 18]),
   midi.NoteOnEvent(tick=140, channel=4, data=[40, 0]),
   midi.NoteOnEvent(tick=40, channel=4, data=[40, 79]),
   midi.ControlChangeEvent(tick=60, channel=4, data=[10, 108]),
   midi.NoteOnEvent(tick=140, channel=4, data=[40, 0]),
   midi.NoteOnEvent(tick=40, channel=4, data=[40, 79]),
   midi.ControlChangeEvent(tick=60, channel=4, data=[10, 18]),
   midi.NoteOnEvent(tick=140, channel=4, data=[40, 0]),
   midi.NoteOnEvent(tick=40, channel=4, data=[40, 79]),
   midi.ControlChangeEvent(tick=60, channel=4, data=[10, 108]),
   midi.NoteOnEvent(tick=140, channel=4, data=[40, 0]),
   midi.NoteOnEvent(tick=40, channel=4, data=[40, 79]),
   midi.ControlChangeEvent(tick=60, channel=4, data=[10, 18]),
   midi.NoteOnEvent(tick=140, channel=4, data=[40, 0]),
   midi.NoteOnEvent(tick=40, channel=4, data=[40, 79]),
   midi.ControlChangeEvent(tick=60, channel=4, data=[10, 108]),
   midi.NoteOnEvent(tick=140, channel=4, data=[40, 0]),
   midi.NoteOnEvent(tick=40, channel=4, data=[40, 79]),
   midi.ControlChangeEvent(tick=60, channel=4, data=[10, 18]),
   midi.NoteOnEvent(tick=140, channel=4, data=[40, 0]),
   midi.NoteOnEvent(tick=40, channel=4, data=[40, 79]),
   midi.ControlChangeEvent(tick=60, channel=4, data=[10, 108]),
   midi.NoteOnEvent(tick=140, channel=4, data=[40, 0]),
   midi.NoteOnEvent(tick=40, channel=4, data=[40, 79]),
   midi.ControlChangeEvent(tick=60, channel=4, data=[10, 18]),
   midi.NoteOnEvent(tick=140, channel=4, data=[40, 0]),
   midi.NoteOnEvent(tick=40, channel=4, data=[40, 79]),
   midi.ControlChangeEvent(tick=60, channel=4, data=[10, 108]),
   midi.NoteOnEvent(tick=140, channel=4, data=[40, 0]),
   midi.NoteOnEvent(tick=40, channel=4, data=[40, 79]),
   midi.ControlChangeEvent(tick=60, channel=4, data=[10, 18]),
   midi.NoteOnEvent(tick=140, channel=4, data=[40, 0]),
   midi.NoteOnEvent(tick=40, channel=4, data=[40, 79]),
   midi.ControlChangeEvent(tick=60, channel=4, data=[10, 108]),
   midi.NoteOnEvent(tick=140, channel=4, data=[40, 0]),
   midi.NoteOnEvent(tick=40, channel=4, data=[40, 79]),
   midi.ControlChangeEvent(tick=60, channel=4, data=[10, 18]),
   midi.NoteOnEvent(tick=140, channel=4, data=[40, 0]),
   midi.NoteOnEvent(tick=40, channel=4, data=[40, 79]),
   midi.ControlChangeEvent(tick=60, channel=4, data=[10, 108]),
   midi.NoteOnEvent(tick=140, channel=4, data=[40, 0]),
   midi.NoteOnEvent(tick=40, channel=4, data=[40, 79]),
   midi.ControlChangeEvent(tick=60, channel=4, data=[10, 18]),
   midi.NoteOnEvent(tick=140, channel=4, data=[40, 0]),
   midi.NoteOnEvent(tick=40, channel=4, data=[40, 79]),
   midi.ControlChangeEvent(tick=60, channel=4, data=[10, 108]),
   midi.NoteOnEvent(tick=140, channel=4, data=[40, 0]),
   midi.NoteOnEvent(tick=40, channel=4, data=[40, 79]),
   midi.ControlChangeEvent(tick=60, channel=4, data=[10, 18]),
   midi.NoteOnEvent(tick=140, channel=4, data=[40, 0]),
   midi.NoteOnEvent(tick=40, channel=4, data=[40, 79]),
   midi.ControlChangeEvent(tick=60, channel=4, data=[10, 108]),
   midi.NoteOnEvent(tick=140, channel=4, data=[40, 0]),
   midi.NoteOnEvent(tick=40, channel=4, data=[40, 79]),
   midi.ControlChangeEvent(tick=60, channel=4, data=[10, 18]),
   midi.NoteOnEvent(tick=140, channel=4, data=[40, 0]),
   midi.NoteOnEvent(tick=40, channel=4, data=[40, 79]),
   midi.ControlChangeEvent(tick=60, channel=4, data=[10, 108]),
   midi.NoteOnEvent(tick=140, channel=4, data=[40, 0]),
   midi.NoteOnEvent(tick=40, channel=4, data=[40, 79]),
   midi.ControlChangeEvent(tick=60, channel=4, data=[10, 18]),
   midi.NoteOnEvent(tick=140, channel=4, data=[40, 0]),
   midi.NoteOnEvent(tick=40, channel=4, data=[40, 79]),
   midi.ControlChangeEvent(tick=60, channel=4, data=[10, 108]),
   midi.NoteOnEvent(tick=140, channel=4, data=[40, 0]),
   midi.NoteOnEvent(tick=40, channel=4, data=[40, 79]),
   midi.ControlChangeEvent(tick=60, channel=4, data=[10, 18]),
   midi.NoteOnEvent(tick=140, channel=4, data=[40, 0]),
   midi.NoteOnEvent(tick=40, channel=4, data=[40, 79]),
   midi.ControlChangeEvent(tick=60, channel=4, data=[10, 108]),
   midi.NoteOnEvent(tick=140, channel=4, data=[40, 0]),
   midi.NoteOnEvent(tick=40, channel=4, data=[36, 79]),
   midi.ControlChangeEvent(tick=60, channel=4, data=[10, 18]),
   midi.NoteOnEvent(tick=140, channel=4, data=[36, 0]),
   midi.NoteOnEvent(tick=40, channel=4, data=[36, 79]),
   midi.ControlChangeEvent(tick=60, channel=4, data=[10, 108]),
   midi.NoteOnEvent(tick=140, channel=4, data=[36, 0]),
   midi.NoteOnEvent(tick=40, channel=4, data=[36, 79]),
   midi.ControlChangeEvent(tick=60, channel=4, data=[10, 18]),
   midi.NoteOnEvent(tick=140, channel=4, data=[36, 0]),
   midi.NoteOnEvent(tick=40, channel=4, data=[36, 79]),
   midi.ControlChangeEvent(tick=60, channel=4, data=[10, 108]),
   midi.NoteOnEvent(tick=140, channel=4, data=[36, 0]),
   midi.NoteOnEvent(tick=40, channel=4, data=[36, 79]),
   midi.ControlChangeEvent(tick=60, channel=4, data=[10, 18]),
   midi.NoteOnEvent(tick=140, channel=4, data=[36, 0]),
   midi.NoteOnEvent(tick=40, channel=4, data=[36, 79]),
   midi.ControlChangeEvent(tick=60, channel=4, data=[10, 108]),
   midi.NoteOnEvent(tick=140, channel=4, data=[36, 0]),
   midi.NoteOnEvent(tick=40, channel=4, data=[36, 79]),
   midi.ControlChangeEvent(tick=60, channel=4, data=[10, 18]),
   midi.NoteOnEvent(tick=140, channel=4, data=[36, 0]),
   midi.NoteOnEvent(tick=40, channel=4, data=[36, 79]),
   midi.ControlChangeEvent(tick=60, channel=4, data=[10, 108]),
   midi.NoteOnEvent(tick=140, channel=4, data=[36, 0]),
   midi.NoteOnEvent(tick=40, channel=4, data=[36, 79]),
   midi.ControlChangeEvent(tick=60, channel=4, data=[10, 18]),
   midi.NoteOnEvent(tick=140, channel=4, data=[36, 0]),
   midi.NoteOnEvent(tick=40, channel=4, data=[36, 79]),
   midi.ControlChangeEvent(tick=60, channel=4, data=[10, 108]),
   midi.NoteOnEvent(tick=140, channel=4, data=[36, 0]),
   midi.NoteOnEvent(tick=40, channel=4, data=[36, 79]),
   midi.ControlChangeEvent(tick=60, channel=4, data=[10, 18]),
   midi.NoteOnEvent(tick=140, channel=4, data=[36, 0]),
   midi.NoteOnEvent(tick=40, channel=4, data=[36, 79]),
   midi.ControlChangeEvent(tick=60, channel=4, data=[10, 108]),
   midi.NoteOnEvent(tick=140, channel=4, data=[36, 0]),
   midi.NoteOnEvent(tick=40, channel=4, data=[36, 79]),
   midi.ControlChangeEvent(tick=60, channel=4, data=[10, 18]),
   midi.NoteOnEvent(tick=140, channel=4, data=[36, 0]),
   midi.NoteOnEvent(tick=40, channel=4, data=[36, 79]),
   midi.ControlChangeEvent(tick=60, channel=4, data=[10, 108]),
   midi.NoteOnEvent(tick=140, channel=4, data=[36, 0]),
   midi.NoteOnEvent(tick=40, channel=4, data=[36, 79]),
   midi.ControlChangeEvent(tick=60, channel=4, data=[10, 18]),
   midi.NoteOnEvent(tick=140, channel=4, data=[36, 0]),
   midi.NoteOnEvent(tick=40, channel=4, data=[36, 79]),
   midi.ControlChangeEvent(tick=60, channel=4, data=[10, 108]),
   midi.NoteOnEvent(tick=140, channel=4, data=[36, 0]),
   midi.NoteOnEvent(tick=40, channel=4, data=[40, 79]),
   midi.ControlChangeEvent(tick=60, channel=4, data=[10, 18]),
   midi.NoteOnEvent(tick=140, channel=4, data=[40, 0]),
   midi.NoteOnEvent(tick=40, channel=4, data=[40, 79]),
   midi.ControlChangeEvent(tick=60, channel=4, data=[10, 108]),
   midi.NoteOnEvent(tick=140, channel=4, data=[40, 0]),
   midi.NoteOnEvent(tick=40, channel=4, data=[40, 79]),
   midi.ControlChangeEvent(tick=60, channel=4, data=[10, 18]),
   midi.NoteOnEvent(tick=140, channel=4, data=[40, 0]),
   midi.NoteOnEvent(tick=40, channel=4, data=[40, 79]),
   midi.ControlChangeEvent(tick=60, channel=4, data=[10, 108]),
   midi.NoteOnEvent(tick=140, channel=4, data=[40, 0]),
   midi.NoteOnEvent(tick=40, channel=4, data=[40, 79]),
   midi.ControlChangeEvent(tick=60, channel=4, data=[10, 18]),
   midi.NoteOnEvent(tick=140, channel=4, data=[40, 0]),
   midi.NoteOnEvent(tick=40, channel=4, data=[40, 79]),
   midi.ControlChangeEvent(tick=60, channel=4, data=[10, 108]),
   midi.NoteOnEvent(tick=140, channel=4, data=[40, 0]),
   midi.NoteOnEvent(tick=40, channel=4, data=[40, 79]),
   midi.ControlChangeEvent(tick=60, channel=4, data=[10, 18]),
   midi.NoteOnEvent(tick=140, channel=4, data=[40, 0]),
   midi.NoteOnEvent(tick=40, channel=4, data=[40, 79]),
   midi.ControlChangeEvent(tick=60, channel=4, data=[10, 108]),
   midi.NoteOnEvent(tick=140, channel=4, data=[40, 0]),
   midi.NoteOnEvent(tick=40, channel=4, data=[40, 79]),
   midi.ControlChangeEvent(tick=60, channel=4, data=[10, 18]),
   midi.NoteOnEvent(tick=140, channel=4, data=[40, 0]),
   midi.NoteOnEvent(tick=40, channel=4, data=[40, 79]),
   midi.ControlChangeEvent(tick=60, channel=4, data=[10, 108]),
   midi.NoteOnEvent(tick=140, channel=4, data=[40, 0]),
   midi.NoteOnEvent(tick=40, channel=4, data=[40, 79]),
   midi.ControlChangeEvent(tick=60, channel=4, data=[10, 18]),
   midi.NoteOnEvent(tick=140, channel=4, data=[40, 0]),
   midi.NoteOnEvent(tick=40, channel=4, data=[40, 79]),
   midi.ControlChangeEvent(tick=60, channel=4, data=[10, 108]),
   midi.NoteOnEvent(tick=140, channel=4, data=[40, 0]),
   midi.NoteOnEvent(tick=40, channel=4, data=[40, 79]),
   midi.ControlChangeEvent(tick=60, channel=4, data=[10, 18]),
   midi.NoteOnEvent(tick=140, channel=4, data=[40, 0]),
   midi.NoteOnEvent(tick=40, channel=4, data=[40, 79]),
   midi.ControlChangeEvent(tick=60, channel=4, data=[10, 108]),
   midi.NoteOnEvent(tick=140, channel=4, data=[40, 0]),
   midi.NoteOnEvent(tick=40, channel=4, data=[40, 79]),
   midi.ControlChangeEvent(tick=60, channel=4, data=[10, 18]),
   midi.NoteOnEvent(tick=140, channel=4, data=[40, 0]),
   midi.NoteOnEvent(tick=40, channel=4, data=[40, 79]),
   midi.ControlChangeEvent(tick=60, channel=4, data=[10, 108]),
   midi.NoteOnEvent(tick=140, channel=4, data=[40, 0]),
   midi.NoteOnEvent(tick=40, channel=4, data=[40, 79]),
   midi.ControlChangeEvent(tick=60, channel=4, data=[10, 18]),
   midi.NoteOnEvent(tick=140, channel=4, data=[40, 0]),
   midi.NoteOnEvent(tick=40, channel=4, data=[40, 79]),
   midi.ControlChangeEvent(tick=60, channel=4, data=[10, 108]),
   midi.NoteOnEvent(tick=140, channel=4, data=[40, 0]),
   midi.NoteOnEvent(tick=40, channel=4, data=[40, 79]),
   midi.ControlChangeEvent(tick=60, channel=4, data=[10, 18]),
   midi.NoteOnEvent(tick=140, channel=4, data=[40, 0]),
   midi.NoteOnEvent(tick=40, channel=4, data=[40, 79]),
   midi.ControlChangeEvent(tick=60, channel=4, data=[10, 108]),
   midi.NoteOnEvent(tick=140, channel=4, data=[40, 0]),
   midi.NoteOnEvent(tick=40, channel=4, data=[40, 79]),
   midi.ControlChangeEvent(tick=60, channel=4, data=[10, 18]),
   midi.NoteOnEvent(tick=140, channel=4, data=[40, 0]),
   midi.NoteOnEvent(tick=40, channel=4, data=[40, 79]),
   midi.ControlChangeEvent(tick=60, channel=4, data=[10, 108]),
   midi.NoteOnEvent(tick=140, channel=4, data=[40, 0]),
   midi.NoteOnEvent(tick=40, channel=4, data=[40, 79]),
   midi.ControlChangeEvent(tick=60, channel=4, data=[10, 18]),
   midi.NoteOnEvent(tick=140, channel=4, data=[40, 0]),
   midi.NoteOnEvent(tick=40, channel=4, data=[40, 79]),
   midi.ControlChangeEvent(tick=60, channel=4, data=[10, 108]),
   midi.NoteOnEvent(tick=140, channel=4, data=[40, 0]),
   midi.NoteOnEvent(tick=40, channel=4, data=[40, 79]),
   midi.ControlChangeEvent(tick=60, channel=4, data=[10, 18]),
   midi.NoteOnEvent(tick=140, channel=4, data=[40, 0]),
   midi.NoteOnEvent(tick=40, channel=4, data=[40, 79]),
   midi.ControlChangeEvent(tick=60, channel=4, data=[10, 108]),
   midi.NoteOnEvent(tick=140, channel=4, data=[40, 0]),
   midi.NoteOnEvent(tick=40, channel=4, data=[40, 79]),
   midi.ControlChangeEvent(tick=60, channel=4, data=[10, 18]),
   midi.NoteOnEvent(tick=140, channel=4, data=[40, 0]),
   midi.NoteOnEvent(tick=40, channel=4, data=[40, 79]),
   midi.ControlChangeEvent(tick=60, channel=4, data=[10, 108]),
   midi.NoteOnEvent(tick=140, channel=4, data=[40, 0]),
   midi.NoteOnEvent(tick=40, channel=4, data=[40, 79]),
   midi.ControlChangeEvent(tick=60, channel=4, data=[10, 18]),
   midi.NoteOnEvent(tick=140, channel=4, data=[40, 0]),
   midi.NoteOnEvent(tick=40, channel=4, data=[40, 79]),
   midi.ControlChangeEvent(tick=60, channel=4, data=[10, 108]),
   midi.NoteOnEvent(tick=140, channel=4, data=[40, 0]),
   midi.NoteOnEvent(tick=40, channel=4, data=[40, 79]),
   midi.ControlChangeEvent(tick=60, channel=4, data=[10, 18]),
   midi.NoteOnEvent(tick=140, channel=4, data=[40, 0]),
   midi.NoteOnEvent(tick=40, channel=4, data=[40, 79]),
   midi.ControlChangeEvent(tick=60, channel=4, data=[10, 108]),
   midi.NoteOnEvent(tick=140, channel=4, data=[40, 0]),
   midi.NoteOnEvent(tick=40, channel=4, data=[36, 79]),
   midi.ControlChangeEvent(tick=60, channel=4, data=[10, 18]),
   midi.NoteOnEvent(tick=140, channel=4, data=[36, 0]),
   midi.NoteOnEvent(tick=40, channel=4, data=[36, 79]),
   midi.ControlChangeEvent(tick=60, channel=4, data=[10, 108]),
   midi.NoteOnEvent(tick=140, channel=4, data=[36, 0]),
   midi.NoteOnEvent(tick=40, channel=4, data=[36, 79]),
   midi.ControlChangeEvent(tick=60, channel=4, data=[10, 18]),
   midi.NoteOnEvent(tick=140, channel=4, data=[36, 0]),
   midi.NoteOnEvent(tick=40, channel=4, data=[36, 79]),
   midi.ControlChangeEvent(tick=60, channel=4, data=[10, 108]),
   midi.NoteOnEvent(tick=140, channel=4, data=[36, 0]),
   midi.NoteOnEvent(tick=40, channel=4, data=[36, 79]),
   midi.ControlChangeEvent(tick=60, channel=4, data=[10, 18]),
   midi.NoteOnEvent(tick=140, channel=4, data=[36, 0]),
   midi.NoteOnEvent(tick=40, channel=4, data=[36, 79]),
   midi.ControlChangeEvent(tick=60, channel=4, data=[10, 108]),
   midi.NoteOnEvent(tick=140, channel=4, data=[36, 0]),
   midi.NoteOnEvent(tick=40, channel=4, data=[36, 79]),
   midi.ControlChangeEvent(tick=60, channel=4, data=[10, 18]),
   midi.NoteOnEvent(tick=140, channel=4, data=[36, 0]),
   midi.NoteOnEvent(tick=40, channel=4, data=[36, 79]),
   midi.ControlChangeEvent(tick=60, channel=4, data=[10, 108]),
   midi.NoteOnEvent(tick=140, channel=4, data=[36, 0]),
   midi.NoteOnEvent(tick=40, channel=4, data=[36, 79]),
   midi.ControlChangeEvent(tick=60, channel=4, data=[10, 18]),
   midi.NoteOnEvent(tick=140, channel=4, data=[36, 0]),
   midi.NoteOnEvent(tick=40, channel=4, data=[36, 79]),
   midi.ControlChangeEvent(tick=60, channel=4, data=[10, 108]),
   midi.NoteOnEvent(tick=140, channel=4, data=[36, 0]),
   midi.NoteOnEvent(tick=40, channel=4, data=[36, 79]),
   midi.ControlChangeEvent(tick=60, channel=4, data=[10, 18]),
   midi.NoteOnEvent(tick=140, channel=4, data=[36, 0]),
   midi.NoteOnEvent(tick=40, channel=4, data=[36, 79]),
   midi.ControlChangeEvent(tick=60, channel=4, data=[10, 108]),
   midi.NoteOnEvent(tick=140, channel=4, data=[36, 0]),
   midi.NoteOnEvent(tick=40, channel=4, data=[36, 79]),
   midi.ControlChangeEvent(tick=60, channel=4, data=[10, 18]),
   midi.NoteOnEvent(tick=140, channel=4, data=[36, 0]),
   midi.NoteOnEvent(tick=40, channel=4, data=[36, 79]),
   midi.ControlChangeEvent(tick=60, channel=4, data=[10, 108]),
   midi.NoteOnEvent(tick=140, channel=4, data=[36, 0]),
   midi.NoteOnEvent(tick=40, channel=4, data=[36, 79]),
   midi.ControlChangeEvent(tick=60, channel=4, data=[10, 18]),
   midi.NoteOnEvent(tick=140, channel=4, data=[36, 0]),
   midi.NoteOnEvent(tick=40, channel=4, data=[36, 79]),
   midi.ControlChangeEvent(tick=60, channel=4, data=[10, 108]),
   midi.NoteOnEvent(tick=140, channel=4, data=[36, 0]),
   midi.ControlChangeEvent(tick=40, channel=4, data=[10, 18]),
   midi.NoteOnEvent(tick=0, channel=4, data=[40, 79]),
   midi.NoteOnEvent(tick=200, channel=4, data=[40, 0]),
   midi.ControlChangeEvent(tick=40, channel=4, data=[10, 108]),
   midi.NoteOnEvent(tick=0, channel=4, data=[40, 79]),
   midi.NoteOnEvent(tick=200, channel=4, data=[40, 0]),
   midi.ControlChangeEvent(tick=40, channel=4, data=[10, 18]),
   midi.NoteOnEvent(tick=0, channel=4, data=[40, 79]),
   midi.NoteOnEvent(tick=200, channel=4, data=[40, 0]),
   midi.ControlChangeEvent(tick=40, channel=4, data=[10, 108]),
   midi.NoteOnEvent(tick=0, channel=4, data=[40, 79]),
   midi.NoteOnEvent(tick=200, channel=4, data=[40, 0]),
   midi.ControlChangeEvent(tick=40, channel=4, data=[10, 18]),
   midi.NoteOnEvent(tick=0, channel=4, data=[40, 79]),
   midi.NoteOnEvent(tick=200, channel=4, data=[40, 0]),
   midi.ControlChangeEvent(tick=40, channel=4, data=[10, 108]),
   midi.NoteOnEvent(tick=0, channel=4, data=[40, 79]),
   midi.NoteOnEvent(tick=200, channel=4, data=[40, 0]),
   midi.ControlChangeEvent(tick=40, channel=4, data=[10, 18]),
   midi.NoteOnEvent(tick=0, channel=4, data=[40, 79]),
   midi.NoteOnEvent(tick=200, channel=4, data=[40, 0]),
   midi.ControlChangeEvent(tick=40, channel=4, data=[10, 108]),
   midi.NoteOnEvent(tick=0, channel=4, data=[40, 79]),
   midi.NoteOnEvent(tick=200, channel=4, data=[40, 0]),
   midi.ControlChangeEvent(tick=40, channel=4, data=[10, 18]),
   midi.NoteOnEvent(tick=0, channel=4, data=[40, 79]),
   midi.NoteOnEvent(tick=200, channel=4, data=[40, 0]),
   midi.ControlChangeEvent(tick=40, channel=4, data=[10, 108]),
   midi.NoteOnEvent(tick=0, channel=4, data=[40, 79]),
   midi.NoteOnEvent(tick=200, channel=4, data=[40, 0]),
   midi.ControlChangeEvent(tick=40, channel=4, data=[10, 18]),
   midi.NoteOnEvent(tick=0, channel=4, data=[40, 79]),
   midi.NoteOnEvent(tick=200, channel=4, data=[40, 0]),
   midi.ControlChangeEvent(tick=40, channel=4, data=[10, 108]),
   midi.NoteOnEvent(tick=0, channel=4, data=[40, 79]),
   midi.NoteOnEvent(tick=200, channel=4, data=[40, 0]),
   midi.ControlChangeEvent(tick=40, channel=4, data=[10, 18]),
   midi.NoteOnEvent(tick=0, channel=4, data=[40, 79]),
   midi.NoteOnEvent(tick=200, channel=4, data=[40, 0]),
   midi.ControlChangeEvent(tick=40, channel=4, data=[10, 108]),
   midi.NoteOnEvent(tick=0, channel=4, data=[40, 79]),
   midi.NoteOnEvent(tick=200, channel=4, data=[40, 0]),
   midi.ControlChangeEvent(tick=40, channel=4, data=[10, 18]),
   midi.NoteOnEvent(tick=0, channel=4, data=[40, 79]),
   midi.NoteOnEvent(tick=200, channel=4, data=[40, 0]),
   midi.ControlChangeEvent(tick=40, channel=4, data=[10, 108]),
   midi.NoteOnEvent(tick=0, channel=4, data=[40, 79]),
   midi.NoteOnEvent(tick=200, channel=4, data=[40, 0]),
   midi.ControlChangeEvent(tick=40, channel=4, data=[10, 18]),
   midi.NoteOnEvent(tick=0, channel=4, data=[40, 79]),
   midi.NoteOnEvent(tick=200, channel=4, data=[40, 0]),
   midi.ControlChangeEvent(tick=40, channel=4, data=[10, 63]),
   midi.NoteOnEvent(tick=0, channel=4, data=[40, 79]),
   midi.NoteOnEvent(tick=200, channel=4, data=[40, 0]),
   midi.ControlChangeEvent(tick=40, channel=4, data=[10, 108]),
   midi.NoteOnEvent(tick=0, channel=4, data=[40, 79]),
   midi.NoteOnEvent(tick=200, channel=4, data=[40, 0]),
   midi.ControlChangeEvent(tick=40, channel=4, data=[10, 18]),
   midi.NoteOnEvent(tick=0, channel=4, data=[40, 79]),
   midi.NoteOnEvent(tick=200, channel=4, data=[40, 0]),
   midi.ControlChangeEvent(tick=40, channel=4, data=[10, 63]),
   midi.NoteOnEvent(tick=0, channel=4, data=[40, 79]),
   midi.NoteOnEvent(tick=200, channel=4, data=[40, 0]),
   midi.ControlChangeEvent(tick=40, channel=4, data=[10, 108]),
   midi.NoteOnEvent(tick=0, channel=4, data=[40, 79]),
   midi.NoteOnEvent(tick=200, channel=4, data=[40, 0]),
   midi.ControlChangeEvent(tick=40, channel=4, data=[10, 18]),
   midi.NoteOnEvent(tick=0, channel=4, data=[40, 79]),
   midi.NoteOnEvent(tick=200, channel=4, data=[40, 0]),
   midi.ControlChangeEvent(tick=40, channel=4, data=[10, 63]),
   midi.NoteOnEvent(tick=0, channel=4, data=[40, 79]),
   midi.NoteOnEvent(tick=200, channel=4, data=[40, 0]),
   midi.ControlChangeEvent(tick=40, channel=4, data=[10, 108]),
   midi.NoteOnEvent(tick=0, channel=4, data=[40, 79]),
   midi.NoteOnEvent(tick=200, channel=4, data=[40, 0]),
   midi.ControlChangeEvent(tick=40, channel=4, data=[10, 18]),
   midi.NoteOnEvent(tick=0, channel=4, data=[40, 79]),
   midi.NoteOnEvent(tick=200, channel=4, data=[40, 0]),
   midi.ControlChangeEvent(tick=40, channel=4, data=[10, 63]),
   midi.NoteOnEvent(tick=0, channel=4, data=[40, 79]),
   midi.NoteOnEvent(tick=200, channel=4, data=[40, 0]),
   midi.ControlChangeEvent(tick=40, channel=4, data=[10, 108]),
   midi.NoteOnEvent(tick=0, channel=4, data=[40, 79]),
   midi.NoteOnEvent(tick=200, channel=4, data=[40, 0]),
   midi.ControlChangeEvent(tick=40, channel=4, data=[10, 18]),
   midi.NoteOnEvent(tick=0, channel=4, data=[40, 79]),
   midi.NoteOnEvent(tick=200, channel=4, data=[40, 0]),
   midi.ControlChangeEvent(tick=40, channel=4, data=[10, 63]),
   midi.NoteOnEvent(tick=0, channel=4, data=[40, 79]),
   midi.NoteOnEvent(tick=200, channel=4, data=[40, 0]),
   midi.ControlChangeEvent(tick=40, channel=4, data=[10, 108]),
   midi.NoteOnEvent(tick=0, channel=4, data=[40, 79]),
   midi.NoteOnEvent(tick=200, channel=4, data=[40, 0]),
   midi.ControlChangeEvent(tick=40, channel=4, data=[10, 18]),
   midi.NoteOnEvent(tick=0, channel=4, data=[40, 79]),
   midi.NoteOnEvent(tick=200, channel=4, data=[40, 0]),
   midi.ControlChangeEvent(tick=40, channel=4, data=[10, 63]),
   midi.NoteOnEvent(tick=0, channel=4, data=[40, 79]),
   midi.NoteOnEvent(tick=200, channel=4, data=[40, 0]),
   midi.ControlChangeEvent(tick=40, channel=4, data=[10, 108]),
   midi.NoteOnEvent(tick=0, channel=4, data=[40, 79]),
   midi.NoteOnEvent(tick=200, channel=4, data=[40, 0]),
   midi.ControlChangeEvent(tick=40, channel=4, data=[10, 18]),
   midi.NoteOnEvent(tick=0, channel=4, data=[40, 79]),
   midi.NoteOnEvent(tick=200, channel=4, data=[40, 0]),
   midi.ControlChangeEvent(tick=40, channel=4, data=[10, 63]),
   midi.NoteOnEvent(tick=0, channel=4, data=[40, 79]),
   midi.NoteOnEvent(tick=200, channel=4, data=[40, 0]),
   midi.ControlChangeEvent(tick=40, channel=4, data=[10, 108]),
   midi.NoteOnEvent(tick=0, channel=4, data=[40, 79]),
   midi.NoteOnEvent(tick=200, channel=4, data=[40, 0]),
   midi.ControlChangeEvent(tick=40, channel=4, data=[10, 18]),
   midi.NoteOnEvent(tick=0, channel=4, data=[40, 79]),
   midi.NoteOnEvent(tick=200, channel=4, data=[40, 0]),
   midi.ControlChangeEvent(tick=40, channel=4, data=[10, 63]),
   midi.NoteOnEvent(tick=0, channel=4, data=[40, 79]),
   midi.NoteOnEvent(tick=200, channel=4, data=[40, 0]),
   midi.ControlChangeEvent(tick=40, channel=4, data=[10, 108]),
   midi.NoteOnEvent(tick=0, channel=4, data=[40, 79]),
   midi.NoteOnEvent(tick=200, channel=4, data=[40, 0]),
   midi.ControlChangeEvent(tick=40, channel=4, data=[10, 18]),
   midi.NoteOnEvent(tick=0, channel=4, data=[36, 79]),
   midi.NoteOnEvent(tick=200, channel=4, data=[36, 0]),
   midi.ControlChangeEvent(tick=40, channel=4, data=[10, 63]),
   midi.NoteOnEvent(tick=0, channel=4, data=[36, 79]),
   midi.NoteOnEvent(tick=200, channel=4, data=[36, 0]),
   midi.ControlChangeEvent(tick=40, channel=4, data=[10, 108]),
   midi.NoteOnEvent(tick=0, channel=4, data=[36, 79]),
   midi.NoteOnEvent(tick=200, channel=4, data=[36, 0]),
   midi.ControlChangeEvent(tick=40, channel=4, data=[10, 18]),
   midi.NoteOnEvent(tick=0, channel=4, data=[36, 79]),
   midi.NoteOnEvent(tick=200, channel=4, data=[36, 0]),
   midi.ControlChangeEvent(tick=40, channel=4, data=[10, 63]),
   midi.NoteOnEvent(tick=0, channel=4, data=[36, 79]),
   midi.NoteOnEvent(tick=200, channel=4, data=[36, 0]),
   midi.ControlChangeEvent(tick=40, channel=4, data=[10, 108]),
   midi.NoteOnEvent(tick=0, channel=4, data=[36, 79]),
   midi.NoteOnEvent(tick=200, channel=4, data=[36, 0]),
   midi.ControlChangeEvent(tick=40, channel=4, data=[10, 18]),
   midi.NoteOnEvent(tick=0, channel=4, data=[36, 79]),
   midi.NoteOnEvent(tick=200, channel=4, data=[36, 0]),
   midi.ControlChangeEvent(tick=40, channel=4, data=[10, 63]),
   midi.NoteOnEvent(tick=0, channel=4, data=[36, 79]),
   midi.NoteOnEvent(tick=200, channel=4, data=[36, 0]),
   midi.ControlChangeEvent(tick=40, channel=4, data=[10, 108]),
   midi.NoteOnEvent(tick=0, channel=4, data=[36, 79]),
   midi.NoteOnEvent(tick=200, channel=4, data=[36, 0]),
   midi.ControlChangeEvent(tick=40, channel=4, data=[10, 18]),
   midi.NoteOnEvent(tick=0, channel=4, data=[36, 79]),
   midi.NoteOnEvent(tick=200, channel=4, data=[36, 0]),
   midi.ControlChangeEvent(tick=40, channel=4, data=[10, 63]),
   midi.NoteOnEvent(tick=0, channel=4, data=[36, 79]),
   midi.NoteOnEvent(tick=200, channel=4, data=[36, 0]),
   midi.ControlChangeEvent(tick=40, channel=4, data=[10, 108]),
   midi.NoteOnEvent(tick=0, channel=4, data=[36, 79]),
   midi.NoteOnEvent(tick=200, channel=4, data=[36, 0]),
   midi.ControlChangeEvent(tick=40, channel=4, data=[10, 18]),
   midi.NoteOnEvent(tick=0, channel=4, data=[40, 79]),
   midi.NoteOnEvent(tick=200, channel=4, data=[40, 0]),
   midi.ControlChangeEvent(tick=40, channel=4, data=[10, 63]),
   midi.NoteOnEvent(tick=0, channel=4, data=[40, 79]),
   midi.NoteOnEvent(tick=200, channel=4, data=[40, 0]),
   midi.ControlChangeEvent(tick=40, channel=4, data=[10, 108]),
   midi.NoteOnEvent(tick=0, channel=4, data=[40, 79]),
   midi.NoteOnEvent(tick=200, channel=4, data=[40, 0]),
   midi.ControlChangeEvent(tick=40, channel=4, data=[10, 18]),
   midi.NoteOnEvent(tick=0, channel=4, data=[40, 79]),
   midi.NoteOnEvent(tick=200, channel=4, data=[40, 0]),
   midi.ControlChangeEvent(tick=40, channel=4, data=[10, 63]),
   midi.NoteOnEvent(tick=0, channel=4, data=[40, 79]),
   midi.NoteOnEvent(tick=200, channel=4, data=[40, 0]),
   midi.ControlChangeEvent(tick=40, channel=4, data=[10, 108]),
   midi.NoteOnEvent(tick=0, channel=4, data=[40, 79]),
   midi.NoteOnEvent(tick=200, channel=4, data=[40, 0]),
   midi.ControlChangeEvent(tick=40, channel=4, data=[10, 18]),
   midi.NoteOnEvent(tick=0, channel=4, data=[40, 79]),
   midi.NoteOnEvent(tick=200, channel=4, data=[40, 0]),
   midi.ControlChangeEvent(tick=40, channel=4, data=[10, 63]),
   midi.NoteOnEvent(tick=0, channel=4, data=[40, 79]),
   midi.NoteOnEvent(tick=200, channel=4, data=[40, 0]),
   midi.ControlChangeEvent(tick=40, channel=4, data=[10, 108]),
   midi.NoteOnEvent(tick=0, channel=4, data=[40, 79]),
   midi.NoteOnEvent(tick=200, channel=4, data=[40, 0]),
   midi.ControlChangeEvent(tick=40, channel=4, data=[10, 18]),
   midi.NoteOnEvent(tick=0, channel=4, data=[40, 79]),
   midi.NoteOnEvent(tick=200, channel=4, data=[40, 0]),
   midi.ControlChangeEvent(tick=40, channel=4, data=[10, 63]),
   midi.NoteOnEvent(tick=0, channel=4, data=[40, 79]),
   midi.NoteOnEvent(tick=200, channel=4, data=[40, 0]),
   midi.ControlChangeEvent(tick=40, channel=4, data=[10, 108]),
   midi.NoteOnEvent(tick=0, channel=4, data=[40, 79]),
   midi.NoteOnEvent(tick=200, channel=4, data=[40, 0]),
   midi.ControlChangeEvent(tick=40, channel=4, data=[10, 18]),
   midi.NoteOnEvent(tick=0, channel=4, data=[40, 79]),
   midi.NoteOnEvent(tick=200, channel=4, data=[40, 0]),
   midi.ControlChangeEvent(tick=40, channel=4, data=[10, 63]),
   midi.NoteOnEvent(tick=0, channel=4, data=[40, 79]),
   midi.NoteOnEvent(tick=200, channel=4, data=[40, 0]),
   midi.ControlChangeEvent(tick=40, channel=4, data=[10, 108]),
   midi.NoteOnEvent(tick=0, channel=4, data=[40, 79]),
   midi.NoteOnEvent(tick=200, channel=4, data=[40, 0]),
   midi.ControlChangeEvent(tick=40, channel=4, data=[10, 18]),
   midi.NoteOnEvent(tick=0, channel=4, data=[40, 79]),
   midi.NoteOnEvent(tick=200, channel=4, data=[40, 0]),
   midi.ControlChangeEvent(tick=40, channel=4, data=[10, 63]),
   midi.NoteOnEvent(tick=0, channel=4, data=[40, 79]),
   midi.NoteOnEvent(tick=200, channel=4, data=[40, 0]),
   midi.ControlChangeEvent(tick=40, channel=4, data=[10, 108]),
   midi.NoteOnEvent(tick=0, channel=4, data=[40, 79]),
   midi.NoteOnEvent(tick=200, channel=4, data=[40, 0]),
   midi.ControlChangeEvent(tick=40, channel=4, data=[10, 18]),
   midi.NoteOnEvent(tick=0, channel=4, data=[40, 79]),
   midi.NoteOnEvent(tick=200, channel=4, data=[40, 0]),
   midi.ControlChangeEvent(tick=40, channel=4, data=[10, 63]),
   midi.NoteOnEvent(tick=0, channel=4, data=[40, 79]),
   midi.NoteOnEvent(tick=200, channel=4, data=[40, 0]),
   midi.ControlChangeEvent(tick=40, channel=4, data=[10, 108]),
   midi.NoteOnEvent(tick=0, channel=4, data=[40, 79]),
   midi.NoteOnEvent(tick=200, channel=4, data=[40, 0]),
   midi.ControlChangeEvent(tick=40, channel=4, data=[10, 18]),
   midi.NoteOnEvent(tick=0, channel=4, data=[40, 79]),
   midi.NoteOnEvent(tick=200, channel=4, data=[40, 0]),
   midi.ControlChangeEvent(tick=40, channel=4, data=[10, 63]),
   midi.NoteOnEvent(tick=0, channel=4, data=[40, 79]),
   midi.NoteOnEvent(tick=200, channel=4, data=[40, 0]),
   midi.ControlChangeEvent(tick=40, channel=4, data=[10, 108]),
   midi.NoteOnEvent(tick=0, channel=4, data=[40, 79]),
   midi.NoteOnEvent(tick=200, channel=4, data=[40, 0]),
   midi.ControlChangeEvent(tick=40, channel=4, data=[10, 18]),
   midi.NoteOnEvent(tick=0, channel=4, data=[40, 79]),
   midi.NoteOnEvent(tick=200, channel=4, data=[40, 0]),
   midi.ControlChangeEvent(tick=40, channel=4, data=[10, 63]),
   midi.NoteOnEvent(tick=0, channel=4, data=[40, 79]),
   midi.NoteOnEvent(tick=200, channel=4, data=[40, 0]),
   midi.ControlChangeEvent(tick=40, channel=4, data=[10, 108]),
   midi.NoteOnEvent(tick=0, channel=4, data=[40, 79]),
   midi.NoteOnEvent(tick=200, channel=4, data=[40, 0]),
   midi.ControlChangeEvent(tick=40, channel=4, data=[10, 18]),
   midi.NoteOnEvent(tick=0, channel=4, data=[40, 79]),
   midi.NoteOnEvent(tick=200, channel=4, data=[40, 0]),
   midi.ControlChangeEvent(tick=40, channel=4, data=[10, 63]),
   midi.NoteOnEvent(tick=0, channel=4, data=[40, 79]),
   midi.NoteOnEvent(tick=200, channel=4, data=[40, 0]),
   midi.ControlChangeEvent(tick=40, channel=4, data=[10, 108]),
   midi.NoteOnEvent(tick=0, channel=4, data=[40, 79]),
   midi.NoteOnEvent(tick=200, channel=4, data=[40, 0]),
   midi.ControlChangeEvent(tick=40, channel=4, data=[10, 18]),
   midi.NoteOnEvent(tick=0, channel=4, data=[40, 79]),
   midi.NoteOnEvent(tick=200, channel=4, data=[40, 0]),
   midi.ControlChangeEvent(tick=40, channel=4, data=[10, 63]),
   midi.NoteOnEvent(tick=0, channel=4, data=[40, 79]),
   midi.NoteOnEvent(tick=200, channel=4, data=[40, 0]),
   midi.ControlChangeEvent(tick=40, channel=4, data=[10, 108]),
   midi.NoteOnEvent(tick=0, channel=4, data=[40, 79]),
   midi.NoteOnEvent(tick=200, channel=4, data=[40, 0]),
   midi.ControlChangeEvent(tick=40, channel=4, data=[10, 18]),
   midi.NoteOnEvent(tick=0, channel=4, data=[40, 79]),
   midi.NoteOnEvent(tick=200, channel=4, data=[40, 0]),
   midi.ControlChangeEvent(tick=40, channel=4, data=[10, 63]),
   midi.NoteOnEvent(tick=0, channel=4, data=[40, 79]),
   midi.NoteOnEvent(tick=200, channel=4, data=[40, 0]),
   midi.ControlChangeEvent(tick=40, channel=4, data=[10, 108]),
   midi.NoteOnEvent(tick=0, channel=4, data=[40, 79]),
   midi.NoteOnEvent(tick=200, channel=4, data=[40, 0]),
   midi.ControlChangeEvent(tick=40, channel=4, data=[10, 18]),
   midi.NoteOnEvent(tick=0, channel=4, data=[36, 79]),
   midi.NoteOnEvent(tick=200, channel=4, data=[36, 0]),
   midi.ControlChangeEvent(tick=40, channel=4, data=[10, 63]),
   midi.NoteOnEvent(tick=0, channel=4, data=[36, 79]),
   midi.NoteOnEvent(tick=200, channel=4, data=[36, 0]),
   midi.ControlChangeEvent(tick=40, channel=4, data=[10, 108]),
   midi.NoteOnEvent(tick=0, channel=4, data=[36, 79]),
   midi.NoteOnEvent(tick=200, channel=4, data=[36, 0]),
   midi.ControlChangeEvent(tick=40, channel=4, data=[10, 18]),
   midi.NoteOnEvent(tick=0, channel=4, data=[36, 79]),
   midi.NoteOnEvent(tick=200, channel=4, data=[36, 0]),
   midi.ControlChangeEvent(tick=40, channel=4, data=[10, 63]),
   midi.NoteOnEvent(tick=0, channel=4, data=[36, 79]),
   midi.NoteOnEvent(tick=200, channel=4, data=[36, 0]),
   midi.ControlChangeEvent(tick=40, channel=4, data=[10, 108]),
   midi.NoteOnEvent(tick=0, channel=4, data=[36, 79]),
   midi.NoteOnEvent(tick=200, channel=4, data=[36, 0]),
   midi.ControlChangeEvent(tick=40, channel=4, data=[10, 18]),
   midi.NoteOnEvent(tick=0, channel=4, data=[36, 79]),
   midi.NoteOnEvent(tick=200, channel=4, data=[36, 0]),
   midi.ControlChangeEvent(tick=40, channel=4, data=[10, 63]),
   midi.NoteOnEvent(tick=0, channel=4, data=[36, 79]),
   midi.NoteOnEvent(tick=200, channel=4, data=[36, 0]),
   midi.ControlChangeEvent(tick=40, channel=4, data=[10, 108]),
   midi.NoteOnEvent(tick=0, channel=4, data=[36, 79]),
   midi.NoteOnEvent(tick=200, channel=4, data=[36, 0]),
   midi.ControlChangeEvent(tick=40, channel=4, data=[10, 18]),
   midi.NoteOnEvent(tick=0, channel=4, data=[36, 79]),
   midi.NoteOnEvent(tick=200, channel=4, data=[36, 0]),
   midi.ControlChangeEvent(tick=40, channel=4, data=[10, 63]),
   midi.NoteOnEvent(tick=0, channel=4, data=[36, 79]),
   midi.NoteOnEvent(tick=200, channel=4, data=[36, 0]),
   midi.ControlChangeEvent(tick=40, channel=4, data=[10, 108]),
   midi.NoteOnEvent(tick=0, channel=4, data=[36, 79]),
   midi.NoteOnEvent(tick=200, channel=4, data=[36, 0]),
   midi.ControlChangeEvent(tick=40, channel=4, data=[10, 18]),
   midi.NoteOnEvent(tick=0, channel=4, data=[40, 79]),
   midi.NoteOnEvent(tick=200, channel=4, data=[40, 0]),
   midi.ControlChangeEvent(tick=40, channel=4, data=[10, 63]),
   midi.NoteOnEvent(tick=0, channel=4, data=[40, 79]),
   midi.NoteOnEvent(tick=200, channel=4, data=[40, 0]),
   midi.ControlChangeEvent(tick=40, channel=4, data=[10, 108]),
   midi.NoteOnEvent(tick=0, channel=4, data=[40, 79]),
   midi.NoteOnEvent(tick=200, channel=4, data=[40, 0]),
   midi.ControlChangeEvent(tick=40, channel=4, data=[10, 18]),
   midi.NoteOnEvent(tick=0, channel=4, data=[40, 79]),
   midi.NoteOnEvent(tick=200, channel=4, data=[40, 0]),
   midi.ControlChangeEvent(tick=40, channel=4, data=[10, 63]),
   midi.NoteOnEvent(tick=0, channel=4, data=[40, 79]),
   midi.NoteOnEvent(tick=200, channel=4, data=[40, 0]),
   midi.ControlChangeEvent(tick=40, channel=4, data=[10, 108]),
   midi.NoteOnEvent(tick=0, channel=4, data=[40, 79]),
   midi.NoteOnEvent(tick=200, channel=4, data=[40, 0]),
   midi.ControlChangeEvent(tick=40, channel=4, data=[10, 18]),
   midi.NoteOnEvent(tick=0, channel=4, data=[40, 79]),
   midi.NoteOnEvent(tick=200, channel=4, data=[40, 0]),
   midi.ControlChangeEvent(tick=40, channel=4, data=[10, 63]),
   midi.NoteOnEvent(tick=0, channel=4, data=[40, 79]),
   midi.NoteOnEvent(tick=200, channel=4, data=[40, 0]),
   midi.ControlChangeEvent(tick=40, channel=4, data=[10, 108]),
   midi.NoteOnEvent(tick=0, channel=4, data=[40, 79]),
   midi.NoteOnEvent(tick=200, channel=4, data=[40, 0]),
   midi.ControlChangeEvent(tick=40, channel=4, data=[10, 18]),
   midi.NoteOnEvent(tick=0, channel=4, data=[40, 79]),
   midi.NoteOnEvent(tick=200, channel=4, data=[40, 0]),
   midi.ControlChangeEvent(tick=40, channel=4, data=[10, 63]),
   midi.NoteOnEvent(tick=0, channel=4, data=[40, 79]),
   midi.NoteOnEvent(tick=200, channel=4, data=[40, 0]),
   midi.ControlChangeEvent(tick=40, channel=4, data=[10, 108]),
   midi.NoteOnEvent(tick=0, channel=4, data=[40, 79]),
   midi.NoteOnEvent(tick=200, channel=4, data=[40, 0]),
   midi.ControlChangeEvent(tick=40, channel=4, data=[10, 18]),
   midi.NoteOnEvent(tick=0, channel=4, data=[36, 79]),
   midi.NoteOnEvent(tick=200, channel=4, data=[36, 0]),
   midi.ControlChangeEvent(tick=40, channel=4, data=[10, 63]),
   midi.NoteOnEvent(tick=0, channel=4, data=[36, 79]),
   midi.NoteOnEvent(tick=200, channel=4, data=[36, 0]),
   midi.ControlChangeEvent(tick=40, channel=4, data=[10, 108]),
   midi.NoteOnEvent(tick=0, channel=4, data=[36, 79]),
   midi.NoteOnEvent(tick=200, channel=4, data=[36, 0]),
   midi.ControlChangeEvent(tick=40, channel=4, data=[10, 18]),
   midi.NoteOnEvent(tick=0, channel=4, data=[36, 79]),
   midi.NoteOnEvent(tick=200, channel=4, data=[36, 0]),
   midi.ControlChangeEvent(tick=40, channel=4, data=[10, 63]),
   midi.NoteOnEvent(tick=0, channel=4, data=[36, 79]),
   midi.NoteOnEvent(tick=200, channel=4, data=[36, 0]),
   midi.ControlChangeEvent(tick=40, channel=4, data=[10, 108]),
   midi.NoteOnEvent(tick=0, channel=4, data=[36, 79]),
   midi.NoteOnEvent(tick=200, channel=4, data=[36, 0]),
   midi.ControlChangeEvent(tick=40, channel=4, data=[10, 18]),
   midi.NoteOnEvent(tick=0, channel=4, data=[40, 79]),
   midi.NoteOnEvent(tick=200, channel=4, data=[40, 0]),
   midi.ControlChangeEvent(tick=40, channel=4, data=[10, 63]),
   midi.NoteOnEvent(tick=0, channel=4, data=[40, 79]),
   midi.NoteOnEvent(tick=200, channel=4, data=[40, 0]),
   midi.ControlChangeEvent(tick=40, channel=4, data=[10, 108]),
   midi.NoteOnEvent(tick=0, channel=4, data=[40, 79]),
   midi.NoteOnEvent(tick=200, channel=4, data=[40, 0]),
   midi.ControlChangeEvent(tick=40, channel=4, data=[10, 18]),
   midi.NoteOnEvent(tick=0, channel=4, data=[40, 79]),
   midi.NoteOnEvent(tick=200, channel=4, data=[40, 0]),
   midi.ControlChangeEvent(tick=40, channel=4, data=[10, 63]),
   midi.NoteOnEvent(tick=0, channel=4, data=[40, 79]),
   midi.NoteOnEvent(tick=200, channel=4, data=[40, 0]),
   midi.ControlChangeEvent(tick=40, channel=4, data=[10, 108]),
   midi.NoteOnEvent(tick=0, channel=4, data=[40, 79]),
   midi.NoteOnEvent(tick=200, channel=4, data=[40, 0]),
   midi.ControlChangeEvent(tick=40, channel=4, data=[10, 18]),
   midi.NoteOnEvent(tick=0, channel=4, data=[36, 79]),
   midi.NoteOnEvent(tick=200, channel=4, data=[36, 0]),
   midi.ControlChangeEvent(tick=40, channel=4, data=[10, 63]),
   midi.NoteOnEvent(tick=0, channel=4, data=[36, 79]),
   midi.NoteOnEvent(tick=200, channel=4, data=[36, 0]),
   midi.ControlChangeEvent(tick=40, channel=4, data=[10, 108]),
   midi.NoteOnEvent(tick=0, channel=4, data=[36, 79]),
   midi.NoteOnEvent(tick=200, channel=4, data=[36, 0]),
   midi.ControlChangeEvent(tick=40, channel=4, data=[10, 18]),
   midi.NoteOnEvent(tick=0, channel=4, data=[36, 79]),
   midi.NoteOnEvent(tick=200, channel=4, data=[36, 0]),
   midi.ControlChangeEvent(tick=40, channel=4, data=[10, 63]),
   midi.NoteOnEvent(tick=0, channel=4, data=[36, 79]),
   midi.NoteOnEvent(tick=200, channel=4, data=[36, 0]),
   midi.ControlChangeEvent(tick=40, channel=4, data=[10, 108]),
   midi.NoteOnEvent(tick=0, channel=4, data=[36, 79]),
   midi.NoteOnEvent(tick=200, channel=4, data=[36, 0]),
   midi.ControlChangeEvent(tick=40, channel=4, data=[10, 18]),
   midi.NoteOnEvent(tick=0, channel=4, data=[40, 79]),
   midi.NoteOnEvent(tick=200, channel=4, data=[40, 0]),
   midi.ControlChangeEvent(tick=40, channel=4, data=[10, 63]),
   midi.NoteOnEvent(tick=0, channel=4, data=[40, 79]),
   midi.NoteOnEvent(tick=200, channel=4, data=[40, 0]),
   midi.ControlChangeEvent(tick=40, channel=4, data=[10, 108]),
   midi.NoteOnEvent(tick=0, channel=4, data=[40, 79]),
   midi.NoteOnEvent(tick=200, channel=4, data=[40, 0]),
   midi.ControlChangeEvent(tick=40, channel=4, data=[10, 18]),
   midi.NoteOnEvent(tick=0, channel=4, data=[40, 79]),
   midi.NoteOnEvent(tick=200, channel=4, data=[40, 0]),
   midi.ControlChangeEvent(tick=40, channel=4, data=[10, 63]),
   midi.NoteOnEvent(tick=0, channel=4, data=[40, 79]),
   midi.NoteOnEvent(tick=200, channel=4, data=[40, 0]),
   midi.ControlChangeEvent(tick=40, channel=4, data=[10, 108]),
   midi.NoteOnEvent(tick=0, channel=4, data=[40, 79]),
   midi.NoteOnEvent(tick=200, channel=4, data=[40, 0]),
   midi.ControlChangeEvent(tick=40, channel=4, data=[10, 18]),
   midi.NoteOnEvent(tick=0, channel=4, data=[40, 79]),
   midi.NoteOnEvent(tick=200, channel=4, data=[40, 0]),
   midi.ControlChangeEvent(tick=40, channel=4, data=[10, 63]),
   midi.NoteOnEvent(tick=0, channel=4, data=[40, 79]),
   midi.NoteOnEvent(tick=200, channel=4, data=[40, 0]),
   midi.ControlChangeEvent(tick=40, channel=4, data=[10, 108]),
   midi.NoteOnEvent(tick=0, channel=4, data=[40, 79]),
   midi.NoteOnEvent(tick=200, channel=4, data=[40, 0]),
   midi.ControlChangeEvent(tick=40, channel=4, data=[10, 18]),
   midi.NoteOnEvent(tick=0, channel=4, data=[40, 79]),
   midi.NoteOnEvent(tick=200, channel=4, data=[40, 0]),
   midi.ControlChangeEvent(tick=40, channel=4, data=[10, 63]),
   midi.NoteOnEvent(tick=0, channel=4, data=[40, 79]),
   midi.NoteOnEvent(tick=200, channel=4, data=[40, 0]),
   midi.ControlChangeEvent(tick=40, channel=4, data=[10, 108]),
   midi.NoteOnEvent(tick=0, channel=4, data=[40, 79]),
   midi.NoteOnEvent(tick=200, channel=4, data=[40, 0]),
   midi.ControlChangeEvent(tick=40, channel=4, data=[10, 18]),
   midi.NoteOnEvent(tick=0, channel=4, data=[40, 79]),
   midi.NoteOnEvent(tick=200, channel=4, data=[40, 0]),
   midi.ControlChangeEvent(tick=40, channel=4, data=[10, 63]),
   midi.NoteOnEvent(tick=0, channel=4, data=[40, 79]),
   midi.NoteOnEvent(tick=200, channel=4, data=[40, 0]),
   midi.ControlChangeEvent(tick=40, channel=4, data=[10, 108]),
   midi.NoteOnEvent(tick=0, channel=4, data=[40, 79]),
   midi.NoteOnEvent(tick=200, channel=4, data=[40, 0]),
   midi.ControlChangeEvent(tick=40, channel=4, data=[10, 18]),
   midi.NoteOnEvent(tick=0, channel=4, data=[40, 79]),
   midi.NoteOnEvent(tick=200, channel=4, data=[40, 0]),
   midi.ControlChangeEvent(tick=40, channel=4, data=[10, 63]),
   midi.NoteOnEvent(tick=0, channel=4, data=[40, 79]),
   midi.NoteOnEvent(tick=200, channel=4, data=[40, 0]),
   midi.ControlChangeEvent(tick=40, channel=4, data=[10, 108]),
   midi.NoteOnEvent(tick=0, channel=4, data=[40, 79]),
   midi.NoteOnEvent(tick=200, channel=4, data=[40, 0]),
   midi.ControlChangeEvent(tick=40, channel=4, data=[10, 18]),
   midi.NoteOnEvent(tick=0, channel=4, data=[40, 79]),
   midi.NoteOnEvent(tick=200, channel=4, data=[40, 0]),
   midi.ControlChangeEvent(tick=40, channel=4, data=[10, 63]),
   midi.NoteOnEvent(tick=0, channel=4, data=[40, 79]),
   midi.NoteOnEvent(tick=200, channel=4, data=[40, 0]),
   midi.ControlChangeEvent(tick=40, channel=4, data=[10, 108]),
   midi.NoteOnEvent(tick=0, channel=4, data=[40, 79]),
   midi.NoteOnEvent(tick=200, channel=4, data=[40, 0]),
   midi.ControlChangeEvent(tick=40, channel=4, data=[10, 18]),
   midi.NoteOnEvent(tick=0, channel=4, data=[40, 79]),
   midi.NoteOnEvent(tick=200, channel=4, data=[40, 0]),
   midi.ControlChangeEvent(tick=40, channel=4, data=[10, 63]),
   midi.NoteOnEvent(tick=0, channel=4, data=[40, 79]),
   midi.NoteOnEvent(tick=200, channel=4, data=[40, 0]),
   midi.ControlChangeEvent(tick=40, channel=4, data=[10, 108]),
   midi.NoteOnEvent(tick=0, channel=4, data=[40, 79]),
   midi.NoteOnEvent(tick=200, channel=4, data=[40, 0]),
   midi.ControlChangeEvent(tick=40, channel=4, data=[10, 18]),
   midi.NoteOnEvent(tick=0, channel=4, data=[40, 79]),
   midi.NoteOnEvent(tick=200, channel=4, data=[40, 0]),
   midi.ControlChangeEvent(tick=40, channel=4, data=[10, 63]),
   midi.NoteOnEvent(tick=0, channel=4, data=[40, 79]),
   midi.NoteOnEvent(tick=200, channel=4, data=[40, 0]),
   midi.ControlChangeEvent(tick=40, channel=4, data=[10, 108]),
   midi.NoteOnEvent(tick=0, channel=4, data=[40, 79]),
   midi.NoteOnEvent(tick=200, channel=4, data=[40, 0]),
   midi.ControlChangeEvent(tick=40, channel=4, data=[10, 18]),
   midi.NoteOnEvent(tick=0, channel=4, data=[40, 79]),
   midi.NoteOnEvent(tick=200, channel=4, data=[40, 0]),
   midi.ControlChangeEvent(tick=40, channel=4, data=[10, 63]),
   midi.NoteOnEvent(tick=0, channel=4, data=[40, 79]),
   midi.NoteOnEvent(tick=200, channel=4, data=[40, 0]),
   midi.ControlChangeEvent(tick=40, channel=4, data=[10, 108]),
   midi.NoteOnEvent(tick=0, channel=4, data=[40, 79]),
   midi.NoteOnEvent(tick=200, channel=4, data=[40, 0]),
   midi.ControlChangeEvent(tick=40, channel=4, data=[10, 18]),
   midi.NoteOnEvent(tick=0, channel=4, data=[36, 79]),
   midi.NoteOnEvent(tick=200, channel=4, data=[36, 0]),
   midi.ControlChangeEvent(tick=40, channel=4, data=[10, 63]),
   midi.NoteOnEvent(tick=0, channel=4, data=[36, 79]),
   midi.NoteOnEvent(tick=200, channel=4, data=[36, 0]),
   midi.ControlChangeEvent(tick=40, channel=4, data=[10, 108]),
   midi.NoteOnEvent(tick=0, channel=4, data=[36, 79]),
   midi.NoteOnEvent(tick=200, channel=4, data=[36, 0]),
   midi.ControlChangeEvent(tick=40, channel=4, data=[10, 18]),
   midi.NoteOnEvent(tick=0, channel=4, data=[36, 79]),
   midi.NoteOnEvent(tick=200, channel=4, data=[36, 0]),
   midi.ControlChangeEvent(tick=40, channel=4, data=[10, 63]),
   midi.NoteOnEvent(tick=0, channel=4, data=[36, 79]),
   midi.NoteOnEvent(tick=200, channel=4, data=[36, 0]),
   midi.ControlChangeEvent(tick=40, channel=4, data=[10, 108]),
   midi.NoteOnEvent(tick=0, channel=4, data=[36, 79]),
   midi.NoteOnEvent(tick=200, channel=4, data=[36, 0]),
   midi.ControlChangeEvent(tick=40, channel=4, data=[10, 18]),
   midi.NoteOnEvent(tick=0, channel=4, data=[36, 79]),
   midi.NoteOnEvent(tick=200, channel=4, data=[36, 0]),
   midi.ControlChangeEvent(tick=40, channel=4, data=[10, 63]),
   midi.NoteOnEvent(tick=0, channel=4, data=[36, 79]),
   midi.NoteOnEvent(tick=200, channel=4, data=[36, 0]),
   midi.ControlChangeEvent(tick=40, channel=4, data=[10, 108]),
   midi.NoteOnEvent(tick=0, channel=4, data=[36, 79]),
   midi.NoteOnEvent(tick=200, channel=4, data=[36, 0]),
   midi.ControlChangeEvent(tick=40, channel=4, data=[10, 18]),
   midi.NoteOnEvent(tick=0, channel=4, data=[36, 79]),
   midi.NoteOnEvent(tick=200, channel=4, data=[36, 0]),
   midi.ControlChangeEvent(tick=40, channel=4, data=[10, 63]),
   midi.NoteOnEvent(tick=0, channel=4, data=[36, 79]),
   midi.NoteOnEvent(tick=200, channel=4, data=[36, 0]),
   midi.ControlChangeEvent(tick=40, channel=4, data=[10, 108]),
   midi.NoteOnEvent(tick=0, channel=4, data=[36, 79]),
   midi.NoteOnEvent(tick=200, channel=4, data=[36, 0]),
   midi.ControlChangeEvent(tick=40, channel=4, data=[10, 18]),
   midi.NoteOnEvent(tick=0, channel=4, data=[40, 79]),
   midi.NoteOnEvent(tick=200, channel=4, data=[40, 0]),
   midi.ControlChangeEvent(tick=40, channel=4, data=[10, 63]),
   midi.NoteOnEvent(tick=0, channel=4, data=[40, 79]),
   midi.NoteOnEvent(tick=200, channel=4, data=[40, 0]),
   midi.ControlChangeEvent(tick=40, channel=4, data=[10, 108]),
   midi.NoteOnEvent(tick=0, channel=4, data=[40, 79]),
   midi.NoteOnEvent(tick=200, channel=4, data=[40, 0]),
   midi.ControlChangeEvent(tick=40, channel=4, data=[10, 18]),
   midi.NoteOnEvent(tick=0, channel=4, data=[40, 79]),
   midi.NoteOnEvent(tick=200, channel=4, data=[40, 0]),
   midi.ControlChangeEvent(tick=40, channel=4, data=[10, 63]),
   midi.NoteOnEvent(tick=0, channel=4, data=[40, 79]),
   midi.NoteOnEvent(tick=200, channel=4, data=[40, 0]),
   midi.ControlChangeEvent(tick=40, channel=4, data=[10, 108]),
   midi.NoteOnEvent(tick=0, channel=4, data=[40, 79]),
   midi.NoteOnEvent(tick=200, channel=4, data=[40, 0]),
   midi.ControlChangeEvent(tick=40, channel=4, data=[10, 18]),
   midi.NoteOnEvent(tick=0, channel=4, data=[40, 79]),
   midi.NoteOnEvent(tick=200, channel=4, data=[40, 0]),
   midi.ControlChangeEvent(tick=40, channel=4, data=[10, 63]),
   midi.NoteOnEvent(tick=0, channel=4, data=[40, 79]),
   midi.NoteOnEvent(tick=200, channel=4, data=[40, 0]),
   midi.ControlChangeEvent(tick=40, channel=4, data=[10, 108]),
   midi.NoteOnEvent(tick=0, channel=4, data=[40, 79]),
   midi.NoteOnEvent(tick=200, channel=4, data=[40, 0]),
   midi.ControlChangeEvent(tick=40, channel=4, data=[10, 18]),
   midi.NoteOnEvent(tick=0, channel=4, data=[40, 79]),
   midi.NoteOnEvent(tick=200, channel=4, data=[40, 0]),
   midi.ControlChangeEvent(tick=40, channel=4, data=[10, 63]),
   midi.NoteOnEvent(tick=0, channel=4, data=[40, 79]),
   midi.NoteOnEvent(tick=200, channel=4, data=[40, 0]),
   midi.ControlChangeEvent(tick=40, channel=4, data=[10, 108]),
   midi.NoteOnEvent(tick=0, channel=4, data=[40, 79]),
   midi.NoteOnEvent(tick=200, channel=4, data=[40, 0]),
   midi.ControlChangeEvent(tick=40, channel=4, data=[10, 18]),
   midi.NoteOnEvent(tick=0, channel=4, data=[40, 79]),
   midi.NoteOnEvent(tick=200, channel=4, data=[40, 0]),
   midi.ControlChangeEvent(tick=40, channel=4, data=[10, 108]),
   midi.NoteOnEvent(tick=0, channel=4, data=[40, 79]),
   midi.NoteOnEvent(tick=200, channel=4, data=[40, 0]),
   midi.ControlChangeEvent(tick=40, channel=4, data=[10, 18]),
   midi.NoteOnEvent(tick=0, channel=4, data=[40, 79]),
   midi.NoteOnEvent(tick=200, channel=4, data=[40, 0]),
   midi.ControlChangeEvent(tick=40, channel=4, data=[10, 108]),
   midi.NoteOnEvent(tick=0, channel=4, data=[40, 79]),
   midi.NoteOnEvent(tick=200, channel=4, data=[40, 0]),
   midi.ControlChangeEvent(tick=40, channel=4, data=[10, 18]),
   midi.NoteOnEvent(tick=0, channel=4, data=[40, 79]),
   midi.NoteOnEvent(tick=200, channel=4, data=[40, 0]),
   midi.ControlChangeEvent(tick=40, channel=4, data=[10, 108]),
   midi.NoteOnEvent(tick=0, channel=4, data=[40, 79]),
   midi.NoteOnEvent(tick=200, channel=4, data=[40, 0]),
   midi.ControlChangeEvent(tick=40, channel=4, data=[10, 18]),
   midi.NoteOnEvent(tick=0, channel=4, data=[40, 79]),
   midi.NoteOnEvent(tick=200, channel=4, data=[40, 0]),
   midi.ControlChangeEvent(tick=40, channel=4, data=[10, 108]),
   midi.NoteOnEvent(tick=0, channel=4, data=[40, 79]),
   midi.NoteOnEvent(tick=200, channel=4, data=[40, 0]),
   midi.ControlChangeEvent(tick=40, channel=4, data=[10, 18]),
   midi.NoteOnEvent(tick=0, channel=4, data=[36, 79]),
   midi.NoteOnEvent(tick=200, channel=4, data=[36, 0]),
   midi.ControlChangeEvent(tick=40, channel=4, data=[10, 108]),
   midi.NoteOnEvent(tick=0, channel=4, data=[36, 79]),
   midi.NoteOnEvent(tick=200, channel=4, data=[36, 0]),
   midi.ControlChangeEvent(tick=40, channel=4, data=[10, 18]),
   midi.NoteOnEvent(tick=0, channel=4, data=[36, 79]),
   midi.NoteOnEvent(tick=200, channel=4, data=[36, 0]),
   midi.ControlChangeEvent(tick=40, channel=4, data=[10, 108]),
   midi.NoteOnEvent(tick=0, channel=4, data=[36, 79]),
   midi.NoteOnEvent(tick=200, channel=4, data=[36, 0]),
   midi.ControlChangeEvent(tick=40, channel=4, data=[10, 18]),
   midi.NoteOnEvent(tick=0, channel=4, data=[36, 79]),
   midi.NoteOnEvent(tick=200, channel=4, data=[36, 0]),
   midi.ControlChangeEvent(tick=40, channel=4, data=[10, 108]),
   midi.NoteOnEvent(tick=0, channel=4, data=[36, 79]),
   midi.NoteOnEvent(tick=200, channel=4, data=[36, 0]),
   midi.ControlChangeEvent(tick=40, channel=4, data=[10, 18]),
   midi.NoteOnEvent(tick=0, channel=4, data=[36, 79]),
   midi.NoteOnEvent(tick=200, channel=4, data=[36, 0]),
   midi.ControlChangeEvent(tick=40, channel=4, data=[10, 108]),
   midi.NoteOnEvent(tick=0, channel=4, data=[36, 79]),
   midi.NoteOnEvent(tick=200, channel=4, data=[36, 0]),
   midi.ControlChangeEvent(tick=40, channel=4, data=[10, 18]),
   midi.NoteOnEvent(tick=0, channel=4, data=[40, 79]),
   midi.NoteOnEvent(tick=200, channel=4, data=[40, 0]),
   midi.ControlChangeEvent(tick=40, channel=4, data=[10, 108]),
   midi.NoteOnEvent(tick=0, channel=4, data=[40, 79]),
   midi.NoteOnEvent(tick=200, channel=4, data=[40, 0]),
   midi.ControlChangeEvent(tick=40, channel=4, data=[10, 18]),
   midi.NoteOnEvent(tick=0, channel=4, data=[40, 79]),
   midi.NoteOnEvent(tick=200, channel=4, data=[40, 0]),
   midi.ControlChangeEvent(tick=40, channel=4, data=[10, 108]),
   midi.NoteOnEvent(tick=0, channel=4, data=[40, 79]),
   midi.NoteOnEvent(tick=200, channel=4, data=[40, 0]),
   midi.ControlChangeEvent(tick=40, channel=4, data=[10, 18]),
   midi.NoteOnEvent(tick=0, channel=4, data=[40, 79]),
   midi.NoteOnEvent(tick=200, channel=4, data=[40, 0]),
   midi.ControlChangeEvent(tick=40, channel=4, data=[10, 108]),
   midi.NoteOnEvent(tick=0, channel=4, data=[40, 79]),
   midi.NoteOnEvent(tick=200, channel=4, data=[40, 0]),
   midi.ControlChangeEvent(tick=40, channel=4, data=[10, 18]),
   midi.NoteOnEvent(tick=0, channel=4, data=[40, 79]),
   midi.NoteOnEvent(tick=200, channel=4, data=[40, 0]),
   midi.ControlChangeEvent(tick=40, channel=4, data=[10, 108]),
   midi.NoteOnEvent(tick=0, channel=4, data=[40, 79]),
   midi.NoteOnEvent(tick=200, channel=4, data=[40, 0]),
   midi.ControlChangeEvent(tick=40, channel=4, data=[10, 18]),
   midi.NoteOnEvent(tick=0, channel=4, data=[40, 79]),
   midi.NoteOnEvent(tick=200, channel=4, data=[40, 0]),
   midi.ControlChangeEvent(tick=40, channel=4, data=[10, 108]),
   midi.NoteOnEvent(tick=0, channel=4, data=[40, 79]),
   midi.NoteOnEvent(tick=200, channel=4, data=[40, 0]),
   midi.ControlChangeEvent(tick=40, channel=4, data=[10, 18]),
   midi.NoteOnEvent(tick=0, channel=4, data=[40, 79]),
   midi.NoteOnEvent(tick=200, channel=4, data=[40, 0]),
   midi.ControlChangeEvent(tick=40, channel=4, data=[10, 108]),
   midi.NoteOnEvent(tick=0, channel=4, data=[40, 79]),
   midi.NoteOnEvent(tick=200, channel=4, data=[40, 0]),
   midi.ControlChangeEvent(tick=40, channel=4, data=[10, 18]),
   midi.NoteOnEvent(tick=0, channel=4, data=[40, 79]),
   midi.NoteOnEvent(tick=200, channel=4, data=[40, 0]),
   midi.ControlChangeEvent(tick=40, channel=4, data=[10, 108]),
   midi.NoteOnEvent(tick=0, channel=4, data=[40, 79]),
   midi.NoteOnEvent(tick=200, channel=4, data=[40, 0]),
   midi.ControlChangeEvent(tick=40, channel=4, data=[10, 18]),
   midi.NoteOnEvent(tick=0, channel=4, data=[40, 79]),
   midi.NoteOnEvent(tick=200, channel=4, data=[40, 0]),
   midi.ControlChangeEvent(tick=40, channel=4, data=[10, 108]),
   midi.NoteOnEvent(tick=0, channel=4, data=[40, 79]),
   midi.NoteOnEvent(tick=200, channel=4, data=[40, 0]),
   midi.ControlChangeEvent(tick=40, channel=4, data=[10, 18]),
   midi.NoteOnEvent(tick=0, channel=4, data=[36, 79]),
   midi.NoteOnEvent(tick=200, channel=4, data=[36, 0]),
   midi.ControlChangeEvent(tick=40, channel=4, data=[10, 108]),
   midi.NoteOnEvent(tick=0, channel=4, data=[36, 79]),
   midi.NoteOnEvent(tick=200, channel=4, data=[36, 0]),
   midi.ControlChangeEvent(tick=40, channel=4, data=[10, 18]),
   midi.NoteOnEvent(tick=0, channel=4, data=[36, 79]),
   midi.NoteOnEvent(tick=200, channel=4, data=[36, 0]),
   midi.ControlChangeEvent(tick=40, channel=4, data=[10, 108]),
   midi.NoteOnEvent(tick=0, channel=4, data=[36, 79]),
   midi.NoteOnEvent(tick=200, channel=4, data=[36, 0]),
   midi.ControlChangeEvent(tick=40, channel=4, data=[10, 18]),
   midi.NoteOnEvent(tick=0, channel=4, data=[36, 79]),
   midi.NoteOnEvent(tick=200, channel=4, data=[36, 0]),
   midi.ControlChangeEvent(tick=40, channel=4, data=[10, 108]),
   midi.NoteOnEvent(tick=0, channel=4, data=[36, 79]),
   midi.NoteOnEvent(tick=200, channel=4, data=[36, 0]),
   midi.ControlChangeEvent(tick=40, channel=4, data=[10, 18]),
   midi.NoteOnEvent(tick=0, channel=4, data=[36, 79]),
   midi.NoteOnEvent(tick=200, channel=4, data=[36, 0]),
   midi.ControlChangeEvent(tick=40, channel=4, data=[10, 108]),
   midi.NoteOnEvent(tick=0, channel=4, data=[36, 79]),
   midi.NoteOnEvent(tick=200, channel=4, data=[36, 0]),
   midi.ControlChangeEvent(tick=40, channel=4, data=[10, 18]),
   midi.NoteOnEvent(tick=0, channel=4, data=[33, 79]),
   midi.NoteOnEvent(tick=160, channel=4, data=[33, 0]),
   midi.ControlChangeEvent(tick=80, channel=4, data=[10, 108]),
   midi.NoteOnEvent(tick=0, channel=4, data=[33, 79]),
   midi.NoteOnEvent(tick=160, channel=4, data=[33, 0]),
   midi.ControlChangeEvent(tick=80, channel=4, data=[10, 18]),
   midi.NoteOnEvent(tick=0, channel=4, data=[33, 79]),
   midi.NoteOnEvent(tick=160, channel=4, data=[33, 0]),
   midi.ControlChangeEvent(tick=80, channel=4, data=[10, 108]),
   midi.NoteOnEvent(tick=0, channel=4, data=[33, 79]),
   midi.NoteOnEvent(tick=160, channel=4, data=[33, 0]),
   midi.ControlChangeEvent(tick=80, channel=4, data=[10, 18]),
   midi.NoteOnEvent(tick=0, channel=4, data=[33, 79]),
   midi.NoteOnEvent(tick=160, channel=4, data=[33, 0]),
   midi.ControlChangeEvent(tick=80, channel=4, data=[10, 63]),
   midi.NoteOnEvent(tick=0, channel=4, data=[33, 79]),
   midi.NoteOnEvent(tick=160, channel=4, data=[33, 0]),
   midi.ControlChangeEvent(tick=80, channel=4, data=[10, 108]),
   midi.NoteOnEvent(tick=0, channel=4, data=[33, 79]),
   midi.NoteOnEvent(tick=160, channel=4, data=[33, 0]),
   midi.ControlChangeEvent(tick=80, channel=4, data=[10, 18]),
   midi.NoteOnEvent(tick=0, channel=4, data=[40, 79]),
   midi.NoteOnEvent(tick=200, channel=4, data=[40, 0]),
   midi.ControlChangeEvent(tick=40, channel=4, data=[10, 108]),
   midi.NoteOnEvent(tick=0, channel=4, data=[40, 79]),
   midi.NoteOnEvent(tick=200, channel=4, data=[40, 0]),
   midi.ControlChangeEvent(tick=40, channel=4, data=[10, 18]),
   midi.NoteOnEvent(tick=0, channel=4, data=[40, 79]),
   midi.NoteOnEvent(tick=200, channel=4, data=[40, 0]),
   midi.ControlChangeEvent(tick=40, channel=4, data=[10, 108]),
   midi.NoteOnEvent(tick=0, channel=4, data=[40, 79]),
   midi.NoteOnEvent(tick=200, channel=4, data=[40, 0]),
   midi.ControlChangeEvent(tick=40, channel=4, data=[10, 18]),
   midi.NoteOnEvent(tick=0, channel=4, data=[40, 79]),
   midi.NoteOnEvent(tick=200, channel=4, data=[40, 0]),
   midi.ControlChangeEvent(tick=40, channel=4, data=[10, 108]),
   midi.NoteOnEvent(tick=0, channel=4, data=[40, 79]),
   midi.NoteOnEvent(tick=200, channel=4, data=[40, 0]),
   midi.ControlChangeEvent(tick=40, channel=4, data=[10, 18]),
   midi.NoteOnEvent(tick=0, channel=4, data=[40, 79]),
   midi.NoteOnEvent(tick=200, channel=4, data=[40, 0]),
   midi.ControlChangeEvent(tick=40, channel=4, data=[10, 108]),
   midi.NoteOnEvent(tick=0, channel=4, data=[40, 79]),
   midi.NoteOnEvent(tick=200, channel=4, data=[40, 0]),
   midi.ControlChangeEvent(tick=40, channel=4, data=[10, 18]),
   midi.NoteOnEvent(tick=0, channel=4, data=[40, 79]),
   midi.NoteOnEvent(tick=200, channel=4, data=[40, 0]),
   midi.ControlChangeEvent(tick=40, channel=4, data=[10, 108]),
   midi.NoteOnEvent(tick=0, channel=4, data=[40, 79]),
   midi.NoteOnEvent(tick=200, channel=4, data=[40, 0]),
   midi.ControlChangeEvent(tick=40, channel=4, data=[10, 18]),
   midi.NoteOnEvent(tick=0, channel=4, data=[40, 79]),
   midi.NoteOnEvent(tick=200, channel=4, data=[40, 0]),
   midi.ControlChangeEvent(tick=40, channel=4, data=[10, 108]),
   midi.NoteOnEvent(tick=0, channel=4, data=[40, 79]),
   midi.NoteOnEvent(tick=200, channel=4, data=[40, 0]),
   midi.ControlChangeEvent(tick=40, channel=4, data=[10, 18]),
   midi.NoteOnEvent(tick=0, channel=4, data=[40, 79]),
   midi.NoteOnEvent(tick=200, channel=4, data=[40, 0]),
   midi.ControlChangeEvent(tick=40, channel=4, data=[10, 108]),
   midi.NoteOnEvent(tick=0, channel=4, data=[40, 79]),
   midi.NoteOnEvent(tick=200, channel=4, data=[40, 0]),
   midi.ControlChangeEvent(tick=40, channel=4, data=[10, 18]),
   midi.NoteOnEvent(tick=0, channel=4, data=[40, 79]),
   midi.NoteOnEvent(tick=200, channel=4, data=[40, 0]),
   midi.ControlChangeEvent(tick=40, channel=4, data=[10, 108]),
   midi.NoteOnEvent(tick=0, channel=4, data=[40, 79]),
   midi.NoteOnEvent(tick=200, channel=4, data=[40, 0]),
   midi.ControlChangeEvent(tick=40, channel=4, data=[10, 18]),
   midi.NoteOnEvent(tick=0, channel=4, data=[36, 79]),
   midi.NoteOnEvent(tick=200, channel=4, data=[36, 0]),
   midi.ControlChangeEvent(tick=40, channel=4, data=[10, 108]),
   midi.NoteOnEvent(tick=0, channel=4, data=[36, 79]),
   midi.NoteOnEvent(tick=200, channel=4, data=[36, 0]),
   midi.ControlChangeEvent(tick=40, channel=4, data=[10, 18]),
   midi.NoteOnEvent(tick=0, channel=4, data=[36, 79]),
   midi.NoteOnEvent(tick=200, channel=4, data=[36, 0]),
   midi.ControlChangeEvent(tick=40, channel=4, data=[10, 108]),
   midi.NoteOnEvent(tick=0, channel=4, data=[36, 79]),
   midi.NoteOnEvent(tick=200, channel=4, data=[36, 0]),
   midi.ControlChangeEvent(tick=40, channel=4, data=[10, 18]),
   midi.NoteOnEvent(tick=0, channel=4, data=[36, 79]),
   midi.NoteOnEvent(tick=200, channel=4, data=[36, 0]),
   midi.ControlChangeEvent(tick=40, channel=4, data=[10, 108]),
   midi.NoteOnEvent(tick=0, channel=4, data=[36, 79]),
   midi.NoteOnEvent(tick=200, channel=4, data=[36, 0]),
   midi.ControlChangeEvent(tick=40, channel=4, data=[10, 18]),
   midi.NoteOnEvent(tick=0, channel=4, data=[36, 79]),
   midi.NoteOnEvent(tick=200, channel=4, data=[36, 0]),
   midi.ControlChangeEvent(tick=40, channel=4, data=[10, 108]),
   midi.NoteOnEvent(tick=0, channel=4, data=[36, 79]),
   midi.NoteOnEvent(tick=200, channel=4, data=[36, 0]),
   midi.ControlChangeEvent(tick=40, channel=4, data=[10, 18]),
   midi.NoteOnEvent(tick=0, channel=4, data=[36, 79]),
   midi.NoteOnEvent(tick=200, channel=4, data=[36, 0]),
   midi.ControlChangeEvent(tick=40, channel=4, data=[10, 108]),
   midi.NoteOnEvent(tick=0, channel=4, data=[36, 79]),
   midi.NoteOnEvent(tick=200, channel=4, data=[36, 0]),
   midi.ControlChangeEvent(tick=40, channel=4, data=[10, 18]),
   midi.NoteOnEvent(tick=0, channel=4, data=[36, 79]),
   midi.NoteOnEvent(tick=200, channel=4, data=[36, 0]),
   midi.ControlChangeEvent(tick=40, channel=4, data=[10, 108]),
   midi.NoteOnEvent(tick=0, channel=4, data=[36, 79]),
   midi.NoteOnEvent(tick=200, channel=4, data=[36, 0]),
   midi.ControlChangeEvent(tick=40, channel=4, data=[10, 18]),
   midi.NoteOnEvent(tick=0, channel=4, data=[36, 79]),
   midi.NoteOnEvent(tick=200, channel=4, data=[36, 0]),
   midi.ControlChangeEvent(tick=40, channel=4, data=[10, 108]),
   midi.NoteOnEvent(tick=0, channel=4, data=[36, 79]),
   midi.NoteOnEvent(tick=200, channel=4, data=[36, 0]),
   midi.ControlChangeEvent(tick=40, channel=4, data=[10, 18]),
   midi.NoteOnEvent(tick=0, channel=4, data=[36, 79]),
   midi.NoteOnEvent(tick=200, channel=4, data=[36, 0]),
   midi.ControlChangeEvent(tick=40, channel=4, data=[10, 108]),
   midi.NoteOnEvent(tick=0, channel=4, data=[36, 79]),
   midi.NoteOnEvent(tick=200, channel=4, data=[36, 0]),
   midi.ControlChangeEvent(tick=40, channel=4, data=[10, 18]),
   midi.NoteOnEvent(tick=0, channel=4, data=[40, 79]),
   midi.NoteOnEvent(tick=200, channel=4, data=[40, 0]),
   midi.ControlChangeEvent(tick=40, channel=4, data=[10, 108]),
   midi.NoteOnEvent(tick=0, channel=4, data=[40, 79]),
   midi.NoteOnEvent(tick=200, channel=4, data=[40, 0]),
   midi.ControlChangeEvent(tick=40, channel=4, data=[10, 18]),
   midi.NoteOnEvent(tick=0, channel=4, data=[40, 79]),
   midi.NoteOnEvent(tick=200, channel=4, data=[40, 0]),
   midi.ControlChangeEvent(tick=40, channel=4, data=[10, 108]),
   midi.NoteOnEvent(tick=0, channel=4, data=[40, 79]),
   midi.NoteOnEvent(tick=200, channel=4, data=[40, 0]),
   midi.ControlChangeEvent(tick=40, channel=4, data=[10, 18]),
   midi.NoteOnEvent(tick=0, channel=4, data=[40, 79]),
   midi.NoteOnEvent(tick=200, channel=4, data=[40, 0]),
   midi.ControlChangeEvent(tick=40, channel=4, data=[10, 108]),
   midi.NoteOnEvent(tick=0, channel=4, data=[40, 79]),
   midi.NoteOnEvent(tick=200, channel=4, data=[40, 0]),
   midi.ControlChangeEvent(tick=40, channel=4, data=[10, 18]),
   midi.NoteOnEvent(tick=0, channel=4, data=[40, 79]),
   midi.NoteOnEvent(tick=200, channel=4, data=[40, 0]),
   midi.ControlChangeEvent(tick=40, channel=4, data=[10, 108]),
   midi.NoteOnEvent(tick=0, channel=4, data=[40, 79]),
   midi.NoteOnEvent(tick=200, channel=4, data=[40, 0]),
   midi.ControlChangeEvent(tick=40, channel=4, data=[10, 18]),
   midi.NoteOnEvent(tick=0, channel=4, data=[40, 79]),
   midi.NoteOnEvent(tick=200, channel=4, data=[40, 0]),
   midi.ControlChangeEvent(tick=40, channel=4, data=[10, 108]),
   midi.NoteOnEvent(tick=0, channel=4, data=[40, 79]),
   midi.NoteOnEvent(tick=200, channel=4, data=[40, 0]),
   midi.ControlChangeEvent(tick=40, channel=4, data=[10, 18]),
   midi.NoteOnEvent(tick=0, channel=4, data=[40, 79]),
   midi.NoteOnEvent(tick=200, channel=4, data=[40, 0]),
   midi.ControlChangeEvent(tick=40, channel=4, data=[10, 108]),
   midi.NoteOnEvent(tick=0, channel=4, data=[40, 79]),
   midi.NoteOnEvent(tick=200, channel=4, data=[40, 0]),
   midi.ControlChangeEvent(tick=40, channel=4, data=[10, 18]),
   midi.NoteOnEvent(tick=0, channel=4, data=[40, 79]),
   midi.NoteOnEvent(tick=200, channel=4, data=[40, 0]),
   midi.ControlChangeEvent(tick=40, channel=4, data=[10, 108]),
   midi.NoteOnEvent(tick=0, channel=4, data=[40, 79]),
   midi.NoteOnEvent(tick=200, channel=4, data=[40, 0]),
   midi.ControlChangeEvent(tick=40, channel=4, data=[10, 18]),
   midi.NoteOnEvent(tick=0, channel=4, data=[40, 79]),
   midi.NoteOnEvent(tick=200, channel=4, data=[40, 0]),
   midi.ControlChangeEvent(tick=40, channel=4, data=[10, 108]),
   midi.NoteOnEvent(tick=0, channel=4, data=[40, 79]),
   midi.NoteOnEvent(tick=200, channel=4, data=[40, 0]),
   midi.ControlChangeEvent(tick=40, channel=4, data=[10, 18]),
   midi.NoteOnEvent(tick=0, channel=4, data=[36, 79]),
   midi.NoteOnEvent(tick=200, channel=4, data=[36, 0]),
   midi.ControlChangeEvent(tick=40, channel=4, data=[10, 108]),
   midi.NoteOnEvent(tick=0, channel=4, data=[36, 79]),
   midi.NoteOnEvent(tick=200, channel=4, data=[36, 0]),
   midi.ControlChangeEvent(tick=40, channel=4, data=[10, 18]),
   midi.NoteOnEvent(tick=0, channel=4, data=[36, 79]),
   midi.NoteOnEvent(tick=200, channel=4, data=[36, 0]),
   midi.ControlChangeEvent(tick=40, channel=4, data=[10, 108]),
   midi.NoteOnEvent(tick=0, channel=4, data=[36, 79]),
   midi.NoteOnEvent(tick=200, channel=4, data=[36, 0]),
   midi.ControlChangeEvent(tick=40, channel=4, data=[10, 18]),
   midi.NoteOnEvent(tick=0, channel=4, data=[36, 79]),
   midi.NoteOnEvent(tick=200, channel=4, data=[36, 0]),
   midi.ControlChangeEvent(tick=40, channel=4, data=[10, 108]),
   midi.NoteOnEvent(tick=0, channel=4, data=[36, 79]),
   midi.NoteOnEvent(tick=200, channel=4, data=[36, 0]),
   midi.ControlChangeEvent(tick=40, channel=4, data=[10, 18]),
   midi.NoteOnEvent(tick=0, channel=4, data=[36, 79]),
   midi.NoteOnEvent(tick=200, channel=4, data=[36, 0]),
   midi.ControlChangeEvent(tick=40, channel=4, data=[10, 108]),
   midi.NoteOnEvent(tick=0, channel=4, data=[36, 79]),
   midi.NoteOnEvent(tick=200, channel=4, data=[36, 0]),
   midi.ControlChangeEvent(tick=40, channel=4, data=[10, 18]),
   midi.NoteOnEvent(tick=0, channel=4, data=[36, 79]),
   midi.NoteOnEvent(tick=200, channel=4, data=[36, 0]),
   midi.ControlChangeEvent(tick=40, channel=4, data=[10, 108]),
   midi.NoteOnEvent(tick=0, channel=4, data=[36, 79]),
   midi.NoteOnEvent(tick=200, channel=4, data=[36, 0]),
   midi.ControlChangeEvent(tick=40, channel=4, data=[10, 18]),
   midi.NoteOnEvent(tick=0, channel=4, data=[36, 79]),
   midi.NoteOnEvent(tick=200, channel=4, data=[36, 0]),
   midi.ControlChangeEvent(tick=40, channel=4, data=[10, 108]),
   midi.NoteOnEvent(tick=0, channel=4, data=[36, 79]),
   midi.NoteOnEvent(tick=200, channel=4, data=[36, 0]),
   midi.ControlChangeEvent(tick=40, channel=4, data=[10, 18]),
   midi.NoteOnEvent(tick=0, channel=4, data=[36, 79]),
   midi.NoteOnEvent(tick=200, channel=4, data=[36, 0]),
   midi.ControlChangeEvent(tick=40, channel=4, data=[10, 108]),
   midi.NoteOnEvent(tick=0, channel=4, data=[36, 79]),
   midi.NoteOnEvent(tick=200, channel=4, data=[36, 0]),
   midi.ControlChangeEvent(tick=40, channel=4, data=[10, 18]),
   midi.NoteOnEvent(tick=0, channel=4, data=[36, 79]),
   midi.NoteOnEvent(tick=200, channel=4, data=[36, 0]),
   midi.ControlChangeEvent(tick=40, channel=4, data=[10, 108]),
   midi.NoteOnEvent(tick=0, channel=4, data=[36, 79]),
   midi.NoteOnEvent(tick=200, channel=4, data=[36, 0]),
   midi.ControlChangeEvent(tick=40, channel=4, data=[10, 18]),
   midi.NoteOnEvent(tick=0, channel=4, data=[40, 79]),
   midi.NoteOnEvent(tick=200, channel=4, data=[40, 0]),
   midi.ControlChangeEvent(tick=40, channel=4, data=[10, 108]),
   midi.NoteOnEvent(tick=0, channel=4, data=[40, 79]),
   midi.NoteOnEvent(tick=200, channel=4, data=[40, 0]),
   midi.ControlChangeEvent(tick=40, channel=4, data=[10, 18]),
   midi.NoteOnEvent(tick=0, channel=4, data=[40, 79]),
   midi.NoteOnEvent(tick=200, channel=4, data=[40, 0]),
   midi.ControlChangeEvent(tick=40, channel=4, data=[10, 108]),
   midi.NoteOnEvent(tick=0, channel=4, data=[40, 79]),
   midi.NoteOnEvent(tick=200, channel=4, data=[40, 0]),
   midi.ControlChangeEvent(tick=40, channel=4, data=[10, 18]),
   midi.NoteOnEvent(tick=0, channel=4, data=[40, 79]),
   midi.NoteOnEvent(tick=200, channel=4, data=[40, 0]),
   midi.ControlChangeEvent(tick=40, channel=4, data=[10, 108]),
   midi.NoteOnEvent(tick=0, channel=4, data=[40, 79]),
   midi.NoteOnEvent(tick=200, channel=4, data=[40, 0]),
   midi.ControlChangeEvent(tick=40, channel=4, data=[10, 18]),
   midi.NoteOnEvent(tick=0, channel=4, data=[40, 79]),
   midi.NoteOnEvent(tick=200, channel=4, data=[40, 0]),
   midi.ControlChangeEvent(tick=40, channel=4, data=[10, 108]),
   midi.NoteOnEvent(tick=0, channel=4, data=[40, 79]),
   midi.NoteOnEvent(tick=200, channel=4, data=[40, 0]),
   midi.ControlChangeEvent(tick=40, channel=4, data=[10, 18]),
   midi.NoteOnEvent(tick=0, channel=4, data=[40, 79]),
   midi.NoteOnEvent(tick=200, channel=4, data=[40, 0]),
   midi.ControlChangeEvent(tick=40, channel=4, data=[10, 108]),
   midi.NoteOnEvent(tick=0, channel=4, data=[40, 79]),
   midi.NoteOnEvent(tick=200, channel=4, data=[40, 0]),
   midi.ControlChangeEvent(tick=40, channel=4, data=[10, 18]),
   midi.NoteOnEvent(tick=0, channel=4, data=[40, 79]),
   midi.NoteOnEvent(tick=200, channel=4, data=[40, 0]),
   midi.ControlChangeEvent(tick=40, channel=4, data=[10, 108]),
   midi.NoteOnEvent(tick=0, channel=4, data=[40, 79]),
   midi.NoteOnEvent(tick=200, channel=4, data=[40, 0]),
   midi.ControlChangeEvent(tick=40, channel=4, data=[10, 18]),
   midi.NoteOnEvent(tick=0, channel=4, data=[40, 79]),
   midi.NoteOnEvent(tick=200, channel=4, data=[40, 0]),
   midi.ControlChangeEvent(tick=40, channel=4, data=[10, 108]),
   midi.NoteOnEvent(tick=0, channel=4, data=[40, 79]),
   midi.NoteOnEvent(tick=200, channel=4, data=[40, 0]),
   midi.ControlChangeEvent(tick=40, channel=4, data=[10, 18]),
   midi.NoteOnEvent(tick=0, channel=4, data=[40, 79]),
   midi.NoteOnEvent(tick=200, channel=4, data=[40, 0]),
   midi.ControlChangeEvent(tick=40, channel=4, data=[10, 108]),
   midi.NoteOnEvent(tick=0, channel=4, data=[40, 79]),
   midi.NoteOnEvent(tick=200, channel=4, data=[40, 0]),
   midi.ControlChangeEvent(tick=40, channel=4, data=[10, 18]),
   midi.NoteOnEvent(tick=0, channel=4, data=[36, 79]),
   midi.NoteOnEvent(tick=200, channel=4, data=[36, 0]),
   midi.ControlChangeEvent(tick=40, channel=4, data=[10, 108]),
   midi.NoteOnEvent(tick=0, channel=4, data=[36, 79]),
   midi.NoteOnEvent(tick=200, channel=4, data=[36, 0]),
   midi.ControlChangeEvent(tick=40, channel=4, data=[10, 18]),
   midi.NoteOnEvent(tick=0, channel=4, data=[36, 79]),
   midi.NoteOnEvent(tick=200, channel=4, data=[36, 0]),
   midi.ControlChangeEvent(tick=40, channel=4, data=[10, 108]),
   midi.NoteOnEvent(tick=0, channel=4, data=[36, 79]),
   midi.NoteOnEvent(tick=200, channel=4, data=[36, 0]),
   midi.ControlChangeEvent(tick=40, channel=4, data=[10, 18]),
   midi.NoteOnEvent(tick=0, channel=4, data=[36, 79]),
   midi.NoteOnEvent(tick=200, channel=4, data=[36, 0]),
   midi.ControlChangeEvent(tick=40, channel=4, data=[10, 108]),
   midi.NoteOnEvent(tick=0, channel=4, data=[36, 79]),
   midi.NoteOnEvent(tick=200, channel=4, data=[36, 0]),
   midi.ControlChangeEvent(tick=40, channel=4, data=[10, 18]),
   midi.NoteOnEvent(tick=0, channel=4, data=[36, 79]),
   midi.NoteOnEvent(tick=200, channel=4, data=[36, 0]),
   midi.ControlChangeEvent(tick=40, channel=4, data=[10, 108]),
   midi.NoteOnEvent(tick=0, channel=4, data=[36, 79]),
   midi.NoteOnEvent(tick=200, channel=4, data=[36, 0]),
   midi.ControlChangeEvent(tick=40, channel=4, data=[10, 18]),
   midi.NoteOnEvent(tick=0, channel=4, data=[36, 79]),
   midi.NoteOnEvent(tick=200, channel=4, data=[36, 0]),
   midi.ControlChangeEvent(tick=40, channel=4, data=[10, 108]),
   midi.NoteOnEvent(tick=0, channel=4, data=[36, 79]),
   midi.NoteOnEvent(tick=200, channel=4, data=[36, 0]),
   midi.ControlChangeEvent(tick=40, channel=4, data=[10, 18]),
   midi.NoteOnEvent(tick=0, channel=4, data=[36, 79]),
   midi.NoteOnEvent(tick=200, channel=4, data=[36, 0]),
   midi.ControlChangeEvent(tick=40, channel=4, data=[10, 108]),
   midi.NoteOnEvent(tick=0, channel=4, data=[36, 79]),
   midi.NoteOnEvent(tick=200, channel=4, data=[36, 0]),
   midi.ControlChangeEvent(tick=40, channel=4, data=[10, 18]),
   midi.NoteOnEvent(tick=0, channel=4, data=[36, 79]),
   midi.NoteOnEvent(tick=200, channel=4, data=[36, 0]),
   midi.ControlChangeEvent(tick=40, channel=4, data=[10, 108]),
   midi.NoteOnEvent(tick=0, channel=4, data=[36, 79]),
   midi.NoteOnEvent(tick=200, channel=4, data=[36, 0]),
   midi.ControlChangeEvent(tick=40, channel=4, data=[10, 18]),
   midi.NoteOnEvent(tick=0, channel=4, data=[36, 79]),
   midi.NoteOnEvent(tick=200, channel=4, data=[36, 0]),
   midi.ControlChangeEvent(tick=40, channel=4, data=[10, 108]),
   midi.NoteOnEvent(tick=0, channel=4, data=[36, 79]),
   midi.NoteOnEvent(tick=200, channel=4, data=[36, 0]),
   midi.ControlChangeEvent(tick=40, channel=4, data=[10, 18]),
   midi.NoteOnEvent(tick=0, channel=4, data=[40, 79]),
   midi.NoteOnEvent(tick=200, channel=4, data=[40, 0]),
   midi.ControlChangeEvent(tick=40, channel=4, data=[10, 108]),
   midi.NoteOnEvent(tick=0, channel=4, data=[40, 79]),
   midi.NoteOnEvent(tick=200, channel=4, data=[40, 0]),
   midi.ControlChangeEvent(tick=40, channel=4, data=[10, 18]),
   midi.NoteOnEvent(tick=0, channel=4, data=[40, 79]),
   midi.NoteOnEvent(tick=200, channel=4, data=[40, 0]),
   midi.ControlChangeEvent(tick=40, channel=4, data=[10, 108]),
   midi.NoteOnEvent(tick=0, channel=4, data=[40, 79]),
   midi.NoteOnEvent(tick=200, channel=4, data=[40, 0]),
   midi.ControlChangeEvent(tick=40, channel=4, data=[10, 18]),
   midi.NoteOnEvent(tick=0, channel=4, data=[40, 79]),
   midi.NoteOnEvent(tick=200, channel=4, data=[40, 0]),
   midi.ControlChangeEvent(tick=40, channel=4, data=[10, 108]),
   midi.NoteOnEvent(tick=0, channel=4, data=[40, 79]),
   midi.NoteOnEvent(tick=200, channel=4, data=[40, 0]),
   midi.ControlChangeEvent(tick=40, channel=4, data=[10, 18]),
   midi.NoteOnEvent(tick=0, channel=4, data=[40, 79]),
   midi.NoteOnEvent(tick=200, channel=4, data=[40, 0]),
   midi.ControlChangeEvent(tick=40, channel=4, data=[10, 108]),
   midi.NoteOnEvent(tick=0, channel=4, data=[40, 79]),
   midi.NoteOnEvent(tick=200, channel=4, data=[40, 0]),
   midi.ControlChangeEvent(tick=40, channel=4, data=[10, 18]),
   midi.NoteOnEvent(tick=0, channel=4, data=[40, 79]),
   midi.NoteOnEvent(tick=200, channel=4, data=[40, 0]),
   midi.ControlChangeEvent(tick=40, channel=4, data=[10, 108]),
   midi.NoteOnEvent(tick=0, channel=4, data=[40, 79]),
   midi.NoteOnEvent(tick=200, channel=4, data=[40, 0]),
   midi.ControlChangeEvent(tick=40, channel=4, data=[10, 18]),
   midi.NoteOnEvent(tick=0, channel=4, data=[40, 79]),
   midi.NoteOnEvent(tick=200, channel=4, data=[40, 0]),
   midi.ControlChangeEvent(tick=40, channel=4, data=[10, 108]),
   midi.NoteOnEvent(tick=0, channel=4, data=[40, 79]),
   midi.NoteOnEvent(tick=200, channel=4, data=[40, 0]),
   midi.ControlChangeEvent(tick=40, channel=4, data=[10, 18]),
   midi.NoteOnEvent(tick=0, channel=4, data=[40, 79]),
   midi.NoteOnEvent(tick=200, channel=4, data=[40, 0]),
   midi.ControlChangeEvent(tick=40, channel=4, data=[10, 108]),
   midi.NoteOnEvent(tick=0, channel=4, data=[40, 79]),
   midi.NoteOnEvent(tick=200, channel=4, data=[40, 0]),
   midi.ControlChangeEvent(tick=40, channel=4, data=[10, 18]),
   midi.NoteOnEvent(tick=0, channel=4, data=[40, 79]),
   midi.NoteOnEvent(tick=200, channel=4, data=[40, 0]),
   midi.ControlChangeEvent(tick=40, channel=4, data=[10, 108]),
   midi.NoteOnEvent(tick=0, channel=4, data=[40, 79]),
   midi.NoteOnEvent(tick=200, channel=4, data=[40, 0]),
   midi.ControlChangeEvent(tick=40, channel=4, data=[7, 109]),
   midi.ControlChangeEvent(tick=0, channel=4, data=[10, 18]),
   midi.NoteOnEvent(tick=0, channel=4, data=[40, 79]),
   midi.ControlChangeEvent(tick=150, channel=4, data=[7, 108]),
   midi.NoteOnEvent(tick=50, channel=4, data=[40, 0]),
   midi.ControlChangeEvent(tick=40, channel=4, data=[10, 108]),
   midi.NoteOnEvent(tick=0, channel=4, data=[40, 79]),
   midi.ControlChangeEvent(tick=60, channel=4, data=[7, 107]),
   midi.NoteOnEvent(tick=140, channel=4, data=[40, 0]),
   midi.ControlChangeEvent(tick=10, channel=4, data=[7, 106]),
   midi.ControlChangeEvent(tick=30, channel=4, data=[10, 18]),
   midi.NoteOnEvent(tick=0, channel=4, data=[40, 79]),
   midi.ControlChangeEvent(tick=90, channel=4, data=[7, 105]),
   midi.NoteOnEvent(tick=110, channel=4, data=[40, 0]),
   midi.ControlChangeEvent(tick=40, channel=4, data=[10, 108]),
   midi.NoteOnEvent(tick=0, channel=4, data=[40, 79]),
   midi.ControlChangeEvent(tick=150, channel=4, data=[7, 103]),
   midi.NoteOnEvent(tick=50, channel=4, data=[40, 0]),
   midi.ControlChangeEvent(tick=40, channel=4, data=[10, 18]),
   midi.NoteOnEvent(tick=0, channel=4, data=[40, 79]),
   midi.ControlChangeEvent(tick=30, channel=4, data=[7, 102]),
   midi.ControlChangeEvent(tick=150, channel=4, data=[7, 101]),
   midi.NoteOnEvent(tick=20, channel=4, data=[40, 0]),
   midi.ControlChangeEvent(tick=40, channel=4, data=[10, 108]),
   midi.NoteOnEvent(tick=0, channel=4, data=[40, 79]),
   midi.ControlChangeEvent(tick=90, channel=4, data=[7, 100]),
   midi.NoteOnEvent(tick=110, channel=4, data=[40, 0]),
   midi.ControlChangeEvent(tick=10, channel=4, data=[7, 99]),
   midi.ControlChangeEvent(tick=30, channel=4, data=[10, 18]),
   midi.NoteOnEvent(tick=0, channel=4, data=[40, 79]),
   midi.ControlChangeEvent(tick=120, channel=4, data=[7, 98]),
   midi.NoteOnEvent(tick=80, channel=4, data=[40, 0]),
   midi.ControlChangeEvent(tick=40, channel=4, data=[10, 108]),
   midi.NoteOnEvent(tick=0, channel=4, data=[40, 79]),
   midi.ControlChangeEvent(tick=30, channel=4, data=[7, 97]),
   midi.ControlChangeEvent(tick=150, channel=4, data=[7, 96]),
   midi.NoteOnEvent(tick=20, channel=4, data=[40, 0]),
   midi.ControlChangeEvent(tick=40, channel=4, data=[10, 18]),
   midi.NoteOnEvent(tick=0, channel=4, data=[40, 79]),
   midi.ControlChangeEvent(tick=60, channel=4, data=[7, 95]),
   midi.NoteOnEvent(tick=140, channel=4, data=[40, 0]),
   midi.ControlChangeEvent(tick=10, channel=4, data=[7, 94]),
   midi.ControlChangeEvent(tick=30, channel=4, data=[10, 108]),
   midi.NoteOnEvent(tick=0, channel=4, data=[40, 79]),
   midi.ControlChangeEvent(tick=120, channel=4, data=[7, 93]),
   midi.NoteOnEvent(tick=80, channel=4, data=[40, 0]),
   midi.ControlChangeEvent(tick=40, channel=4, data=[10, 18]),
   midi.NoteOnEvent(tick=0, channel=4, data=[40, 79]),
   midi.ControlChangeEvent(tick=150, channel=4, data=[7, 91]),
   midi.NoteOnEvent(tick=50, channel=4, data=[40, 0]),
   midi.ControlChangeEvent(tick=40, channel=4, data=[10, 108]),
   midi.NoteOnEvent(tick=0, channel=4, data=[40, 79]),
   midi.ControlChangeEvent(tick=60, channel=4, data=[7, 90]),
   midi.ControlChangeEvent(tick=120, channel=4, data=[7, 89]),
   midi.NoteOnEvent(tick=20, channel=4, data=[40, 0]),
   midi.ControlChangeEvent(tick=40, channel=4, data=[10, 18]),
   midi.NoteOnEvent(tick=0, channel=4, data=[40, 79]),
   midi.ControlChangeEvent(tick=90, channel=4, data=[7, 88]),
   midi.NoteOnEvent(tick=110, channel=4, data=[40, 0]),
   midi.ControlChangeEvent(tick=40, channel=4, data=[10, 108]),
   midi.NoteOnEvent(tick=0, channel=4, data=[40, 79]),
   midi.ControlChangeEvent(tick=150, channel=4, data=[7, 86]),
   midi.NoteOnEvent(tick=50, channel=4, data=[40, 0]),
   midi.ControlChangeEvent(tick=40, channel=4, data=[10, 18]),
   midi.NoteOnEvent(tick=0, channel=4, data=[40, 79]),
   midi.ControlChangeEvent(tick=30, channel=4, data=[7, 85]),
   midi.ControlChangeEvent(tick=150, channel=4, data=[7, 84]),
   midi.NoteOnEvent(tick=20, channel=4, data=[40, 0]),
   midi.ControlChangeEvent(tick=40, channel=4, data=[10, 108]),
   midi.NoteOnEvent(tick=0, channel=4, data=[40, 79]),
   midi.ControlChangeEvent(tick=90, channel=4, data=[7, 83]),
   midi.NoteOnEvent(tick=110, channel=4, data=[40, 0]),
   midi.ControlChangeEvent(tick=10, channel=4, data=[7, 82]),
   midi.ControlChangeEvent(tick=30, channel=4, data=[10, 18]),
   midi.NoteOnEvent(tick=0, channel=4, data=[40, 79]),
   midi.ControlChangeEvent(tick=120, channel=4, data=[7, 81]),
   midi.NoteOnEvent(tick=80, channel=4, data=[40, 0]),
   midi.ControlChangeEvent(tick=40, channel=4, data=[10, 108]),
   midi.NoteOnEvent(tick=0, channel=4, data=[40, 79]),
   midi.ControlChangeEvent(tick=30, channel=4, data=[7, 80]),
   midi.ControlChangeEvent(tick=120, channel=4, data=[7, 79]),
   midi.NoteOnEvent(tick=50, channel=4, data=[40, 0]),
   midi.ControlChangeEvent(tick=40, channel=4, data=[10, 18]),
   midi.NoteOnEvent(tick=0, channel=4, data=[40, 79]),
   midi.ControlChangeEvent(tick=60, channel=4, data=[7, 78]),
   midi.NoteOnEvent(tick=140, channel=4, data=[40, 0]),
   midi.ControlChangeEvent(tick=10, channel=4, data=[7, 77]),
   midi.ControlChangeEvent(tick=30, channel=4, data=[10, 108]),
   midi.NoteOnEvent(tick=0, channel=4, data=[40, 79]),
   midi.ControlChangeEvent(tick=120, channel=4, data=[7, 76]),
   midi.NoteOnEvent(tick=80, channel=4, data=[40, 0]),
   midi.ControlChangeEvent(tick=40, channel=4, data=[10, 18]),
   midi.NoteOnEvent(tick=0, channel=4, data=[40, 79]),
   midi.ControlChangeEvent(tick=150, channel=4, data=[7, 74]),
   midi.NoteOnEvent(tick=50, channel=4, data=[40, 0]),
   midi.ControlChangeEvent(tick=40, channel=4, data=[10, 108]),
   midi.NoteOnEvent(tick=0, channel=4, data=[40, 79]),
   midi.ControlChangeEvent(tick=60, channel=4, data=[7, 73]),
   midi.ControlChangeEvent(tick=120, channel=4, data=[7, 72]),
   midi.NoteOnEvent(tick=20, channel=4, data=[40, 0]),
   midi.ControlChangeEvent(tick=40, channel=4, data=[10, 18]),
   midi.NoteOnEvent(tick=0, channel=4, data=[40, 79]),
   midi.ControlChangeEvent(tick=90, channel=4, data=[7, 71]),
   midi.NoteOnEvent(tick=110, channel=4, data=[40, 0]),
   midi.ControlChangeEvent(tick=40, channel=4, data=[10, 108]),
   midi.NoteOnEvent(tick=0, channel=4, data=[40, 79]),
   midi.ControlChangeEvent(tick=120, channel=4, data=[7, 69]),
   midi.NoteOnEvent(tick=80, channel=4, data=[40, 0]),
   midi.ControlChangeEvent(tick=40, channel=4, data=[10, 18]),
   midi.NoteOnEvent(tick=0, channel=4, data=[40, 79]),
   midi.ControlChangeEvent(tick=30, channel=4, data=[7, 68]),
   midi.ControlChangeEvent(tick=150, channel=4, data=[7, 67]),
   midi.NoteOnEvent(tick=20, channel=4, data=[40, 0]),
   midi.ControlChangeEvent(tick=40, channel=4, data=[10, 108]),
   midi.NoteOnEvent(tick=0, channel=4, data=[40, 79]),
   midi.ControlChangeEvent(tick=60, channel=4, data=[7, 66]),
   midi.NoteOnEvent(tick=140, channel=4, data=[40, 0]),
   midi.ControlChangeEvent(tick=10, channel=4, data=[7, 65]),
   midi.ControlChangeEvent(tick=30, channel=4, data=[10, 18]),
   midi.NoteOnEvent(tick=0, channel=4, data=[40, 79]),
   midi.ControlChangeEvent(tick=120, channel=4, data=[7, 64]),
   midi.NoteOnEvent(tick=80, channel=4, data=[40, 0]),
   midi.ControlChangeEvent(tick=40, channel=4, data=[10, 108]),
   midi.NoteOnEvent(tick=0, channel=4, data=[40, 79]),
   midi.ControlChangeEvent(tick=30, channel=4, data=[7, 63]),
   midi.ControlChangeEvent(tick=120, channel=4, data=[7, 62]),
   midi.NoteOnEvent(tick=50, channel=4, data=[40, 0]),
   midi.ControlChangeEvent(tick=40, channel=4, data=[10, 18]),
   midi.NoteOnEvent(tick=0, channel=4, data=[40, 79]),
   midi.ControlChangeEvent(tick=60, channel=4, data=[7, 61]),
   midi.NoteOnEvent(tick=140, channel=4, data=[40, 0]),
   midi.ControlChangeEvent(tick=10, channel=4, data=[7, 60]),
   midi.ControlChangeEvent(tick=30, channel=4, data=[10, 108]),
   midi.NoteOnEvent(tick=0, channel=4, data=[40, 79]),
   midi.ControlChangeEvent(tick=90, channel=4, data=[7, 59]),
   midi.NoteOnEvent(tick=110, channel=4, data=[40, 0]),
   midi.ControlChangeEvent(tick=40, channel=4, data=[10, 18]),
   midi.NoteOnEvent(tick=0, channel=4, data=[40, 79]),
   midi.ControlChangeEvent(tick=150, channel=4, data=[7, 57]),
   midi.NoteOnEvent(tick=50, channel=4, data=[40, 0]),
   midi.ControlChangeEvent(tick=40, channel=4, data=[10, 108]),
   midi.NoteOnEvent(tick=0, channel=4, data=[40, 79]),
   midi.ControlChangeEvent(tick=30, channel=4, data=[7, 56]),
   midi.ControlChangeEvent(tick=150, channel=4, data=[7, 55]),
   midi.NoteOnEvent(tick=20, channel=4, data=[40, 0]),
   midi.ControlChangeEvent(tick=40, channel=4, data=[10, 18]),
   midi.NoteOnEvent(tick=0, channel=4, data=[40, 79]),
   midi.ControlChangeEvent(tick=90, channel=4, data=[7, 54]),
   midi.NoteOnEvent(tick=110, channel=4, data=[40, 0]),
   midi.ControlChangeEvent(tick=40, channel=4, data=[10, 108]),
   midi.NoteOnEvent(tick=0, channel=4, data=[40, 79]),
   midi.ControlChangeEvent(tick=120, channel=4, data=[7, 52]),
   midi.NoteOnEvent(tick=80, channel=4, data=[40, 0]),
   midi.ControlChangeEvent(tick=40, channel=4, data=[10, 18]),
   midi.NoteOnEvent(tick=0, channel=4, data=[40, 79]),
   midi.ControlChangeEvent(tick=30, channel=4, data=[7, 51]),
   midi.ControlChangeEvent(tick=150, channel=4, data=[7, 50]),
   midi.NoteOnEvent(tick=20, channel=4, data=[40, 0]),
   midi.ControlChangeEvent(tick=40, channel=4, data=[10, 108]),
   midi.NoteOnEvent(tick=0, channel=4, data=[40, 79]),
   midi.ControlChangeEvent(tick=60, channel=4, data=[7, 49]),
   midi.NoteOnEvent(tick=140, channel=4, data=[40, 0]),
   midi.ControlChangeEvent(tick=10, channel=4, data=[7, 48]),
   midi.ControlChangeEvent(tick=30, channel=4, data=[10, 18]),
   midi.NoteOnEvent(tick=0, channel=4, data=[40, 79]),
   midi.ControlChangeEvent(tick=120, channel=4, data=[7, 47]),
   midi.NoteOnEvent(tick=80, channel=4, data=[40, 0]),
   midi.ControlChangeEvent(tick=40, channel=4, data=[10, 108]),
   midi.NoteOnEvent(tick=0, channel=4, data=[40, 79]),
   midi.ControlChangeEvent(tick=150, channel=4, data=[7, 45]),
   midi.NoteOnEvent(tick=50, channel=4, data=[40, 0]),
   midi.ControlChangeEvent(tick=40, channel=4, data=[10, 18]),
   midi.NoteOnEvent(tick=0, channel=4, data=[40, 79]),
   midi.ControlChangeEvent(tick=60, channel=4, data=[7, 44]),
   midi.NoteOnEvent(tick=140, channel=4, data=[40, 0]),
   midi.ControlChangeEvent(tick=10, channel=4, data=[7, 43]),
   midi.ControlChangeEvent(tick=30, channel=4, data=[10, 108]),
   midi.NoteOnEvent(tick=0, channel=4, data=[40, 79]),
   midi.ControlChangeEvent(tick=90, channel=4, data=[7, 42]),
   midi.NoteOnEvent(tick=110, channel=4, data=[40, 0]),
   midi.ControlChangeEvent(tick=40, channel=4, data=[10, 18]),
   midi.NoteOnEvent(tick=0, channel=4, data=[40, 79]),
   midi.ControlChangeEvent(tick=150, channel=4, data=[7, 40]),
   midi.NoteOnEvent(tick=50, channel=4, data=[40, 0]),
   midi.ControlChangeEvent(tick=40, channel=4, data=[10, 108]),
   midi.NoteOnEvent(tick=0, channel=4, data=[40, 79]),
   midi.ControlChangeEvent(tick=30, channel=4, data=[7, 39]),
   midi.ControlChangeEvent(tick=150, channel=4, data=[7, 38]),
   midi.NoteOnEvent(tick=20, channel=4, data=[40, 0]),
   midi.ControlChangeEvent(tick=40, channel=4, data=[10, 18]),
   midi.NoteOnEvent(tick=0, channel=4, data=[40, 79]),
   midi.ControlChangeEvent(tick=90, channel=4, data=[7, 37]),
   midi.NoteOnEvent(tick=110, channel=4, data=[40, 0]),
   midi.ControlChangeEvent(tick=10, channel=4, data=[7, 36]),
   midi.ControlChangeEvent(tick=30, channel=4, data=[10, 108]),
   midi.NoteOnEvent(tick=0, channel=4, data=[40, 79]),
   midi.ControlChangeEvent(tick=120, channel=4, data=[7, 35]),
   midi.NoteOnEvent(tick=80, channel=4, data=[40, 0]),
   midi.ControlChangeEvent(tick=40, channel=4, data=[10, 18]),
   midi.NoteOnEvent(tick=0, channel=4, data=[40, 79]),
   midi.ControlChangeEvent(tick=30, channel=4, data=[7, 34]),
   midi.ControlChangeEvent(tick=120, channel=4, data=[7, 33]),
   midi.NoteOnEvent(tick=50, channel=4, data=[40, 0]),
   midi.ControlChangeEvent(tick=40, channel=4, data=[10, 108]),
   midi.NoteOnEvent(tick=0, channel=4, data=[40, 79]),
   midi.ControlChangeEvent(tick=60, channel=4, data=[7, 32]),
   midi.NoteOnEvent(tick=140, channel=4, data=[40, 0]),
   midi.ControlChangeEvent(tick=10, channel=4, data=[7, 31]),
   midi.ControlChangeEvent(tick=30, channel=4, data=[10, 18]),
   midi.NoteOnEvent(tick=0, channel=4, data=[40, 79]),
   midi.ControlChangeEvent(tick=120, channel=4, data=[7, 30]),
   midi.NoteOnEvent(tick=80, channel=4, data=[40, 0]),
   midi.ControlChangeEvent(tick=40, channel=4, data=[10, 108]),
   midi.NoteOnEvent(tick=0, channel=4, data=[40, 79]),
   midi.ControlChangeEvent(tick=150, channel=4, data=[7, 28]),
   midi.NoteOnEvent(tick=50, channel=4, data=[40, 0]),
   midi.ControlChangeEvent(tick=40, channel=4, data=[10, 18]),
   midi.NoteOnEvent(tick=0, channel=4, data=[40, 79]),
   midi.ControlChangeEvent(tick=60, channel=4, data=[7, 27]),
   midi.ControlChangeEvent(tick=120, channel=4, data=[7, 26]),
   midi.NoteOnEvent(tick=20, channel=4, data=[40, 0]),
   midi.ControlChangeEvent(tick=40, channel=4, data=[10, 108]),
   midi.NoteOnEvent(tick=0, channel=4, data=[40, 79]),
   midi.ControlChangeEvent(tick=90, channel=4, data=[7, 25]),
   midi.NoteOnEvent(tick=110, channel=4, data=[40, 0]),
   midi.ControlChangeEvent(tick=40, channel=4, data=[10, 18]),
   midi.NoteOnEvent(tick=0, channel=4, data=[40, 79]),
   midi.ControlChangeEvent(tick=120, channel=4, data=[7, 23]),
   midi.NoteOnEvent(tick=80, channel=4, data=[40, 0]),
   midi.ControlChangeEvent(tick=40, channel=4, data=[10, 108]),
   midi.NoteOnEvent(tick=0, channel=4, data=[40, 79]),
   midi.ControlChangeEvent(tick=30, channel=4, data=[7, 22]),
   midi.ControlChangeEvent(tick=150, channel=4, data=[7, 21]),
   midi.NoteOnEvent(tick=20, channel=4, data=[40, 0]),
   midi.ControlChangeEvent(tick=40, channel=4, data=[10, 18]),
   midi.NoteOnEvent(tick=0, channel=4, data=[40, 79]),
   midi.ControlChangeEvent(tick=90, channel=4, data=[7, 20]),
   midi.NoteOnEvent(tick=110, channel=4, data=[40, 0]),
   midi.ControlChangeEvent(tick=10, channel=4, data=[7, 19]),
   midi.ControlChangeEvent(tick=30, channel=4, data=[10, 108]),
   midi.NoteOnEvent(tick=0, channel=4, data=[40, 79]),
   midi.ControlChangeEvent(tick=120, channel=4, data=[7, 18]),
   midi.NoteOnEvent(tick=80, channel=4, data=[40, 0]),
   midi.ControlChangeEvent(tick=40, channel=4, data=[10, 18]),
   midi.NoteOnEvent(tick=0, channel=4, data=[40, 79]),
   midi.ControlChangeEvent(tick=30, channel=4, data=[7, 17]),
   midi.ControlChangeEvent(tick=120, channel=4, data=[7, 16]),
   midi.NoteOnEvent(tick=50, channel=4, data=[40, 0]),
   midi.ControlChangeEvent(tick=40, channel=4, data=[10, 108]),
   midi.NoteOnEvent(tick=0, channel=4, data=[40, 79]),
   midi.ControlChangeEvent(tick=60, channel=4, data=[7, 15]),
   midi.NoteOnEvent(tick=140, channel=4, data=[40, 0]),
   midi.ControlChangeEvent(tick=10, channel=4, data=[7, 14]),
   midi.ControlChangeEvent(tick=30, channel=4, data=[10, 18]),
   midi.NoteOnEvent(tick=0, channel=4, data=[40, 79]),
   midi.ControlChangeEvent(tick=90, channel=4, data=[7, 13]),
   midi.NoteOnEvent(tick=110, channel=4, data=[40, 0]),
   midi.ControlChangeEvent(tick=40, channel=4, data=[10, 108]),
   midi.NoteOnEvent(tick=0, channel=4, data=[40, 79]),
   midi.ControlChangeEvent(tick=150, channel=4, data=[7, 11]),
   midi.NoteOnEvent(tick=50, channel=4, data=[40, 0]),
   midi.ControlChangeEvent(tick=40, channel=4, data=[10, 18]),
   midi.NoteOnEvent(tick=0, channel=4, data=[40, 79]),
   midi.ControlChangeEvent(tick=60, channel=4, data=[7, 10]),
   midi.ControlChangeEvent(tick=120, channel=4, data=[7, 9]),
   midi.NoteOnEvent(tick=20, channel=4, data=[40, 0]),
   midi.ControlChangeEvent(tick=40, channel=4, data=[10, 108]),
   midi.NoteOnEvent(tick=0, channel=4, data=[40, 79]),
   midi.ControlChangeEvent(tick=90, channel=4, data=[7, 8]),
   midi.NoteOnEvent(tick=110, channel=4, data=[40, 0]),
   midi.ControlChangeEvent(tick=40, channel=4, data=[10, 18]),
   midi.NoteOnEvent(tick=0, channel=4, data=[40, 79]),
   midi.ControlChangeEvent(tick=120, channel=4, data=[7, 6]),
   midi.NoteOnEvent(tick=80, channel=4, data=[40, 0]),
   midi.ControlChangeEvent(tick=40, channel=4, data=[10, 108]),
   midi.NoteOnEvent(tick=0, channel=4, data=[40, 79]),
   midi.ControlChangeEvent(tick=30, channel=4, data=[7, 5]),
   midi.ControlChangeEvent(tick=150, channel=4, data=[7, 4]),
   midi.NoteOnEvent(tick=20, channel=4, data=[40, 0]),
   midi.ControlChangeEvent(tick=40, channel=4, data=[10, 18]),
   midi.NoteOnEvent(tick=0, channel=4, data=[40, 79]),
   midi.ControlChangeEvent(tick=60, channel=4, data=[7, 3]),
   midi.NoteOnEvent(tick=140, channel=4, data=[40, 0]),
   midi.ControlChangeEvent(tick=10, channel=4, data=[7, 2]),
   midi.ControlChangeEvent(tick=30, channel=4, data=[10, 108]),
   midi.NoteOnEvent(tick=0, channel=4, data=[40, 79]),
   midi.ControlChangeEvent(tick=120, channel=4, data=[7, 1]),
   midi.ControlChangeEvent(tick=30, channel=4, data=[7, 0]),
   midi.NoteOnEvent(tick=50, channel=4, data=[40, 0]),
   midi.EndOfTrackEvent(tick=0, data=[])]),
 midi.Track(\
  [midi.PortEvent(tick=0, data=[0]),
   midi.TrackNameEvent(tick=0, text='Saw Wave', data=[83, 97, 119, 32, 87, 97, 118, 101]),
   midi.ProgramChangeEvent(tick=0, channel=5, data=[81]),
   midi.ControlChangeEvent(tick=0, channel=5, data=[7, 32]),
   midi.ControlChangeEvent(tick=482, channel=5, data=[0, 0]),
   midi.ControlChangeEvent(tick=5, channel=5, data=[32, 0]),
   midi.ControlChangeEvent(tick=10, channel=5, data=[1, 63]),
   midi.ControlChangeEvent(tick=10, channel=5, data=[10, 36]),
   midi.ControlChangeEvent(tick=5, channel=5, data=[11, 127]),
   midi.ControlChangeEvent(tick=5, channel=5, data=[64, 0]),
   midi.ControlChangeEvent(tick=5, channel=5, data=[91, 127]),
   midi.ControlChangeEvent(tick=5, channel=5, data=[93, 0]),
   midi.PitchWheelEvent(tick=5, channel=5, data=[0, 64]),
   midi.ControlChangeEvent(tick=488, channel=5, data=[93, 0]),
   midi.ControlChangeEvent(tick=180, channel=5, data=[1, 63]),
   midi.ControlChangeEvent(tick=0, channel=5, data=[91, 127]),
   midi.ControlChangeEvent(tick=60, channel=5, data=[7, 33]),
   midi.ControlChangeEvent(tick=300, channel=5, data=[7, 34]),
   midi.ControlChangeEvent(tick=270, channel=5, data=[7, 35]),
   midi.ControlChangeEvent(tick=300, channel=5, data=[7, 36]),
   midi.ControlChangeEvent(tick=270, channel=5, data=[7, 37]),
   midi.ControlChangeEvent(tick=300, channel=5, data=[7, 38]),
   midi.ControlChangeEvent(tick=270, channel=5, data=[7, 39]),
   midi.ControlChangeEvent(tick=300, channel=5, data=[7, 40]),
   midi.ControlChangeEvent(tick=270, channel=5, data=[7, 41]),
   midi.ControlChangeEvent(tick=300, channel=5, data=[7, 42]),
   midi.ControlChangeEvent(tick=270, channel=5, data=[7, 43]),
   midi.ControlChangeEvent(tick=300, channel=5, data=[7, 44]),
   midi.ControlChangeEvent(tick=300, channel=5, data=[7, 45]),
   midi.ControlChangeEvent(tick=270, channel=5, data=[7, 46]),
   midi.ControlChangeEvent(tick=300, channel=5, data=[7, 47]),
   midi.ControlChangeEvent(tick=270, channel=5, data=[7, 48]),
   midi.ControlChangeEvent(tick=300, channel=5, data=[7, 49]),
   midi.ControlChangeEvent(tick=270, channel=5, data=[7, 50]),
   midi.ControlChangeEvent(tick=300, channel=5, data=[7, 51]),
   midi.ControlChangeEvent(tick=270, channel=5, data=[7, 52]),
   midi.ControlChangeEvent(tick=300, channel=5, data=[7, 53]),
   midi.ControlChangeEvent(tick=270, channel=5, data=[7, 54]),
   midi.ControlChangeEvent(tick=300, channel=5, data=[7, 55]),
   midi.ControlChangeEvent(tick=300, channel=5, data=[7, 56]),
   midi.ControlChangeEvent(tick=270, channel=5, data=[7, 57]),
   midi.ControlChangeEvent(tick=300, channel=5, data=[7, 58]),
   midi.ControlChangeEvent(tick=270, channel=5, data=[7, 59]),
   midi.ControlChangeEvent(tick=300, channel=5, data=[7, 60]),
   midi.ControlChangeEvent(tick=270, channel=5, data=[7, 61]),
   midi.ControlChangeEvent(tick=300, channel=5, data=[7, 62]),
   midi.ControlChangeEvent(tick=270, channel=5, data=[7, 63]),
   midi.ControlChangeEvent(tick=300, channel=5, data=[7, 64]),
   midi.ControlChangeEvent(tick=270, channel=5, data=[7, 65]),
   midi.ControlChangeEvent(tick=300, channel=5, data=[7, 66]),
   midi.ControlChangeEvent(tick=300, channel=5, data=[7, 67]),
   midi.ControlChangeEvent(tick=270, channel=5, data=[7, 68]),
   midi.ControlChangeEvent(tick=300, channel=5, data=[7, 69]),
   midi.ControlChangeEvent(tick=270, channel=5, data=[7, 70]),
   midi.ControlChangeEvent(tick=300, channel=5, data=[7, 71]),
   midi.ControlChangeEvent(tick=270, channel=5, data=[7, 72]),
   midi.ControlChangeEvent(tick=300, channel=5, data=[7, 73]),
   midi.ControlChangeEvent(tick=270, channel=5, data=[7, 74]),
   midi.ControlChangeEvent(tick=300, channel=5, data=[7, 75]),
   midi.ControlChangeEvent(tick=270, channel=5, data=[7, 76]),
   midi.ControlChangeEvent(tick=300, channel=5, data=[7, 77]),
   midi.ControlChangeEvent(tick=300, channel=5, data=[7, 78]),
   midi.ControlChangeEvent(tick=270, channel=5, data=[7, 79]),
   midi.ControlChangeEvent(tick=300, channel=5, data=[7, 80]),
   midi.ControlChangeEvent(tick=270, channel=5, data=[7, 81]),
   midi.ControlChangeEvent(tick=300, channel=5, data=[7, 82]),
   midi.ControlChangeEvent(tick=270, channel=5, data=[7, 83]),
   midi.ControlChangeEvent(tick=300, channel=5, data=[7, 84]),
   midi.ControlChangeEvent(tick=270, channel=5, data=[7, 85]),
   midi.ControlChangeEvent(tick=300, channel=5, data=[7, 86]),
   midi.ControlChangeEvent(tick=270, channel=5, data=[7, 87]),
   midi.ControlChangeEvent(tick=300, channel=5, data=[7, 88]),
   midi.ControlChangeEvent(tick=30, channel=5, data=[7, 89]),
   midi.ControlChangeEvent(tick=0, channel=5, data=[7, 96]),
   midi.ControlChangeEvent(tick=240, channel=5, data=[7, 89]),
   midi.ControlChangeEvent(tick=60, channel=5, data=[7, 89]),
   midi.NoteOnEvent(tick=29460, channel=5, data=[88, 79]),
   midi.NoteOnEvent(tick=0, channel=5, data=[91, 79]),
   midi.NoteOnEvent(tick=3515, channel=5, data=[91, 0]),
   midi.NoteOnEvent(tick=0, channel=5, data=[88, 0]),
   midi.NoteOnEvent(tick=4165, channel=5, data=[88, 79]),
   midi.NoteOnEvent(tick=0, channel=5, data=[91, 79]),
   midi.NoteOnEvent(tick=3515, channel=5, data=[91, 0]),
   midi.NoteOnEvent(tick=0, channel=5, data=[88, 0]),
   midi.NoteOnEvent(tick=4165, channel=5, data=[83, 79]),
   midi.NoteOnEvent(tick=0, channel=5, data=[79, 79]),
   midi.ControlChangeEvent(tick=1560, channel=5, data=[93, 64]),
   midi.ControlChangeEvent(tick=60, channel=5, data=[93, 64]),
   midi.NoteOnEvent(tick=1885, channel=5, data=[79, 0]),
   midi.NoteOnEvent(tick=10, channel=5, data=[83, 0]),
   midi.NoteOnEvent(tick=325, channel=5, data=[76, 79]),
   midi.NoteOnEvent(tick=0, channel=5, data=[71, 79]),
   midi.NoteOnEvent(tick=3505, channel=5, data=[71, 0]),
   midi.NoteOnEvent(tick=10, channel=5, data=[76, 0]),
   midi.NoteOnEvent(tick=1765, channel=5, data=[64, 79]),
   midi.NoteOnEvent(tick=120, channel=5, data=[64, 0]),
   midi.NoteOnEvent(tick=0, channel=5, data=[66, 79]),
   midi.NoteOnEvent(tick=520, channel=5, data=[66, 0]),
   midi.NoteOnEvent(tick=80, channel=5, data=[66, 79]),
   midi.NoteOnEvent(tick=315, channel=5, data=[66, 0]),
   midi.NoteOnEvent(tick=405, channel=5, data=[66, 79]),
   midi.NoteOnEvent(tick=120, channel=5, data=[66, 0]),
   midi.NoteOnEvent(tick=0, channel=5, data=[67, 79]),
   midi.NoteOnEvent(tick=520, channel=5, data=[67, 0]),
   midi.NoteOnEvent(tick=800, channel=5, data=[67, 79]),
   midi.NoteOnEvent(tick=120, channel=5, data=[67, 0]),
   midi.ControlChangeEvent(tick=0, channel=5, data=[1, 40]),
   midi.NoteOnEvent(tick=0, channel=5, data=[69, 79]),
   midi.ControlChangeEvent(tick=60, channel=5, data=[1, 41]),
   midi.ControlChangeEvent(tick=30, channel=5, data=[1, 42]),
   midi.ControlChangeEvent(tick=30, channel=5, data=[1, 43]),
   midi.ControlChangeEvent(tick=30, channel=5, data=[1, 44]),
   midi.ControlChangeEvent(tick=60, channel=5, data=[1, 45]),
   midi.ControlChangeEvent(tick=30, channel=5, data=[1, 46]),
   midi.ControlChangeEvent(tick=30, channel=5, data=[1, 47]),
   midi.ControlChangeEvent(tick=30, channel=5, data=[1, 48]),
   midi.ControlChangeEvent(tick=60, channel=5, data=[1, 49]),
   midi.ControlChangeEvent(tick=30, channel=5, data=[1, 50]),
   midi.ControlChangeEvent(tick=30, channel=5, data=[1, 51]),
   midi.ControlChangeEvent(tick=30, channel=5, data=[1, 52]),
   midi.ControlChangeEvent(tick=30, channel=5, data=[1, 53]),
   midi.NoteOnEvent(tick=35, channel=5, data=[69, 0]),
   midi.ControlChangeEvent(tick=25, channel=5, data=[1, 54]),
   midi.ControlChangeEvent(tick=30, channel=5, data=[1, 55]),
   midi.ControlChangeEvent(tick=30, channel=5, data=[1, 56]),
   midi.NoteOnEvent(tick=0, channel=5, data=[69, 79]),
   midi.ControlChangeEvent(tick=30, channel=5, data=[1, 57]),
   midi.ControlChangeEvent(tick=60, channel=5, data=[1, 58]),
   midi.ControlChangeEvent(tick=30, channel=5, data=[1, 59]),
   midi.ControlChangeEvent(tick=30, channel=5, data=[1, 60]),
   midi.ControlChangeEvent(tick=30, channel=5, data=[1, 61]),
   midi.ControlChangeEvent(tick=60, channel=5, data=[1, 62]),
   midi.NoteOnEvent(tick=235, channel=5, data=[69, 0]),
   midi.NoteOnEvent(tick=245, channel=5, data=[83, 79]),
   midi.NoteOnEvent(tick=1195, channel=5, data=[83, 0]),
   midi.NoteOnEvent(tick=245, channel=5, data=[79, 79]),
   midi.NoteOnEvent(tick=470, channel=5, data=[79, 0]),
   midi.NoteOnEvent(tick=250, channel=5, data=[81, 79]),
   midi.NoteOnEvent(tick=470, channel=5, data=[81, 0]),
   midi.NoteOnEvent(tick=250, channel=5, data=[76, 79]),
   midi.NoteOnEvent(tick=2635, channel=5, data=[76, 0]),
   midi.NoteOnEvent(tick=1685, channel=5, data=[64, 79]),
   midi.NoteOnEvent(tick=120, channel=5, data=[64, 0]),
   midi.NoteOnEvent(tick=0, channel=5, data=[66, 79]),
   midi.NoteOnEvent(tick=520, channel=5, data=[66, 0]),
   midi.NoteOnEvent(tick=80, channel=5, data=[66, 79]),
   midi.NoteOnEvent(tick=315, channel=5, data=[66, 0]),
   midi.NoteOnEvent(tick=405, channel=5, data=[66, 79]),
   midi.NoteOnEvent(tick=120, channel=5, data=[66, 0]),
   midi.NoteOnEvent(tick=0, channel=5, data=[67, 79]),
   midi.NoteOnEvent(tick=520, channel=5, data=[67, 0]),
   midi.NoteOnEvent(tick=800, channel=5, data=[67, 79]),
   midi.NoteOnEvent(tick=120, channel=5, data=[67, 0]),
   midi.NoteOnEvent(tick=0, channel=5, data=[69, 79]),
   midi.NoteOnEvent(tick=520, channel=5, data=[69, 0]),
   midi.NoteOnEvent(tick=80, channel=5, data=[69, 79]),
   midi.NoteOnEvent(tick=475, channel=5, data=[69, 0]),
   midi.NoteOnEvent(tick=245, channel=5, data=[83, 79]),
   midi.NoteOnEvent(tick=1195, channel=5, data=[83, 0]),
   midi.NoteOnEvent(tick=245, channel=5, data=[79, 79]),
   midi.NoteOnEvent(tick=475, channel=5, data=[79, 0]),
   midi.NoteOnEvent(tick=245, channel=5, data=[81, 79]),
   midi.NoteOnEvent(tick=475, channel=5, data=[81, 0]),
   midi.NoteOnEvent(tick=245, channel=5, data=[76, 79]),
   midi.NoteOnEvent(tick=2635, channel=5, data=[76, 0]),
   midi.NoteOnEvent(tick=7445, channel=5, data=[64, 79]),
   midi.NoteOnEvent(tick=120, channel=5, data=[64, 0]),
   midi.NoteOnEvent(tick=0, channel=5, data=[66, 79]),
   midi.NoteOnEvent(tick=520, channel=5, data=[66, 0]),
   midi.NoteOnEvent(tick=80, channel=5, data=[66, 79]),
   midi.NoteOnEvent(tick=315, channel=5, data=[66, 0]),
   midi.NoteOnEvent(tick=405, channel=5, data=[66, 79]),
   midi.NoteOnEvent(tick=120, channel=5, data=[66, 0]),
   midi.NoteOnEvent(tick=0, channel=5, data=[67, 79]),
   midi.NoteOnEvent(tick=520, channel=5, data=[67, 0]),
   midi.NoteOnEvent(tick=800, channel=5, data=[67, 79]),
   midi.NoteOnEvent(tick=120, channel=5, data=[67, 0]),
   midi.NoteOnEvent(tick=0, channel=5, data=[69, 79]),
   midi.NoteOnEvent(tick=520, channel=5, data=[69, 0]),
   midi.NoteOnEvent(tick=80, channel=5, data=[69, 79]),
   midi.NoteOnEvent(tick=475, channel=5, data=[69, 0]),
   midi.NoteOnEvent(tick=245, channel=5, data=[83, 79]),
   midi.NoteOnEvent(tick=1195, channel=5, data=[83, 0]),
   midi.NoteOnEvent(tick=245, channel=5, data=[79, 79]),
   midi.NoteOnEvent(tick=475, channel=5, data=[79, 0]),
   midi.NoteOnEvent(tick=245, channel=5, data=[81, 79]),
   midi.NoteOnEvent(tick=475, channel=5, data=[81, 0]),
   midi.NoteOnEvent(tick=245, channel=5, data=[76, 79]),
   midi.NoteOnEvent(tick=2635, channel=5, data=[76, 0]),
   midi.NoteOnEvent(tick=4085, channel=5, data=[76, 63]),
   midi.NoteOnEvent(tick=0, channel=5, data=[67, 63]),
   midi.NoteOnEvent(tick=0, channel=5, data=[71, 63]),
   midi.NoteOnEvent(tick=3515, channel=5, data=[71, 0]),
   midi.NoteOnEvent(tick=0, channel=5, data=[67, 0]),
   midi.NoteOnEvent(tick=0, channel=5, data=[76, 0]),
   midi.NoteOnEvent(tick=3925, channel=5, data=[83, 63]),
   midi.NoteOnEvent(tick=0, channel=5, data=[79, 63]),
   midi.NoteOnEvent(tick=0, channel=5, data=[76, 63]),
   midi.NoteOnEvent(tick=3515, channel=5, data=[76, 0]),
   midi.NoteOnEvent(tick=0, channel=5, data=[79, 0]),
   midi.NoteOnEvent(tick=0, channel=5, data=[83, 0]),
   midi.NoteOnEvent(tick=11845, channel=5, data=[76, 63]),
   midi.NoteOnEvent(tick=0, channel=5, data=[71, 63]),
   midi.NoteOnEvent(tick=0, channel=5, data=[67, 63]),
   midi.NoteOnEvent(tick=3515, channel=5, data=[67, 0]),
   midi.NoteOnEvent(tick=0, channel=5, data=[71, 0]),
   midi.NoteOnEvent(tick=0, channel=5, data=[76, 0]),
   midi.NoteOnEvent(tick=4165, channel=5, data=[83, 63]),
   midi.NoteOnEvent(tick=0, channel=5, data=[88, 63]),
   midi.NoteOnEvent(tick=0, channel=5, data=[91, 63]),
   midi.NoteOnEvent(tick=3515, channel=5, data=[91, 0]),
   midi.NoteOnEvent(tick=0, channel=5, data=[88, 0]),
   midi.NoteOnEvent(tick=0, channel=5, data=[83, 0]),
   midi.NoteOnEvent(tick=325, channel=5, data=[83, 79]),
   midi.ControlChangeEvent(tick=0, channel=5, data=[7, 89]),
   midi.ControlChangeEvent(tick=180, channel=5, data=[7, 88]),
   midi.ControlChangeEvent(tick=180, channel=5, data=[7, 87]),
   midi.ControlChangeEvent(tick=180, channel=5, data=[7, 86]),
   midi.ControlChangeEvent(tick=180, channel=5, data=[7, 85]),
   midi.ControlChangeEvent(tick=150, channel=5, data=[7, 84]),
   midi.ControlChangeEvent(tick=180, channel=5, data=[7, 83]),
   midi.ControlChangeEvent(tick=180, channel=5, data=[7, 82]),
   midi.ControlChangeEvent(tick=180, channel=5, data=[7, 81]),
   midi.ControlChangeEvent(tick=150, channel=5, data=[7, 80]),
   midi.NoteOnEvent(tick=35, channel=5, data=[83, 0]),
   midi.ControlChangeEvent(tick=145, channel=5, data=[7, 79]),
   midi.NoteOnEvent(tick=180, channel=5, data=[81, 79]),
   midi.ControlChangeEvent(tick=0, channel=5, data=[7, 78]),
   midi.ControlChangeEvent(tick=180, channel=5, data=[7, 77]),
   midi.ControlChangeEvent(tick=150, channel=5, data=[7, 76]),
   midi.ControlChangeEvent(tick=180, channel=5, data=[7, 75]),
   midi.ControlChangeEvent(tick=180, channel=5, data=[7, 74]),
   midi.ControlChangeEvent(tick=180, channel=5, data=[7, 73]),
   midi.ControlChangeEvent(tick=150, channel=5, data=[7, 72]),
   midi.ControlChangeEvent(tick=180, channel=5, data=[7, 71]),
   midi.NoteOnEvent(tick=75, channel=5, data=[81, 0]),
   midi.ControlChangeEvent(tick=105, channel=5, data=[7, 70]),
   midi.NoteOnEvent(tick=60, channel=5, data=[81, 79]),
   midi.ControlChangeEvent(tick=120, channel=5, data=[7, 69]),
   midi.NoteOnEvent(tick=40, channel=5, data=[81, 0]),
   midi.NoteOnEvent(tick=80, channel=5, data=[76, 79]),
   midi.ControlChangeEvent(tick=30, channel=5, data=[7, 68]),
   midi.NoteOnEvent(tick=130, channel=5, data=[76, 0]),
   midi.ControlChangeEvent(tick=50, channel=5, data=[7, 67]),
   midi.NoteOnEvent(tick=30, channel=5, data=[78, 79]),
   midi.ControlChangeEvent(tick=150, channel=5, data=[7, 66]),
   midi.ControlChangeEvent(tick=180, channel=5, data=[7, 65]),
   midi.ControlChangeEvent(tick=150, channel=5, data=[7, 64]),
   midi.ControlChangeEvent(tick=180, channel=5, data=[7, 63]),
   midi.ControlChangeEvent(tick=180, channel=5, data=[7, 62]),
   midi.ControlChangeEvent(tick=180, channel=5, data=[7, 61]),
   midi.ControlChangeEvent(tick=150, channel=5, data=[7, 60]),
   midi.ControlChangeEvent(tick=180, channel=5, data=[7, 59]),
   midi.ControlChangeEvent(tick=180, channel=5, data=[7, 58]),
   midi.NoteOnEvent(tick=65, channel=5, data=[78, 0]),
   midi.ControlChangeEvent(tick=115, channel=5, data=[7, 57]),
   midi.ControlChangeEvent(tick=150, channel=5, data=[7, 56]),
   midi.ControlChangeEvent(tick=180, channel=5, data=[7, 55]),
   midi.ControlChangeEvent(tick=180, channel=5, data=[7, 54]),
   midi.ControlChangeEvent(tick=180, channel=5, data=[7, 53]),
   midi.ControlChangeEvent(tick=150, channel=5, data=[7, 52]),
   midi.ControlChangeEvent(tick=180, channel=5, data=[7, 51]),
   midi.ControlChangeEvent(tick=180, channel=5, data=[7, 50]),
   midi.ControlChangeEvent(tick=180, channel=5, data=[7, 49]),
   midi.ControlChangeEvent(tick=150, channel=5, data=[7, 48]),
   midi.ControlChangeEvent(tick=180, channel=5, data=[7, 47]),
   midi.ControlChangeEvent(tick=180, channel=5, data=[7, 46]),
   midi.ControlChangeEvent(tick=180, channel=5, data=[7, 45]),
   midi.NoteOnEvent(tick=60, channel=5, data=[76, 79]),
   midi.ControlChangeEvent(tick=90, channel=5, data=[7, 44]),
   midi.ControlChangeEvent(tick=180, channel=5, data=[7, 43]),
   midi.ControlChangeEvent(tick=180, channel=5, data=[7, 42]),
   midi.NoteOnEvent(tick=30, channel=5, data=[76, 0]),
   midi.NoteOnEvent(tick=0, channel=5, data=[78, 79]),
   midi.ControlChangeEvent(tick=150, channel=5, data=[7, 41]),
   midi.ControlChangeEvent(tick=150, channel=5, data=[7, 40]),
   midi.ControlChangeEvent(tick=180, channel=5, data=[7, 39]),
   midi.ControlChangeEvent(tick=180, channel=5, data=[7, 38]),
   midi.ControlChangeEvent(tick=180, channel=5, data=[7, 37]),
   midi.ControlChangeEvent(tick=150, channel=5, data=[7, 36]),
   midi.NoteOnEvent(tick=125, channel=5, data=[78, 0]),
   midi.ControlChangeEvent(tick=55, channel=5, data=[7, 35]),
   midi.ControlChangeEvent(tick=180, channel=5, data=[7, 34]),
   midi.NoteOnEvent(tick=90, channel=5, data=[81, 79]),
   midi.ControlChangeEvent(tick=90, channel=5, data=[7, 33]),
   midi.ControlChangeEvent(tick=150, channel=5, data=[7, 32]),
   midi.ControlChangeEvent(tick=180, channel=5, data=[7, 31]),
   midi.ControlChangeEvent(tick=180, channel=5, data=[7, 30]),
   midi.ControlChangeEvent(tick=180, channel=5, data=[7, 29]),
   midi.ControlChangeEvent(tick=150, channel=5, data=[7, 28]),
   midi.ControlChangeEvent(tick=180, channel=5, data=[7, 27]),
   midi.NoteOnEvent(tick=90, channel=5, data=[81, 0]),
   midi.ControlChangeEvent(tick=90, channel=5, data=[7, 26]),
   midi.NoteOnEvent(tick=150, channel=5, data=[81, 79]),
   midi.ControlChangeEvent(tick=30, channel=5, data=[7, 25]),
   midi.NoteOnEvent(tick=130, channel=5, data=[81, 0]),
   midi.ControlChangeEvent(tick=20, channel=5, data=[7, 24]),
   midi.NoteOnEvent(tick=60, channel=5, data=[76, 79]),
   midi.ControlChangeEvent(tick=120, channel=5, data=[7, 23]),
   midi.NoteOnEvent(tick=40, channel=5, data=[76, 0]),
   midi.NoteOnEvent(tick=80, channel=5, data=[78, 79]),
   midi.ControlChangeEvent(tick=60, channel=5, data=[7, 22]),
   midi.ControlChangeEvent(tick=180, channel=5, data=[7, 21]),
   midi.ControlChangeEvent(tick=150, channel=5, data=[7, 20]),
   midi.ControlChangeEvent(tick=180, channel=5, data=[7, 19]),
   midi.ControlChangeEvent(tick=180, channel=5, data=[7, 18]),
   midi.ControlChangeEvent(tick=180, channel=5, data=[7, 17]),
   midi.ControlChangeEvent(tick=150, channel=5, data=[7, 16]),
   midi.ControlChangeEvent(tick=180, channel=5, data=[7, 15]),
   midi.ControlChangeEvent(tick=180, channel=5, data=[7, 14]),
   midi.NoteOnEvent(tick=155, channel=5, data=[78, 0]),
   midi.ControlChangeEvent(tick=25, channel=5, data=[7, 13]),
   midi.ControlChangeEvent(tick=150, channel=5, data=[7, 12]),
   midi.NoteOnEvent(tick=150, channel=5, data=[83, 79]),
   midi.NoteOnEvent(tick=0, channel=5, data=[79, 79]),
   midi.ControlChangeEvent(tick=30, channel=5, data=[7, 11]),
   midi.ControlChangeEvent(tick=180, channel=5, data=[7, 10]),
   midi.ControlChangeEvent(tick=180, channel=5, data=[7, 9]),
   midi.ControlChangeEvent(tick=150, channel=5, data=[7, 8]),
   midi.ControlChangeEvent(tick=180, channel=5, data=[7, 7]),
   midi.ControlChangeEvent(tick=180, channel=5, data=[7, 6]),
   midi.ControlChangeEvent(tick=180, channel=5, data=[7, 5]),
   midi.ControlChangeEvent(tick=150, channel=5, data=[7, 4]),
   midi.ControlChangeEvent(tick=180, channel=5, data=[7, 3]),
   midi.ControlChangeEvent(tick=180, channel=5, data=[7, 2]),
   midi.NoteOnEvent(tick=5, channel=5, data=[79, 0]),
   midi.NoteOnEvent(tick=0, channel=5, data=[83, 0]),
   midi.ControlChangeEvent(tick=175, channel=5, data=[7, 1]),
   midi.ControlChangeEvent(tick=30, channel=5, data=[7, 0]),
   midi.EndOfTrackEvent(tick=0, data=[])]),
 midi.Track(\
  [midi.PortEvent(tick=0, data=[0]),
   midi.TrackNameEvent(tick=0, text='Piano', data=[80, 105, 97, 110, 111]),
   midi.ProgramChangeEvent(tick=0, channel=6, data=[1]),
   midi.ControlChangeEvent(tick=0, channel=6, data=[7, 32]),
   midi.ControlChangeEvent(tick=482, channel=6, data=[0, 0]),
   midi.ControlChangeEvent(tick=5, channel=6, data=[32, 0]),
   midi.ControlChangeEvent(tick=10, channel=6, data=[1, 0]),
   midi.ControlChangeEvent(tick=10, channel=6, data=[10, 36]),
   midi.ControlChangeEvent(tick=5, channel=6, data=[11, 127]),
   midi.ControlChangeEvent(tick=5, channel=6, data=[64, 0]),
   midi.ControlChangeEvent(tick=5, channel=6, data=[91, 64]),
   midi.ControlChangeEvent(tick=5, channel=6, data=[93, 83]),
   midi.PitchWheelEvent(tick=5, channel=6, data=[0, 64]),
   midi.ControlChangeEvent(tick=668, channel=6, data=[93, 83]),
   midi.ControlChangeEvent(tick=0, channel=6, data=[7, 33]),
   midi.ControlChangeEvent(tick=0, channel=6, data=[91, 64]),
   midi.ControlChangeEvent(tick=210, channel=6, data=[7, 34]),
   midi.ControlChangeEvent(tick=210, channel=6, data=[7, 35]),
   midi.ControlChangeEvent(tick=210, channel=6, data=[7, 36]),
   midi.ControlChangeEvent(tick=210, channel=6, data=[7, 37]),
   midi.ControlChangeEvent(tick=210, channel=6, data=[7, 38]),
   midi.ControlChangeEvent(tick=240, channel=6, data=[7, 39]),
   midi.ControlChangeEvent(tick=210, channel=6, data=[7, 40]),
   midi.ControlChangeEvent(tick=210, channel=6, data=[7, 41]),
   midi.ControlChangeEvent(tick=210, channel=6, data=[7, 42]),
   midi.ControlChangeEvent(tick=210, channel=6, data=[7, 43]),
   midi.ControlChangeEvent(tick=210, channel=6, data=[7, 44]),
   midi.ControlChangeEvent(tick=240, channel=6, data=[7, 45]),
   midi.ControlChangeEvent(tick=210, channel=6, data=[7, 46]),
   midi.ControlChangeEvent(tick=210, channel=6, data=[7, 47]),
   midi.ControlChangeEvent(tick=210, channel=6, data=[7, 48]),
   midi.ControlChangeEvent(tick=210, channel=6, data=[7, 49]),
   midi.ControlChangeEvent(tick=210, channel=6, data=[7, 50]),
   midi.ControlChangeEvent(tick=210, channel=6, data=[7, 51]),
   midi.ControlChangeEvent(tick=240, channel=6, data=[7, 52]),
   midi.ControlChangeEvent(tick=210, channel=6, data=[7, 53]),
   midi.ControlChangeEvent(tick=210, channel=6, data=[7, 54]),
   midi.ControlChangeEvent(tick=210, channel=6, data=[7, 55]),
   midi.ControlChangeEvent(tick=210, channel=6, data=[7, 56]),
   midi.ControlChangeEvent(tick=210, channel=6, data=[7, 57]),
   midi.ControlChangeEvent(tick=240, channel=6, data=[7, 58]),
   midi.ControlChangeEvent(tick=210, channel=6, data=[7, 59]),
   midi.ControlChangeEvent(tick=210, channel=6, data=[7, 60]),
   midi.ControlChangeEvent(tick=210, channel=6, data=[7, 61]),
   midi.ControlChangeEvent(tick=210, channel=6, data=[7, 62]),
   midi.ControlChangeEvent(tick=210, channel=6, data=[7, 63]),
   midi.ControlChangeEvent(tick=240, channel=6, data=[7, 64]),
   midi.ControlChangeEvent(tick=210, channel=6, data=[7, 65]),
   midi.ControlChangeEvent(tick=210, channel=6, data=[7, 66]),
   midi.ControlChangeEvent(tick=210, channel=6, data=[7, 67]),
   midi.NoteOnEvent(tick=30, channel=6, data=[55, 95]),
   midi.NoteOnEvent(tick=40, channel=6, data=[55, 0]),
   midi.NoteOnEvent(tick=20, channel=6, data=[59, 95]),
   midi.NoteOnEvent(tick=40, channel=6, data=[59, 0]),
   midi.NoteOnEvent(tick=20, channel=6, data=[55, 79]),
   midi.NoteOnEvent(tick=10, channel=6, data=[64, 79]),
   midi.NoteOnEvent(tick=0, channel=6, data=[59, 79]),
   midi.ControlChangeEvent(tick=50, channel=6, data=[7, 68]),
   midi.ControlChangeEvent(tick=210, channel=6, data=[7, 69]),
   midi.ControlChangeEvent(tick=210, channel=6, data=[7, 70]),
   midi.ControlChangeEvent(tick=240, channel=6, data=[7, 71]),
   midi.ControlChangeEvent(tick=210, channel=6, data=[7, 72]),
   midi.ControlChangeEvent(tick=210, channel=6, data=[7, 73]),
   midi.ControlChangeEvent(tick=210, channel=6, data=[7, 74]),
   midi.ControlChangeEvent(tick=210, channel=6, data=[7, 75]),
   midi.ControlChangeEvent(tick=210, channel=6, data=[7, 76]),
   midi.ControlChangeEvent(tick=240, channel=6, data=[7, 77]),
   midi.ControlChangeEvent(tick=210, channel=6, data=[7, 78]),
   midi.ControlChangeEvent(tick=210, channel=6, data=[7, 79]),
   midi.NoteOnEvent(tick=125, channel=6, data=[59, 0]),
   midi.NoteOnEvent(tick=0, channel=6, data=[64, 0]),
   midi.NoteOnEvent(tick=0, channel=6, data=[55, 0]),
   midi.ControlChangeEvent(tick=85, channel=6, data=[7, 80]),
   midi.NoteOnEvent(tick=120, channel=6, data=[60, 79]),
   midi.NoteOnEvent(tick=60, channel=6, data=[60, 0]),
   midi.NoteOnEvent(tick=0, channel=6, data=[64, 79]),
   midi.ControlChangeEvent(tick=30, channel=6, data=[7, 81]),
   midi.NoteOnEvent(tick=30, channel=6, data=[64, 0]),
   midi.NoteOnEvent(tick=5, channel=6, data=[67, 79]),
   midi.NoteOnEvent(tick=5, channel=6, data=[64, 79]),
   midi.NoteOnEvent(tick=5, channel=6, data=[60, 79]),
   midi.ControlChangeEvent(tick=165, channel=6, data=[7, 82]),
   midi.ControlChangeEvent(tick=240, channel=6, data=[7, 83]),
   midi.ControlChangeEvent(tick=210, channel=6, data=[7, 84]),
   midi.ControlChangeEvent(tick=210, channel=6, data=[7, 85]),
   midi.ControlChangeEvent(tick=210, channel=6, data=[7, 86]),
   midi.ControlChangeEvent(tick=210, channel=6, data=[7, 87]),
   midi.ControlChangeEvent(tick=210, channel=6, data=[7, 88]),
   midi.ControlChangeEvent(tick=210, channel=6, data=[7, 89]),
   midi.ControlChangeEvent(tick=240, channel=6, data=[7, 90]),
   midi.ControlChangeEvent(tick=210, channel=6, data=[7, 91]),
   midi.ControlChangeEvent(tick=210, channel=6, data=[7, 92]),
   midi.ControlChangeEvent(tick=210, channel=6, data=[7, 93]),
   midi.NoteOnEvent(tick=5, channel=6, data=[60, 0]),
   midi.NoteOnEvent(tick=0, channel=6, data=[64, 0]),
   midi.NoteOnEvent(tick=0, channel=6, data=[67, 0]),
   midi.ControlChangeEvent(tick=205, channel=6, data=[7, 94]),
   midi.NoteOnEvent(tick=0, channel=6, data=[55, 79]),
   midi.NoteOnEvent(tick=60, channel=6, data=[55, 0]),
   midi.NoteOnEvent(tick=0, channel=6, data=[59, 79]),
   midi.NoteOnEvent(tick=60, channel=6, data=[59, 0]),
   midi.NoteOnEvent(tick=0, channel=6, data=[64, 79]),
   midi.NoteOnEvent(tick=0, channel=6, data=[55, 79]),
   midi.NoteOnEvent(tick=0, channel=6, data=[59, 79]),
   midi.ControlChangeEvent(tick=90, channel=6, data=[7, 95]),
   midi.ControlChangeEvent(tick=240, channel=6, data=[7, 96]),
   midi.ControlChangeEvent(tick=210, channel=6, data=[7, 97]),
   midi.ControlChangeEvent(tick=210, channel=6, data=[7, 98]),
   midi.ControlChangeEvent(tick=210, channel=6, data=[7, 99]),
   midi.ControlChangeEvent(tick=210, channel=6, data=[7, 100]),
   midi.ControlChangeEvent(tick=210, channel=6, data=[7, 101]),
   midi.ControlChangeEvent(tick=240, channel=6, data=[7, 102]),
   midi.ControlChangeEvent(tick=210, channel=6, data=[7, 103]),
   midi.ControlChangeEvent(tick=210, channel=6, data=[7, 104]),
   midi.ControlChangeEvent(tick=210, channel=6, data=[7, 105]),
   midi.ControlChangeEvent(tick=210, channel=6, data=[7, 106]),
   midi.NoteOnEvent(tick=95, channel=6, data=[59, 0]),
   midi.NoteOnEvent(tick=0, channel=6, data=[55, 0]),
   midi.NoteOnEvent(tick=0, channel=6, data=[64, 0]),
   midi.ControlChangeEvent(tick=115, channel=6, data=[7, 107]),
   midi.ControlChangeEvent(tick=30, channel=6, data=[7, 108]),
   midi.NoteOnEvent(tick=60, channel=6, data=[55, 79]),
   midi.NoteOnEvent(tick=60, channel=6, data=[55, 0]),
   midi.NoteOnEvent(tick=0, channel=6, data=[59, 79]),
   midi.NoteOnEvent(tick=60, channel=6, data=[59, 0]),
   midi.NoteOnEvent(tick=0, channel=6, data=[64, 79]),
   midi.NoteOnEvent(tick=0, channel=6, data=[55, 79]),
   midi.NoteOnEvent(tick=0, channel=6, data=[59, 79]),
   midi.NoteOnEvent(tick=1595, channel=6, data=[59, 0]),
   midi.NoteOnEvent(tick=0, channel=6, data=[55, 0]),
   midi.NoteOnEvent(tick=0, channel=6, data=[64, 0]),
   midi.NoteOnEvent(tick=325, channel=6, data=[67, 79]),
   midi.NoteOnEvent(tick=0, channel=6, data=[59, 79]),
   midi.NoteOnEvent(tick=0, channel=6, data=[64, 79]),
   midi.NoteOnEvent(tick=1595, channel=6, data=[64, 0]),
   midi.NoteOnEvent(tick=0, channel=6, data=[59, 0]),
   midi.NoteOnEvent(tick=0, channel=6, data=[67, 0]),
   midi.NoteOnEvent(tick=325, channel=6, data=[64, 79]),
   midi.NoteOnEvent(tick=0, channel=6, data=[55, 79]),
   midi.NoteOnEvent(tick=0, channel=6, data=[59, 79]),
   midi.NoteOnEvent(tick=3515, channel=6, data=[59, 0]),
   midi.NoteOnEvent(tick=0, channel=6, data=[55, 0]),
   midi.NoteOnEvent(tick=0, channel=6, data=[64, 0]),
   midi.NoteOnEvent(tick=325, channel=6, data=[67, 79]),
   midi.NoteOnEvent(tick=0, channel=6, data=[59, 79]),
   midi.NoteOnEvent(tick=0, channel=6, data=[64, 79]),
   midi.NoteOnEvent(tick=1595, channel=6, data=[64, 0]),
   midi.NoteOnEvent(tick=0, channel=6, data=[59, 0]),
   midi.NoteOnEvent(tick=0, channel=6, data=[67, 0]),
   midi.NoteOnEvent(tick=325, channel=6, data=[69, 79]),
   midi.NoteOnEvent(tick=0, channel=6, data=[60, 79]),
   midi.NoteOnEvent(tick=0, channel=6, data=[64, 79]),
   midi.NoteOnEvent(tick=1435, channel=6, data=[64, 0]),
   midi.NoteOnEvent(tick=0, channel=6, data=[60, 0]),
   midi.NoteOnEvent(tick=0, channel=6, data=[69, 0]),
   midi.NoteOnEvent(tick=245, channel=6, data=[71, 79]),
   midi.NoteOnEvent(tick=0, channel=6, data=[64, 79]),
   midi.NoteOnEvent(tick=0, channel=6, data=[67, 79]),
   midi.NoteOnEvent(tick=3515, channel=6, data=[67, 0]),
   midi.NoteOnEvent(tick=0, channel=6, data=[64, 0]),
   midi.NoteOnEvent(tick=0, channel=6, data=[71, 0]),
   midi.NoteOnEvent(tick=325, channel=6, data=[71, 79]),
   midi.NoteOnEvent(tick=0, channel=6, data=[60, 79]),
   midi.NoteOnEvent(tick=0, channel=6, data=[64, 79]),
   midi.NoteOnEvent(tick=0, channel=6, data=[67, 79]),
   midi.NoteOnEvent(tick=1595, channel=6, data=[67, 0]),
   midi.NoteOnEvent(tick=0, channel=6, data=[71, 0]),
   midi.NoteOnEvent(tick=0, channel=6, data=[60, 0]),
   midi.NoteOnEvent(tick=0, channel=6, data=[64, 0]),
   midi.NoteOnEvent(tick=325, channel=6, data=[88, 79]),
   midi.NoteOnEvent(tick=0, channel=6, data=[76, 79]),
   midi.NoteOnEvent(tick=0, channel=6, data=[79, 79]),
   midi.NoteOnEvent(tick=0, channel=6, data=[83, 79]),
   midi.NoteOnEvent(tick=1595, channel=6, data=[83, 0]),
   midi.NoteOnEvent(tick=0, channel=6, data=[88, 0]),
   midi.NoteOnEvent(tick=0, channel=6, data=[76, 0]),
   midi.NoteOnEvent(tick=0, channel=6, data=[79, 0]),
   midi.NoteOnEvent(tick=325, channel=6, data=[64, 79]),
   midi.NoteOnEvent(tick=0, channel=6, data=[55, 79]),
   midi.NoteOnEvent(tick=0, channel=6, data=[59, 79]),
   midi.NoteOnEvent(tick=1595, channel=6, data=[59, 0]),
   midi.NoteOnEvent(tick=0, channel=6, data=[55, 0]),
   midi.NoteOnEvent(tick=0, channel=6, data=[64, 0]),
   midi.NoteOnEvent(tick=325, channel=6, data=[78, 79]),
   midi.NoteOnEvent(tick=0, channel=6, data=[67, 79]),
   midi.NoteOnEvent(tick=0, channel=6, data=[71, 79]),
   midi.NoteOnEvent(tick=0, channel=6, data=[74, 79]),
   midi.NoteOnEvent(tick=1595, channel=6, data=[74, 0]),
   midi.NoteOnEvent(tick=0, channel=6, data=[78, 0]),
   midi.NoteOnEvent(tick=0, channel=6, data=[67, 0]),
   midi.NoteOnEvent(tick=0, channel=6, data=[71, 0]),
   midi.NoteOnEvent(tick=325, channel=6, data=[71, 79]),
   midi.NoteOnEvent(tick=0, channel=6, data=[60, 79]),
   midi.NoteOnEvent(tick=0, channel=6, data=[64, 79]),
   midi.NoteOnEvent(tick=0, channel=6, data=[67, 79]),
   midi.NoteOnEvent(tick=1595, channel=6, data=[67, 0]),
   midi.NoteOnEvent(tick=0, channel=6, data=[71, 0]),
   midi.NoteOnEvent(tick=0, channel=6, data=[60, 0]),
   midi.NoteOnEvent(tick=0, channel=6, data=[64, 0]),
   midi.NoteOnEvent(tick=325, channel=6, data=[88, 79]),
   midi.NoteOnEvent(tick=0, channel=6, data=[76, 79]),
   midi.NoteOnEvent(tick=0, channel=6, data=[79, 79]),
   midi.NoteOnEvent(tick=0, channel=6, data=[83, 79]),
   midi.NoteOnEvent(tick=1595, channel=6, data=[83, 0]),
   midi.NoteOnEvent(tick=0, channel=6, data=[88, 0]),
   midi.NoteOnEvent(tick=0, channel=6, data=[76, 0]),
   midi.NoteOnEvent(tick=0, channel=6, data=[79, 0]),
   midi.NoteOnEvent(tick=325, channel=6, data=[64, 79]),
   midi.NoteOnEvent(tick=0, channel=6, data=[55, 79]),
   midi.NoteOnEvent(tick=0, channel=6, data=[59, 79]),
   midi.NoteOnEvent(tick=2555, channel=6, data=[59, 0]),
   midi.NoteOnEvent(tick=0, channel=6, data=[55, 0]),
   midi.NoteOnEvent(tick=0, channel=6, data=[64, 0]),
   midi.NoteOnEvent(tick=325, channel=6, data=[83, 79]),
   midi.NoteOnEvent(tick=0, channel=6, data=[76, 79]),
   midi.NoteOnEvent(tick=0, channel=6, data=[79, 79]),
   midi.NoteOnEvent(tick=3515, channel=6, data=[79, 0]),
   midi.NoteOnEvent(tick=0, channel=6, data=[76, 0]),
   midi.NoteOnEvent(tick=0, channel=6, data=[83, 0]),
   midi.NoteOnEvent(tick=85, channel=6, data=[59, 79]),
   midi.NoteOnEvent(tick=60, channel=6, data=[59, 0]),
   midi.NoteOnEvent(tick=60, channel=6, data=[64, 79]),
   midi.NoteOnEvent(tick=60, channel=6, data=[64, 0]),
   midi.NoteOnEvent(tick=60, channel=6, data=[64, 79]),
   midi.NoteOnEvent(tick=0, channel=6, data=[59, 79]),
   midi.NoteOnEvent(tick=0, channel=6, data=[67, 79]),
   midi.NoteOnEvent(tick=475, channel=6, data=[67, 0]),
   midi.NoteOnEvent(tick=0, channel=6, data=[59, 0]),
   midi.NoteOnEvent(tick=0, channel=6, data=[64, 0]),
   midi.NoteOnEvent(tick=245, channel=6, data=[64, 79]),
   midi.NoteOnEvent(tick=0, channel=6, data=[59, 79]),
   midi.NoteOnEvent(tick=0, channel=6, data=[67, 79]),
   midi.NoteOnEvent(tick=80, channel=6, data=[67, 0]),
   midi.NoteOnEvent(tick=0, channel=6, data=[59, 0]),
   midi.NoteOnEvent(tick=0, channel=6, data=[64, 0]),
   midi.NoteOnEvent(tick=40, channel=6, data=[64, 79]),
   midi.NoteOnEvent(tick=0, channel=6, data=[59, 79]),
   midi.NoteOnEvent(tick=0, channel=6, data=[67, 79]),
   midi.NoteOnEvent(tick=80, channel=6, data=[67, 0]),
   midi.NoteOnEvent(tick=0, channel=6, data=[59, 0]),
   midi.NoteOnEvent(tick=0, channel=6, data=[64, 0]),
   midi.NoteOnEvent(tick=40, channel=6, data=[67, 79]),
   midi.NoteOnEvent(tick=0, channel=6, data=[64, 79]),
   midi.NoteOnEvent(tick=0, channel=6, data=[60, 79]),
   midi.NoteOnEvent(tick=0, channel=6, data=[71, 79]),
   midi.NoteOnEvent(tick=475, channel=6, data=[71, 0]),
   midi.NoteOnEvent(tick=0, channel=6, data=[67, 0]),
   midi.NoteOnEvent(tick=0, channel=6, data=[64, 0]),
   midi.NoteOnEvent(tick=0, channel=6, data=[60, 0]),
   midi.NoteOnEvent(tick=245, channel=6, data=[67, 79]),
   midi.NoteOnEvent(tick=0, channel=6, data=[64, 79]),
   midi.NoteOnEvent(tick=0, channel=6, data=[60, 79]),
   midi.NoteOnEvent(tick=0, channel=6, data=[71, 79]),
   midi.NoteOnEvent(tick=80, channel=6, data=[71, 0]),
   midi.NoteOnEvent(tick=0, channel=6, data=[67, 0]),
   midi.NoteOnEvent(tick=0, channel=6, data=[64, 0]),
   midi.NoteOnEvent(tick=0, channel=6, data=[60, 0]),
   midi.NoteOnEvent(tick=40, channel=6, data=[67, 79]),
   midi.NoteOnEvent(tick=0, channel=6, data=[64, 79]),
   midi.NoteOnEvent(tick=0, channel=6, data=[60, 79]),
   midi.NoteOnEvent(tick=0, channel=6, data=[71, 79]),
   midi.NoteOnEvent(tick=80, channel=6, data=[71, 0]),
   midi.NoteOnEvent(tick=0, channel=6, data=[67, 0]),
   midi.NoteOnEvent(tick=0, channel=6, data=[64, 0]),
   midi.NoteOnEvent(tick=0, channel=6, data=[60, 0]),
   midi.NoteOnEvent(tick=40, channel=6, data=[71, 79]),
   midi.NoteOnEvent(tick=0, channel=6, data=[67, 79]),
   midi.NoteOnEvent(tick=0, channel=6, data=[76, 79]),
   midi.NoteOnEvent(tick=475, channel=6, data=[76, 0]),
   midi.NoteOnEvent(tick=0, channel=6, data=[67, 0]),
   midi.NoteOnEvent(tick=0, channel=6, data=[71, 0]),
   midi.NoteOnEvent(tick=245, channel=6, data=[71, 79]),
   midi.NoteOnEvent(tick=0, channel=6, data=[67, 79]),
   midi.NoteOnEvent(tick=0, channel=6, data=[76, 79]),
   midi.NoteOnEvent(tick=80, channel=6, data=[76, 0]),
   midi.NoteOnEvent(tick=0, channel=6, data=[67, 0]),
   midi.NoteOnEvent(tick=0, channel=6, data=[71, 0]),
   midi.NoteOnEvent(tick=40, channel=6, data=[71, 79]),
   midi.NoteOnEvent(tick=0, channel=6, data=[67, 79]),
   midi.NoteOnEvent(tick=0, channel=6, data=[76, 79]),
   midi.NoteOnEvent(tick=80, channel=6, data=[76, 0]),
   midi.NoteOnEvent(tick=0, channel=6, data=[67, 0]),
   midi.NoteOnEvent(tick=0, channel=6, data=[71, 0]),
   midi.NoteOnEvent(tick=40, channel=6, data=[76, 79]),
   midi.NoteOnEvent(tick=0, channel=6, data=[71, 79]),
   midi.NoteOnEvent(tick=0, channel=6, data=[79, 79]),
   midi.NoteOnEvent(tick=635, channel=6, data=[79, 0]),
   midi.NoteOnEvent(tick=0, channel=6, data=[71, 0]),
   midi.NoteOnEvent(tick=0, channel=6, data=[76, 0]),
   midi.NoteOnEvent(tick=325, channel=6, data=[83, 79]),
   midi.NoteOnEvent(tick=0, channel=6, data=[76, 79]),
   midi.NoteOnEvent(tick=0, channel=6, data=[79, 79]),
   midi.NoteOnEvent(tick=3515, channel=6, data=[79, 0]),
   midi.NoteOnEvent(tick=0, channel=6, data=[76, 0]),
   midi.NoteOnEvent(tick=0, channel=6, data=[83, 0]),
   midi.NoteOnEvent(tick=325, channel=6, data=[59, 79]),
   midi.NoteOnEvent(tick=0, channel=6, data=[55, 79]),
   midi.NoteOnEvent(tick=0, channel=6, data=[64, 79]),
   midi.NoteOnEvent(tick=310, channel=6, data=[55, 0]),
   midi.NoteOnEvent(tick=0, channel=6, data=[59, 0]),
   midi.NoteOnEvent(tick=5, channel=6, data=[64, 0]),
   midi.NoteOnEvent(tick=165, channel=6, data=[59, 79]),
   midi.NoteOnEvent(tick=0, channel=6, data=[55, 79]),
   midi.NoteOnEvent(tick=0, channel=6, data=[64, 79]),
   midi.NoteOnEvent(tick=310, channel=6, data=[55, 0]),
   midi.NoteOnEvent(tick=0, channel=6, data=[59, 0]),
   midi.NoteOnEvent(tick=5, channel=6, data=[64, 0]),
   midi.NoteOnEvent(tick=165, channel=6, data=[59, 79]),
   midi.NoteOnEvent(tick=0, channel=6, data=[55, 79]),
   midi.NoteOnEvent(tick=0, channel=6, data=[64, 79]),
   midi.NoteOnEvent(tick=310, channel=6, data=[64, 0]),
   midi.NoteOnEvent(tick=0, channel=6, data=[55, 0]),
   midi.NoteOnEvent(tick=0, channel=6, data=[59, 0]),
   midi.NoteOnEvent(tick=170, channel=6, data=[59, 79]),
   midi.NoteOnEvent(tick=0, channel=6, data=[55, 79]),
   midi.NoteOnEvent(tick=0, channel=6, data=[64, 79]),
   midi.NoteOnEvent(tick=80, channel=6, data=[64, 0]),
   midi.NoteOnEvent(tick=0, channel=6, data=[55, 0]),
   midi.NoteOnEvent(tick=0, channel=6, data=[59, 0]),
   midi.NoteOnEvent(tick=40, channel=6, data=[59, 79]),
   midi.NoteOnEvent(tick=0, channel=6, data=[55, 79]),
   midi.NoteOnEvent(tick=0, channel=6, data=[64, 79]),
   midi.NoteOnEvent(tick=280, channel=6, data=[64, 0]),
   midi.NoteOnEvent(tick=0, channel=6, data=[55, 0]),
   midi.NoteOnEvent(tick=0, channel=6, data=[59, 0]),
   midi.NoteOnEvent(tick=80, channel=6, data=[55, 79]),
   midi.NoteOnEvent(tick=0, channel=6, data=[59, 79]),
   midi.NoteOnEvent(tick=0, channel=6, data=[64, 79]),
   midi.NoteOnEvent(tick=315, channel=6, data=[64, 0]),
   midi.NoteOnEvent(tick=0, channel=6, data=[59, 0]),
   midi.NoteOnEvent(tick=0, channel=6, data=[55, 0]),
   midi.NoteOnEvent(tick=165, channel=6, data=[55, 79]),
   midi.NoteOnEvent(tick=0, channel=6, data=[59, 79]),
   midi.NoteOnEvent(tick=0, channel=6, data=[64, 79]),
   midi.NoteOnEvent(tick=310, channel=6, data=[64, 0]),
   midi.NoteOnEvent(tick=0, channel=6, data=[59, 0]),
   midi.NoteOnEvent(tick=0, channel=6, data=[55, 0]),
   midi.NoteOnEvent(tick=170, channel=6, data=[59, 79]),
   midi.NoteOnEvent(tick=0, channel=6, data=[55, 79]),
   midi.NoteOnEvent(tick=0, channel=6, data=[64, 79]),
   midi.NoteOnEvent(tick=310, channel=6, data=[64, 0]),
   midi.NoteOnEvent(tick=0, channel=6, data=[55, 0]),
   midi.NoteOnEvent(tick=0, channel=6, data=[59, 0]),
   midi.NoteOnEvent(tick=170, channel=6, data=[59, 79]),
   midi.NoteOnEvent(tick=0, channel=6, data=[55, 79]),
   midi.NoteOnEvent(tick=0, channel=6, data=[64, 79]),
   midi.NoteOnEvent(tick=75, channel=6, data=[64, 0]),
   midi.NoteOnEvent(tick=0, channel=6, data=[55, 0]),
   midi.NoteOnEvent(tick=0, channel=6, data=[59, 0]),
   midi.NoteOnEvent(tick=45, channel=6, data=[59, 79]),
   midi.NoteOnEvent(tick=0, channel=6, data=[55, 79]),
   midi.NoteOnEvent(tick=0, channel=6, data=[64, 79]),
   midi.NoteOnEvent(tick=280, channel=6, data=[64, 0]),
   midi.NoteOnEvent(tick=0, channel=6, data=[55, 0]),
   midi.NoteOnEvent(tick=0, channel=6, data=[59, 0]),
   midi.NoteOnEvent(tick=80, channel=6, data=[76, 79]),
   midi.NoteOnEvent(tick=0, channel=6, data=[71, 79]),
   midi.NoteOnEvent(tick=0, channel=6, data=[79, 79]),
   midi.NoteOnEvent(tick=315, channel=6, data=[79, 0]),
   midi.NoteOnEvent(tick=0, channel=6, data=[71, 0]),
   midi.NoteOnEvent(tick=0, channel=6, data=[76, 0]),
   midi.NoteOnEvent(tick=165, channel=6, data=[76, 79]),
   midi.NoteOnEvent(tick=0, channel=6, data=[71, 79]),
   midi.NoteOnEvent(tick=0, channel=6, data=[79, 79]),
   midi.NoteOnEvent(tick=315, channel=6, data=[79, 0]),
   midi.NoteOnEvent(tick=0, channel=6, data=[71, 0]),
   midi.NoteOnEvent(tick=0, channel=6, data=[76, 0]),
   midi.NoteOnEvent(tick=165, channel=6, data=[79, 79]),
   midi.NoteOnEvent(tick=0, channel=6, data=[76, 79]),
   midi.NoteOnEvent(tick=0, channel=6, data=[71, 79]),
   midi.NoteOnEvent(tick=315, channel=6, data=[71, 0]),
   midi.NoteOnEvent(tick=0, channel=6, data=[76, 0]),
   midi.NoteOnEvent(tick=0, channel=6, data=[79, 0]),
   midi.NoteOnEvent(tick=165, channel=6, data=[71, 79]),
   midi.NoteOnEvent(tick=0, channel=6, data=[76, 79]),
   midi.NoteOnEvent(tick=0, channel=6, data=[79, 79]),
   midi.NoteOnEvent(tick=80, channel=6, data=[79, 0]),
   midi.NoteOnEvent(tick=0, channel=6, data=[76, 0]),
   midi.NoteOnEvent(tick=0, channel=6, data=[71, 0]),
   midi.NoteOnEvent(tick=40, channel=6, data=[76, 79]),
   midi.NoteOnEvent(tick=0, channel=6, data=[71, 79]),
   midi.NoteOnEvent(tick=0, channel=6, data=[79, 79]),
   midi.NoteOnEvent(tick=280, channel=6, data=[79, 0]),
   midi.NoteOnEvent(tick=0, channel=6, data=[71, 0]),
   midi.NoteOnEvent(tick=0, channel=6, data=[76, 0]),
   midi.NoteOnEvent(tick=80, channel=6, data=[79, 79]),
   midi.NoteOnEvent(tick=0, channel=6, data=[76, 79]),
   midi.NoteOnEvent(tick=0, channel=6, data=[71, 79]),
   midi.NoteOnEvent(tick=315, channel=6, data=[71, 0]),
   midi.NoteOnEvent(tick=0, channel=6, data=[76, 0]),
   midi.NoteOnEvent(tick=0, channel=6, data=[79, 0]),
   midi.NoteOnEvent(tick=165, channel=6, data=[76, 79]),
   midi.NoteOnEvent(tick=0, channel=6, data=[71, 79]),
   midi.NoteOnEvent(tick=0, channel=6, data=[79, 79]),
   midi.NoteOnEvent(tick=315, channel=6, data=[79, 0]),
   midi.NoteOnEvent(tick=0, channel=6, data=[71, 0]),
   midi.NoteOnEvent(tick=0, channel=6, data=[76, 0]),
   midi.NoteOnEvent(tick=165, channel=6, data=[79, 79]),
   midi.NoteOnEvent(tick=0, channel=6, data=[76, 79]),
   midi.NoteOnEvent(tick=0, channel=6, data=[71, 79]),
   midi.NoteOnEvent(tick=315, channel=6, data=[71, 0]),
   midi.NoteOnEvent(tick=0, channel=6, data=[76, 0]),
   midi.NoteOnEvent(tick=0, channel=6, data=[79, 0]),
   midi.NoteOnEvent(tick=165, channel=6, data=[71, 79]),
   midi.NoteOnEvent(tick=0, channel=6, data=[76, 79]),
   midi.NoteOnEvent(tick=0, channel=6, data=[79, 79]),
   midi.NoteOnEvent(tick=80, channel=6, data=[79, 0]),
   midi.NoteOnEvent(tick=0, channel=6, data=[76, 0]),
   midi.NoteOnEvent(tick=0, channel=6, data=[71, 0]),
   midi.NoteOnEvent(tick=40, channel=6, data=[76, 79]),
   midi.NoteOnEvent(tick=0, channel=6, data=[71, 79]),
   midi.NoteOnEvent(tick=0, channel=6, data=[79, 79]),
   midi.NoteOnEvent(tick=280, channel=6, data=[79, 0]),
   midi.NoteOnEvent(tick=0, channel=6, data=[71, 0]),
   midi.NoteOnEvent(tick=0, channel=6, data=[76, 0]),
   midi.NoteOnEvent(tick=80, channel=6, data=[71, 79]),
   midi.NoteOnEvent(tick=0, channel=6, data=[64, 79]),
   midi.NoteOnEvent(tick=0, channel=6, data=[67, 79]),
   midi.NoteOnEvent(tick=315, channel=6, data=[67, 0]),
   midi.NoteOnEvent(tick=0, channel=6, data=[64, 0]),
   midi.NoteOnEvent(tick=0, channel=6, data=[71, 0]),
   midi.NoteOnEvent(tick=165, channel=6, data=[67, 79]),
   midi.NoteOnEvent(tick=0, channel=6, data=[64, 79]),
   midi.NoteOnEvent(tick=0, channel=6, data=[71, 79]),
   midi.NoteOnEvent(tick=315, channel=6, data=[71, 0]),
   midi.NoteOnEvent(tick=0, channel=6, data=[64, 0]),
   midi.NoteOnEvent(tick=0, channel=6, data=[67, 0]),
   midi.NoteOnEvent(tick=165, channel=6, data=[71, 79]),
   midi.NoteOnEvent(tick=0, channel=6, data=[67, 79]),
   midi.NoteOnEvent(tick=0, channel=6, data=[64, 79]),
   midi.NoteOnEvent(tick=310, channel=6, data=[64, 0]),
   midi.NoteOnEvent(tick=0, channel=6, data=[67, 0]),
   midi.NoteOnEvent(tick=0, channel=6, data=[71, 0]),
   midi.NoteOnEvent(tick=170, channel=6, data=[67, 79]),
   midi.NoteOnEvent(tick=0, channel=6, data=[64, 79]),
   midi.NoteOnEvent(tick=0, channel=6, data=[71, 79]),
   midi.NoteOnEvent(tick=80, channel=6, data=[71, 0]),
   midi.NoteOnEvent(tick=0, channel=6, data=[64, 0]),
   midi.NoteOnEvent(tick=0, channel=6, data=[67, 0]),
   midi.NoteOnEvent(tick=40, channel=6, data=[67, 79]),
   midi.NoteOnEvent(tick=0, channel=6, data=[64, 79]),
   midi.NoteOnEvent(tick=0, channel=6, data=[71, 79]),
   midi.NoteOnEvent(tick=280, channel=6, data=[71, 0]),
   midi.NoteOnEvent(tick=0, channel=6, data=[64, 0]),
   midi.NoteOnEvent(tick=0, channel=6, data=[67, 0]),
   midi.NoteOnEvent(tick=80, channel=6, data=[71, 79]),
   midi.NoteOnEvent(tick=0, channel=6, data=[67, 79]),
   midi.NoteOnEvent(tick=0, channel=6, data=[64, 79]),
   midi.NoteOnEvent(tick=315, channel=6, data=[64, 0]),
   midi.NoteOnEvent(tick=0, channel=6, data=[67, 0]),
   midi.NoteOnEvent(tick=0, channel=6, data=[71, 0]),
   midi.NoteOnEvent(tick=165, channel=6, data=[67, 79]),
   midi.NoteOnEvent(tick=0, channel=6, data=[64, 79]),
   midi.NoteOnEvent(tick=0, channel=6, data=[71, 79]),
   midi.NoteOnEvent(tick=315, channel=6, data=[71, 0]),
   midi.NoteOnEvent(tick=0, channel=6, data=[64, 0]),
   midi.NoteOnEvent(tick=0, channel=6, data=[67, 0]),
   midi.NoteOnEvent(tick=165, channel=6, data=[71, 79]),
   midi.NoteOnEvent(tick=0, channel=6, data=[67, 79]),
   midi.NoteOnEvent(tick=0, channel=6, data=[64, 79]),
   midi.NoteOnEvent(tick=315, channel=6, data=[64, 0]),
   midi.NoteOnEvent(tick=0, channel=6, data=[67, 0]),
   midi.NoteOnEvent(tick=0, channel=6, data=[71, 0]),
   midi.NoteOnEvent(tick=165, channel=6, data=[67, 79]),
   midi.NoteOnEvent(tick=0, channel=6, data=[64, 79]),
   midi.NoteOnEvent(tick=0, channel=6, data=[71, 79]),
   midi.NoteOnEvent(tick=80, channel=6, data=[71, 0]),
   midi.NoteOnEvent(tick=0, channel=6, data=[64, 0]),
   midi.NoteOnEvent(tick=0, channel=6, data=[67, 0]),
   midi.NoteOnEvent(tick=40, channel=6, data=[67, 79]),
   midi.NoteOnEvent(tick=0, channel=6, data=[64, 79]),
   midi.NoteOnEvent(tick=0, channel=6, data=[71, 79]),
   midi.NoteOnEvent(tick=280, channel=6, data=[71, 0]),
   midi.NoteOnEvent(tick=0, channel=6, data=[64, 0]),
   midi.NoteOnEvent(tick=0, channel=6, data=[67, 0]),
   midi.NoteOnEvent(tick=80, channel=6, data=[59, 79]),
   midi.NoteOnEvent(tick=0, channel=6, data=[55, 79]),
   midi.NoteOnEvent(tick=0, channel=6, data=[64, 79]),
   midi.NoteOnEvent(tick=475, channel=6, data=[64, 0]),
   midi.NoteOnEvent(tick=0, channel=6, data=[55, 0]),
   midi.NoteOnEvent(tick=0, channel=6, data=[59, 0]),
   midi.NoteOnEvent(tick=245, channel=6, data=[59, 79]),
   midi.NoteOnEvent(tick=0, channel=6, data=[55, 79]),
   midi.NoteOnEvent(tick=0, channel=6, data=[64, 79]),
   midi.NoteOnEvent(tick=475, channel=6, data=[64, 0]),
   midi.NoteOnEvent(tick=0, channel=6, data=[55, 0]),
   midi.NoteOnEvent(tick=0, channel=6, data=[59, 0]),
   midi.NoteOnEvent(tick=245, channel=6, data=[55, 79]),
   midi.NoteOnEvent(tick=0, channel=6, data=[59, 79]),
   midi.NoteOnEvent(tick=475, channel=6, data=[59, 0]),
   midi.NoteOnEvent(tick=0, channel=6, data=[55, 0]),
   midi.NoteOnEvent(tick=245, channel=6, data=[59, 79]),
   midi.NoteOnEvent(tick=0, channel=6, data=[64, 79]),
   midi.NoteOnEvent(tick=475, channel=6, data=[64, 0]),
   midi.NoteOnEvent(tick=0, channel=6, data=[59, 0]),
   midi.NoteOnEvent(tick=245, channel=6, data=[59, 79]),
   midi.NoteOnEvent(tick=0, channel=6, data=[64, 79]),
   midi.NoteOnEvent(tick=475, channel=6, data=[64, 0]),
   midi.NoteOnEvent(tick=0, channel=6, data=[59, 0]),
   midi.NoteOnEvent(tick=245, channel=6, data=[64, 79]),
   midi.NoteOnEvent(tick=0, channel=6, data=[59, 79]),
   midi.NoteOnEvent(tick=0, channel=6, data=[67, 79]),
   midi.NoteOnEvent(tick=475, channel=6, data=[67, 0]),
   midi.NoteOnEvent(tick=0, channel=6, data=[59, 0]),
   midi.NoteOnEvent(tick=0, channel=6, data=[64, 0]),
   midi.NoteOnEvent(tick=245, channel=6, data=[59, 79]),
   midi.NoteOnEvent(tick=0, channel=6, data=[64, 79]),
   midi.NoteOnEvent(tick=475, channel=6, data=[64, 0]),
   midi.NoteOnEvent(tick=0, channel=6, data=[59, 0]),
   midi.NoteOnEvent(tick=245, channel=6, data=[59, 79]),
   midi.NoteOnEvent(tick=0, channel=6, data=[64, 79]),
   midi.NoteOnEvent(tick=475, channel=6, data=[64, 0]),
   midi.NoteOnEvent(tick=0, channel=6, data=[59, 0]),
   midi.NoteOnEvent(tick=245, channel=6, data=[79, 79]),
   midi.NoteOnEvent(tick=0, channel=6, data=[72, 79]),
   midi.NoteOnEvent(tick=0, channel=6, data=[76, 79]),
   midi.NoteOnEvent(tick=1195, channel=6, data=[76, 0]),
   midi.NoteOnEvent(tick=0, channel=6, data=[72, 0]),
   midi.NoteOnEvent(tick=0, channel=6, data=[79, 0]),
   midi.NoteOnEvent(tick=245, channel=6, data=[71, 111]),
   midi.NoteOnEvent(tick=0, channel=6, data=[76, 111]),
   midi.NoteOnEvent(tick=470, channel=6, data=[76, 0]),
   midi.NoteOnEvent(tick=0, channel=6, data=[71, 0]),
   midi.NoteOnEvent(tick=250, channel=6, data=[72, 111]),
   midi.NoteOnEvent(tick=0, channel=6, data=[76, 111]),
   midi.NoteOnEvent(tick=470, channel=6, data=[76, 0]),
   midi.NoteOnEvent(tick=0, channel=6, data=[72, 0]),
   midi.NoteOnEvent(tick=250, channel=6, data=[76, 111]),
   midi.NoteOnEvent(tick=0, channel=6, data=[67, 111]),
   midi.NoteOnEvent(tick=0, channel=6, data=[71, 111]),
   midi.NoteOnEvent(tick=4070, channel=6, data=[71, 0]),
   midi.NoteOnEvent(tick=0, channel=6, data=[67, 0]),
   midi.NoteOnEvent(tick=0, channel=6, data=[76, 0]),
   midi.NoteOnEvent(tick=250, channel=6, data=[67, 79]),
   midi.NoteOnEvent(tick=0, channel=6, data=[71, 79]),
   midi.NoteOnEvent(tick=470, channel=6, data=[71, 0]),
   midi.NoteOnEvent(tick=0, channel=6, data=[67, 0]),
   midi.NoteOnEvent(tick=250, channel=6, data=[71, 79]),
   midi.NoteOnEvent(tick=0, channel=6, data=[76, 79]),
   midi.NoteOnEvent(tick=470, channel=6, data=[76, 0]),
   midi.NoteOnEvent(tick=0, channel=6, data=[71, 0]),
   midi.NoteOnEvent(tick=250, channel=6, data=[71, 79]),
   midi.NoteOnEvent(tick=0, channel=6, data=[76, 79]),
   midi.NoteOnEvent(tick=475, channel=6, data=[76, 0]),
   midi.NoteOnEvent(tick=0, channel=6, data=[71, 0]),
   midi.NoteOnEvent(tick=245, channel=6, data=[76, 79]),
   midi.NoteOnEvent(tick=0, channel=6, data=[71, 79]),
   midi.NoteOnEvent(tick=0, channel=6, data=[79, 79]),
   midi.NoteOnEvent(tick=475, channel=6, data=[79, 0]),
   midi.NoteOnEvent(tick=0, channel=6, data=[71, 0]),
   midi.NoteOnEvent(tick=0, channel=6, data=[76, 0]),
   midi.NoteOnEvent(tick=245, channel=6, data=[71, 79]),
   midi.NoteOnEvent(tick=0, channel=6, data=[76, 79]),
   midi.NoteOnEvent(tick=475, channel=6, data=[76, 0]),
   midi.NoteOnEvent(tick=0, channel=6, data=[71, 0]),
   midi.NoteOnEvent(tick=245, channel=6, data=[71, 79]),
   midi.NoteOnEvent(tick=0, channel=6, data=[76, 79]),
   midi.NoteOnEvent(tick=475, channel=6, data=[76, 0]),
   midi.NoteOnEvent(tick=0, channel=6, data=[71, 0]),
   midi.NoteOnEvent(tick=245, channel=6, data=[91, 79]),
   midi.NoteOnEvent(tick=0, channel=6, data=[84, 79]),
   midi.NoteOnEvent(tick=0, channel=6, data=[88, 79]),
   midi.NoteOnEvent(tick=1195, channel=6, data=[88, 0]),
   midi.NoteOnEvent(tick=0, channel=6, data=[84, 0]),
   midi.NoteOnEvent(tick=0, channel=6, data=[91, 0]),
   midi.NoteOnEvent(tick=245, channel=6, data=[83, 79]),
   midi.NoteOnEvent(tick=0, channel=6, data=[88, 79]),
   midi.NoteOnEvent(tick=475, channel=6, data=[88, 0]),
   midi.NoteOnEvent(tick=0, channel=6, data=[83, 0]),
   midi.NoteOnEvent(tick=245, channel=6, data=[84, 79]),
   midi.NoteOnEvent(tick=0, channel=6, data=[88, 79]),
   midi.NoteOnEvent(tick=475, channel=6, data=[88, 0]),
   midi.NoteOnEvent(tick=0, channel=6, data=[84, 0]),
   midi.NoteOnEvent(tick=245, channel=6, data=[88, 79]),
   midi.NoteOnEvent(tick=0, channel=6, data=[79, 79]),
   midi.NoteOnEvent(tick=0, channel=6, data=[83, 79]),
   midi.NoteOnEvent(tick=2635, channel=6, data=[83, 0]),
   midi.NoteOnEvent(tick=0, channel=6, data=[79, 0]),
   midi.NoteOnEvent(tick=0, channel=6, data=[88, 0]),
   midi.NoteOnEvent(tick=245, channel=6, data=[79, 79]),
   midi.NoteOnEvent(tick=0, channel=6, data=[76, 79]),
   midi.NoteOnEvent(tick=0, channel=6, data=[72, 79]),
   midi.NoteOnEvent(tick=0, channel=6, data=[83, 79]),
   midi.NoteOnEvent(tick=470, channel=6, data=[83, 0]),
   midi.NoteOnEvent(tick=0, channel=6, data=[79, 0]),
   midi.NoteOnEvent(tick=0, channel=6, data=[76, 0]),
   midi.NoteOnEvent(tick=0, channel=6, data=[72, 0]),
   midi.NoteOnEvent(tick=250, channel=6, data=[79, 79]),
   midi.NoteOnEvent(tick=0, channel=6, data=[76, 79]),
   midi.NoteOnEvent(tick=0, channel=6, data=[72, 79]),
   midi.NoteOnEvent(tick=0, channel=6, data=[83, 79]),
   midi.NoteOnEvent(tick=470, channel=6, data=[83, 0]),
   midi.NoteOnEvent(tick=0, channel=6, data=[79, 0]),
   midi.NoteOnEvent(tick=0, channel=6, data=[76, 0]),
   midi.NoteOnEvent(tick=0, channel=6, data=[72, 0]),
   midi.NoteOnEvent(tick=250, channel=6, data=[76, 79]),
   midi.NoteOnEvent(tick=0, channel=6, data=[71, 79]),
   midi.NoteOnEvent(tick=0, channel=6, data=[79, 79]),
   midi.NoteOnEvent(tick=470, channel=6, data=[79, 0]),
   midi.NoteOnEvent(tick=0, channel=6, data=[71, 0]),
   midi.NoteOnEvent(tick=0, channel=6, data=[76, 0]),
   midi.NoteOnEvent(tick=250, channel=6, data=[76, 79]),
   midi.NoteOnEvent(tick=0, channel=6, data=[71, 79]),
   midi.NoteOnEvent(tick=0, channel=6, data=[79, 79]),
   midi.NoteOnEvent(tick=160, channel=6, data=[79, 0]),
   midi.NoteOnEvent(tick=0, channel=6, data=[71, 0]),
   midi.NoteOnEvent(tick=0, channel=6, data=[76, 0]),
   midi.NoteOnEvent(tick=80, channel=6, data=[76, 79]),
   midi.NoteOnEvent(tick=0, channel=6, data=[71, 79]),
   midi.NoteOnEvent(tick=0, channel=6, data=[79, 79]),
   midi.NoteOnEvent(tick=80, channel=6, data=[79, 0]),
   midi.NoteOnEvent(tick=0, channel=6, data=[71, 0]),
   midi.NoteOnEvent(tick=0, channel=6, data=[76, 0]),
   midi.NoteOnEvent(tick=40, channel=6, data=[76, 79]),
   midi.NoteOnEvent(tick=0, channel=6, data=[71, 79]),
   midi.NoteOnEvent(tick=0, channel=6, data=[79, 79]),
   midi.NoteOnEvent(tick=80, channel=6, data=[79, 0]),
   midi.NoteOnEvent(tick=0, channel=6, data=[71, 0]),
   midi.NoteOnEvent(tick=0, channel=6, data=[76, 0]),
   midi.NoteOnEvent(tick=40, channel=6, data=[76, 79]),
   midi.NoteOnEvent(tick=0, channel=6, data=[71, 79]),
   midi.NoteOnEvent(tick=0, channel=6, data=[79, 79]),
   midi.NoteOnEvent(tick=160, channel=6, data=[79, 0]),
   midi.NoteOnEvent(tick=0, channel=6, data=[71, 0]),
   midi.NoteOnEvent(tick=0, channel=6, data=[76, 0]),
   midi.NoteOnEvent(tick=80, channel=6, data=[79, 79]),
   midi.NoteOnEvent(tick=0, channel=6, data=[76, 79]),
   midi.NoteOnEvent(tick=0, channel=6, data=[72, 79]),
   midi.NoteOnEvent(tick=0, channel=6, data=[83, 79]),
   midi.NoteOnEvent(tick=475, channel=6, data=[83, 0]),
   midi.NoteOnEvent(tick=0, channel=6, data=[79, 0]),
   midi.NoteOnEvent(tick=0, channel=6, data=[76, 0]),
   midi.NoteOnEvent(tick=0, channel=6, data=[72, 0]),
   midi.NoteOnEvent(tick=245, channel=6, data=[83, 79]),
   midi.NoteOnEvent(tick=0, channel=6, data=[79, 79]),
   midi.NoteOnEvent(tick=0, channel=6, data=[76, 79]),
   midi.NoteOnEvent(tick=0, channel=6, data=[72, 79]),
   midi.NoteOnEvent(tick=475, channel=6, data=[72, 0]),
   midi.NoteOnEvent(tick=0, channel=6, data=[83, 0]),
   midi.NoteOnEvent(tick=0, channel=6, data=[79, 0]),
   midi.NoteOnEvent(tick=0, channel=6, data=[76, 0]),
   midi.NoteOnEvent(tick=245, channel=6, data=[76, 79]),
   midi.NoteOnEvent(tick=0, channel=6, data=[71, 79]),
   midi.NoteOnEvent(tick=0, channel=6, data=[79, 79]),
   midi.NoteOnEvent(tick=470, channel=6, data=[79, 0]),
   midi.NoteOnEvent(tick=0, channel=6, data=[71, 0]),
   midi.NoteOnEvent(tick=0, channel=6, data=[76, 0]),
   midi.NoteOnEvent(tick=250, channel=6, data=[76, 79]),
   midi.NoteOnEvent(tick=0, channel=6, data=[71, 79]),
   midi.NoteOnEvent(tick=0, channel=6, data=[79, 79]),
   midi.NoteOnEvent(tick=155, channel=6, data=[79, 0]),
   midi.NoteOnEvent(tick=0, channel=6, data=[71, 0]),
   midi.NoteOnEvent(tick=0, channel=6, data=[76, 0]),
   midi.NoteOnEvent(tick=85, channel=6, data=[76, 79]),
   midi.NoteOnEvent(tick=0, channel=6, data=[71, 79]),
   midi.NoteOnEvent(tick=0, channel=6, data=[79, 79]),
   midi.NoteOnEvent(tick=80, channel=6, data=[79, 0]),
   midi.NoteOnEvent(tick=0, channel=6, data=[71, 0]),
   midi.NoteOnEvent(tick=0, channel=6, data=[76, 0]),
   midi.NoteOnEvent(tick=40, channel=6, data=[76, 79]),
   midi.NoteOnEvent(tick=0, channel=6, data=[71, 79]),
   midi.NoteOnEvent(tick=0, channel=6, data=[79, 79]),
   midi.NoteOnEvent(tick=80, channel=6, data=[79, 0]),
   midi.NoteOnEvent(tick=0, channel=6, data=[71, 0]),
   midi.NoteOnEvent(tick=0, channel=6, data=[76, 0]),
   midi.NoteOnEvent(tick=40, channel=6, data=[76, 79]),
   midi.NoteOnEvent(tick=0, channel=6, data=[71, 79]),
   midi.NoteOnEvent(tick=0, channel=6, data=[79, 79]),
   midi.NoteOnEvent(tick=155, channel=6, data=[79, 0]),
   midi.NoteOnEvent(tick=0, channel=6, data=[71, 0]),
   midi.NoteOnEvent(tick=0, channel=6, data=[76, 0]),
   midi.NoteOnEvent(tick=85, channel=6, data=[76, 79]),
   midi.NoteOnEvent(tick=0, channel=6, data=[71, 79]),
   midi.NoteOnEvent(tick=0, channel=6, data=[67, 79]),
   midi.NoteOnEvent(tick=475, channel=6, data=[67, 0]),
   midi.NoteOnEvent(tick=0, channel=6, data=[71, 0]),
   midi.NoteOnEvent(tick=0, channel=6, data=[76, 0]),
   midi.NoteOnEvent(tick=245, channel=6, data=[76, 79]),
   midi.NoteOnEvent(tick=0, channel=6, data=[71, 79]),
   midi.NoteOnEvent(tick=0, channel=6, data=[67, 79]),
   midi.NoteOnEvent(tick=475, channel=6, data=[67, 0]),
   midi.NoteOnEvent(tick=0, channel=6, data=[71, 0]),
   midi.NoteOnEvent(tick=0, channel=6, data=[76, 0]),
   midi.NoteOnEvent(tick=245, channel=6, data=[67, 79]),
   midi.NoteOnEvent(tick=0, channel=6, data=[71, 79]),
   midi.NoteOnEvent(tick=470, channel=6, data=[71, 0]),
   midi.NoteOnEvent(tick=0, channel=6, data=[67, 0]),
   midi.NoteOnEvent(tick=250, channel=6, data=[71, 79]),
   midi.NoteOnEvent(tick=0, channel=6, data=[76, 79]),
   midi.NoteOnEvent(tick=470, channel=6, data=[76, 0]),
   midi.NoteOnEvent(tick=0, channel=6, data=[71, 0]),
   midi.NoteOnEvent(tick=250, channel=6, data=[71, 79]),
   midi.NoteOnEvent(tick=0, channel=6, data=[76, 79]),
   midi.NoteOnEvent(tick=470, channel=6, data=[76, 0]),
   midi.NoteOnEvent(tick=0, channel=6, data=[71, 0]),
   midi.NoteOnEvent(tick=250, channel=6, data=[76, 79]),
   midi.NoteOnEvent(tick=0, channel=6, data=[71, 79]),
   midi.NoteOnEvent(tick=0, channel=6, data=[79, 79]),
   midi.NoteOnEvent(tick=470, channel=6, data=[79, 0]),
   midi.NoteOnEvent(tick=0, channel=6, data=[71, 0]),
   midi.NoteOnEvent(tick=0, channel=6, data=[76, 0]),
   midi.NoteOnEvent(tick=250, channel=6, data=[71, 79]),
   midi.NoteOnEvent(tick=0, channel=6, data=[76, 79]),
   midi.NoteOnEvent(tick=470, channel=6, data=[76, 0]),
   midi.NoteOnEvent(tick=0, channel=6, data=[71, 0]),
   midi.NoteOnEvent(tick=250, channel=6, data=[71, 79]),
   midi.NoteOnEvent(tick=0, channel=6, data=[76, 79]),
   midi.NoteOnEvent(tick=470, channel=6, data=[76, 0]),
   midi.NoteOnEvent(tick=0, channel=6, data=[71, 0]),
   midi.NoteOnEvent(tick=250, channel=6, data=[91, 79]),
   midi.NoteOnEvent(tick=0, channel=6, data=[84, 79]),
   midi.NoteOnEvent(tick=0, channel=6, data=[88, 79]),
   midi.NoteOnEvent(tick=1190, channel=6, data=[88, 0]),
   midi.NoteOnEvent(tick=0, channel=6, data=[84, 0]),
   midi.NoteOnEvent(tick=0, channel=6, data=[91, 0]),
   midi.NoteOnEvent(tick=250, channel=6, data=[83, 79]),
   midi.NoteOnEvent(tick=0, channel=6, data=[88, 79]),
   midi.NoteOnEvent(tick=475, channel=6, data=[88, 0]),
   midi.NoteOnEvent(tick=0, channel=6, data=[83, 0]),
   midi.NoteOnEvent(tick=245, channel=6, data=[84, 79]),
   midi.NoteOnEvent(tick=0, channel=6, data=[88, 79]),
   midi.NoteOnEvent(tick=475, channel=6, data=[88, 0]),
   midi.NoteOnEvent(tick=0, channel=6, data=[84, 0]),
   midi.NoteOnEvent(tick=245, channel=6, data=[88, 79]),
   midi.NoteOnEvent(tick=0, channel=6, data=[79, 79]),
   midi.NoteOnEvent(tick=0, channel=6, data=[83, 79]),
   midi.NoteOnEvent(tick=2635, channel=6, data=[83, 0]),
   midi.NoteOnEvent(tick=0, channel=6, data=[79, 0]),
   midi.NoteOnEvent(tick=0, channel=6, data=[88, 0]),
   midi.NoteOnEvent(tick=245, channel=6, data=[76, 79]),
   midi.NoteOnEvent(tick=0, channel=6, data=[67, 79]),
   midi.NoteOnEvent(tick=0, channel=6, data=[71, 79]),
   midi.NoteOnEvent(tick=1595, channel=6, data=[71, 0]),
   midi.NoteOnEvent(tick=0, channel=6, data=[67, 0]),
   midi.NoteOnEvent(tick=0, channel=6, data=[76, 0]),
   midi.NoteOnEvent(tick=325, channel=6, data=[79, 79]),
   midi.NoteOnEvent(tick=0, channel=6, data=[71, 79]),
   midi.NoteOnEvent(tick=0, channel=6, data=[76, 79]),
   midi.NoteOnEvent(tick=1595, channel=6, data=[76, 0]),
   midi.NoteOnEvent(tick=0, channel=6, data=[71, 0]),
   midi.NoteOnEvent(tick=0, channel=6, data=[79, 0]),
   midi.NoteOnEvent(tick=325, channel=6, data=[76, 79]),
   midi.NoteOnEvent(tick=0, channel=6, data=[67, 79]),
   midi.NoteOnEvent(tick=0, channel=6, data=[71, 79]),
   midi.NoteOnEvent(tick=3515, channel=6, data=[71, 0]),
   midi.NoteOnEvent(tick=0, channel=6, data=[67, 0]),
   midi.NoteOnEvent(tick=0, channel=6, data=[76, 0]),
   midi.NoteOnEvent(tick=325, channel=6, data=[79, 79]),
   midi.NoteOnEvent(tick=0, channel=6, data=[71, 79]),
   midi.NoteOnEvent(tick=0, channel=6, data=[76, 79]),
   midi.NoteOnEvent(tick=1595, channel=6, data=[76, 0]),
   midi.NoteOnEvent(tick=0, channel=6, data=[71, 0]),
   midi.NoteOnEvent(tick=0, channel=6, data=[79, 0]),
   midi.NoteOnEvent(tick=325, channel=6, data=[81, 79]),
   midi.NoteOnEvent(tick=0, channel=6, data=[73, 79]),
   midi.NoteOnEvent(tick=0, channel=6, data=[76, 79]),
   midi.NoteOnEvent(tick=1435, channel=6, data=[76, 0]),
   midi.NoteOnEvent(tick=0, channel=6, data=[73, 0]),
   midi.NoteOnEvent(tick=0, channel=6, data=[81, 0]),
   midi.NoteOnEvent(tick=245, channel=6, data=[83, 79]),
   midi.NoteOnEvent(tick=0, channel=6, data=[79, 79]),
   midi.NoteOnEvent(tick=0, channel=6, data=[76, 79]),
   midi.NoteOnEvent(tick=3515, channel=6, data=[76, 0]),
   midi.NoteOnEvent(tick=0, channel=6, data=[79, 0]),
   midi.NoteOnEvent(tick=0, channel=6, data=[83, 0]),
   midi.NoteOnEvent(tick=325, channel=6, data=[83, 79]),
   midi.NoteOnEvent(tick=0, channel=6, data=[72, 79]),
   midi.NoteOnEvent(tick=0, channel=6, data=[76, 79]),
   midi.NoteOnEvent(tick=0, channel=6, data=[79, 79]),
   midi.NoteOnEvent(tick=1595, channel=6, data=[79, 0]),
   midi.NoteOnEvent(tick=0, channel=6, data=[83, 0]),
   midi.NoteOnEvent(tick=0, channel=6, data=[72, 0]),
   midi.NoteOnEvent(tick=0, channel=6, data=[76, 0]),
   midi.NoteOnEvent(tick=325, channel=6, data=[76, 79]),
   midi.NoteOnEvent(tick=0, channel=6, data=[64, 79]),
   midi.NoteOnEvent(tick=0, channel=6, data=[67, 79]),
   midi.NoteOnEvent(tick=0, channel=6, data=[71, 79]),
   midi.NoteOnEvent(tick=1595, channel=6, data=[71, 0]),
   midi.NoteOnEvent(tick=0, channel=6, data=[76, 0]),
   midi.NoteOnEvent(tick=0, channel=6, data=[64, 0]),
   midi.NoteOnEvent(tick=0, channel=6, data=[67, 0]),
   midi.NoteOnEvent(tick=325, channel=6, data=[76, 79]),
   midi.NoteOnEvent(tick=0, channel=6, data=[67, 79]),
   midi.NoteOnEvent(tick=0, channel=6, data=[71, 79]),
   midi.NoteOnEvent(tick=1595, channel=6, data=[71, 0]),
   midi.NoteOnEvent(tick=0, channel=6, data=[67, 0]),
   midi.NoteOnEvent(tick=0, channel=6, data=[76, 0]),
   midi.NoteOnEvent(tick=325, channel=6, data=[90, 79]),
   midi.NoteOnEvent(tick=0, channel=6, data=[79, 79]),
   midi.NoteOnEvent(tick=0, channel=6, data=[83, 79]),
   midi.NoteOnEvent(tick=0, channel=6, data=[86, 79]),
   midi.NoteOnEvent(tick=1595, channel=6, data=[86, 0]),
   midi.NoteOnEvent(tick=0, channel=6, data=[90, 0]),
   midi.NoteOnEvent(tick=0, channel=6, data=[79, 0]),
   midi.NoteOnEvent(tick=0, channel=6, data=[83, 0]),
   midi.NoteOnEvent(tick=325, channel=6, data=[83, 79]),
   midi.NoteOnEvent(tick=0, channel=6, data=[72, 79]),
   midi.NoteOnEvent(tick=0, channel=6, data=[76, 79]),
   midi.NoteOnEvent(tick=0, channel=6, data=[79, 79]),
   midi.NoteOnEvent(tick=1595, channel=6, data=[79, 0]),
   midi.NoteOnEvent(tick=0, channel=6, data=[83, 0]),
   midi.NoteOnEvent(tick=0, channel=6, data=[72, 0]),
   midi.NoteOnEvent(tick=0, channel=6, data=[76, 0]),
   midi.NoteOnEvent(tick=325, channel=6, data=[88, 79]),
   midi.NoteOnEvent(tick=0, channel=6, data=[76, 79]),
   midi.NoteOnEvent(tick=0, channel=6, data=[79, 79]),
   midi.NoteOnEvent(tick=0, channel=6, data=[83, 79]),
   midi.NoteOnEvent(tick=1595, channel=6, data=[83, 0]),
   midi.NoteOnEvent(tick=0, channel=6, data=[88, 0]),
   midi.NoteOnEvent(tick=0, channel=6, data=[76, 0]),
   midi.NoteOnEvent(tick=0, channel=6, data=[79, 0]),
   midi.NoteOnEvent(tick=325, channel=6, data=[76, 79]),
   midi.NoteOnEvent(tick=0, channel=6, data=[71, 79]),
   midi.NoteOnEvent(tick=0, channel=6, data=[67, 79]),
   midi.NoteOnEvent(tick=3515, channel=6, data=[67, 0]),
   midi.NoteOnEvent(tick=0, channel=6, data=[71, 0]),
   midi.NoteOnEvent(tick=0, channel=6, data=[76, 0]),
   midi.NoteOnEvent(tick=205, channel=6, data=[71, 79]),
   midi.NoteOnEvent(tick=60, channel=6, data=[71, 0]),
   midi.NoteOnEvent(tick=0, channel=6, data=[76, 79]),
   midi.NoteOnEvent(tick=60, channel=6, data=[76, 0]),
   midi.NoteOnEvent(tick=0, channel=6, data=[76, 79]),
   midi.NoteOnEvent(tick=0, channel=6, data=[71, 79]),
   midi.NoteOnEvent(tick=0, channel=6, data=[79, 79]),
   midi.NoteOnEvent(tick=475, channel=6, data=[79, 0]),
   midi.NoteOnEvent(tick=0, channel=6, data=[71, 0]),
   midi.NoteOnEvent(tick=0, channel=6, data=[76, 0]),
   midi.NoteOnEvent(tick=245, channel=6, data=[76, 79]),
   midi.NoteOnEvent(tick=0, channel=6, data=[71, 79]),
   midi.NoteOnEvent(tick=0, channel=6, data=[79, 79]),
   midi.NoteOnEvent(tick=80, channel=6, data=[79, 0]),
   midi.NoteOnEvent(tick=0, channel=6, data=[71, 0]),
   midi.NoteOnEvent(tick=0, channel=6, data=[76, 0]),
   midi.NoteOnEvent(tick=40, channel=6, data=[76, 79]),
   midi.NoteOnEvent(tick=0, channel=6, data=[71, 79]),
   midi.NoteOnEvent(tick=0, channel=6, data=[79, 79]),
   midi.NoteOnEvent(tick=80, channel=6, data=[79, 0]),
   midi.NoteOnEvent(tick=0, channel=6, data=[71, 0]),
   midi.NoteOnEvent(tick=0, channel=6, data=[76, 0]),
   midi.NoteOnEvent(tick=40, channel=6, data=[79, 79]),
   midi.NoteOnEvent(tick=0, channel=6, data=[76, 79]),
   midi.NoteOnEvent(tick=0, channel=6, data=[72, 79]),
   midi.NoteOnEvent(tick=0, channel=6, data=[83, 79]),
   midi.NoteOnEvent(tick=475, channel=6, data=[83, 0]),
   midi.NoteOnEvent(tick=0, channel=6, data=[79, 0]),
   midi.NoteOnEvent(tick=0, channel=6, data=[76, 0]),
   midi.NoteOnEvent(tick=0, channel=6, data=[72, 0]),
   midi.NoteOnEvent(tick=245, channel=6, data=[79, 79]),
   midi.NoteOnEvent(tick=0, channel=6, data=[76, 79]),
   midi.NoteOnEvent(tick=0, channel=6, data=[72, 79]),
   midi.NoteOnEvent(tick=0, channel=6, data=[83, 79]),
   midi.NoteOnEvent(tick=80, channel=6, data=[83, 0]),
   midi.NoteOnEvent(tick=0, channel=6, data=[79, 0]),
   midi.NoteOnEvent(tick=0, channel=6, data=[76, 0]),
   midi.NoteOnEvent(tick=0, channel=6, data=[72, 0]),
   midi.NoteOnEvent(tick=40, channel=6, data=[79, 79]),
   midi.NoteOnEvent(tick=0, channel=6, data=[76, 79]),
   midi.NoteOnEvent(tick=0, channel=6, data=[72, 79]),
   midi.NoteOnEvent(tick=0, channel=6, data=[83, 79]),
   midi.NoteOnEvent(tick=80, channel=6, data=[83, 0]),
   midi.NoteOnEvent(tick=0, channel=6, data=[79, 0]),
   midi.NoteOnEvent(tick=0, channel=6, data=[76, 0]),
   midi.NoteOnEvent(tick=0, channel=6, data=[72, 0]),
   midi.NoteOnEvent(tick=40, channel=6, data=[83, 79]),
   midi.NoteOnEvent(tick=0, channel=6, data=[79, 79]),
   midi.NoteOnEvent(tick=0, channel=6, data=[88, 79]),
   midi.NoteOnEvent(tick=475, channel=6, data=[88, 0]),
   midi.NoteOnEvent(tick=0, channel=6, data=[79, 0]),
   midi.NoteOnEvent(tick=0, channel=6, data=[83, 0]),
   midi.NoteOnEvent(tick=245, channel=6, data=[83, 79]),
   midi.NoteOnEvent(tick=0, channel=6, data=[79, 79]),
   midi.NoteOnEvent(tick=0, channel=6, data=[88, 79]),
   midi.NoteOnEvent(tick=80, channel=6, data=[88, 0]),
   midi.NoteOnEvent(tick=0, channel=6, data=[79, 0]),
   midi.NoteOnEvent(tick=0, channel=6, data=[83, 0]),
   midi.NoteOnEvent(tick=40, channel=6, data=[83, 79]),
   midi.NoteOnEvent(tick=0, channel=6, data=[79, 79]),
   midi.NoteOnEvent(tick=0, channel=6, data=[88, 79]),
   midi.NoteOnEvent(tick=80, channel=6, data=[88, 0]),
   midi.NoteOnEvent(tick=0, channel=6, data=[79, 0]),
   midi.NoteOnEvent(tick=0, channel=6, data=[83, 0]),
   midi.NoteOnEvent(tick=40, channel=6, data=[76, 79]),
   midi.NoteOnEvent(tick=0, channel=6, data=[71, 79]),
   midi.NoteOnEvent(tick=0, channel=6, data=[79, 79]),
   midi.NoteOnEvent(tick=635, channel=6, data=[79, 0]),
   midi.NoteOnEvent(tick=0, channel=6, data=[71, 0]),
   midi.NoteOnEvent(tick=0, channel=6, data=[76, 0]),
   midi.NoteOnEvent(tick=325, channel=6, data=[83, 79]),
   midi.NoteOnEvent(tick=0, channel=6, data=[76, 79]),
   midi.NoteOnEvent(tick=0, channel=6, data=[79, 79]),
   midi.NoteOnEvent(tick=3515, channel=6, data=[79, 0]),
   midi.NoteOnEvent(tick=0, channel=6, data=[76, 0]),
   midi.NoteOnEvent(tick=0, channel=6, data=[83, 0]),
   midi.ControlChangeEvent(tick=325, channel=6, data=[7, 109]),
   midi.NoteOnEvent(tick=0, channel=6, data=[64, 79]),
   midi.NoteOnEvent(tick=0, channel=6, data=[59, 79]),
   midi.NoteOnEvent(tick=0, channel=6, data=[67, 79]),
   midi.ControlChangeEvent(tick=180, channel=6, data=[7, 108]),
   midi.NoteOnEvent(tick=135, channel=6, data=[67, 0]),
   midi.NoteOnEvent(tick=0, channel=6, data=[59, 0]),
   midi.NoteOnEvent(tick=0, channel=6, data=[64, 0]),
   midi.ControlChangeEvent(tick=15, channel=6, data=[7, 107]),
   midi.ControlChangeEvent(tick=150, channel=6, data=[7, 106]),
   midi.NoteOnEvent(tick=0, channel=6, data=[64, 79]),
   midi.NoteOnEvent(tick=0, channel=6, data=[59, 79]),
   midi.NoteOnEvent(tick=0, channel=6, data=[67, 79]),
   midi.ControlChangeEvent(tick=150, channel=6, data=[7, 105]),
   midi.ControlChangeEvent(tick=150, channel=6, data=[7, 104]),
   midi.NoteOnEvent(tick=15, channel=6, data=[67, 0]),
   midi.NoteOnEvent(tick=0, channel=6, data=[59, 0]),
   midi.NoteOnEvent(tick=0, channel=6, data=[64, 0]),
   midi.ControlChangeEvent(tick=135, channel=6, data=[7, 103]),
   midi.NoteOnEvent(tick=30, channel=6, data=[64, 79]),
   midi.NoteOnEvent(tick=0, channel=6, data=[59, 79]),
   midi.NoteOnEvent(tick=0, channel=6, data=[67, 79]),
   midi.ControlChangeEvent(tick=120, channel=6, data=[7, 102]),
   midi.ControlChangeEvent(tick=150, channel=6, data=[7, 101]),
   midi.NoteOnEvent(tick=45, channel=6, data=[67, 0]),
   midi.NoteOnEvent(tick=0, channel=6, data=[59, 0]),
   midi.NoteOnEvent(tick=0, channel=6, data=[64, 0]),
   midi.ControlChangeEvent(tick=135, channel=6, data=[7, 100]),
   midi.NoteOnEvent(tick=30, channel=6, data=[64, 79]),
   midi.NoteOnEvent(tick=0, channel=6, data=[59, 79]),
   midi.NoteOnEvent(tick=0, channel=6, data=[67, 79]),
   midi.NoteOnEvent(tick=80, channel=6, data=[67, 0]),
   midi.NoteOnEvent(tick=0, channel=6, data=[59, 0]),
   midi.NoteOnEvent(tick=0, channel=6, data=[64, 0]),
   midi.ControlChangeEvent(tick=40, channel=6, data=[7, 99]),
   midi.NoteOnEvent(tick=120, channel=6, data=[67, 79]),
   midi.NoteOnEvent(tick=0, channel=6, data=[59, 79]),
   midi.NoteOnEvent(tick=0, channel=6, data=[64, 79]),
   midi.ControlChangeEvent(tick=30, channel=6, data=[7, 98]),
   midi.ControlChangeEvent(tick=150, channel=6, data=[7, 97]),
   midi.NoteOnEvent(tick=60, channel=6, data=[64, 0]),
   midi.NoteOnEvent(tick=0, channel=6, data=[59, 0]),
   midi.NoteOnEvent(tick=0, channel=6, data=[67, 0]),
   midi.NoteOnEvent(tick=0, channel=6, data=[64, 79]),
   midi.NoteOnEvent(tick=0, channel=6, data=[59, 79]),
   midi.NoteOnEvent(tick=0, channel=6, data=[67, 79]),
   midi.ControlChangeEvent(tick=90, channel=6, data=[7, 96]),
   midi.ControlChangeEvent(tick=150, channel=6, data=[7, 95]),
   midi.NoteOnEvent(tick=75, channel=6, data=[67, 0]),
   midi.NoteOnEvent(tick=0, channel=6, data=[59, 0]),
   midi.NoteOnEvent(tick=0, channel=6, data=[64, 0]),
   midi.ControlChangeEvent(tick=75, channel=6, data=[7, 94]),
   midi.NoteOnEvent(tick=90, channel=6, data=[64, 79]),
   midi.NoteOnEvent(tick=0, channel=6, data=[59, 79]),
   midi.NoteOnEvent(tick=0, channel=6, data=[67, 79]),
   midi.ControlChangeEvent(tick=60, channel=6, data=[7, 93]),
   midi.ControlChangeEvent(tick=180, channel=6, data=[7, 92]),
   midi.NoteOnEvent(tick=75, channel=6, data=[67, 0]),
   midi.NoteOnEvent(tick=0, channel=6, data=[59, 0]),
   midi.NoteOnEvent(tick=0, channel=6, data=[64, 0]),
   midi.ControlChangeEvent(tick=75, channel=6, data=[7, 91]),
   midi.NoteOnEvent(tick=90, channel=6, data=[64, 79]),
   midi.NoteOnEvent(tick=0, channel=6, data=[59, 79]),
   midi.NoteOnEvent(tick=0, channel=6, data=[67, 79]),
   midi.ControlChangeEvent(tick=60, channel=6, data=[7, 90]),
   midi.ControlChangeEvent(tick=150, channel=6, data=[7, 89]),
   midi.NoteOnEvent(tick=105, channel=6, data=[67, 0]),
   midi.NoteOnEvent(tick=0, channel=6, data=[59, 0]),
   midi.NoteOnEvent(tick=0, channel=6, data=[64, 0]),
   midi.ControlChangeEvent(tick=45, channel=6, data=[7, 88]),
   midi.NoteOnEvent(tick=120, channel=6, data=[64, 79]),
   midi.NoteOnEvent(tick=0, channel=6, data=[59, 79]),
   midi.NoteOnEvent(tick=0, channel=6, data=[67, 79]),
   midi.ControlChangeEvent(tick=30, channel=6, data=[7, 87]),
   midi.NoteOnEvent(tick=50, channel=6, data=[67, 0]),
   midi.NoteOnEvent(tick=0, channel=6, data=[59, 0]),
   midi.NoteOnEvent(tick=0, channel=6, data=[64, 0]),
   midi.NoteOnEvent(tick=40, channel=6, data=[64, 79]),
   midi.NoteOnEvent(tick=0, channel=6, data=[59, 79]),
   midi.NoteOnEvent(tick=0, channel=6, data=[67, 79]),
   midi.ControlChangeEvent(tick=60, channel=6, data=[7, 86]),
   midi.ControlChangeEvent(tick=150, channel=6, data=[7, 85]),
   midi.NoteOnEvent(tick=70, channel=6, data=[67, 0]),
   midi.NoteOnEvent(tick=0, channel=6, data=[59, 0]),
   midi.NoteOnEvent(tick=0, channel=6, data=[64, 0]),
   midi.ControlChangeEvent(tick=80, channel=6, data=[7, 84]),
   midi.NoteOnEvent(tick=0, channel=6, data=[64, 79]),
   midi.NoteOnEvent(tick=0, channel=6, data=[59, 79]),
   midi.NoteOnEvent(tick=0, channel=6, data=[67, 79]),
   midi.ControlChangeEvent(tick=180, channel=6, data=[7, 83]),
   midi.NoteOnEvent(tick=135, channel=6, data=[67, 0]),
   midi.NoteOnEvent(tick=0, channel=6, data=[59, 0]),
   midi.NoteOnEvent(tick=0, channel=6, data=[64, 0]),
   midi.ControlChangeEvent(tick=15, channel=6, data=[7, 82]),
   midi.ControlChangeEvent(tick=150, channel=6, data=[7, 81]),
   midi.NoteOnEvent(tick=0, channel=6, data=[64, 79]),
   midi.NoteOnEvent(tick=0, channel=6, data=[59, 79]),
   midi.NoteOnEvent(tick=0, channel=6, data=[67, 79]),
   midi.ControlChangeEvent(tick=150, channel=6, data=[7, 80]),
   midi.ControlChangeEvent(tick=150, channel=6, data=[7, 79]),
   midi.NoteOnEvent(tick=15, channel=6, data=[67, 0]),
   midi.NoteOnEvent(tick=0, channel=6, data=[59, 0]),
   midi.NoteOnEvent(tick=0, channel=6, data=[64, 0]),
   midi.ControlChangeEvent(tick=135, channel=6, data=[7, 78]),
   midi.NoteOnEvent(tick=30, channel=6, data=[64, 79]),
   midi.NoteOnEvent(tick=0, channel=6, data=[59, 79]),
   midi.NoteOnEvent(tick=0, channel=6, data=[67, 79]),
   midi.ControlChangeEvent(tick=120, channel=6, data=[7, 77]),
   midi.ControlChangeEvent(tick=150, channel=6, data=[7, 76]),
   midi.NoteOnEvent(tick=45, channel=6, data=[67, 0]),
   midi.NoteOnEvent(tick=0, channel=6, data=[59, 0]),
   midi.NoteOnEvent(tick=0, channel=6, data=[64, 0]),
   midi.ControlChangeEvent(tick=135, channel=6, data=[7, 75]),
   midi.NoteOnEvent(tick=30, channel=6, data=[64, 79]),
   midi.NoteOnEvent(tick=0, channel=6, data=[59, 79]),
   midi.NoteOnEvent(tick=0, channel=6, data=[67, 79]),
   midi.NoteOnEvent(tick=80, channel=6, data=[67, 0]),
   midi.NoteOnEvent(tick=0, channel=6, data=[59, 0]),
   midi.NoteOnEvent(tick=0, channel=6, data=[64, 0]),
   midi.ControlChangeEvent(tick=40, channel=6, data=[7, 74]),
   midi.NoteOnEvent(tick=120, channel=6, data=[67, 79]),
   midi.NoteOnEvent(tick=0, channel=6, data=[59, 79]),
   midi.NoteOnEvent(tick=0, channel=6, data=[64, 79]),
   midi.ControlChangeEvent(tick=30, channel=6, data=[7, 73]),
   midi.ControlChangeEvent(tick=150, channel=6, data=[7, 72]),
   midi.NoteOnEvent(tick=60, channel=6, data=[64, 0]),
   midi.NoteOnEvent(tick=0, channel=6, data=[59, 0]),
   midi.NoteOnEvent(tick=0, channel=6, data=[67, 0]),
   midi.NoteOnEvent(tick=0, channel=6, data=[64, 79]),
   midi.NoteOnEvent(tick=0, channel=6, data=[59, 79]),
   midi.NoteOnEvent(tick=0, channel=6, data=[67, 79]),
   midi.ControlChangeEvent(tick=90, channel=6, data=[7, 71]),
   midi.ControlChangeEvent(tick=150, channel=6, data=[7, 70]),
   midi.NoteOnEvent(tick=75, channel=6, data=[67, 0]),
   midi.NoteOnEvent(tick=0, channel=6, data=[59, 0]),
   midi.NoteOnEvent(tick=0, channel=6, data=[64, 0]),
   midi.ControlChangeEvent(tick=75, channel=6, data=[7, 69]),
   midi.NoteOnEvent(tick=90, channel=6, data=[64, 79]),
   midi.NoteOnEvent(tick=0, channel=6, data=[59, 79]),
   midi.NoteOnEvent(tick=0, channel=6, data=[67, 79]),
   midi.ControlChangeEvent(tick=60, channel=6, data=[7, 68]),
   midi.ControlChangeEvent(tick=180, channel=6, data=[7, 67]),
   midi.NoteOnEvent(tick=75, channel=6, data=[67, 0]),
   midi.NoteOnEvent(tick=0, channel=6, data=[59, 0]),
   midi.NoteOnEvent(tick=0, channel=6, data=[64, 0]),
   midi.ControlChangeEvent(tick=75, channel=6, data=[7, 66]),
   midi.NoteOnEvent(tick=90, channel=6, data=[64, 79]),
   midi.NoteOnEvent(tick=0, channel=6, data=[59, 79]),
   midi.NoteOnEvent(tick=0, channel=6, data=[67, 79]),
   midi.ControlChangeEvent(tick=60, channel=6, data=[7, 65]),
   midi.ControlChangeEvent(tick=150, channel=6, data=[7, 64]),
   midi.NoteOnEvent(tick=105, channel=6, data=[67, 0]),
   midi.NoteOnEvent(tick=0, channel=6, data=[59, 0]),
   midi.NoteOnEvent(tick=0, channel=6, data=[64, 0]),
   midi.ControlChangeEvent(tick=45, channel=6, data=[7, 63]),
   midi.NoteOnEvent(tick=120, channel=6, data=[64, 79]),
   midi.NoteOnEvent(tick=0, channel=6, data=[59, 79]),
   midi.NoteOnEvent(tick=0, channel=6, data=[67, 79]),
   midi.ControlChangeEvent(tick=30, channel=6, data=[7, 62]),
   midi.NoteOnEvent(tick=50, channel=6, data=[67, 0]),
   midi.NoteOnEvent(tick=0, channel=6, data=[59, 0]),
   midi.NoteOnEvent(tick=0, channel=6, data=[64, 0]),
   midi.NoteOnEvent(tick=40, channel=6, data=[64, 79]),
   midi.NoteOnEvent(tick=0, channel=6, data=[59, 79]),
   midi.NoteOnEvent(tick=0, channel=6, data=[67, 79]),
   midi.ControlChangeEvent(tick=60, channel=6, data=[7, 61]),
   midi.ControlChangeEvent(tick=150, channel=6, data=[7, 60]),
   midi.NoteOnEvent(tick=70, channel=6, data=[67, 0]),
   midi.NoteOnEvent(tick=0, channel=6, data=[59, 0]),
   midi.NoteOnEvent(tick=0, channel=6, data=[64, 0]),
   midi.ControlChangeEvent(tick=80, channel=6, data=[7, 59]),
   midi.NoteOnEvent(tick=0, channel=6, data=[64, 79]),
   midi.NoteOnEvent(tick=0, channel=6, data=[59, 79]),
   midi.NoteOnEvent(tick=0, channel=6, data=[67, 79]),
   midi.ControlChangeEvent(tick=180, channel=6, data=[7, 58]),
   midi.NoteOnEvent(tick=135, channel=6, data=[67, 0]),
   midi.NoteOnEvent(tick=0, channel=6, data=[59, 0]),
   midi.NoteOnEvent(tick=0, channel=6, data=[64, 0]),
   midi.ControlChangeEvent(tick=15, channel=6, data=[7, 57]),
   midi.ControlChangeEvent(tick=150, channel=6, data=[7, 56]),
   midi.NoteOnEvent(tick=0, channel=6, data=[64, 79]),
   midi.NoteOnEvent(tick=0, channel=6, data=[59, 79]),
   midi.NoteOnEvent(tick=0, channel=6, data=[67, 79]),
   midi.ControlChangeEvent(tick=150, channel=6, data=[7, 55]),
   midi.ControlChangeEvent(tick=150, channel=6, data=[7, 54]),
   midi.NoteOnEvent(tick=15, channel=6, data=[67, 0]),
   midi.NoteOnEvent(tick=0, channel=6, data=[59, 0]),
   midi.NoteOnEvent(tick=0, channel=6, data=[64, 0]),
   midi.ControlChangeEvent(tick=135, channel=6, data=[7, 53]),
   midi.NoteOnEvent(tick=30, channel=6, data=[64, 79]),
   midi.NoteOnEvent(tick=0, channel=6, data=[59, 79]),
   midi.NoteOnEvent(tick=0, channel=6, data=[67, 79]),
   midi.ControlChangeEvent(tick=120, channel=6, data=[7, 52]),
   midi.ControlChangeEvent(tick=150, channel=6, data=[7, 51]),
   midi.NoteOnEvent(tick=45, channel=6, data=[67, 0]),
   midi.NoteOnEvent(tick=0, channel=6, data=[59, 0]),
   midi.NoteOnEvent(tick=0, channel=6, data=[64, 0]),
   midi.ControlChangeEvent(tick=135, channel=6, data=[7, 50]),
   midi.NoteOnEvent(tick=30, channel=6, data=[64, 79]),
   midi.NoteOnEvent(tick=0, channel=6, data=[59, 79]),
   midi.NoteOnEvent(tick=0, channel=6, data=[67, 79]),
   midi.NoteOnEvent(tick=80, channel=6, data=[67, 0]),
   midi.NoteOnEvent(tick=0, channel=6, data=[59, 0]),
   midi.NoteOnEvent(tick=0, channel=6, data=[64, 0]),
   midi.ControlChangeEvent(tick=40, channel=6, data=[7, 49]),
   midi.NoteOnEvent(tick=120, channel=6, data=[67, 79]),
   midi.NoteOnEvent(tick=0, channel=6, data=[59, 79]),
   midi.NoteOnEvent(tick=0, channel=6, data=[64, 79]),
   midi.ControlChangeEvent(tick=30, channel=6, data=[7, 48]),
   midi.ControlChangeEvent(tick=150, channel=6, data=[7, 47]),
   midi.NoteOnEvent(tick=60, channel=6, data=[64, 0]),
   midi.NoteOnEvent(tick=0, channel=6, data=[59, 0]),
   midi.NoteOnEvent(tick=0, channel=6, data=[67, 0]),
   midi.NoteOnEvent(tick=0, channel=6, data=[64, 79]),
   midi.NoteOnEvent(tick=0, channel=6, data=[59, 79]),
   midi.NoteOnEvent(tick=0, channel=6, data=[67, 79]),
   midi.ControlChangeEvent(tick=90, channel=6, data=[7, 46]),
   midi.ControlChangeEvent(tick=150, channel=6, data=[7, 45]),
   midi.NoteOnEvent(tick=75, channel=6, data=[67, 0]),
   midi.NoteOnEvent(tick=0, channel=6, data=[59, 0]),
   midi.NoteOnEvent(tick=0, channel=6, data=[64, 0]),
   midi.ControlChangeEvent(tick=75, channel=6, data=[7, 44]),
   midi.NoteOnEvent(tick=90, channel=6, data=[64, 79]),
   midi.NoteOnEvent(tick=0, channel=6, data=[59, 79]),
   midi.NoteOnEvent(tick=0, channel=6, data=[67, 79]),
   midi.ControlChangeEvent(tick=60, channel=6, data=[7, 43]),
   midi.ControlChangeEvent(tick=180, channel=6, data=[7, 42]),
   midi.NoteOnEvent(tick=75, channel=6, data=[67, 0]),
   midi.NoteOnEvent(tick=0, channel=6, data=[59, 0]),
   midi.NoteOnEvent(tick=0, channel=6, data=[64, 0]),
   midi.ControlChangeEvent(tick=75, channel=6, data=[7, 41]),
   midi.NoteOnEvent(tick=90, channel=6, data=[64, 79]),
   midi.NoteOnEvent(tick=0, channel=6, data=[59, 79]),
   midi.NoteOnEvent(tick=0, channel=6, data=[67, 79]),
   midi.ControlChangeEvent(tick=60, channel=6, data=[7, 40]),
   midi.ControlChangeEvent(tick=150, channel=6, data=[7, 39]),
   midi.NoteOnEvent(tick=105, channel=6, data=[67, 0]),
   midi.NoteOnEvent(tick=0, channel=6, data=[59, 0]),
   midi.NoteOnEvent(tick=0, channel=6, data=[64, 0]),
   midi.ControlChangeEvent(tick=45, channel=6, data=[7, 38]),
   midi.NoteOnEvent(tick=120, channel=6, data=[64, 79]),
   midi.NoteOnEvent(tick=0, channel=6, data=[59, 79]),
   midi.NoteOnEvent(tick=0, channel=6, data=[67, 79]),
   midi.ControlChangeEvent(tick=30, channel=6, data=[7, 37]),
   midi.NoteOnEvent(tick=50, channel=6, data=[67, 0]),
   midi.NoteOnEvent(tick=0, channel=6, data=[59, 0]),
   midi.NoteOnEvent(tick=0, channel=6, data=[64, 0]),
   midi.NoteOnEvent(tick=40, channel=6, data=[64, 79]),
   midi.NoteOnEvent(tick=0, channel=6, data=[59, 79]),
   midi.NoteOnEvent(tick=0, channel=6, data=[67, 79]),
   midi.ControlChangeEvent(tick=60, channel=6, data=[7, 36]),
   midi.ControlChangeEvent(tick=150, channel=6, data=[7, 35]),
   midi.NoteOnEvent(tick=70, channel=6, data=[67, 0]),
   midi.NoteOnEvent(tick=0, channel=6, data=[59, 0]),
   midi.NoteOnEvent(tick=0, channel=6, data=[64, 0]),
   midi.ControlChangeEvent(tick=80, channel=6, data=[7, 34]),
   midi.NoteOnEvent(tick=0, channel=6, data=[64, 79]),
   midi.NoteOnEvent(tick=0, channel=6, data=[59, 79]),
   midi.NoteOnEvent(tick=0, channel=6, data=[67, 79]),
   midi.ControlChangeEvent(tick=180, channel=6, data=[7, 33]),
   midi.NoteOnEvent(tick=135, channel=6, data=[67, 0]),
   midi.NoteOnEvent(tick=0, channel=6, data=[59, 0]),
   midi.NoteOnEvent(tick=0, channel=6, data=[64, 0]),
   midi.ControlChangeEvent(tick=15, channel=6, data=[7, 32]),
   midi.ControlChangeEvent(tick=150, channel=6, data=[7, 31]),
   midi.NoteOnEvent(tick=0, channel=6, data=[64, 79]),
   midi.NoteOnEvent(tick=0, channel=6, data=[59, 79]),
   midi.NoteOnEvent(tick=0, channel=6, data=[67, 79]),
   midi.ControlChangeEvent(tick=150, channel=6, data=[7, 30]),
   midi.ControlChangeEvent(tick=150, channel=6, data=[7, 29]),
   midi.NoteOnEvent(tick=15, channel=6, data=[67, 0]),
   midi.NoteOnEvent(tick=0, channel=6, data=[59, 0]),
   midi.NoteOnEvent(tick=0, channel=6, data=[64, 0]),
   midi.ControlChangeEvent(tick=135, channel=6, data=[7, 28]),
   midi.NoteOnEvent(tick=30, channel=6, data=[64, 79]),
   midi.NoteOnEvent(tick=0, channel=6, data=[59, 79]),
   midi.NoteOnEvent(tick=0, channel=6, data=[67, 79]),
   midi.ControlChangeEvent(tick=120, channel=6, data=[7, 27]),
   midi.ControlChangeEvent(tick=150, channel=6, data=[7, 26]),
   midi.NoteOnEvent(tick=45, channel=6, data=[67, 0]),
   midi.NoteOnEvent(tick=0, channel=6, data=[59, 0]),
   midi.NoteOnEvent(tick=0, channel=6, data=[64, 0]),
   midi.ControlChangeEvent(tick=135, channel=6, data=[7, 25]),
   midi.NoteOnEvent(tick=30, channel=6, data=[64, 79]),
   midi.NoteOnEvent(tick=0, channel=6, data=[59, 79]),
   midi.NoteOnEvent(tick=0, channel=6, data=[67, 79]),
   midi.NoteOnEvent(tick=80, channel=6, data=[67, 0]),
   midi.NoteOnEvent(tick=0, channel=6, data=[59, 0]),
   midi.NoteOnEvent(tick=0, channel=6, data=[64, 0]),
   midi.ControlChangeEvent(tick=40, channel=6, data=[7, 24]),
   midi.NoteOnEvent(tick=120, channel=6, data=[67, 79]),
   midi.NoteOnEvent(tick=0, channel=6, data=[59, 79]),
   midi.NoteOnEvent(tick=0, channel=6, data=[64, 79]),
   midi.ControlChangeEvent(tick=30, channel=6, data=[7, 23]),
   midi.ControlChangeEvent(tick=150, channel=6, data=[7, 22]),
   midi.NoteOnEvent(tick=60, channel=6, data=[64, 0]),
   midi.NoteOnEvent(tick=0, channel=6, data=[59, 0]),
   midi.NoteOnEvent(tick=0, channel=6, data=[67, 0]),
   midi.NoteOnEvent(tick=0, channel=6, data=[64, 79]),
   midi.NoteOnEvent(tick=0, channel=6, data=[59, 79]),
   midi.NoteOnEvent(tick=0, channel=6, data=[67, 79]),
   midi.ControlChangeEvent(tick=90, channel=6, data=[7, 21]),
   midi.ControlChangeEvent(tick=150, channel=6, data=[7, 20]),
   midi.NoteOnEvent(tick=75, channel=6, data=[67, 0]),
   midi.NoteOnEvent(tick=0, channel=6, data=[59, 0]),
   midi.NoteOnEvent(tick=0, channel=6, data=[64, 0]),
   midi.ControlChangeEvent(tick=75, channel=6, data=[7, 19]),
   midi.NoteOnEvent(tick=90, channel=6, data=[64, 79]),
   midi.NoteOnEvent(tick=0, channel=6, data=[59, 79]),
   midi.NoteOnEvent(tick=0, channel=6, data=[67, 79]),
   midi.ControlChangeEvent(tick=60, channel=6, data=[7, 18]),
   midi.ControlChangeEvent(tick=180, channel=6, data=[7, 17]),
   midi.NoteOnEvent(tick=75, channel=6, data=[67, 0]),
   midi.NoteOnEvent(tick=0, channel=6, data=[59, 0]),
   midi.NoteOnEvent(tick=0, channel=6, data=[64, 0]),
   midi.ControlChangeEvent(tick=75, channel=6, data=[7, 16]),
   midi.NoteOnEvent(tick=90, channel=6, data=[64, 79]),
   midi.NoteOnEvent(tick=0, channel=6, data=[59, 79]),
   midi.NoteOnEvent(tick=0, channel=6, data=[67, 79]),
   midi.ControlChangeEvent(tick=60, channel=6, data=[7, 15]),
   midi.ControlChangeEvent(tick=150, channel=6, data=[7, 14]),
   midi.NoteOnEvent(tick=105, channel=6, data=[67, 0]),
   midi.NoteOnEvent(tick=0, channel=6, data=[59, 0]),
   midi.NoteOnEvent(tick=0, channel=6, data=[64, 0]),
   midi.ControlChangeEvent(tick=45, channel=6, data=[7, 13]),
   midi.NoteOnEvent(tick=120, channel=6, data=[64, 79]),
   midi.NoteOnEvent(tick=0, channel=6, data=[59, 79]),
   midi.NoteOnEvent(tick=0, channel=6, data=[67, 79]),
   midi.ControlChangeEvent(tick=30, channel=6, data=[7, 12]),
   midi.NoteOnEvent(tick=50, channel=6, data=[67, 0]),
   midi.NoteOnEvent(tick=0, channel=6, data=[59, 0]),
   midi.NoteOnEvent(tick=0, channel=6, data=[64, 0]),
   midi.NoteOnEvent(tick=40, channel=6, data=[64, 79]),
   midi.NoteOnEvent(tick=0, channel=6, data=[59, 79]),
   midi.NoteOnEvent(tick=0, channel=6, data=[67, 79]),
   midi.ControlChangeEvent(tick=60, channel=6, data=[7, 11]),
   midi.ControlChangeEvent(tick=150, channel=6, data=[7, 10]),
   midi.ControlChangeEvent(tick=30, channel=6, data=[7, 9]),
   midi.NoteOnEvent(tick=40, channel=6, data=[67, 0]),
   midi.NoteOnEvent(tick=0, channel=6, data=[59, 0]),
   midi.NoteOnEvent(tick=0, channel=6, data=[64, 0]),
   midi.EndOfTrackEvent(tick=0, data=[])]),
 midi.Track(\
  [midi.PortEvent(tick=0, data=[0]),
   midi.TrackNameEvent(tick=0, text='BckVocal', data=[66, 99, 107, 86, 111, 99, 97, 108]),
   midi.ProgramChangeEvent(tick=0, channel=7, data=[52]),
   midi.ControlChangeEvent(tick=0, channel=7, data=[7, 102]),
   midi.ControlChangeEvent(tick=482, channel=7, data=[0, 0]),
   midi.ControlChangeEvent(tick=5, channel=7, data=[32, 0]),
   midi.ControlChangeEvent(tick=10, channel=7, data=[1, 0]),
   midi.ControlChangeEvent(tick=10, channel=7, data=[10, 108]),
   midi.ControlChangeEvent(tick=5, channel=7, data=[11, 127]),
   midi.ControlChangeEvent(tick=5, channel=7, data=[64, 0]),
   midi.ControlChangeEvent(tick=5, channel=7, data=[91, 127]),
   midi.ControlChangeEvent(tick=5, channel=7, data=[93, 39]),
   midi.PitchWheelEvent(tick=5, channel=7, data=[0, 64]),
   midi.ControlChangeEvent(tick=488, channel=7, data=[93, 39]),
   midi.ControlChangeEvent(tick=180, channel=7, data=[7, 102]),
   midi.ControlChangeEvent(tick=0, channel=7, data=[91, 127]),
   midi.NoteOnEvent(tick=16320, channel=7, data=[67, 79]),
   midi.NoteOnEvent(tick=80, channel=7, data=[67, 0]),
   midi.NoteOnEvent(tick=40, channel=7, data=[67, 79]),
   midi.NoteOnEvent(tick=280, channel=7, data=[67, 0]),
   midi.NoteOnEvent(tick=80, channel=7, data=[66, 79]),
   midi.NoteOnEvent(tick=160, channel=7, data=[66, 0]),
   midi.NoteOnEvent(tick=80, channel=7, data=[67, 79]),
   midi.NoteOnEvent(tick=160, channel=7, data=[67, 0]),
   midi.NoteOnEvent(tick=1040, channel=7, data=[67, 79]),
   midi.NoteOnEvent(tick=80, channel=7, data=[67, 0]),
   midi.NoteOnEvent(tick=40, channel=7, data=[67, 79]),
   midi.NoteOnEvent(tick=435, channel=7, data=[67, 0]),
   midi.NoteOnEvent(tick=405, channel=7, data=[67, 79]),
   midi.NoteOnEvent(tick=320, channel=7, data=[67, 0]),
   midi.NoteOnEvent(tick=40, channel=7, data=[64, 79]),
   midi.NoteOnEvent(tick=80, channel=7, data=[64, 0]),
   midi.NoteOnEvent(tick=40, channel=7, data=[67, 79]),
   midi.NoteOnEvent(tick=80, channel=7, data=[67, 0]),
   midi.NoteOnEvent(tick=40, channel=7, data=[66, 79]),
   midi.NoteOnEvent(tick=360, channel=7, data=[66, 0]),
   midi.NoteOnEvent(tick=120, channel=7, data=[64, 79]),
   midi.NoteOnEvent(tick=280, channel=7, data=[64, 0]),
   midi.NoteOnEvent(tick=3440, channel=7, data=[67, 79]),
   midi.NoteOnEvent(tick=80, channel=7, data=[67, 0]),
   midi.NoteOnEvent(tick=40, channel=7, data=[67, 79]),
   midi.NoteOnEvent(tick=200, channel=7, data=[67, 0]),
   midi.NoteOnEvent(tick=40, channel=7, data=[64, 79]),
   midi.NoteOnEvent(tick=80, channel=7, data=[64, 0]),
   midi.NoteOnEvent(tick=40, channel=7, data=[67, 79]),
   midi.NoteOnEvent(tick=160, channel=7, data=[67, 0]),
   midi.NoteOnEvent(tick=1280, channel=7, data=[69, 79]),
   midi.NoteOnEvent(tick=80, channel=7, data=[69, 0]),
   midi.NoteOnEvent(tick=40, channel=7, data=[69, 79]),
   midi.NoteOnEvent(tick=200, channel=7, data=[69, 0]),
   midi.NoteOnEvent(tick=40, channel=7, data=[69, 79]),
   midi.NoteOnEvent(tick=200, channel=7, data=[69, 0]),
   midi.NoteOnEvent(tick=40, channel=7, data=[67, 79]),
   midi.NoteOnEvent(tick=80, channel=7, data=[67, 0]),
   midi.NoteOnEvent(tick=40, channel=7, data=[69, 79]),
   midi.NoteOnEvent(tick=240, channel=7, data=[69, 0]),
   midi.NoteOnEvent(tick=0, channel=7, data=[67, 79]),
   midi.NoteOnEvent(tick=80, channel=7, data=[67, 0]),
   midi.NoteOnEvent(tick=40, channel=7, data=[69, 79]),
   midi.NoteOnEvent(tick=200, channel=7, data=[69, 0]),
   midi.NoteOnEvent(tick=40, channel=7, data=[67, 79]),
   midi.NoteOnEvent(tick=80, channel=7, data=[67, 0]),
   midi.NoteOnEvent(tick=40, channel=7, data=[71, 79]),
   midi.NoteOnEvent(tick=160, channel=7, data=[71, 0]),
   midi.NoteOnEvent(tick=3920, channel=7, data=[67, 79]),
   midi.NoteOnEvent(tick=80, channel=7, data=[67, 0]),
   midi.NoteOnEvent(tick=40, channel=7, data=[67, 79]),
   midi.NoteOnEvent(tick=200, channel=7, data=[67, 0]),
   midi.NoteOnEvent(tick=40, channel=7, data=[66, 79]),
   midi.NoteOnEvent(tick=80, channel=7, data=[66, 0]),
   midi.NoteOnEvent(tick=40, channel=7, data=[64, 79]),
   midi.NoteOnEvent(tick=80, channel=7, data=[64, 0]),
   midi.NoteOnEvent(tick=40, channel=7, data=[67, 79]),
   midi.NoteOnEvent(tick=200, channel=7, data=[67, 0]),
   midi.NoteOnEvent(tick=40, channel=7, data=[67, 79]),
   midi.NoteOnEvent(tick=80, channel=7, data=[67, 0]),
   midi.NoteOnEvent(tick=280, channel=7, data=[67, 79]),
   midi.NoteOnEvent(tick=80, channel=7, data=[67, 0]),
   midi.NoteOnEvent(tick=40, channel=7, data=[66, 79]),
   midi.NoteOnEvent(tick=80, channel=7, data=[66, 0]),
   midi.NoteOnEvent(tick=40, channel=7, data=[64, 79]),
   midi.NoteOnEvent(tick=80, channel=7, data=[64, 0]),
   midi.NoteOnEvent(tick=40, channel=7, data=[67, 79]),
   midi.NoteOnEvent(tick=280, channel=7, data=[67, 0]),
   midi.NoteOnEvent(tick=2000, channel=7, data=[66, 79]),
   midi.NoteOnEvent(tick=80, channel=7, data=[66, 0]),
   midi.NoteOnEvent(tick=40, channel=7, data=[66, 79]),
   midi.NoteOnEvent(tick=200, channel=7, data=[66, 0]),
   midi.NoteOnEvent(tick=40, channel=7, data=[66, 79]),
   midi.NoteOnEvent(tick=80, channel=7, data=[66, 0]),
   midi.NoteOnEvent(tick=40, channel=7, data=[64, 79]),
   midi.NoteOnEvent(tick=80, channel=7, data=[64, 0]),
   midi.NoteOnEvent(tick=40, channel=7, data=[66, 95]),
   midi.NoteOnEvent(tick=360, channel=7, data=[66, 0]),
   midi.NoteOnEvent(tick=120, channel=7, data=[64, 79]),
   midi.NoteOnEvent(tick=80, channel=7, data=[64, 0]),
   midi.NoteOnEvent(tick=40, channel=7, data=[66, 79]),
   midi.NoteOnEvent(tick=80, channel=7, data=[66, 0]),
   midi.NoteOnEvent(tick=40, channel=7, data=[66, 79]),
   midi.NoteOnEvent(tick=80, channel=7, data=[66, 0]),
   midi.NoteOnEvent(tick=40, channel=7, data=[64, 79]),
   midi.NoteOnEvent(tick=80, channel=7, data=[64, 0]),
   midi.NoteOnEvent(tick=40, channel=7, data=[66, 95]),
   midi.NoteOnEvent(tick=280, channel=7, data=[66, 0]),
   midi.NoteOnEvent(tick=2000, channel=7, data=[67, 79]),
   midi.NoteOnEvent(tick=80, channel=7, data=[67, 0]),
   midi.NoteOnEvent(tick=40, channel=7, data=[67, 79]),
   midi.NoteOnEvent(tick=200, channel=7, data=[67, 0]),
   midi.NoteOnEvent(tick=40, channel=7, data=[66, 79]),
   midi.NoteOnEvent(tick=80, channel=7, data=[66, 0]),
   midi.NoteOnEvent(tick=40, channel=7, data=[64, 79]),
   midi.NoteOnEvent(tick=80, channel=7, data=[64, 0]),
   midi.NoteOnEvent(tick=40, channel=7, data=[67, 79]),
   midi.NoteOnEvent(tick=360, channel=7, data=[67, 0]),
   midi.NoteOnEvent(tick=120, channel=7, data=[67, 79]),
   midi.NoteOnEvent(tick=80, channel=7, data=[67, 0]),
   midi.NoteOnEvent(tick=40, channel=7, data=[67, 79]),
   midi.NoteOnEvent(tick=80, channel=7, data=[67, 0]),
   midi.NoteOnEvent(tick=40, channel=7, data=[66, 79]),
   midi.NoteOnEvent(tick=80, channel=7, data=[66, 0]),
   midi.NoteOnEvent(tick=40, channel=7, data=[64, 79]),
   midi.NoteOnEvent(tick=80, channel=7, data=[64, 0]),
   midi.NoteOnEvent(tick=40, channel=7, data=[67, 95]),
   midi.NoteOnEvent(tick=280, channel=7, data=[67, 0]),
   midi.NoteOnEvent(tick=1880, channel=7, data=[66, 79]),
   midi.NoteOnEvent(tick=80, channel=7, data=[66, 0]),
   midi.NoteOnEvent(tick=40, channel=7, data=[66, 79]),
   midi.NoteOnEvent(tick=80, channel=7, data=[66, 0]),
   midi.NoteOnEvent(tick=40, channel=7, data=[66, 79]),
   midi.NoteOnEvent(tick=200, channel=7, data=[66, 0]),
   midi.NoteOnEvent(tick=40, channel=7, data=[66, 79]),
   midi.NoteOnEvent(tick=80, channel=7, data=[66, 0]),
   midi.NoteOnEvent(tick=40, channel=7, data=[66, 79]),
   midi.NoteOnEvent(tick=80, channel=7, data=[66, 0]),
   midi.NoteOnEvent(tick=40, channel=7, data=[66, 79]),
   midi.NoteOnEvent(tick=280, channel=7, data=[66, 0]),
   midi.NoteOnEvent(tick=560, channel=7, data=[64, 79]),
   midi.NoteOnEvent(tick=80, channel=7, data=[64, 0]),
   midi.NoteOnEvent(tick=40, channel=7, data=[64, 79]),
   midi.NoteOnEvent(tick=80, channel=7, data=[64, 0]),
   midi.NoteOnEvent(tick=40, channel=7, data=[66, 79]),
   midi.NoteOnEvent(tick=160, channel=7, data=[66, 0]),
   midi.NoteOnEvent(tick=80, channel=7, data=[64, 79]),
   midi.NoteOnEvent(tick=80, channel=7, data=[64, 0]),
   midi.NoteOnEvent(tick=40, channel=7, data=[66, 79]),
   midi.NoteOnEvent(tick=200, channel=7, data=[66, 0]),
   midi.NoteOnEvent(tick=40, channel=7, data=[66, 79]),
   midi.NoteOnEvent(tick=80, channel=7, data=[66, 0]),
   midi.NoteOnEvent(tick=40, channel=7, data=[64, 79]),
   midi.NoteOnEvent(tick=80, channel=7, data=[64, 0]),
   midi.NoteOnEvent(tick=40, channel=7, data=[67, 79]),
   midi.NoteOnEvent(tick=840, channel=7, data=[67, 0]),
   midi.NoteOnEvent(tick=0, channel=7, data=[66, 95]),
   midi.NoteOnEvent(tick=480, channel=7, data=[66, 0]),
   midi.NoteOnEvent(tick=0, channel=7, data=[64, 95]),
   midi.NoteOnEvent(tick=555, channel=7, data=[64, 0]),
   midi.NoteOnEvent(tick=1845, channel=7, data=[64, 79]),
   midi.NoteOnEvent(tick=160, channel=7, data=[64, 0]),
   midi.NoteOnEvent(tick=80, channel=7, data=[67, 79]),
   midi.NoteOnEvent(tick=160, channel=7, data=[67, 0]),
   midi.NoteOnEvent(tick=80, channel=7, data=[67, 79]),
   midi.NoteOnEvent(tick=2800, channel=7, data=[67, 0]),
   midi.NoteOnEvent(tick=80, channel=7, data=[67, 79]),
   midi.NoteOnEvent(tick=320, channel=7, data=[67, 0]),
   midi.NoteOnEvent(tick=40, channel=7, data=[64, 79]),
   midi.NoteOnEvent(tick=80, channel=7, data=[64, 0]),
   midi.NoteOnEvent(tick=40, channel=7, data=[67, 79]),
   midi.NoteOnEvent(tick=80, channel=7, data=[67, 0]),
   midi.NoteOnEvent(tick=40, channel=7, data=[66, 79]),
   midi.NoteOnEvent(tick=1240, channel=7, data=[66, 0]),
   midi.NoteOnEvent(tick=54800, channel=7, data=[67, 79]),
   midi.NoteOnEvent(tick=80, channel=7, data=[67, 0]),
   midi.NoteOnEvent(tick=40, channel=7, data=[67, 79]),
   midi.NoteOnEvent(tick=280, channel=7, data=[67, 0]),
   midi.NoteOnEvent(tick=80, channel=7, data=[66, 79]),
   midi.NoteOnEvent(tick=160, channel=7, data=[66, 0]),
   midi.NoteOnEvent(tick=80, channel=7, data=[67, 79]),
   midi.NoteOnEvent(tick=160, channel=7, data=[67, 0]),
   midi.NoteOnEvent(tick=1040, channel=7, data=[67, 79]),
   midi.NoteOnEvent(tick=80, channel=7, data=[67, 0]),
   midi.NoteOnEvent(tick=40, channel=7, data=[67, 79]),
   midi.NoteOnEvent(tick=435, channel=7, data=[67, 0]),
   midi.NoteOnEvent(tick=405, channel=7, data=[67, 79]),
   midi.NoteOnEvent(tick=320, channel=7, data=[67, 0]),
   midi.NoteOnEvent(tick=40, channel=7, data=[64, 79]),
   midi.NoteOnEvent(tick=80, channel=7, data=[64, 0]),
   midi.NoteOnEvent(tick=40, channel=7, data=[67, 79]),
   midi.NoteOnEvent(tick=80, channel=7, data=[67, 0]),
   midi.NoteOnEvent(tick=40, channel=7, data=[66, 79]),
   midi.NoteOnEvent(tick=480, channel=7, data=[66, 0]),
   midi.NoteOnEvent(tick=0, channel=7, data=[64, 79]),
   midi.NoteOnEvent(tick=280, channel=7, data=[64, 0]),
   midi.NoteOnEvent(tick=3440, channel=7, data=[67, 79]),
   midi.NoteOnEvent(tick=80, channel=7, data=[67, 0]),
   midi.NoteOnEvent(tick=40, channel=7, data=[67, 79]),
   midi.NoteOnEvent(tick=200, channel=7, data=[67, 0]),
   midi.NoteOnEvent(tick=40, channel=7, data=[64, 79]),
   midi.NoteOnEvent(tick=80, channel=7, data=[64, 0]),
   midi.NoteOnEvent(tick=40, channel=7, data=[67, 79]),
   midi.NoteOnEvent(tick=160, channel=7, data=[67, 0]),
   midi.NoteOnEvent(tick=1280, channel=7, data=[69, 79]),
   midi.NoteOnEvent(tick=80, channel=7, data=[69, 0]),
   midi.NoteOnEvent(tick=40, channel=7, data=[69, 79]),
   midi.NoteOnEvent(tick=200, channel=7, data=[69, 0]),
   midi.NoteOnEvent(tick=40, channel=7, data=[69, 79]),
   midi.NoteOnEvent(tick=200, channel=7, data=[69, 0]),
   midi.NoteOnEvent(tick=40, channel=7, data=[67, 79]),
   midi.NoteOnEvent(tick=80, channel=7, data=[67, 0]),
   midi.NoteOnEvent(tick=40, channel=7, data=[69, 79]),
   midi.NoteOnEvent(tick=160, channel=7, data=[69, 0]),
   midi.NoteOnEvent(tick=80, channel=7, data=[67, 79]),
   midi.NoteOnEvent(tick=80, channel=7, data=[67, 0]),
   midi.NoteOnEvent(tick=40, channel=7, data=[69, 79]),
   midi.NoteOnEvent(tick=200, channel=7, data=[69, 0]),
   midi.NoteOnEvent(tick=40, channel=7, data=[67, 79]),
   midi.NoteOnEvent(tick=80, channel=7, data=[67, 0]),
   midi.NoteOnEvent(tick=40, channel=7, data=[71, 79]),
   midi.NoteOnEvent(tick=160, channel=7, data=[71, 0]),
   midi.NoteOnEvent(tick=3920, channel=7, data=[67, 79]),
   midi.NoteOnEvent(tick=80, channel=7, data=[67, 0]),
   midi.NoteOnEvent(tick=40, channel=7, data=[67, 79]),
   midi.NoteOnEvent(tick=200, channel=7, data=[67, 0]),
   midi.NoteOnEvent(tick=40, channel=7, data=[66, 79]),
   midi.NoteOnEvent(tick=80, channel=7, data=[66, 0]),
   midi.NoteOnEvent(tick=40, channel=7, data=[64, 79]),
   midi.NoteOnEvent(tick=80, channel=7, data=[64, 0]),
   midi.NoteOnEvent(tick=40, channel=7, data=[67, 79]),
   midi.NoteOnEvent(tick=280, channel=7, data=[67, 0]),
   midi.NoteOnEvent(tick=80, channel=7, data=[67, 79]),
   midi.NoteOnEvent(tick=160, channel=7, data=[67, 0]),
   midi.NoteOnEvent(tick=2720, channel=7, data=[66, 79]),
   midi.NoteOnEvent(tick=80, channel=7, data=[66, 0]),
   midi.NoteOnEvent(tick=40, channel=7, data=[66, 79]),
   midi.NoteOnEvent(tick=280, channel=7, data=[66, 0]),
   midi.NoteOnEvent(tick=80, channel=7, data=[64, 79]),
   midi.NoteOnEvent(tick=80, channel=7, data=[64, 0]),
   midi.NoteOnEvent(tick=40, channel=7, data=[66, 79]),
   midi.NoteOnEvent(tick=280, channel=7, data=[66, 0]),
   midi.NoteOnEvent(tick=80, channel=7, data=[64, 79]),
   midi.NoteOnEvent(tick=80, channel=7, data=[64, 0]),
   midi.NoteOnEvent(tick=40, channel=7, data=[66, 79]),
   midi.NoteOnEvent(tick=280, channel=7, data=[66, 0]),
   midi.NoteOnEvent(tick=2120, channel=7, data=[64, 79]),
   midi.NoteOnEvent(tick=80, channel=7, data=[64, 0]),
   midi.NoteOnEvent(tick=40, channel=7, data=[67, 79]),
   midi.NoteOnEvent(tick=160, channel=7, data=[67, 0]),
   midi.NoteOnEvent(tick=80, channel=7, data=[64, 79]),
   midi.NoteOnEvent(tick=80, channel=7, data=[64, 0]),
   midi.NoteOnEvent(tick=40, channel=7, data=[67, 79]),
   midi.NoteOnEvent(tick=200, channel=7, data=[67, 0]),
   midi.NoteOnEvent(tick=40, channel=7, data=[66, 79]),
   midi.NoteOnEvent(tick=80, channel=7, data=[66, 0]),
   midi.NoteOnEvent(tick=40, channel=7, data=[64, 79]),
   midi.NoteOnEvent(tick=80, channel=7, data=[64, 0]),
   midi.NoteOnEvent(tick=40, channel=7, data=[67, 79]),
   midi.NoteOnEvent(tick=280, channel=7, data=[67, 0]),
   midi.NoteOnEvent(tick=2600, channel=7, data=[64, 79]),
   midi.NoteOnEvent(tick=80, channel=7, data=[64, 0]),
   midi.NoteOnEvent(tick=40, channel=7, data=[66, 79]),
   midi.NoteOnEvent(tick=160, channel=7, data=[66, 0]),
   midi.NoteOnEvent(tick=80, channel=7, data=[64, 79]),
   midi.NoteOnEvent(tick=80, channel=7, data=[64, 0]),
   midi.NoteOnEvent(tick=40, channel=7, data=[66, 79]),
   midi.NoteOnEvent(tick=200, channel=7, data=[66, 0]),
   midi.NoteOnEvent(tick=40, channel=7, data=[66, 79]),
   midi.NoteOnEvent(tick=80, channel=7, data=[66, 0]),
   midi.NoteOnEvent(tick=40, channel=7, data=[64, 79]),
   midi.NoteOnEvent(tick=80, channel=7, data=[64, 0]),
   midi.NoteOnEvent(tick=40, channel=7, data=[66, 79]),
   midi.NoteOnEvent(tick=200, channel=7, data=[66, 0]),
   midi.NoteOnEvent(tick=40, channel=7, data=[64, 79]),
   midi.NoteOnEvent(tick=120, channel=7, data=[64, 0]),
   midi.NoteOnEvent(tick=0, channel=7, data=[66, 79]),
   midi.NoteOnEvent(tick=160, channel=7, data=[66, 0]),
   midi.NoteOnEvent(tick=2240, channel=7, data=[64, 79]),
   midi.NoteOnEvent(tick=160, channel=7, data=[64, 0]),
   midi.NoteOnEvent(tick=80, channel=7, data=[67, 79]),
   midi.NoteOnEvent(tick=160, channel=7, data=[67, 0]),
   midi.NoteOnEvent(tick=80, channel=7, data=[67, 79]),
   midi.NoteOnEvent(tick=2795, channel=7, data=[67, 0]),
   midi.NoteOnEvent(tick=85, channel=7, data=[67, 79]),
   midi.NoteOnEvent(tick=320, channel=7, data=[67, 0]),
   midi.NoteOnEvent(tick=40, channel=7, data=[64, 79]),
   midi.NoteOnEvent(tick=80, channel=7, data=[64, 0]),
   midi.NoteOnEvent(tick=40, channel=7, data=[67, 79]),
   midi.NoteOnEvent(tick=80, channel=7, data=[67, 0]),
   midi.NoteOnEvent(tick=40, channel=7, data=[66, 79]),
   midi.NoteOnEvent(tick=1240, channel=7, data=[66, 0]),
   midi.EndOfTrackEvent(tick=0, data=[])]),
 midi.Track(\
  [midi.PortEvent(tick=0, data=[0]),
   midi.TrackNameEvent(tick=0, text=' ', data=[32]),
   midi.ControlChangeEvent(tick=0, channel=8, data=[7, 96]),
   midi.EndOfTrackEvent(tick=0, data=[])]),
 midi.Track(\
  [midi.PortEvent(tick=0, data=[0]),
   midi.TrackNameEvent(tick=0, text='Rhythm&SE', data=[82, 104, 121, 116, 104, 109, 38, 83, 69]),
   midi.ProgramChangeEvent(tick=0, channel=9, data=[0]),
   midi.ControlChangeEvent(tick=0, channel=9, data=[7, 83]),
   midi.ControlChangeEvent(tick=482, channel=9, data=[0, 0]),
   midi.ControlChangeEvent(tick=5, channel=9, data=[32, 0]),
   midi.ControlChangeEvent(tick=10, channel=9, data=[1, 0]),
   midi.ControlChangeEvent(tick=10, channel=9, data=[10, 64]),
   midi.ControlChangeEvent(tick=5, channel=9, data=[11, 127]),
   midi.ControlChangeEvent(tick=5, channel=9, data=[64, 0]),
   midi.ControlChangeEvent(tick=5, channel=9, data=[91, 96]),
   midi.ControlChangeEvent(tick=5, channel=9, data=[93, 0]),
   midi.PitchWheelEvent(tick=5, channel=9, data=[0, 64]),
   midi.ControlChangeEvent(tick=668, channel=9, data=[91, 96]),
   midi.ControlChangeEvent(tick=0, channel=9, data=[7, 83]),
   midi.NoteOnEvent(tick=49440, channel=9, data=[36, 42]),
   midi.NoteOnEvent(tick=0, channel=9, data=[42, 42]),
   midi.NoteOnEvent(tick=0, channel=9, data=[49, 63]),
   midi.NoteOnEvent(tick=160, channel=9, data=[49, 0]),
   midi.NoteOnEvent(tick=0, channel=9, data=[42, 0]),
   midi.NoteOnEvent(tick=0, channel=9, data=[36, 0]),
   midi.NoteOnEvent(tick=800, channel=9, data=[42, 63]),
   midi.NoteOnEvent(tick=0, channel=9, data=[36, 63]),
   midi.NoteOnEvent(tick=0, channel=9, data=[49, 63]),
   midi.NoteOnEvent(tick=160, channel=9, data=[49, 0]),
   midi.NoteOnEvent(tick=0, channel=9, data=[36, 0]),
   midi.NoteOnEvent(tick=0, channel=9, data=[42, 0]),
   midi.NoteOnEvent(tick=800, channel=9, data=[42, 84]),
   midi.NoteOnEvent(tick=0, channel=9, data=[36, 84]),
   midi.NoteOnEvent(tick=0, channel=9, data=[49, 84]),
   midi.NoteOnEvent(tick=160, channel=9, data=[49, 0]),
   midi.NoteOnEvent(tick=0, channel=9, data=[36, 0]),
   midi.NoteOnEvent(tick=0, channel=9, data=[42, 0]),
   midi.NoteOnEvent(tick=800, channel=9, data=[42, 84]),
   midi.NoteOnEvent(tick=0, channel=9, data=[36, 106]),
   midi.NoteOnEvent(tick=0, channel=9, data=[49, 106]),
   midi.NoteOnEvent(tick=160, channel=9, data=[49, 0]),
   midi.NoteOnEvent(tick=0, channel=9, data=[36, 0]),
   midi.NoteOnEvent(tick=0, channel=9, data=[42, 0]),
   midi.NoteOnEvent(tick=4640, channel=9, data=[36, 106]),
   midi.NoteOnEvent(tick=0, channel=9, data=[42, 106]),
   midi.NoteOnEvent(tick=0, channel=9, data=[49, 106]),
   midi.NoteOnEvent(tick=160, channel=9, data=[49, 0]),
   midi.NoteOnEvent(tick=0, channel=9, data=[42, 0]),
   midi.NoteOnEvent(tick=0, channel=9, data=[36, 0]),
   midi.NoteOnEvent(tick=80, channel=9, data=[42, 106]),
   midi.NoteOnEvent(tick=160, channel=9, data=[42, 0]),
   midi.NoteOnEvent(tick=80, channel=9, data=[38, 106]),
   midi.NoteOnEvent(tick=0, channel=9, data=[42, 106]),
   midi.NoteOnEvent(tick=160, channel=9, data=[42, 0]),
   midi.NoteOnEvent(tick=0, channel=9, data=[38, 0]),
   midi.NoteOnEvent(tick=80, channel=9, data=[42, 106]),
   midi.NoteOnEvent(tick=160, channel=9, data=[42, 0]),
   midi.NoteOnEvent(tick=80, channel=9, data=[36, 106]),
   midi.NoteOnEvent(tick=0, channel=9, data=[42, 106]),
   midi.NoteOnEvent(tick=160, channel=9, data=[42, 0]),
   midi.NoteOnEvent(tick=0, channel=9, data=[36, 0]),
   midi.NoteOnEvent(tick=80, channel=9, data=[42, 106]),
   midi.NoteOnEvent(tick=160, channel=9, data=[42, 0]),
   midi.NoteOnEvent(tick=80, channel=9, data=[38, 106]),
   midi.NoteOnEvent(tick=0, channel=9, data=[42, 106]),
   midi.NoteOnEvent(tick=160, channel=9, data=[42, 0]),
   midi.NoteOnEvent(tick=0, channel=9, data=[38, 0]),
   midi.NoteOnEvent(tick=80, channel=9, data=[42, 106]),
   midi.NoteOnEvent(tick=160, channel=9, data=[42, 0]),
   midi.NoteOnEvent(tick=80, channel=9, data=[36, 106]),
   midi.NoteOnEvent(tick=0, channel=9, data=[42, 106]),
   midi.NoteOnEvent(tick=160, channel=9, data=[42, 0]),
   midi.NoteOnEvent(tick=0, channel=9, data=[36, 0]),
   midi.NoteOnEvent(tick=80, channel=9, data=[42, 106]),
   midi.NoteOnEvent(tick=160, channel=9, data=[42, 0]),
   midi.NoteOnEvent(tick=80, channel=9, data=[38, 106]),
   midi.NoteOnEvent(tick=0, channel=9, data=[42, 106]),
   midi.NoteOnEvent(tick=160, channel=9, data=[42, 0]),
   midi.NoteOnEvent(tick=0, channel=9, data=[38, 0]),
   midi.NoteOnEvent(tick=80, channel=9, data=[42, 106]),
   midi.NoteOnEvent(tick=160, channel=9, data=[42, 0]),
   midi.NoteOnEvent(tick=80, channel=9, data=[36, 106]),
   midi.NoteOnEvent(tick=0, channel=9, data=[42, 106]),
   midi.NoteOnEvent(tick=160, channel=9, data=[42, 0]),
   midi.NoteOnEvent(tick=0, channel=9, data=[36, 0]),
   midi.NoteOnEvent(tick=80, channel=9, data=[42, 106]),
   midi.NoteOnEvent(tick=160, channel=9, data=[42, 0]),
   midi.NoteOnEvent(tick=80, channel=9, data=[38, 106]),
   midi.NoteOnEvent(tick=0, channel=9, data=[42, 106]),
   midi.NoteOnEvent(tick=160, channel=9, data=[42, 0]),
   midi.NoteOnEvent(tick=0, channel=9, data=[38, 0]),
   midi.NoteOnEvent(tick=80, channel=9, data=[42, 106]),
   midi.NoteOnEvent(tick=160, channel=9, data=[42, 0]),
   midi.NoteOnEvent(tick=80, channel=9, data=[36, 106]),
   midi.NoteOnEvent(tick=0, channel=9, data=[42, 106]),
   midi.NoteOnEvent(tick=0, channel=9, data=[49, 106]),
   midi.NoteOnEvent(tick=160, channel=9, data=[49, 0]),
   midi.NoteOnEvent(tick=0, channel=9, data=[42, 0]),
   midi.NoteOnEvent(tick=0, channel=9, data=[36, 0]),
   midi.NoteOnEvent(tick=80, channel=9, data=[42, 106]),
   midi.NoteOnEvent(tick=160, channel=9, data=[42, 0]),
   midi.NoteOnEvent(tick=80, channel=9, data=[38, 106]),
   midi.NoteOnEvent(tick=0, channel=9, data=[42, 106]),
   midi.NoteOnEvent(tick=160, channel=9, data=[42, 0]),
   midi.NoteOnEvent(tick=0, channel=9, data=[38, 0]),
   midi.NoteOnEvent(tick=80, channel=9, data=[42, 106]),
   midi.NoteOnEvent(tick=160, channel=9, data=[42, 0]),
   midi.NoteOnEvent(tick=80, channel=9, data=[36, 106]),
   midi.NoteOnEvent(tick=0, channel=9, data=[42, 106]),
   midi.NoteOnEvent(tick=160, channel=9, data=[42, 0]),
   midi.NoteOnEvent(tick=0, channel=9, data=[36, 0]),
   midi.NoteOnEvent(tick=80, channel=9, data=[42, 106]),
   midi.NoteOnEvent(tick=160, channel=9, data=[42, 0]),
   midi.NoteOnEvent(tick=80, channel=9, data=[38, 106]),
   midi.NoteOnEvent(tick=0, channel=9, data=[42, 106]),
   midi.NoteOnEvent(tick=160, channel=9, data=[42, 0]),
   midi.NoteOnEvent(tick=0, channel=9, data=[38, 0]),
   midi.NoteOnEvent(tick=80, channel=9, data=[42, 106]),
   midi.NoteOnEvent(tick=160, channel=9, data=[42, 0]),
   midi.NoteOnEvent(tick=80, channel=9, data=[36, 106]),
   midi.NoteOnEvent(tick=0, channel=9, data=[42, 106]),
   midi.NoteOnEvent(tick=160, channel=9, data=[42, 0]),
   midi.NoteOnEvent(tick=0, channel=9, data=[36, 0]),
   midi.NoteOnEvent(tick=80, channel=9, data=[42, 106]),
   midi.NoteOnEvent(tick=160, channel=9, data=[42, 0]),
   midi.NoteOnEvent(tick=80, channel=9, data=[38, 106]),
   midi.NoteOnEvent(tick=0, channel=9, data=[42, 106]),
   midi.NoteOnEvent(tick=160, channel=9, data=[42, 0]),
   midi.NoteOnEvent(tick=0, channel=9, data=[38, 0]),
   midi.NoteOnEvent(tick=80, channel=9, data=[42, 106]),
   midi.NoteOnEvent(tick=160, channel=9, data=[42, 0]),
   midi.NoteOnEvent(tick=80, channel=9, data=[36, 106]),
   midi.NoteOnEvent(tick=0, channel=9, data=[42, 106]),
   midi.NoteOnEvent(tick=160, channel=9, data=[42, 0]),
   midi.NoteOnEvent(tick=0, channel=9, data=[36, 0]),
   midi.NoteOnEvent(tick=80, channel=9, data=[42, 106]),
   midi.NoteOnEvent(tick=160, channel=9, data=[42, 0]),
   midi.NoteOnEvent(tick=80, channel=9, data=[38, 106]),
   midi.NoteOnEvent(tick=0, channel=9, data=[42, 106]),
   midi.NoteOnEvent(tick=160, channel=9, data=[42, 0]),
   midi.NoteOnEvent(tick=0, channel=9, data=[38, 0]),
   midi.NoteOnEvent(tick=80, channel=9, data=[42, 106]),
   midi.NoteOnEvent(tick=160, channel=9, data=[42, 0]),
   midi.NoteOnEvent(tick=80, channel=9, data=[49, 106]),
   midi.NoteOnEvent(tick=0, channel=9, data=[36, 106]),
   midi.NoteOnEvent(tick=0, channel=9, data=[42, 106]),
   midi.NoteOnEvent(tick=160, channel=9, data=[42, 0]),
   midi.NoteOnEvent(tick=0, channel=9, data=[36, 0]),
   midi.NoteOnEvent(tick=80, channel=9, data=[42, 106]),
   midi.NoteOnEvent(tick=160, channel=9, data=[42, 0]),
   midi.NoteOnEvent(tick=80, channel=9, data=[38, 106]),
   midi.NoteOnEvent(tick=0, channel=9, data=[42, 106]),
   midi.NoteOnEvent(tick=160, channel=9, data=[42, 0]),
   midi.NoteOnEvent(tick=0, channel=9, data=[38, 0]),
   midi.NoteOnEvent(tick=80, channel=9, data=[42, 106]),
   midi.NoteOnEvent(tick=160, channel=9, data=[42, 0]),
   midi.NoteOnEvent(tick=80, channel=9, data=[49, 0]),
   midi.NoteOnEvent(tick=0, channel=9, data=[36, 106]),
   midi.NoteOnEvent(tick=0, channel=9, data=[42, 106]),
   midi.NoteOnEvent(tick=160, channel=9, data=[42, 0]),
   midi.NoteOnEvent(tick=0, channel=9, data=[36, 0]),
   midi.NoteOnEvent(tick=80, channel=9, data=[42, 106]),
   midi.NoteOnEvent(tick=160, channel=9, data=[42, 0]),
   midi.NoteOnEvent(tick=80, channel=9, data=[38, 106]),
   midi.NoteOnEvent(tick=0, channel=9, data=[42, 106]),
   midi.NoteOnEvent(tick=160, channel=9, data=[42, 0]),
   midi.NoteOnEvent(tick=0, channel=9, data=[38, 0]),
   midi.NoteOnEvent(tick=80, channel=9, data=[42, 106]),
   midi.NoteOnEvent(tick=160, channel=9, data=[42, 0]),
   midi.NoteOnEvent(tick=80, channel=9, data=[36, 106]),
   midi.NoteOnEvent(tick=0, channel=9, data=[42, 106]),
   midi.NoteOnEvent(tick=160, channel=9, data=[42, 0]),
   midi.NoteOnEvent(tick=0, channel=9, data=[36, 0]),
   midi.NoteOnEvent(tick=80, channel=9, data=[42, 106]),
   midi.NoteOnEvent(tick=160, channel=9, data=[42, 0]),
   midi.NoteOnEvent(tick=80, channel=9, data=[38, 106]),
   midi.NoteOnEvent(tick=0, channel=9, data=[42, 106]),
   midi.NoteOnEvent(tick=160, channel=9, data=[42, 0]),
   midi.NoteOnEvent(tick=0, channel=9, data=[38, 0]),
   midi.NoteOnEvent(tick=80, channel=9, data=[42, 106]),
   midi.NoteOnEvent(tick=160, channel=9, data=[42, 0]),
   midi.NoteOnEvent(tick=80, channel=9, data=[36, 106]),
   midi.NoteOnEvent(tick=0, channel=9, data=[42, 106]),
   midi.NoteOnEvent(tick=160, channel=9, data=[42, 0]),
   midi.NoteOnEvent(tick=0, channel=9, data=[36, 0]),
   midi.NoteOnEvent(tick=80, channel=9, data=[42, 106]),
   midi.NoteOnEvent(tick=160, channel=9, data=[42, 0]),
   midi.NoteOnEvent(tick=80, channel=9, data=[38, 106]),
   midi.NoteOnEvent(tick=0, channel=9, data=[42, 106]),
   midi.NoteOnEvent(tick=160, channel=9, data=[42, 0]),
   midi.NoteOnEvent(tick=0, channel=9, data=[38, 0]),
   midi.NoteOnEvent(tick=80, channel=9, data=[42, 106]),
   midi.NoteOnEvent(tick=160, channel=9, data=[42, 0]),
   midi.NoteOnEvent(tick=80, channel=9, data=[42, 106]),
   midi.NoteOnEvent(tick=0, channel=9, data=[36, 106]),
   midi.NoteOnEvent(tick=0, channel=9, data=[49, 106]),
   midi.NoteOnEvent(tick=160, channel=9, data=[49, 0]),
   midi.NoteOnEvent(tick=0, channel=9, data=[36, 0]),
   midi.NoteOnEvent(tick=0, channel=9, data=[42, 0]),
   midi.NoteOnEvent(tick=80, channel=9, data=[42, 106]),
   midi.NoteOnEvent(tick=210, channel=9, data=[42, 0]),
   midi.NoteOnEvent(tick=30, channel=9, data=[42, 106]),
   midi.NoteOnEvent(tick=210, channel=9, data=[42, 0]),
   midi.NoteOnEvent(tick=30, channel=9, data=[42, 106]),
   midi.NoteOnEvent(tick=0, channel=9, data=[36, 106]),
   midi.NoteOnEvent(tick=0, channel=9, data=[49, 106]),
   midi.NoteOnEvent(tick=240, channel=9, data=[49, 0]),
   midi.NoteOnEvent(tick=0, channel=9, data=[36, 0]),
   midi.NoteOnEvent(tick=0, channel=9, data=[42, 0]),
   midi.NoteOnEvent(tick=0, channel=9, data=[42, 106]),
   midi.NoteOnEvent(tick=210, channel=9, data=[42, 0]),
   midi.NoteOnEvent(tick=30, channel=9, data=[42, 106]),
   midi.NoteOnEvent(tick=210, channel=9, data=[42, 0]),
   midi.NoteOnEvent(tick=30, channel=9, data=[42, 106]),
   midi.NoteOnEvent(tick=240, channel=9, data=[42, 0]),
   midi.NoteOnEvent(tick=0, channel=9, data=[42, 106]),
   midi.NoteOnEvent(tick=240, channel=9, data=[42, 0]),
   midi.NoteOnEvent(tick=0, channel=9, data=[42, 106]),
   midi.NoteOnEvent(tick=240, channel=9, data=[42, 0]),
   midi.NoteOnEvent(tick=0, channel=9, data=[42, 106]),
   midi.NoteOnEvent(tick=210, channel=9, data=[42, 0]),
   midi.NoteOnEvent(tick=30, channel=9, data=[42, 106]),
   midi.NoteOnEvent(tick=210, channel=9, data=[42, 0]),
   midi.NoteOnEvent(tick=30, channel=9, data=[42, 106]),
   midi.NoteOnEvent(tick=210, channel=9, data=[42, 0]),
   midi.NoteOnEvent(tick=30, channel=9, data=[42, 106]),
   midi.NoteOnEvent(tick=0, channel=9, data=[36, 106]),
   midi.NoteOnEvent(tick=210, channel=9, data=[42, 0]),
   midi.NoteOnEvent(tick=30, channel=9, data=[36, 0]),
   midi.NoteOnEvent(tick=0, channel=9, data=[42, 106]),
   midi.NoteOnEvent(tick=210, channel=9, data=[42, 0]),
   midi.NoteOnEvent(tick=30, channel=9, data=[42, 106]),
   midi.NoteOnEvent(tick=210, channel=9, data=[42, 0]),
   midi.NoteOnEvent(tick=30, channel=9, data=[42, 106]),
   midi.NoteOnEvent(tick=240, channel=9, data=[42, 0]),
   midi.NoteOnEvent(tick=0, channel=9, data=[42, 106]),
   midi.NoteOnEvent(tick=240, channel=9, data=[42, 0]),
   midi.NoteOnEvent(tick=0, channel=9, data=[42, 106]),
   midi.NoteOnEvent(tick=240, channel=9, data=[42, 0]),
   midi.NoteOnEvent(tick=0, channel=9, data=[42, 106]),
   midi.NoteOnEvent(tick=0, channel=9, data=[36, 106]),
   midi.NoteOnEvent(tick=240, channel=9, data=[36, 0]),
   midi.NoteOnEvent(tick=0, channel=9, data=[42, 0]),
   midi.NoteOnEvent(tick=0, channel=9, data=[42, 106]),
   midi.NoteOnEvent(tick=240, channel=9, data=[42, 0]),
   midi.NoteOnEvent(tick=0, channel=9, data=[42, 106]),
   midi.NoteOnEvent(tick=240, channel=9, data=[42, 0]),
   midi.NoteOnEvent(tick=0, channel=9, data=[42, 106]),
   midi.NoteOnEvent(tick=240, channel=9, data=[42, 0]),
   midi.NoteOnEvent(tick=0, channel=9, data=[42, 106]),
   midi.NoteOnEvent(tick=240, channel=9, data=[42, 0]),
   midi.NoteOnEvent(tick=0, channel=9, data=[42, 106]),
   midi.NoteOnEvent(tick=240, channel=9, data=[42, 0]),
   midi.NoteOnEvent(tick=0, channel=9, data=[42, 106]),
   midi.NoteOnEvent(tick=0, channel=9, data=[36, 106]),
   midi.NoteOnEvent(tick=0, channel=9, data=[49, 106]),
   midi.NoteOnEvent(tick=240, channel=9, data=[49, 0]),
   midi.NoteOnEvent(tick=0, channel=9, data=[36, 0]),
   midi.NoteOnEvent(tick=0, channel=9, data=[42, 0]),
   midi.NoteOnEvent(tick=0, channel=9, data=[42, 106]),
   midi.NoteOnEvent(tick=240, channel=9, data=[42, 0]),
   midi.NoteOnEvent(tick=0, channel=9, data=[42, 106]),
   midi.NoteOnEvent(tick=240, channel=9, data=[42, 0]),
   midi.NoteOnEvent(tick=0, channel=9, data=[42, 106]),
   midi.NoteOnEvent(tick=240, channel=9, data=[42, 0]),
   midi.NoteOnEvent(tick=0, channel=9, data=[42, 106]),
   midi.NoteOnEvent(tick=240, channel=9, data=[42, 0]),
   midi.NoteOnEvent(tick=0, channel=9, data=[42, 106]),
   midi.NoteOnEvent(tick=240, channel=9, data=[42, 0]),
   midi.NoteOnEvent(tick=0, channel=9, data=[42, 106]),
   midi.NoteOnEvent(tick=240, channel=9, data=[42, 0]),
   midi.NoteOnEvent(tick=0, channel=9, data=[42, 106]),
   midi.NoteOnEvent(tick=240, channel=9, data=[42, 0]),
   midi.NoteOnEvent(tick=0, channel=9, data=[42, 106]),
   midi.NoteOnEvent(tick=240, channel=9, data=[42, 0]),
   midi.NoteOnEvent(tick=0, channel=9, data=[42, 106]),
   midi.NoteOnEvent(tick=240, channel=9, data=[42, 0]),
   midi.NoteOnEvent(tick=0, channel=9, data=[42, 106]),
   midi.NoteOnEvent(tick=240, channel=9, data=[42, 0]),
   midi.NoteOnEvent(tick=0, channel=9, data=[42, 106]),
   midi.NoteOnEvent(tick=240, channel=9, data=[42, 0]),
   midi.NoteOnEvent(tick=0, channel=9, data=[42, 106]),
   midi.NoteOnEvent(tick=0, channel=9, data=[36, 106]),
   midi.NoteOnEvent(tick=0, channel=9, data=[49, 106]),
   midi.NoteOnEvent(tick=240, channel=9, data=[49, 0]),
   midi.NoteOnEvent(tick=0, channel=9, data=[36, 0]),
   midi.NoteOnEvent(tick=0, channel=9, data=[42, 0]),
   midi.NoteOnEvent(tick=0, channel=9, data=[42, 106]),
   midi.NoteOnEvent(tick=240, channel=9, data=[42, 0]),
   midi.NoteOnEvent(tick=0, channel=9, data=[42, 106]),
   midi.NoteOnEvent(tick=240, channel=9, data=[42, 0]),
   midi.NoteOnEvent(tick=0, channel=9, data=[42, 106]),
   midi.NoteOnEvent(tick=240, channel=9, data=[42, 0]),
   midi.NoteOnEvent(tick=0, channel=9, data=[42, 106]),
   midi.NoteOnEvent(tick=240, channel=9, data=[42, 0]),
   midi.NoteOnEvent(tick=0, channel=9, data=[42, 106]),
   midi.NoteOnEvent(tick=240, channel=9, data=[42, 0]),
   midi.NoteOnEvent(tick=0, channel=9, data=[42, 106]),
   midi.NoteOnEvent(tick=240, channel=9, data=[42, 0]),
   midi.NoteOnEvent(tick=0, channel=9, data=[42, 106]),
   midi.NoteOnEvent(tick=240, channel=9, data=[42, 0]),
   midi.NoteOnEvent(tick=0, channel=9, data=[42, 106]),
   midi.NoteOnEvent(tick=240, channel=9, data=[42, 0]),
   midi.NoteOnEvent(tick=0, channel=9, data=[42, 106]),
   midi.NoteOnEvent(tick=240, channel=9, data=[42, 0]),
   midi.NoteOnEvent(tick=0, channel=9, data=[42, 106]),
   midi.NoteOnEvent(tick=240, channel=9, data=[42, 0]),
   midi.NoteOnEvent(tick=0, channel=9, data=[42, 106]),
   midi.NoteOnEvent(tick=240, channel=9, data=[42, 0]),
   midi.NoteOnEvent(tick=0, channel=9, data=[42, 106]),
   midi.NoteOnEvent(tick=0, channel=9, data=[36, 106]),
   midi.NoteOnEvent(tick=0, channel=9, data=[49, 106]),
   midi.NoteOnEvent(tick=240, channel=9, data=[49, 0]),
   midi.NoteOnEvent(tick=0, channel=9, data=[36, 0]),
   midi.NoteOnEvent(tick=0, channel=9, data=[42, 0]),
   midi.NoteOnEvent(tick=0, channel=9, data=[42, 106]),
   midi.NoteOnEvent(tick=240, channel=9, data=[42, 0]),
   midi.NoteOnEvent(tick=0, channel=9, data=[42, 106]),
   midi.NoteOnEvent(tick=240, channel=9, data=[42, 0]),
   midi.NoteOnEvent(tick=0, channel=9, data=[42, 106]),
   midi.NoteOnEvent(tick=0, channel=9, data=[36, 106]),
   midi.NoteOnEvent(tick=0, channel=9, data=[49, 106]),
   midi.NoteOnEvent(tick=240, channel=9, data=[49, 0]),
   midi.NoteOnEvent(tick=0, channel=9, data=[36, 0]),
   midi.NoteOnEvent(tick=0, channel=9, data=[42, 0]),
   midi.NoteOnEvent(tick=0, channel=9, data=[42, 106]),
   midi.NoteOnEvent(tick=240, channel=9, data=[42, 0]),
   midi.NoteOnEvent(tick=0, channel=9, data=[42, 106]),
   midi.NoteOnEvent(tick=240, channel=9, data=[42, 0]),
   midi.NoteOnEvent(tick=0, channel=9, data=[42, 106]),
   midi.NoteOnEvent(tick=240, channel=9, data=[42, 0]),
   midi.NoteOnEvent(tick=0, channel=9, data=[42, 106]),
   midi.NoteOnEvent(tick=240, channel=9, data=[42, 0]),
   midi.NoteOnEvent(tick=0, channel=9, data=[42, 106]),
   midi.NoteOnEvent(tick=240, channel=9, data=[42, 0]),
   midi.NoteOnEvent(tick=0, channel=9, data=[42, 106]),
   midi.NoteOnEvent(tick=0, channel=9, data=[42, 106]),
   midi.NoteOnEvent(tick=1, channel=9, data=[42, 0]),
   midi.NoteOnEvent(tick=239, channel=9, data=[42, 0]),
   midi.NoteOnEvent(tick=0, channel=9, data=[42, 106]),
   midi.NoteOnEvent(tick=0, channel=9, data=[42, 106]),
   midi.NoteOnEvent(tick=1, channel=9, data=[42, 0]),
   midi.NoteOnEvent(tick=239, channel=9, data=[42, 0]),
   midi.NoteOnEvent(tick=0, channel=9, data=[42, 106]),
   midi.NoteOnEvent(tick=0, channel=9, data=[42, 106]),
   midi.NoteOnEvent(tick=1, channel=9, data=[42, 0]),
   midi.NoteOnEvent(tick=239, channel=9, data=[42, 0]),
   midi.NoteOnEvent(tick=0, channel=9, data=[42, 106]),
   midi.NoteOnEvent(tick=0, channel=9, data=[42, 106]),
   midi.NoteOnEvent(tick=0, channel=9, data=[36, 106]),
   midi.NoteOnEvent(tick=1, channel=9, data=[42, 0]),
   midi.NoteOnEvent(tick=239, channel=9, data=[36, 0]),
   midi.NoteOnEvent(tick=0, channel=9, data=[42, 0]),
   midi.NoteOnEvent(tick=0, channel=9, data=[42, 106]),
   midi.NoteOnEvent(tick=240, channel=9, data=[42, 0]),
   midi.NoteOnEvent(tick=0, channel=9, data=[42, 106]),
   midi.NoteOnEvent(tick=240, channel=9, data=[42, 0]),
   midi.NoteOnEvent(tick=0, channel=9, data=[42, 106]),
   midi.NoteOnEvent(tick=240, channel=9, data=[42, 0]),
   midi.NoteOnEvent(tick=0, channel=9, data=[42, 106]),
   midi.NoteOnEvent(tick=240, channel=9, data=[42, 0]),
   midi.NoteOnEvent(tick=0, channel=9, data=[42, 106]),
   midi.NoteOnEvent(tick=240, channel=9, data=[42, 0]),
   midi.NoteOnEvent(tick=0, channel=9, data=[42, 106]),
   midi.NoteOnEvent(tick=0, channel=9, data=[36, 106]),
   midi.NoteOnEvent(tick=240, channel=9, data=[36, 0]),
   midi.NoteOnEvent(tick=0, channel=9, data=[42, 0]),
   midi.NoteOnEvent(tick=0, channel=9, data=[42, 106]),
   midi.NoteOnEvent(tick=240, channel=9, data=[42, 0]),
   midi.NoteOnEvent(tick=0, channel=9, data=[42, 106]),
   midi.NoteOnEvent(tick=240, channel=9, data=[42, 0]),
   midi.NoteOnEvent(tick=0, channel=9, data=[42, 106]),
   midi.NoteOnEvent(tick=240, channel=9, data=[42, 0]),
   midi.NoteOnEvent(tick=0, channel=9, data=[42, 106]),
   midi.NoteOnEvent(tick=240, channel=9, data=[42, 0]),
   midi.NoteOnEvent(tick=0, channel=9, data=[42, 106]),
   midi.NoteOnEvent(tick=240, channel=9, data=[42, 0]),
   midi.NoteOnEvent(tick=0, channel=9, data=[42, 106]),
   midi.NoteOnEvent(tick=0, channel=9, data=[36, 106]),
   midi.NoteOnEvent(tick=0, channel=9, data=[49, 106]),
   midi.NoteOnEvent(tick=240, channel=9, data=[49, 0]),
   midi.NoteOnEvent(tick=0, channel=9, data=[36, 0]),
   midi.NoteOnEvent(tick=0, channel=9, data=[42, 0]),
   midi.NoteOnEvent(tick=0, channel=9, data=[42, 106]),
   midi.NoteOnEvent(tick=240, channel=9, data=[42, 0]),
   midi.NoteOnEvent(tick=0, channel=9, data=[42, 106]),
   midi.NoteOnEvent(tick=240, channel=9, data=[42, 0]),
   midi.NoteOnEvent(tick=0, channel=9, data=[42, 106]),
   midi.NoteOnEvent(tick=240, channel=9, data=[42, 0]),
   midi.NoteOnEvent(tick=0, channel=9, data=[42, 106]),
   midi.NoteOnEvent(tick=240, channel=9, data=[42, 0]),
   midi.NoteOnEvent(tick=0, channel=9, data=[42, 106]),
   midi.NoteOnEvent(tick=240, channel=9, data=[42, 0]),
   midi.NoteOnEvent(tick=0, channel=9, data=[42, 106]),
   midi.NoteOnEvent(tick=240, channel=9, data=[42, 0]),
   midi.NoteOnEvent(tick=0, channel=9, data=[42, 106]),
   midi.NoteOnEvent(tick=240, channel=9, data=[42, 0]),
   midi.NoteOnEvent(tick=0, channel=9, data=[42, 106]),
   midi.NoteOnEvent(tick=240, channel=9, data=[42, 0]),
   midi.NoteOnEvent(tick=0, channel=9, data=[42, 106]),
   midi.NoteOnEvent(tick=240, channel=9, data=[42, 0]),
   midi.NoteOnEvent(tick=0, channel=9, data=[42, 106]),
   midi.NoteOnEvent(tick=240, channel=9, data=[42, 0]),
   midi.NoteOnEvent(tick=0, channel=9, data=[42, 106]),
   midi.NoteOnEvent(tick=240, channel=9, data=[42, 0]),
   midi.NoteOnEvent(tick=0, channel=9, data=[42, 106]),
   midi.NoteOnEvent(tick=0, channel=9, data=[36, 106]),
   midi.NoteOnEvent(tick=0, channel=9, data=[49, 106]),
   midi.NoteOnEvent(tick=240, channel=9, data=[49, 0]),
   midi.NoteOnEvent(tick=0, channel=9, data=[36, 0]),
   midi.NoteOnEvent(tick=0, channel=9, data=[42, 0]),
   midi.NoteOnEvent(tick=0, channel=9, data=[42, 106]),
   midi.NoteOnEvent(tick=240, channel=9, data=[42, 0]),
   midi.NoteOnEvent(tick=0, channel=9, data=[42, 106]),
   midi.NoteOnEvent(tick=240, channel=9, data=[42, 0]),
   midi.NoteOnEvent(tick=0, channel=9, data=[42, 106]),
   midi.NoteOnEvent(tick=240, channel=9, data=[42, 0]),
   midi.NoteOnEvent(tick=0, channel=9, data=[42, 106]),
   midi.NoteOnEvent(tick=240, channel=9, data=[42, 0]),
   midi.NoteOnEvent(tick=0, channel=9, data=[42, 106]),
   midi.NoteOnEvent(tick=240, channel=9, data=[42, 0]),
   midi.NoteOnEvent(tick=0, channel=9, data=[42, 106]),
   midi.NoteOnEvent(tick=240, channel=9, data=[42, 0]),
   midi.NoteOnEvent(tick=0, channel=9, data=[42, 106]),
   midi.NoteOnEvent(tick=240, channel=9, data=[42, 0]),
   midi.NoteOnEvent(tick=0, channel=9, data=[42, 106]),
   midi.NoteOnEvent(tick=240, channel=9, data=[42, 0]),
   midi.NoteOnEvent(tick=0, channel=9, data=[42, 106]),
   midi.NoteOnEvent(tick=240, channel=9, data=[42, 0]),
   midi.NoteOnEvent(tick=0, channel=9, data=[42, 106]),
   midi.NoteOnEvent(tick=240, channel=9, data=[42, 0]),
   midi.NoteOnEvent(tick=0, channel=9, data=[42, 106]),
   midi.NoteOnEvent(tick=240, channel=9, data=[42, 0]),
   midi.NoteOnEvent(tick=0, channel=9, data=[42, 106]),
   midi.NoteOnEvent(tick=0, channel=9, data=[36, 106]),
   midi.NoteOnEvent(tick=0, channel=9, data=[49, 106]),
   midi.NoteOnEvent(tick=240, channel=9, data=[49, 0]),
   midi.NoteOnEvent(tick=0, channel=9, data=[36, 0]),
   midi.NoteOnEvent(tick=0, channel=9, data=[42, 0]),
   midi.NoteOnEvent(tick=0, channel=9, data=[42, 106]),
   midi.NoteOnEvent(tick=240, channel=9, data=[42, 0]),
   midi.NoteOnEvent(tick=0, channel=9, data=[42, 106]),
   midi.NoteOnEvent(tick=240, channel=9, data=[42, 0]),
   midi.NoteOnEvent(tick=0, channel=9, data=[42, 106]),
   midi.NoteOnEvent(tick=0, channel=9, data=[36, 106]),
   midi.NoteOnEvent(tick=0, channel=9, data=[49, 106]),
   midi.NoteOnEvent(tick=240, channel=9, data=[49, 0]),
   midi.NoteOnEvent(tick=0, channel=9, data=[36, 0]),
   midi.NoteOnEvent(tick=0, channel=9, data=[42, 0]),
   midi.NoteOnEvent(tick=0, channel=9, data=[42, 106]),
   midi.NoteOnEvent(tick=240, channel=9, data=[42, 0]),
   midi.NoteOnEvent(tick=0, channel=9, data=[42, 106]),
   midi.NoteOnEvent(tick=240, channel=9, data=[42, 0]),
   midi.NoteOnEvent(tick=0, channel=9, data=[42, 106]),
   midi.NoteOnEvent(tick=0, channel=9, data=[36, 106]),
   midi.NoteOnEvent(tick=0, channel=9, data=[49, 106]),
   midi.NoteOnEvent(tick=240, channel=9, data=[49, 0]),
   midi.NoteOnEvent(tick=0, channel=9, data=[36, 0]),
   midi.NoteOnEvent(tick=0, channel=9, data=[42, 0]),
   midi.NoteOnEvent(tick=0, channel=9, data=[42, 106]),
   midi.NoteOnEvent(tick=240, channel=9, data=[42, 0]),
   midi.NoteOnEvent(tick=0, channel=9, data=[42, 106]),
   midi.NoteOnEvent(tick=240, channel=9, data=[42, 0]),
   midi.NoteOnEvent(tick=0, channel=9, data=[42, 106]),
   midi.NoteOnEvent(tick=240, channel=9, data=[42, 0]),
   midi.NoteOnEvent(tick=0, channel=9, data=[42, 106]),
   midi.NoteOnEvent(tick=120, channel=9, data=[42, 0]),
   midi.NoteOnEvent(tick=0, channel=9, data=[42, 106]),
   midi.NoteOnEvent(tick=120, channel=9, data=[42, 0]),
   midi.NoteOnEvent(tick=0, channel=9, data=[42, 106]),
   midi.NoteOnEvent(tick=240, channel=9, data=[42, 0]),
   midi.NoteOnEvent(tick=0, channel=9, data=[42, 106]),
   midi.NoteOnEvent(tick=0, channel=9, data=[36, 106]),
   midi.NoteOnEvent(tick=0, channel=9, data=[49, 106]),
   midi.NoteOnEvent(tick=240, channel=9, data=[49, 0]),
   midi.NoteOnEvent(tick=0, channel=9, data=[36, 0]),
   midi.NoteOnEvent(tick=0, channel=9, data=[42, 0]),
   midi.NoteOnEvent(tick=0, channel=9, data=[42, 106]),
   midi.NoteOnEvent(tick=240, channel=9, data=[42, 0]),
   midi.NoteOnEvent(tick=0, channel=9, data=[42, 106]),
   midi.NoteOnEvent(tick=240, channel=9, data=[42, 0]),
   midi.NoteOnEvent(tick=0, channel=9, data=[42, 106]),
   midi.NoteOnEvent(tick=0, channel=9, data=[36, 106]),
   midi.NoteOnEvent(tick=0, channel=9, data=[49, 106]),
   midi.NoteOnEvent(tick=240, channel=9, data=[49, 0]),
   midi.NoteOnEvent(tick=0, channel=9, data=[36, 0]),
   midi.NoteOnEvent(tick=0, channel=9, data=[42, 0]),
   midi.NoteOnEvent(tick=0, channel=9, data=[42, 106]),
   midi.NoteOnEvent(tick=240, channel=9, data=[42, 0]),
   midi.NoteOnEvent(tick=0, channel=9, data=[42, 106]),
   midi.NoteOnEvent(tick=240, channel=9, data=[42, 0]),
   midi.NoteOnEvent(tick=0, channel=9, data=[42, 106]),
   midi.NoteOnEvent(tick=0, channel=9, data=[36, 106]),
   midi.NoteOnEvent(tick=0, channel=9, data=[49, 106]),
   midi.NoteOnEvent(tick=240, channel=9, data=[49, 0]),
   midi.NoteOnEvent(tick=0, channel=9, data=[36, 0]),
   midi.NoteOnEvent(tick=0, channel=9, data=[42, 0]),
   midi.NoteOnEvent(tick=0, channel=9, data=[42, 106]),
   midi.NoteOnEvent(tick=240, channel=9, data=[42, 0]),
   midi.NoteOnEvent(tick=0, channel=9, data=[42, 106]),
   midi.NoteOnEvent(tick=240, channel=9, data=[42, 0]),
   midi.NoteOnEvent(tick=0, channel=9, data=[42, 106]),
   midi.NoteOnEvent(tick=240, channel=9, data=[42, 0]),
   midi.NoteOnEvent(tick=0, channel=9, data=[42, 106]),
   midi.NoteOnEvent(tick=120, channel=9, data=[42, 0]),
   midi.NoteOnEvent(tick=0, channel=9, data=[42, 106]),
   midi.NoteOnEvent(tick=120, channel=9, data=[42, 0]),
   midi.NoteOnEvent(tick=0, channel=9, data=[42, 106]),
   midi.NoteOnEvent(tick=240, channel=9, data=[42, 0]),
   midi.NoteOnEvent(tick=0, channel=9, data=[42, 106]),
   midi.NoteOnEvent(tick=0, channel=9, data=[36, 106]),
   midi.NoteOnEvent(tick=0, channel=9, data=[49, 106]),
   midi.NoteOnEvent(tick=240, channel=9, data=[49, 0]),
   midi.NoteOnEvent(tick=0, channel=9, data=[36, 0]),
   midi.NoteOnEvent(tick=0, channel=9, data=[42, 0]),
   midi.NoteOnEvent(tick=0, channel=9, data=[42, 106]),
   midi.NoteOnEvent(tick=240, channel=9, data=[42, 0]),
   midi.NoteOnEvent(tick=0, channel=9, data=[42, 106]),
   midi.NoteOnEvent(tick=240, channel=9, data=[42, 0]),
   midi.NoteOnEvent(tick=0, channel=9, data=[42, 106]),
   midi.NoteOnEvent(tick=0, channel=9, data=[36, 106]),
   midi.NoteOnEvent(tick=0, channel=9, data=[49, 106]),
   midi.NoteOnEvent(tick=240, channel=9, data=[49, 0]),
   midi.NoteOnEvent(tick=0, channel=9, data=[36, 0]),
   midi.NoteOnEvent(tick=0, channel=9, data=[42, 0]),
   midi.NoteOnEvent(tick=0, channel=9, data=[42, 106]),
   midi.NoteOnEvent(tick=240, channel=9, data=[42, 0]),
   midi.NoteOnEvent(tick=0, channel=9, data=[42, 106]),
   midi.NoteOnEvent(tick=240, channel=9, data=[42, 0]),
   midi.NoteOnEvent(tick=0, channel=9, data=[42, 106]),
   midi.NoteOnEvent(tick=240, channel=9, data=[42, 0]),
   midi.NoteOnEvent(tick=0, channel=9, data=[42, 106]),
   midi.NoteOnEvent(tick=240, channel=9, data=[42, 0]),
   midi.NoteOnEvent(tick=0, channel=9, data=[42, 106]),
   midi.NoteOnEvent(tick=240, channel=9, data=[42, 0]),
   midi.NoteOnEvent(tick=0, channel=9, data=[42, 106]),
   midi.NoteOnEvent(tick=240, channel=9, data=[42, 0]),
   midi.NoteOnEvent(tick=0, channel=9, data=[42, 106]),
   midi.NoteOnEvent(tick=240, channel=9, data=[42, 0]),
   midi.NoteOnEvent(tick=0, channel=9, data=[42, 106]),
   midi.NoteOnEvent(tick=240, channel=9, data=[42, 0]),
   midi.NoteOnEvent(tick=0, channel=9, data=[42, 106]),
   midi.NoteOnEvent(tick=0, channel=9, data=[36, 106]),
   midi.NoteOnEvent(tick=240, channel=9, data=[36, 0]),
   midi.NoteOnEvent(tick=0, channel=9, data=[42, 0]),
   midi.NoteOnEvent(tick=0, channel=9, data=[42, 106]),
   midi.NoteOnEvent(tick=240, channel=9, data=[42, 0]),
   midi.NoteOnEvent(tick=0, channel=9, data=[42, 106]),
   midi.NoteOnEvent(tick=240, channel=9, data=[42, 0]),
   midi.NoteOnEvent(tick=0, channel=9, data=[42, 106]),
   midi.NoteOnEvent(tick=240, channel=9, data=[42, 0]),
   midi.NoteOnEvent(tick=0, channel=9, data=[42, 106]),
   midi.NoteOnEvent(tick=240, channel=9, data=[42, 0]),
   midi.NoteOnEvent(tick=0, channel=9, data=[42, 106]),
   midi.NoteOnEvent(tick=240, channel=9, data=[42, 0]),
   midi.NoteOnEvent(tick=0, channel=9, data=[42, 106]),
   midi.NoteOnEvent(tick=0, channel=9, data=[36, 106]),
   midi.NoteOnEvent(tick=240, channel=9, data=[36, 0]),
   midi.NoteOnEvent(tick=0, channel=9, data=[42, 0]),
   midi.NoteOnEvent(tick=0, channel=9, data=[42, 106]),
   midi.NoteOnEvent(tick=240, channel=9, data=[42, 0]),
   midi.NoteOnEvent(tick=0, channel=9, data=[42, 106]),
   midi.NoteOnEvent(tick=240, channel=9, data=[42, 0]),
   midi.NoteOnEvent(tick=0, channel=9, data=[42, 106]),
   midi.NoteOnEvent(tick=240, channel=9, data=[42, 0]),
   midi.NoteOnEvent(tick=0, channel=9, data=[42, 106]),
   midi.NoteOnEvent(tick=240, channel=9, data=[42, 0]),
   midi.NoteOnEvent(tick=0, channel=9, data=[42, 106]),
   midi.NoteOnEvent(tick=240, channel=9, data=[42, 0]),
   midi.NoteOnEvent(tick=0, channel=9, data=[42, 106]),
   midi.NoteOnEvent(tick=0, channel=9, data=[36, 106]),
   midi.NoteOnEvent(tick=0, channel=9, data=[49, 106]),
   midi.NoteOnEvent(tick=240, channel=9, data=[49, 0]),
   midi.NoteOnEvent(tick=0, channel=9, data=[36, 0]),
   midi.NoteOnEvent(tick=0, channel=9, data=[42, 0]),
   midi.NoteOnEvent(tick=0, channel=9, data=[42, 106]),
   midi.NoteOnEvent(tick=240, channel=9, data=[42, 0]),
   midi.NoteOnEvent(tick=0, channel=9, data=[42, 106]),
   midi.NoteOnEvent(tick=240, channel=9, data=[42, 0]),
   midi.NoteOnEvent(tick=0, channel=9, data=[42, 106]),
   midi.NoteOnEvent(tick=240, channel=9, data=[42, 0]),
   midi.NoteOnEvent(tick=0, channel=9, data=[42, 106]),
   midi.NoteOnEvent(tick=240, channel=9, data=[42, 0]),
   midi.NoteOnEvent(tick=0, channel=9, data=[42, 106]),
   midi.NoteOnEvent(tick=240, channel=9, data=[42, 0]),
   midi.NoteOnEvent(tick=0, channel=9, data=[42, 106]),
   midi.NoteOnEvent(tick=240, channel=9, data=[42, 0]),
   midi.NoteOnEvent(tick=0, channel=9, data=[42, 106]),
   midi.NoteOnEvent(tick=240, channel=9, data=[42, 0]),
   midi.NoteOnEvent(tick=0, channel=9, data=[42, 106]),
   midi.NoteOnEvent(tick=240, channel=9, data=[42, 0]),
   midi.NoteOnEvent(tick=0, channel=9, data=[42, 106]),
   midi.NoteOnEvent(tick=240, channel=9, data=[42, 0]),
   midi.NoteOnEvent(tick=0, channel=9, data=[42, 106]),
   midi.NoteOnEvent(tick=240, channel=9, data=[42, 0]),
   midi.NoteOnEvent(tick=0, channel=9, data=[42, 106]),
   midi.NoteOnEvent(tick=240, channel=9, data=[42, 0]),
   midi.NoteOnEvent(tick=0, channel=9, data=[42, 106]),
   midi.NoteOnEvent(tick=0, channel=9, data=[36, 106]),
   midi.NoteOnEvent(tick=0, channel=9, data=[49, 106]),
   midi.NoteOnEvent(tick=240, channel=9, data=[49, 0]),
   midi.NoteOnEvent(tick=0, channel=9, data=[36, 0]),
   midi.NoteOnEvent(tick=0, channel=9, data=[42, 0]),
   midi.NoteOnEvent(tick=0, channel=9, data=[42, 106]),
   midi.NoteOnEvent(tick=240, channel=9, data=[42, 0]),
   midi.NoteOnEvent(tick=0, channel=9, data=[42, 106]),
   midi.NoteOnEvent(tick=240, channel=9, data=[42, 0]),
   midi.NoteOnEvent(tick=0, channel=9, data=[42, 106]),
   midi.NoteOnEvent(tick=240, channel=9, data=[42, 0]),
   midi.NoteOnEvent(tick=0, channel=9, data=[42, 106]),
   midi.NoteOnEvent(tick=240, channel=9, data=[42, 0]),
   midi.NoteOnEvent(tick=0, channel=9, data=[42, 106]),
   midi.NoteOnEvent(tick=240, channel=9, data=[42, 0]),
   midi.NoteOnEvent(tick=0, channel=9, data=[42, 106]),
   midi.NoteOnEvent(tick=240, channel=9, data=[42, 0]),
   midi.NoteOnEvent(tick=0, channel=9, data=[42, 106]),
   midi.NoteOnEvent(tick=240, channel=9, data=[42, 0]),
   midi.NoteOnEvent(tick=0, channel=9, data=[42, 106]),
   midi.NoteOnEvent(tick=240, channel=9, data=[42, 0]),
   midi.NoteOnEvent(tick=0, channel=9, data=[42, 106]),
   midi.NoteOnEvent(tick=240, channel=9, data=[42, 0]),
   midi.NoteOnEvent(tick=0, channel=9, data=[42, 106]),
   midi.NoteOnEvent(tick=240, channel=9, data=[42, 0]),
   midi.NoteOnEvent(tick=0, channel=9, data=[42, 106]),
   midi.NoteOnEvent(tick=240, channel=9, data=[42, 0]),
   midi.NoteOnEvent(tick=0, channel=9, data=[36, 106]),
   midi.NoteOnEvent(tick=0, channel=9, data=[42, 106]),
   midi.NoteOnEvent(tick=0, channel=9, data=[49, 106]),
   midi.NoteOnEvent(tick=240, channel=9, data=[49, 0]),
   midi.NoteOnEvent(tick=0, channel=9, data=[42, 0]),
   midi.NoteOnEvent(tick=0, channel=9, data=[36, 0]),
   midi.NoteOnEvent(tick=0, channel=9, data=[42, 106]),
   midi.NoteOnEvent(tick=240, channel=9, data=[42, 0]),
   midi.NoteOnEvent(tick=0, channel=9, data=[38, 106]),
   midi.NoteOnEvent(tick=0, channel=9, data=[42, 106]),
   midi.NoteOnEvent(tick=240, channel=9, data=[42, 0]),
   midi.NoteOnEvent(tick=0, channel=9, data=[38, 0]),
   midi.NoteOnEvent(tick=0, channel=9, data=[42, 106]),
   midi.NoteOnEvent(tick=240, channel=9, data=[42, 0]),
   midi.NoteOnEvent(tick=0, channel=9, data=[36, 106]),
   midi.NoteOnEvent(tick=0, channel=9, data=[42, 106]),
   midi.NoteOnEvent(tick=240, channel=9, data=[42, 0]),
   midi.NoteOnEvent(tick=0, channel=9, data=[36, 0]),
   midi.NoteOnEvent(tick=0, channel=9, data=[42, 106]),
   midi.NoteOnEvent(tick=240, channel=9, data=[42, 0]),
   midi.NoteOnEvent(tick=0, channel=9, data=[38, 106]),
   midi.NoteOnEvent(tick=0, channel=9, data=[42, 106]),
   midi.NoteOnEvent(tick=240, channel=9, data=[42, 0]),
   midi.NoteOnEvent(tick=0, channel=9, data=[38, 0]),
   midi.NoteOnEvent(tick=0, channel=9, data=[42, 106]),
   midi.NoteOnEvent(tick=240, channel=9, data=[42, 0]),
   midi.NoteOnEvent(tick=0, channel=9, data=[36, 95]),
   midi.NoteOnEvent(tick=0, channel=9, data=[42, 106]),
   midi.NoteOnEvent(tick=160, channel=9, data=[36, 0]),
   midi.NoteOnEvent(tick=80, channel=9, data=[42, 0]),
   midi.NoteOnEvent(tick=0, channel=9, data=[42, 106]),
   midi.NoteOnEvent(tick=240, channel=9, data=[42, 0]),
   midi.NoteOnEvent(tick=0, channel=9, data=[38, 106]),
   midi.NoteOnEvent(tick=0, channel=9, data=[42, 106]),
   midi.NoteOnEvent(tick=240, channel=9, data=[42, 0]),
   midi.NoteOnEvent(tick=0, channel=9, data=[38, 0]),
   midi.NoteOnEvent(tick=0, channel=9, data=[42, 106]),
   midi.NoteOnEvent(tick=240, channel=9, data=[42, 0]),
   midi.NoteOnEvent(tick=0, channel=9, data=[36, 106]),
   midi.NoteOnEvent(tick=0, channel=9, data=[42, 106]),
   midi.NoteOnEvent(tick=240, channel=9, data=[42, 0]),
   midi.NoteOnEvent(tick=0, channel=9, data=[36, 0]),
   midi.NoteOnEvent(tick=0, channel=9, data=[42, 106]),
   midi.NoteOnEvent(tick=240, channel=9, data=[42, 0]),
   midi.NoteOnEvent(tick=0, channel=9, data=[38, 106]),
   midi.NoteOnEvent(tick=0, channel=9, data=[42, 106]),
   midi.NoteOnEvent(tick=240, channel=9, data=[42, 0]),
   midi.NoteOnEvent(tick=0, channel=9, data=[38, 0]),
   midi.NoteOnEvent(tick=0, channel=9, data=[42, 106]),
   midi.NoteOnEvent(tick=240, channel=9, data=[42, 0]),
   midi.NoteOnEvent(tick=0, channel=9, data=[36, 106]),
   midi.NoteOnEvent(tick=0, channel=9, data=[42, 106]),
   midi.NoteOnEvent(tick=240, channel=9, data=[42, 0]),
   midi.NoteOnEvent(tick=0, channel=9, data=[36, 0]),
   midi.NoteOnEvent(tick=0, channel=9, data=[42, 106]),
   midi.NoteOnEvent(tick=240, channel=9, data=[42, 0]),
   midi.NoteOnEvent(tick=0, channel=9, data=[38, 106]),
   midi.NoteOnEvent(tick=0, channel=9, data=[42, 106]),
   midi.NoteOnEvent(tick=240, channel=9, data=[42, 0]),
   midi.NoteOnEvent(tick=0, channel=9, data=[38, 0]),
   midi.NoteOnEvent(tick=0, channel=9, data=[42, 106]),
   midi.NoteOnEvent(tick=240, channel=9, data=[42, 0]),
   midi.NoteOnEvent(tick=0, channel=9, data=[36, 106]),
   midi.NoteOnEvent(tick=0, channel=9, data=[42, 106]),
   midi.NoteOnEvent(tick=240, channel=9, data=[42, 0]),
   midi.NoteOnEvent(tick=0, channel=9, data=[36, 0]),
   midi.NoteOnEvent(tick=0, channel=9, data=[42, 106]),
   midi.NoteOnEvent(tick=240, channel=9, data=[42, 0]),
   midi.NoteOnEvent(tick=0, channel=9, data=[38, 106]),
   midi.NoteOnEvent(tick=0, channel=9, data=[42, 106]),
   midi.NoteOnEvent(tick=240, channel=9, data=[42, 0]),
   midi.NoteOnEvent(tick=0, channel=9, data=[38, 0]),
   midi.NoteOnEvent(tick=0, channel=9, data=[42, 106]),
   midi.NoteOnEvent(tick=240, channel=9, data=[42, 0]),
   midi.NoteOnEvent(tick=0, channel=9, data=[36, 106]),
   midi.NoteOnEvent(tick=0, channel=9, data=[42, 106]),
   midi.NoteOnEvent(tick=240, channel=9, data=[42, 0]),
   midi.NoteOnEvent(tick=0, channel=9, data=[36, 0]),
   midi.NoteOnEvent(tick=0, channel=9, data=[42, 106]),
   midi.NoteOnEvent(tick=240, channel=9, data=[42, 0]),
   midi.NoteOnEvent(tick=0, channel=9, data=[38, 106]),
   midi.NoteOnEvent(tick=0, channel=9, data=[42, 106]),
   midi.NoteOnEvent(tick=240, channel=9, data=[42, 0]),
   midi.NoteOnEvent(tick=0, channel=9, data=[38, 0]),
   midi.NoteOnEvent(tick=0, channel=9, data=[42, 106]),
   midi.NoteOnEvent(tick=240, channel=9, data=[42, 0]),
   midi.NoteOnEvent(tick=0, channel=9, data=[36, 106]),
   midi.NoteOnEvent(tick=0, channel=9, data=[42, 106]),
   midi.NoteOnEvent(tick=240, channel=9, data=[42, 0]),
   midi.NoteOnEvent(tick=0, channel=9, data=[36, 0]),
   midi.NoteOnEvent(tick=0, channel=9, data=[42, 106]),
   midi.NoteOnEvent(tick=240, channel=9, data=[42, 0]),
   midi.NoteOnEvent(tick=0, channel=9, data=[38, 106]),
   midi.NoteOnEvent(tick=0, channel=9, data=[42, 106]),
   midi.NoteOnEvent(tick=240, channel=9, data=[42, 0]),
   midi.NoteOnEvent(tick=0, channel=9, data=[38, 0]),
   midi.NoteOnEvent(tick=0, channel=9, data=[42, 106]),
   midi.NoteOnEvent(tick=240, channel=9, data=[42, 0]),
   midi.NoteOnEvent(tick=0, channel=9, data=[49, 106]),
   midi.NoteOnEvent(tick=0, channel=9, data=[36, 106]),
   midi.NoteOnEvent(tick=0, channel=9, data=[42, 106]),
   midi.NoteOnEvent(tick=240, channel=9, data=[42, 0]),
   midi.NoteOnEvent(tick=0, channel=9, data=[36, 0]),
   midi.NoteOnEvent(tick=0, channel=9, data=[42, 106]),
   midi.NoteOnEvent(tick=240, channel=9, data=[42, 0]),
   midi.NoteOnEvent(tick=0, channel=9, data=[38, 106]),
   midi.NoteOnEvent(tick=0, channel=9, data=[42, 106]),
   midi.NoteOnEvent(tick=240, channel=9, data=[42, 0]),
   midi.NoteOnEvent(tick=0, channel=9, data=[38, 0]),
   midi.NoteOnEvent(tick=0, channel=9, data=[42, 106]),
   midi.NoteOnEvent(tick=240, channel=9, data=[42, 0]),
   midi.NoteOnEvent(tick=0, channel=9, data=[49, 0]),
   midi.NoteOnEvent(tick=0, channel=9, data=[36, 106]),
   midi.NoteOnEvent(tick=0, channel=9, data=[42, 106]),
   midi.NoteOnEvent(tick=240, channel=9, data=[42, 0]),
   midi.NoteOnEvent(tick=0, channel=9, data=[36, 0]),
   midi.NoteOnEvent(tick=0, channel=9, data=[42, 106]),
   midi.NoteOnEvent(tick=240, channel=9, data=[42, 0]),
   midi.NoteOnEvent(tick=0, channel=9, data=[38, 106]),
   midi.NoteOnEvent(tick=0, channel=9, data=[42, 106]),
   midi.NoteOnEvent(tick=240, channel=9, data=[42, 0]),
   midi.NoteOnEvent(tick=0, channel=9, data=[38, 0]),
   midi.NoteOnEvent(tick=0, channel=9, data=[42, 106]),
   midi.NoteOnEvent(tick=240, channel=9, data=[42, 0]),
   midi.NoteOnEvent(tick=0, channel=9, data=[49, 106]),
   midi.NoteOnEvent(tick=0, channel=9, data=[36, 106]),
   midi.NoteOnEvent(tick=0, channel=9, data=[42, 106]),
   midi.NoteOnEvent(tick=240, channel=9, data=[42, 0]),
   midi.NoteOnEvent(tick=0, channel=9, data=[36, 0]),
   midi.NoteOnEvent(tick=0, channel=9, data=[42, 106]),
   midi.NoteOnEvent(tick=240, channel=9, data=[42, 0]),
   midi.NoteOnEvent(tick=0, channel=9, data=[38, 106]),
   midi.NoteOnEvent(tick=0, channel=9, data=[42, 106]),
   midi.NoteOnEvent(tick=240, channel=9, data=[42, 0]),
   midi.NoteOnEvent(tick=0, channel=9, data=[38, 0]),
   midi.NoteOnEvent(tick=0, channel=9, data=[42, 106]),
   midi.NoteOnEvent(tick=240, channel=9, data=[42, 0]),
   midi.NoteOnEvent(tick=0, channel=9, data=[49, 0]),
   midi.NoteOnEvent(tick=0, channel=9, data=[36, 106]),
   midi.NoteOnEvent(tick=0, channel=9, data=[42, 106]),
   midi.NoteOnEvent(tick=240, channel=9, data=[42, 0]),
   midi.NoteOnEvent(tick=0, channel=9, data=[36, 0]),
   midi.NoteOnEvent(tick=0, channel=9, data=[42, 106]),
   midi.NoteOnEvent(tick=240, channel=9, data=[42, 0]),
   midi.NoteOnEvent(tick=0, channel=9, data=[42, 106]),
   midi.NoteOnEvent(tick=0, channel=9, data=[38, 106]),
   midi.NoteOnEvent(tick=240, channel=9, data=[38, 0]),
   midi.NoteOnEvent(tick=0, channel=9, data=[42, 0]),
   midi.NoteOnEvent(tick=0, channel=9, data=[49, 106]),
   midi.NoteOnEvent(tick=0, channel=9, data=[36, 106]),
   midi.NoteOnEvent(tick=0, channel=9, data=[42, 106]),
   midi.NoteOnEvent(tick=240, channel=9, data=[42, 0]),
   midi.NoteOnEvent(tick=0, channel=9, data=[36, 0]),
   midi.NoteOnEvent(tick=0, channel=9, data=[42, 106]),
   midi.NoteOnEvent(tick=240, channel=9, data=[42, 0]),
   midi.NoteOnEvent(tick=0, channel=9, data=[38, 106]),
   midi.NoteOnEvent(tick=0, channel=9, data=[42, 106]),
   midi.NoteOnEvent(tick=240, channel=9, data=[42, 0]),
   midi.NoteOnEvent(tick=0, channel=9, data=[38, 0]),
   midi.NoteOnEvent(tick=0, channel=9, data=[42, 106]),
   midi.NoteOnEvent(tick=240, channel=9, data=[42, 0]),
   midi.NoteOnEvent(tick=0, channel=9, data=[49, 0]),
   midi.NoteOnEvent(tick=0, channel=9, data=[36, 106]),
   midi.NoteOnEvent(tick=0, channel=9, data=[42, 106]),
   midi.NoteOnEvent(tick=240, channel=9, data=[42, 0]),
   midi.NoteOnEvent(tick=0, channel=9, data=[36, 0]),
   midi.NoteOnEvent(tick=0, channel=9, data=[42, 106]),
   midi.NoteOnEvent(tick=240, channel=9, data=[42, 0]),
   midi.NoteOnEvent(tick=0, channel=9, data=[38, 106]),
   midi.NoteOnEvent(tick=0, channel=9, data=[42, 106]),
   midi.NoteOnEvent(tick=240, channel=9, data=[42, 0]),
   midi.NoteOnEvent(tick=0, channel=9, data=[38, 0]),
   midi.NoteOnEvent(tick=0, channel=9, data=[42, 106]),
   midi.NoteOnEvent(tick=240, channel=9, data=[42, 0]),
   midi.NoteOnEvent(tick=0, channel=9, data=[36, 106]),
   midi.NoteOnEvent(tick=0, channel=9, data=[42, 106]),
   midi.NoteOnEvent(tick=240, channel=9, data=[42, 0]),
   midi.NoteOnEvent(tick=0, channel=9, data=[36, 0]),
   midi.NoteOnEvent(tick=0, channel=9, data=[42, 106]),
   midi.NoteOnEvent(tick=240, channel=9, data=[42, 0]),
   midi.NoteOnEvent(tick=0, channel=9, data=[38, 106]),
   midi.NoteOnEvent(tick=0, channel=9, data=[42, 106]),
   midi.NoteOnEvent(tick=240, channel=9, data=[42, 0]),
   midi.NoteOnEvent(tick=0, channel=9, data=[38, 0]),
   midi.NoteOnEvent(tick=0, channel=9, data=[42, 106]),
   midi.NoteOnEvent(tick=240, channel=9, data=[42, 0]),
   midi.NoteOnEvent(tick=0, channel=9, data=[36, 106]),
   midi.NoteOnEvent(tick=0, channel=9, data=[42, 106]),
   midi.NoteOnEvent(tick=240, channel=9, data=[42, 0]),
   midi.NoteOnEvent(tick=0, channel=9, data=[36, 0]),
   midi.NoteOnEvent(tick=0, channel=9, data=[42, 106]),
   midi.NoteOnEvent(tick=240, channel=9, data=[42, 0]),
   midi.NoteOnEvent(tick=0, channel=9, data=[38, 106]),
   midi.NoteOnEvent(tick=0, channel=9, data=[42, 106]),
   midi.NoteOnEvent(tick=240, channel=9, data=[42, 0]),
   midi.NoteOnEvent(tick=0, channel=9, data=[38, 0]),
   midi.NoteOnEvent(tick=0, channel=9, data=[42, 106]),
   midi.NoteOnEvent(tick=0, channel=9, data=[38, 106]),
   midi.NoteOnEvent(tick=120, channel=9, data=[38, 0]),
   midi.NoteOnEvent(tick=0, channel=9, data=[38, 106]),
   midi.NoteOnEvent(tick=120, channel=9, data=[42, 0]),
   midi.NoteOnEvent(tick=0, channel=9, data=[49, 106]),
   midi.NoteOnEvent(tick=0, channel=9, data=[36, 106]),
   midi.NoteOnEvent(tick=0, channel=9, data=[42, 106]),
   midi.NoteOnEvent(tick=240, channel=9, data=[42, 0]),
   midi.NoteOnEvent(tick=0, channel=9, data=[36, 0]),
   midi.NoteOnEvent(tick=0, channel=9, data=[42, 106]),
   midi.NoteOnEvent(tick=240, channel=9, data=[42, 0]),
   midi.NoteOnEvent(tick=0, channel=9, data=[38, 0]),
   midi.NoteOnEvent(tick=0, channel=9, data=[38, 106]),
   midi.NoteOnEvent(tick=0, channel=9, data=[42, 106]),
   midi.NoteOnEvent(tick=240, channel=9, data=[42, 0]),
   midi.NoteOnEvent(tick=0, channel=9, data=[38, 0]),
   midi.NoteOnEvent(tick=0, channel=9, data=[42, 106]),
   midi.NoteOnEvent(tick=240, channel=9, data=[42, 0]),
   midi.NoteOnEvent(tick=0, channel=9, data=[49, 0]),
   midi.NoteOnEvent(tick=0, channel=9, data=[36, 106]),
   midi.NoteOnEvent(tick=0, channel=9, data=[42, 106]),
   midi.NoteOnEvent(tick=240, channel=9, data=[42, 0]),
   midi.NoteOnEvent(tick=0, channel=9, data=[36, 0]),
   midi.NoteOnEvent(tick=0, channel=9, data=[42, 106]),
   midi.NoteOnEvent(tick=240, channel=9, data=[42, 0]),
   midi.NoteOnEvent(tick=0, channel=9, data=[38, 106]),
   midi.NoteOnEvent(tick=0, channel=9, data=[42, 106]),
   midi.NoteOnEvent(tick=240, channel=9, data=[42, 0]),
   midi.NoteOnEvent(tick=0, channel=9, data=[38, 0]),
   midi.NoteOnEvent(tick=0, channel=9, data=[42, 106]),
   midi.NoteOnEvent(tick=240, channel=9, data=[42, 0]),
   midi.NoteOnEvent(tick=0, channel=9, data=[49, 106]),
   midi.NoteOnEvent(tick=0, channel=9, data=[36, 106]),
   midi.NoteOnEvent(tick=0, channel=9, data=[42, 106]),
   midi.NoteOnEvent(tick=240, channel=9, data=[42, 0]),
   midi.NoteOnEvent(tick=0, channel=9, data=[36, 0]),
   midi.NoteOnEvent(tick=0, channel=9, data=[42, 106]),
   midi.NoteOnEvent(tick=240, channel=9, data=[42, 0]),
   midi.NoteOnEvent(tick=0, channel=9, data=[38, 106]),
   midi.NoteOnEvent(tick=0, channel=9, data=[42, 106]),
   midi.NoteOnEvent(tick=240, channel=9, data=[42, 0]),
   midi.NoteOnEvent(tick=0, channel=9, data=[38, 0]),
   midi.NoteOnEvent(tick=0, channel=9, data=[42, 106]),
   midi.NoteOnEvent(tick=240, channel=9, data=[42, 0]),
   midi.NoteOnEvent(tick=0, channel=9, data=[49, 0]),
   midi.NoteOnEvent(tick=0, channel=9, data=[36, 106]),
   midi.NoteOnEvent(tick=0, channel=9, data=[42, 106]),
   midi.NoteOnEvent(tick=240, channel=9, data=[42, 0]),
   midi.NoteOnEvent(tick=0, channel=9, data=[36, 0]),
   midi.NoteOnEvent(tick=0, channel=9, data=[42, 106]),
   midi.NoteOnEvent(tick=240, channel=9, data=[42, 0]),
   midi.NoteOnEvent(tick=0, channel=9, data=[38, 106]),
   midi.NoteOnEvent(tick=0, channel=9, data=[42, 106]),
   midi.NoteOnEvent(tick=240, channel=9, data=[42, 0]),
   midi.NoteOnEvent(tick=0, channel=9, data=[38, 0]),
   midi.NoteOnEvent(tick=0, channel=9, data=[42, 106]),
   midi.NoteOnEvent(tick=240, channel=9, data=[42, 0]),
   midi.NoteOnEvent(tick=0, channel=9, data=[36, 106]),
   midi.NoteOnEvent(tick=0, channel=9, data=[42, 106]),
   midi.NoteOnEvent(tick=240, channel=9, data=[42, 0]),
   midi.NoteOnEvent(tick=0, channel=9, data=[36, 0]),
   midi.NoteOnEvent(tick=0, channel=9, data=[42, 106]),
   midi.NoteOnEvent(tick=240, channel=9, data=[42, 0]),
   midi.NoteOnEvent(tick=0, channel=9, data=[38, 106]),
   midi.NoteOnEvent(tick=0, channel=9, data=[42, 106]),
   midi.NoteOnEvent(tick=240, channel=9, data=[42, 0]),
   midi.NoteOnEvent(tick=0, channel=9, data=[38, 0]),
   midi.NoteOnEvent(tick=0, channel=9, data=[42, 106]),
   midi.NoteOnEvent(tick=240, channel=9, data=[42, 0]),
   midi.NoteOnEvent(tick=0, channel=9, data=[36, 106]),
   midi.NoteOnEvent(tick=0, channel=9, data=[42, 106]),
   midi.NoteOnEvent(tick=240, channel=9, data=[42, 0]),
   midi.NoteOnEvent(tick=0, channel=9, data=[36, 0]),
   midi.NoteOnEvent(tick=0, channel=9, data=[42, 106]),
   midi.NoteOnEvent(tick=240, channel=9, data=[42, 0]),
   midi.NoteOnEvent(tick=0, channel=9, data=[38, 106]),
   midi.NoteOnEvent(tick=0, channel=9, data=[42, 106]),
   midi.NoteOnEvent(tick=240, channel=9, data=[42, 0]),
   midi.NoteOnEvent(tick=0, channel=9, data=[38, 0]),
   midi.NoteOnEvent(tick=0, channel=9, data=[42, 106]),
   midi.NoteOnEvent(tick=240, channel=9, data=[42, 0]),
   midi.NoteOnEvent(tick=0, channel=9, data=[49, 106]),
   midi.NoteOnEvent(tick=0, channel=9, data=[36, 106]),
   midi.NoteOnEvent(tick=0, channel=9, data=[42, 106]),
   midi.NoteOnEvent(tick=240, channel=9, data=[42, 0]),
   midi.NoteOnEvent(tick=0, channel=9, data=[36, 0]),
   midi.NoteOnEvent(tick=0, channel=9, data=[42, 106]),
   midi.NoteOnEvent(tick=240, channel=9, data=[42, 0]),
   midi.NoteOnEvent(tick=0, channel=9, data=[38, 106]),
   midi.NoteOnEvent(tick=0, channel=9, data=[42, 106]),
   midi.NoteOnEvent(tick=240, channel=9, data=[42, 0]),
   midi.NoteOnEvent(tick=0, channel=9, data=[38, 0]),
   midi.NoteOnEvent(tick=0, channel=9, data=[42, 106]),
   midi.NoteOnEvent(tick=240, channel=9, data=[42, 0]),
   midi.NoteOnEvent(tick=0, channel=9, data=[49, 0]),
   midi.NoteOnEvent(tick=0, channel=9, data=[36, 106]),
   midi.NoteOnEvent(tick=0, channel=9, data=[42, 106]),
   midi.NoteOnEvent(tick=240, channel=9, data=[42, 0]),
   midi.NoteOnEvent(tick=0, channel=9, data=[36, 0]),
   midi.NoteOnEvent(tick=0, channel=9, data=[42, 106]),
   midi.NoteOnEvent(tick=240, channel=9, data=[42, 0]),
   midi.NoteOnEvent(tick=0, channel=9, data=[38, 106]),
   midi.NoteOnEvent(tick=0, channel=9, data=[42, 106]),
   midi.NoteOnEvent(tick=240, channel=9, data=[42, 0]),
   midi.NoteOnEvent(tick=0, channel=9, data=[38, 0]),
   midi.NoteOnEvent(tick=0, channel=9, data=[42, 106]),
   midi.NoteOnEvent(tick=240, channel=9, data=[42, 0]),
   midi.NoteOnEvent(tick=0, channel=9, data=[36, 106]),
   midi.NoteOnEvent(tick=0, channel=9, data=[42, 106]),
   midi.NoteOnEvent(tick=240, channel=9, data=[42, 0]),
   midi.NoteOnEvent(tick=0, channel=9, data=[36, 0]),
   midi.NoteOnEvent(tick=0, channel=9, data=[42, 106]),
   midi.NoteOnEvent(tick=240, channel=9, data=[42, 0]),
   midi.NoteOnEvent(tick=0, channel=9, data=[38, 106]),
   midi.NoteOnEvent(tick=0, channel=9, data=[42, 106]),
   midi.NoteOnEvent(tick=240, channel=9, data=[42, 0]),
   midi.NoteOnEvent(tick=0, channel=9, data=[38, 0]),
   midi.NoteOnEvent(tick=0, channel=9, data=[42, 106]),
   midi.NoteOnEvent(tick=240, channel=9, data=[42, 0]),
   midi.NoteOnEvent(tick=0, channel=9, data=[36, 106]),
   midi.NoteOnEvent(tick=0, channel=9, data=[42, 106]),
   midi.NoteOnEvent(tick=240, channel=9, data=[42, 0]),
   midi.NoteOnEvent(tick=0, channel=9, data=[36, 0]),
   midi.NoteOnEvent(tick=0, channel=9, data=[42, 106]),
   midi.NoteOnEvent(tick=240, channel=9, data=[42, 0]),
   midi.NoteOnEvent(tick=0, channel=9, data=[38, 106]),
   midi.NoteOnEvent(tick=0, channel=9, data=[42, 106]),
   midi.NoteOnEvent(tick=240, channel=9, data=[42, 0]),
   midi.NoteOnEvent(tick=0, channel=9, data=[38, 0]),
   midi.NoteOnEvent(tick=0, channel=9, data=[42, 106]),
   midi.NoteOnEvent(tick=240, channel=9, data=[42, 0]),
   midi.NoteOnEvent(tick=0, channel=9, data=[49, 106]),
   midi.NoteOnEvent(tick=0, channel=9, data=[36, 106]),
   midi.NoteOnEvent(tick=0, channel=9, data=[42, 106]),
   midi.NoteOnEvent(tick=240, channel=9, data=[42, 0]),
   midi.NoteOnEvent(tick=0, channel=9, data=[36, 0]),
   midi.NoteOnEvent(tick=0, channel=9, data=[42, 106]),
   midi.NoteOnEvent(tick=240, channel=9, data=[42, 0]),
   midi.NoteOnEvent(tick=0, channel=9, data=[38, 106]),
   midi.NoteOnEvent(tick=0, channel=9, data=[42, 106]),
   midi.NoteOnEvent(tick=240, channel=9, data=[42, 0]),
   midi.NoteOnEvent(tick=0, channel=9, data=[38, 0]),
   midi.NoteOnEvent(tick=0, channel=9, data=[42, 106]),
   midi.NoteOnEvent(tick=240, channel=9, data=[42, 0]),
   midi.NoteOnEvent(tick=0, channel=9, data=[49, 0]),
   midi.NoteOnEvent(tick=0, channel=9, data=[36, 106]),
   midi.NoteOnEvent(tick=0, channel=9, data=[42, 106]),
   midi.NoteOnEvent(tick=240, channel=9, data=[42, 0]),
   midi.NoteOnEvent(tick=0, channel=9, data=[36, 0]),
   midi.NoteOnEvent(tick=0, channel=9, data=[42, 106]),
   midi.NoteOnEvent(tick=240, channel=9, data=[42, 0]),
   midi.NoteOnEvent(tick=0, channel=9, data=[38, 106]),
   midi.NoteOnEvent(tick=0, channel=9, data=[42, 106]),
   midi.NoteOnEvent(tick=240, channel=9, data=[42, 0]),
   midi.NoteOnEvent(tick=0, channel=9, data=[38, 0]),
   midi.NoteOnEvent(tick=0, channel=9, data=[42, 106]),
   midi.NoteOnEvent(tick=240, channel=9, data=[42, 0]),
   midi.NoteOnEvent(tick=0, channel=9, data=[36, 106]),
   midi.NoteOnEvent(tick=0, channel=9, data=[42, 106]),
   midi.NoteOnEvent(tick=240, channel=9, data=[42, 0]),
   midi.NoteOnEvent(tick=0, channel=9, data=[36, 0]),
   midi.NoteOnEvent(tick=0, channel=9, data=[42, 106]),
   midi.NoteOnEvent(tick=240, channel=9, data=[42, 0]),
   midi.NoteOnEvent(tick=0, channel=9, data=[38, 106]),
   midi.NoteOnEvent(tick=0, channel=9, data=[42, 106]),
   midi.NoteOnEvent(tick=240, channel=9, data=[42, 0]),
   midi.NoteOnEvent(tick=0, channel=9, data=[38, 0]),
   midi.NoteOnEvent(tick=0, channel=9, data=[42, 106]),
   midi.NoteOnEvent(tick=240, channel=9, data=[42, 0]),
   midi.NoteOnEvent(tick=0, channel=9, data=[36, 106]),
   midi.NoteOnEvent(tick=0, channel=9, data=[42, 106]),
   midi.NoteOnEvent(tick=240, channel=9, data=[42, 0]),
   midi.NoteOnEvent(tick=0, channel=9, data=[36, 0]),
   midi.NoteOnEvent(tick=0, channel=9, data=[42, 106]),
   midi.NoteOnEvent(tick=240, channel=9, data=[42, 0]),
   midi.NoteOnEvent(tick=0, channel=9, data=[38, 106]),
   midi.NoteOnEvent(tick=0, channel=9, data=[42, 106]),
   midi.NoteOnEvent(tick=240, channel=9, data=[42, 0]),
   midi.NoteOnEvent(tick=0, channel=9, data=[38, 0]),
   midi.NoteOnEvent(tick=0, channel=9, data=[42, 106]),
   midi.NoteOnEvent(tick=240, channel=9, data=[42, 0]),
   midi.NoteOnEvent(tick=0, channel=9, data=[36, 106]),
   midi.NoteOnEvent(tick=0, channel=9, data=[42, 106]),
   midi.NoteOnEvent(tick=240, channel=9, data=[42, 0]),
   midi.NoteOnEvent(tick=0, channel=9, data=[42, 106]),
   midi.NoteOnEvent(tick=240, channel=9, data=[42, 0]),
   midi.NoteOnEvent(tick=0, channel=9, data=[38, 106]),
   midi.NoteOnEvent(tick=0, channel=9, data=[42, 106]),
   midi.NoteOnEvent(tick=240, channel=9, data=[42, 0]),
   midi.NoteOnEvent(tick=0, channel=9, data=[38, 0]),
   midi.NoteOnEvent(tick=0, channel=9, data=[42, 106]),
   midi.NoteOnEvent(tick=240, channel=9, data=[42, 0]),
   midi.NoteOnEvent(tick=0, channel=9, data=[36, 0]),
   midi.NoteOnEvent(tick=0, channel=9, data=[36, 106]),
   midi.NoteOnEvent(tick=0, channel=9, data=[42, 106]),
   midi.NoteOnEvent(tick=240, channel=9, data=[42, 0]),
   midi.NoteOnEvent(tick=0, channel=9, data=[36, 0]),
   midi.NoteOnEvent(tick=0, channel=9, data=[42, 106]),
   midi.NoteOnEvent(tick=240, channel=9, data=[42, 0]),
   midi.NoteOnEvent(tick=0, channel=9, data=[38, 106]),
   midi.NoteOnEvent(tick=0, channel=9, data=[42, 106]),
   midi.NoteOnEvent(tick=240, channel=9, data=[42, 0]),
   midi.NoteOnEvent(tick=0, channel=9, data=[38, 0]),
   midi.NoteOnEvent(tick=0, channel=9, data=[42, 106]),
   midi.NoteOnEvent(tick=240, channel=9, data=[42, 0]),
   midi.NoteOnEvent(tick=0, channel=9, data=[49, 106]),
   midi.NoteOnEvent(tick=0, channel=9, data=[36, 106]),
   midi.NoteOnEvent(tick=0, channel=9, data=[42, 106]),
   midi.NoteOnEvent(tick=240, channel=9, data=[42, 0]),
   midi.NoteOnEvent(tick=0, channel=9, data=[36, 0]),
   midi.NoteOnEvent(tick=0, channel=9, data=[42, 106]),
   midi.NoteOnEvent(tick=240, channel=9, data=[42, 0]),
   midi.NoteOnEvent(tick=0, channel=9, data=[38, 106]),
   midi.NoteOnEvent(tick=0, channel=9, data=[42, 106]),
   midi.NoteOnEvent(tick=240, channel=9, data=[42, 0]),
   midi.NoteOnEvent(tick=0, channel=9, data=[38, 0]),
   midi.NoteOnEvent(tick=0, channel=9, data=[42, 106]),
   midi.NoteOnEvent(tick=240, channel=9, data=[42, 0]),
   midi.NoteOnEvent(tick=0, channel=9, data=[49, 0]),
   midi.NoteOnEvent(tick=0, channel=9, data=[36, 106]),
   midi.NoteOnEvent(tick=0, channel=9, data=[42, 106]),
   midi.NoteOnEvent(tick=240, channel=9, data=[42, 0]),
   midi.NoteOnEvent(tick=0, channel=9, data=[36, 0]),
   midi.NoteOnEvent(tick=0, channel=9, data=[42, 106]),
   midi.NoteOnEvent(tick=240, channel=9, data=[42, 0]),
   midi.NoteOnEvent(tick=0, channel=9, data=[38, 106]),
   midi.NoteOnEvent(tick=0, channel=9, data=[42, 106]),
   midi.NoteOnEvent(tick=240, channel=9, data=[42, 0]),
   midi.NoteOnEvent(tick=0, channel=9, data=[38, 0]),
   midi.NoteOnEvent(tick=0, channel=9, data=[42, 106]),
   midi.NoteOnEvent(tick=240, channel=9, data=[42, 0]),
   midi.NoteOnEvent(tick=0, channel=9, data=[36, 106]),
   midi.NoteOnEvent(tick=0, channel=9, data=[42, 106]),
   midi.NoteOnEvent(tick=240, channel=9, data=[42, 0]),
   midi.NoteOnEvent(tick=0, channel=9, data=[36, 0]),
   midi.NoteOnEvent(tick=0, channel=9, data=[42, 106]),
   midi.NoteOnEvent(tick=240, channel=9, data=[42, 0]),
   midi.NoteOnEvent(tick=0, channel=9, data=[38, 106]),
   midi.NoteOnEvent(tick=0, channel=9, data=[42, 106]),
   midi.NoteOnEvent(tick=240, channel=9, data=[42, 0]),
   midi.NoteOnEvent(tick=0, channel=9, data=[38, 0]),
   midi.NoteOnEvent(tick=0, channel=9, data=[42, 106]),
   midi.NoteOnEvent(tick=240, channel=9, data=[42, 0]),
   midi.NoteOnEvent(tick=0, channel=9, data=[36, 106]),
   midi.NoteOnEvent(tick=0, channel=9, data=[42, 106]),
   midi.NoteOnEvent(tick=240, channel=9, data=[42, 0]),
   midi.NoteOnEvent(tick=0, channel=9, data=[36, 0]),
   midi.NoteOnEvent(tick=0, channel=9, data=[42, 106]),
   midi.NoteOnEvent(tick=240, channel=9, data=[42, 0]),
   midi.NoteOnEvent(tick=0, channel=9, data=[38, 106]),
   midi.NoteOnEvent(tick=0, channel=9, data=[42, 106]),
   midi.NoteOnEvent(tick=240, channel=9, data=[42, 0]),
   midi.NoteOnEvent(tick=0, channel=9, data=[38, 0]),
   midi.NoteOnEvent(tick=0, channel=9, data=[42, 106]),
   midi.NoteOnEvent(tick=240, channel=9, data=[42, 0]),
   midi.NoteOnEvent(tick=0, channel=9, data=[49, 106]),
   midi.NoteOnEvent(tick=0, channel=9, data=[36, 106]),
   midi.NoteOnEvent(tick=0, channel=9, data=[42, 106]),
   midi.NoteOnEvent(tick=240, channel=9, data=[42, 0]),
   midi.NoteOnEvent(tick=0, channel=9, data=[36, 0]),
   midi.NoteOnEvent(tick=0, channel=9, data=[42, 106]),
   midi.NoteOnEvent(tick=240, channel=9, data=[42, 0]),
   midi.NoteOnEvent(tick=0, channel=9, data=[38, 106]),
   midi.NoteOnEvent(tick=0, channel=9, data=[42, 106]),
   midi.NoteOnEvent(tick=240, channel=9, data=[42, 0]),
   midi.NoteOnEvent(tick=0, channel=9, data=[38, 0]),
   midi.NoteOnEvent(tick=0, channel=9, data=[42, 106]),
   midi.NoteOnEvent(tick=240, channel=9, data=[42, 0]),
   midi.NoteOnEvent(tick=0, channel=9, data=[49, 0]),
   midi.NoteOnEvent(tick=0, channel=9, data=[36, 106]),
   midi.NoteOnEvent(tick=0, channel=9, data=[42, 106]),
   midi.NoteOnEvent(tick=240, channel=9, data=[42, 0]),
   midi.NoteOnEvent(tick=0, channel=9, data=[36, 0]),
   midi.NoteOnEvent(tick=0, channel=9, data=[42, 106]),
   midi.NoteOnEvent(tick=240, channel=9, data=[42, 0]),
   midi.NoteOnEvent(tick=0, channel=9, data=[38, 106]),
   midi.NoteOnEvent(tick=0, channel=9, data=[42, 106]),
   midi.NoteOnEvent(tick=240, channel=9, data=[42, 0]),
   midi.NoteOnEvent(tick=0, channel=9, data=[38, 0]),
   midi.NoteOnEvent(tick=0, channel=9, data=[42, 106]),
   midi.NoteOnEvent(tick=240, channel=9, data=[42, 0]),
   midi.NoteOnEvent(tick=0, channel=9, data=[36, 106]),
   midi.NoteOnEvent(tick=0, channel=9, data=[42, 106]),
   midi.NoteOnEvent(tick=240, channel=9, data=[42, 0]),
   midi.NoteOnEvent(tick=0, channel=9, data=[36, 0]),
   midi.NoteOnEvent(tick=0, channel=9, data=[42, 106]),
   midi.NoteOnEvent(tick=240, channel=9, data=[42, 0]),
   midi.NoteOnEvent(tick=0, channel=9, data=[38, 106]),
   midi.NoteOnEvent(tick=0, channel=9, data=[42, 106]),
   midi.NoteOnEvent(tick=240, channel=9, data=[42, 0]),
   midi.NoteOnEvent(tick=0, channel=9, data=[38, 0]),
   midi.NoteOnEvent(tick=0, channel=9, data=[42, 106]),
   midi.NoteOnEvent(tick=240, channel=9, data=[42, 0]),
   midi.NoteOnEvent(tick=0, channel=9, data=[36, 106]),
   midi.NoteOnEvent(tick=0, channel=9, data=[42, 106]),
   midi.NoteOnEvent(tick=240, channel=9, data=[42, 0]),
   midi.NoteOnEvent(tick=0, channel=9, data=[36, 0]),
   midi.NoteOnEvent(tick=0, channel=9, data=[42, 106]),
   midi.NoteOnEvent(tick=240, channel=9, data=[42, 0]),
   midi.NoteOnEvent(tick=0, channel=9, data=[38, 106]),
   midi.NoteOnEvent(tick=0, channel=9, data=[42, 106]),
   midi.NoteOnEvent(tick=240, channel=9, data=[42, 0]),
   midi.NoteOnEvent(tick=0, channel=9, data=[38, 0]),
   midi.NoteOnEvent(tick=0, channel=9, data=[42, 106]),
   midi.NoteOnEvent(tick=240, channel=9, data=[42, 0]),
   midi.NoteOnEvent(tick=0, channel=9, data=[49, 95]),
   midi.ControlChangeEvent(tick=0, channel=9, data=[7, 83]),
   midi.NoteOnEvent(tick=0, channel=9, data=[36, 106]),
   midi.NoteOnEvent(tick=0, channel=9, data=[42, 106]),
   midi.ControlChangeEvent(tick=210, channel=9, data=[7, 82]),
   midi.NoteOnEvent(tick=30, channel=9, data=[42, 0]),
   midi.NoteOnEvent(tick=0, channel=9, data=[36, 0]),
   midi.NoteOnEvent(tick=0, channel=9, data=[42, 106]),
   midi.ControlChangeEvent(tick=150, channel=9, data=[7, 81]),
   midi.NoteOnEvent(tick=90, channel=9, data=[42, 0]),
   midi.NoteOnEvent(tick=0, channel=9, data=[38, 106]),
   midi.NoteOnEvent(tick=0, channel=9, data=[42, 106]),
   midi.ControlChangeEvent(tick=90, channel=9, data=[7, 80]),
   midi.NoteOnEvent(tick=150, channel=9, data=[42, 0]),
   midi.NoteOnEvent(tick=0, channel=9, data=[38, 0]),
   midi.NoteOnEvent(tick=0, channel=9, data=[42, 106]),
   midi.ControlChangeEvent(tick=30, channel=9, data=[7, 79]),
   midi.ControlChangeEvent(tick=180, channel=9, data=[7, 78]),
   midi.NoteOnEvent(tick=30, channel=9, data=[42, 0]),
   midi.NoteOnEvent(tick=0, channel=9, data=[49, 0]),
   midi.NoteOnEvent(tick=0, channel=9, data=[36, 106]),
   midi.NoteOnEvent(tick=0, channel=9, data=[42, 106]),
   midi.ControlChangeEvent(tick=180, channel=9, data=[7, 77]),
   midi.NoteOnEvent(tick=60, channel=9, data=[42, 0]),
   midi.NoteOnEvent(tick=0, channel=9, data=[36, 0]),
   midi.NoteOnEvent(tick=0, channel=9, data=[42, 106]),
   midi.ControlChangeEvent(tick=120, channel=9, data=[7, 76]),
   midi.NoteOnEvent(tick=120, channel=9, data=[42, 0]),
   midi.NoteOnEvent(tick=0, channel=9, data=[38, 106]),
   midi.NoteOnEvent(tick=0, channel=9, data=[42, 106]),
   midi.ControlChangeEvent(tick=60, channel=9, data=[7, 75]),
   midi.NoteOnEvent(tick=180, channel=9, data=[42, 0]),
   midi.NoteOnEvent(tick=0, channel=9, data=[38, 0]),
   midi.NoteOnEvent(tick=0, channel=9, data=[42, 106]),
   midi.ControlChangeEvent(tick=0, channel=9, data=[7, 74]),
   midi.ControlChangeEvent(tick=180, channel=9, data=[7, 73]),
   midi.NoteOnEvent(tick=60, channel=9, data=[42, 0]),
   midi.NoteOnEvent(tick=0, channel=9, data=[36, 106]),
   midi.NoteOnEvent(tick=0, channel=9, data=[42, 106]),
   midi.ControlChangeEvent(tick=120, channel=9, data=[7, 72]),
   midi.NoteOnEvent(tick=120, channel=9, data=[42, 0]),
   midi.NoteOnEvent(tick=0, channel=9, data=[36, 0]),
   midi.NoteOnEvent(tick=0, channel=9, data=[42, 106]),
   midi.ControlChangeEvent(tick=90, channel=9, data=[7, 71]),
   midi.NoteOnEvent(tick=150, channel=9, data=[42, 0]),
   midi.NoteOnEvent(tick=0, channel=9, data=[38, 106]),
   midi.NoteOnEvent(tick=0, channel=9, data=[42, 106]),
   midi.ControlChangeEvent(tick=30, channel=9, data=[7, 70]),
   midi.ControlChangeEvent(tick=180, channel=9, data=[7, 69]),
   midi.NoteOnEvent(tick=30, channel=9, data=[42, 0]),
   midi.NoteOnEvent(tick=0, channel=9, data=[38, 0]),
   midi.NoteOnEvent(tick=0, channel=9, data=[42, 106]),
   midi.ControlChangeEvent(tick=150, channel=9, data=[7, 68]),
   midi.NoteOnEvent(tick=90, channel=9, data=[42, 0]),
   midi.NoteOnEvent(tick=0, channel=9, data=[36, 106]),
   midi.NoteOnEvent(tick=0, channel=9, data=[42, 106]),
   midi.ControlChangeEvent(tick=90, channel=9, data=[7, 67]),
   midi.NoteOnEvent(tick=150, channel=9, data=[42, 0]),
   midi.NoteOnEvent(tick=0, channel=9, data=[36, 0]),
   midi.NoteOnEvent(tick=0, channel=9, data=[42, 106]),
   midi.ControlChangeEvent(tick=30, channel=9, data=[7, 66]),
   midi.NoteOnEvent(tick=210, channel=9, data=[42, 0]),
   midi.ControlChangeEvent(tick=0, channel=9, data=[7, 65]),
   midi.NoteOnEvent(tick=0, channel=9, data=[38, 106]),
   midi.NoteOnEvent(tick=0, channel=9, data=[42, 106]),
   midi.ControlChangeEvent(tick=180, channel=9, data=[7, 64]),
   midi.NoteOnEvent(tick=60, channel=9, data=[42, 0]),
   midi.NoteOnEvent(tick=0, channel=9, data=[38, 0]),
   midi.NoteOnEvent(tick=0, channel=9, data=[42, 106]),
   midi.ControlChangeEvent(tick=120, channel=9, data=[7, 63]),
   midi.NoteOnEvent(tick=120, channel=9, data=[42, 0]),
   midi.NoteOnEvent(tick=0, channel=9, data=[36, 106]),
   midi.NoteOnEvent(tick=0, channel=9, data=[42, 106]),
   midi.ControlChangeEvent(tick=60, channel=9, data=[7, 62]),
   midi.NoteOnEvent(tick=180, channel=9, data=[42, 0]),
   midi.NoteOnEvent(tick=0, channel=9, data=[36, 0]),
   midi.ControlChangeEvent(tick=0, channel=9, data=[7, 61]),
   midi.NoteOnEvent(tick=0, channel=9, data=[42, 106]),
   midi.ControlChangeEvent(tick=180, channel=9, data=[7, 60]),
   midi.NoteOnEvent(tick=60, channel=9, data=[42, 0]),
   midi.NoteOnEvent(tick=0, channel=9, data=[38, 106]),
   midi.NoteOnEvent(tick=0, channel=9, data=[42, 106]),
   midi.ControlChangeEvent(tick=150, channel=9, data=[7, 59]),
   midi.NoteOnEvent(tick=90, channel=9, data=[42, 0]),
   midi.NoteOnEvent(tick=0, channel=9, data=[38, 0]),
   midi.NoteOnEvent(tick=0, channel=9, data=[42, 106]),
   midi.ControlChangeEvent(tick=90, channel=9, data=[7, 58]),
   midi.NoteOnEvent(tick=150, channel=9, data=[42, 0]),
   midi.NoteOnEvent(tick=0, channel=9, data=[36, 106]),
   midi.NoteOnEvent(tick=0, channel=9, data=[42, 106]),
   midi.ControlChangeEvent(tick=30, channel=9, data=[7, 57]),
   midi.ControlChangeEvent(tick=180, channel=9, data=[7, 56]),
   midi.NoteOnEvent(tick=30, channel=9, data=[42, 0]),
   midi.NoteOnEvent(tick=0, channel=9, data=[36, 0]),
   midi.NoteOnEvent(tick=0, channel=9, data=[42, 106]),
   midi.ControlChangeEvent(tick=150, channel=9, data=[7, 55]),
   midi.NoteOnEvent(tick=90, channel=9, data=[42, 0]),
   midi.NoteOnEvent(tick=0, channel=9, data=[38, 106]),
   midi.NoteOnEvent(tick=0, channel=9, data=[42, 106]),
   midi.ControlChangeEvent(tick=90, channel=9, data=[7, 54]),
   midi.NoteOnEvent(tick=150, channel=9, data=[42, 0]),
   midi.NoteOnEvent(tick=0, channel=9, data=[38, 0]),
   midi.NoteOnEvent(tick=0, channel=9, data=[42, 106]),
   midi.ControlChangeEvent(tick=60, channel=9, data=[7, 53]),
   midi.NoteOnEvent(tick=180, channel=9, data=[42, 0]),
   midi.ControlChangeEvent(tick=0, channel=9, data=[7, 52]),
   midi.NoteOnEvent(tick=0, channel=9, data=[36, 106]),
   midi.NoteOnEvent(tick=0, channel=9, data=[42, 106]),
   midi.ControlChangeEvent(tick=180, channel=9, data=[7, 51]),
   midi.NoteOnEvent(tick=60, channel=9, data=[42, 0]),
   midi.NoteOnEvent(tick=0, channel=9, data=[36, 0]),
   midi.NoteOnEvent(tick=0, channel=9, data=[42, 106]),
   midi.ControlChangeEvent(tick=120, channel=9, data=[7, 50]),
   midi.NoteOnEvent(tick=120, channel=9, data=[42, 0]),
   midi.NoteOnEvent(tick=0, channel=9, data=[38, 106]),
   midi.NoteOnEvent(tick=0, channel=9, data=[42, 106]),
   midi.ControlChangeEvent(tick=60, channel=9, data=[7, 49]),
   midi.NoteOnEvent(tick=180, channel=9, data=[42, 0]),
   midi.NoteOnEvent(tick=0, channel=9, data=[38, 0]),
   midi.NoteOnEvent(tick=0, channel=9, data=[42, 106]),
   midi.ControlChangeEvent(tick=0, channel=9, data=[7, 48]),
   midi.ControlChangeEvent(tick=210, channel=9, data=[7, 47]),
   midi.NoteOnEvent(tick=30, channel=9, data=[42, 0]),
   midi.NoteOnEvent(tick=0, channel=9, data=[36, 106]),
   midi.NoteOnEvent(tick=0, channel=9, data=[42, 106]),
   midi.ControlChangeEvent(tick=150, channel=9, data=[7, 46]),
   midi.NoteOnEvent(tick=90, channel=9, data=[42, 0]),
   midi.NoteOnEvent(tick=0, channel=9, data=[36, 0]),
   midi.NoteOnEvent(tick=0, channel=9, data=[42, 106]),
   midi.ControlChangeEvent(tick=90, channel=9, data=[7, 45]),
   midi.NoteOnEvent(tick=150, channel=9, data=[42, 0]),
   midi.NoteOnEvent(tick=0, channel=9, data=[38, 106]),
   midi.NoteOnEvent(tick=0, channel=9, data=[42, 106]),
   midi.ControlChangeEvent(tick=30, channel=9, data=[7, 44]),
   midi.ControlChangeEvent(tick=180, channel=9, data=[7, 43]),
   midi.NoteOnEvent(tick=30, channel=9, data=[42, 0]),
   midi.NoteOnEvent(tick=0, channel=9, data=[38, 0]),
   midi.NoteOnEvent(tick=0, channel=9, data=[42, 106]),
   midi.ControlChangeEvent(tick=150, channel=9, data=[7, 42]),
   midi.NoteOnEvent(tick=90, channel=9, data=[42, 0]),
   midi.NoteOnEvent(tick=0, channel=9, data=[36, 106]),
   midi.NoteOnEvent(tick=0, channel=9, data=[42, 106]),
   midi.NoteOnEvent(tick=0, channel=9, data=[49, 106]),
   midi.ControlChangeEvent(tick=120, channel=9, data=[7, 41]),
   midi.NoteOnEvent(tick=115, channel=9, data=[49, 0]),
   midi.NoteOnEvent(tick=5, channel=9, data=[42, 0]),
   midi.NoteOnEvent(tick=0, channel=9, data=[36, 0]),
   midi.NoteOnEvent(tick=0, channel=9, data=[42, 106]),
   midi.ControlChangeEvent(tick=60, channel=9, data=[7, 40]),
   midi.NoteOnEvent(tick=180, channel=9, data=[42, 0]),
   midi.ControlChangeEvent(tick=0, channel=9, data=[7, 39]),
   midi.NoteOnEvent(tick=0, channel=9, data=[38, 106]),
   midi.NoteOnEvent(tick=0, channel=9, data=[42, 106]),
   midi.ControlChangeEvent(tick=180, channel=9, data=[7, 38]),
   midi.NoteOnEvent(tick=60, channel=9, data=[42, 0]),
   midi.NoteOnEvent(tick=0, channel=9, data=[38, 0]),
   midi.NoteOnEvent(tick=0, channel=9, data=[42, 106]),
   midi.ControlChangeEvent(tick=120, channel=9, data=[7, 37]),
   midi.NoteOnEvent(tick=120, channel=9, data=[42, 0]),
   midi.NoteOnEvent(tick=0, channel=9, data=[36, 106]),
   midi.NoteOnEvent(tick=0, channel=9, data=[42, 106]),
   midi.ControlChangeEvent(tick=60, channel=9, data=[7, 36]),
   midi.NoteOnEvent(tick=180, channel=9, data=[42, 0]),
   midi.NoteOnEvent(tick=0, channel=9, data=[36, 0]),
   midi.NoteOnEvent(tick=0, channel=9, data=[42, 106]),
   midi.ControlChangeEvent(tick=30, channel=9, data=[7, 35]),
   midi.ControlChangeEvent(tick=180, channel=9, data=[7, 34]),
   midi.NoteOnEvent(tick=30, channel=9, data=[42, 0]),
   midi.NoteOnEvent(tick=0, channel=9, data=[38, 106]),
   midi.NoteOnEvent(tick=0, channel=9, data=[42, 106]),
   midi.ControlChangeEvent(tick=150, channel=9, data=[7, 33]),
   midi.NoteOnEvent(tick=90, channel=9, data=[42, 0]),
   midi.NoteOnEvent(tick=0, channel=9, data=[38, 0]),
   midi.NoteOnEvent(tick=0, channel=9, data=[42, 106]),
   midi.ControlChangeEvent(tick=90, channel=9, data=[7, 32]),
   midi.NoteOnEvent(tick=150, channel=9, data=[42, 0]),
   midi.NoteOnEvent(tick=0, channel=9, data=[36, 106]),
   midi.NoteOnEvent(tick=0, channel=9, data=[42, 106]),
   midi.ControlChangeEvent(tick=30, channel=9, data=[7, 31]),
   midi.ControlChangeEvent(tick=180, channel=9, data=[7, 30]),
   midi.NoteOnEvent(tick=30, channel=9, data=[42, 0]),
   midi.NoteOnEvent(tick=0, channel=9, data=[36, 0]),
   midi.NoteOnEvent(tick=0, channel=9, data=[42, 106]),
   midi.ControlChangeEvent(tick=180, channel=9, data=[7, 29]),
   midi.NoteOnEvent(tick=60, channel=9, data=[42, 0]),
   midi.NoteOnEvent(tick=0, channel=9, data=[38, 106]),
   midi.NoteOnEvent(tick=0, channel=9, data=[42, 106]),
   midi.ControlChangeEvent(tick=120, channel=9, data=[7, 28]),
   midi.NoteOnEvent(tick=120, channel=9, data=[42, 0]),
   midi.NoteOnEvent(tick=0, channel=9, data=[38, 0]),
   midi.NoteOnEvent(tick=0, channel=9, data=[42, 106]),
   midi.ControlChangeEvent(tick=60, channel=9, data=[7, 27]),
   midi.NoteOnEvent(tick=180, channel=9, data=[42, 0]),
   midi.ControlChangeEvent(tick=0, channel=9, data=[7, 26]),
   midi.NoteOnEvent(tick=0, channel=9, data=[36, 106]),
   midi.NoteOnEvent(tick=0, channel=9, data=[42, 106]),
   midi.ControlChangeEvent(tick=180, channel=9, data=[7, 25]),
   midi.NoteOnEvent(tick=60, channel=9, data=[42, 0]),
   midi.NoteOnEvent(tick=0, channel=9, data=[36, 0]),
   midi.NoteOnEvent(tick=0, channel=9, data=[42, 106]),
   midi.ControlChangeEvent(tick=120, channel=9, data=[7, 24]),
   midi.NoteOnEvent(tick=120, channel=9, data=[42, 0]),
   midi.NoteOnEvent(tick=0, channel=9, data=[38, 106]),
   midi.NoteOnEvent(tick=0, channel=9, data=[42, 106]),
   midi.ControlChangeEvent(tick=90, channel=9, data=[7, 23]),
   midi.NoteOnEvent(tick=150, channel=9, data=[42, 0]),
   midi.NoteOnEvent(tick=0, channel=9, data=[38, 0]),
   midi.NoteOnEvent(tick=0, channel=9, data=[42, 106]),
   midi.ControlChangeEvent(tick=30, channel=9, data=[7, 22]),
   midi.ControlChangeEvent(tick=180, channel=9, data=[7, 21]),
   midi.NoteOnEvent(tick=30, channel=9, data=[42, 0]),
   midi.NoteOnEvent(tick=0, channel=9, data=[36, 106]),
   midi.NoteOnEvent(tick=0, channel=9, data=[42, 106]),
   midi.ControlChangeEvent(tick=150, channel=9, data=[7, 20]),
   midi.NoteOnEvent(tick=90, channel=9, data=[42, 0]),
   midi.NoteOnEvent(tick=0, channel=9, data=[36, 0]),
   midi.NoteOnEvent(tick=0, channel=9, data=[42, 106]),
   midi.ControlChangeEvent(tick=90, channel=9, data=[7, 19]),
   midi.NoteOnEvent(tick=150, channel=9, data=[42, 0]),
   midi.NoteOnEvent(tick=0, channel=9, data=[38, 106]),
   midi.NoteOnEvent(tick=0, channel=9, data=[42, 106]),
   midi.ControlChangeEvent(tick=30, channel=9, data=[7, 18]),
   midi.NoteOnEvent(tick=210, channel=9, data=[42, 0]),
   midi.NoteOnEvent(tick=0, channel=9, data=[38, 0]),
   midi.NoteOnEvent(tick=0, channel=9, data=[42, 106]),
   midi.ControlChangeEvent(tick=0, channel=9, data=[7, 17]),
   midi.ControlChangeEvent(tick=180, channel=9, data=[7, 16]),
   midi.NoteOnEvent(tick=60, channel=9, data=[42, 0]),
   midi.NoteOnEvent(tick=0, channel=9, data=[36, 106]),
   midi.NoteOnEvent(tick=0, channel=9, data=[42, 106]),
   midi.ControlChangeEvent(tick=120, channel=9, data=[7, 15]),
   midi.NoteOnEvent(tick=120, channel=9, data=[42, 0]),
   midi.NoteOnEvent(tick=0, channel=9, data=[36, 0]),
   midi.NoteOnEvent(tick=0, channel=9, data=[42, 106]),
   midi.ControlChangeEvent(tick=60, channel=9, data=[7, 14]),
   midi.NoteOnEvent(tick=180, channel=9, data=[42, 0]),
   midi.ControlChangeEvent(tick=0, channel=9, data=[7, 13]),
   midi.NoteOnEvent(tick=0, channel=9, data=[38, 106]),
   midi.NoteOnEvent(tick=0, channel=9, data=[42, 106]),
   midi.ControlChangeEvent(tick=180, channel=9, data=[7, 12]),
   midi.NoteOnEvent(tick=60, channel=9, data=[42, 0]),
   midi.NoteOnEvent(tick=0, channel=9, data=[38, 0]),
   midi.NoteOnEvent(tick=0, channel=9, data=[42, 106]),
   midi.ControlChangeEvent(tick=150, channel=9, data=[7, 11]),
   midi.NoteOnEvent(tick=90, channel=9, data=[42, 0]),
   midi.NoteOnEvent(tick=0, channel=9, data=[36, 106]),
   midi.NoteOnEvent(tick=0, channel=9, data=[42, 106]),
   midi.ControlChangeEvent(tick=90, channel=9, data=[7, 10]),
   midi.NoteOnEvent(tick=150, channel=9, data=[42, 0]),
   midi.NoteOnEvent(tick=0, channel=9, data=[36, 0]),
   midi.NoteOnEvent(tick=0, channel=9, data=[42, 106]),
   midi.ControlChangeEvent(tick=30, channel=9, data=[7, 9]),
   midi.ControlChangeEvent(tick=180, channel=9, data=[7, 8]),
   midi.NoteOnEvent(tick=30, channel=9, data=[42, 0]),
   midi.NoteOnEvent(tick=0, channel=9, data=[38, 106]),
   midi.NoteOnEvent(tick=0, channel=9, data=[42, 106]),
   midi.ControlChangeEvent(tick=150, channel=9, data=[7, 7]),
   midi.NoteOnEvent(tick=90, channel=9, data=[42, 0]),
   midi.NoteOnEvent(tick=0, channel=9, data=[38, 0]),
   midi.NoteOnEvent(tick=0, channel=9, data=[42, 106]),
   midi.ControlChangeEvent(tick=90, channel=9, data=[7, 6]),
   midi.NoteOnEvent(tick=150, channel=9, data=[42, 0]),
   midi.NoteOnEvent(tick=0, channel=9, data=[36, 106]),
   midi.NoteOnEvent(tick=0, channel=9, data=[42, 106]),
   midi.ControlChangeEvent(tick=60, channel=9, data=[7, 5]),
   midi.NoteOnEvent(tick=180, channel=9, data=[42, 0]),
   midi.NoteOnEvent(tick=0, channel=9, data=[36, 0]),
   midi.ControlChangeEvent(tick=0, channel=9, data=[7, 4]),
   midi.NoteOnEvent(tick=0, channel=9, data=[42, 106]),
   midi.ControlChangeEvent(tick=180, channel=9, data=[7, 3]),
   midi.NoteOnEvent(tick=60, channel=9, data=[42, 0]),
   midi.NoteOnEvent(tick=0, channel=9, data=[38, 106]),
   midi.NoteOnEvent(tick=0, channel=9, data=[42, 106]),
   midi.ControlChangeEvent(tick=120, channel=9, data=[7, 2]),
   midi.NoteOnEvent(tick=120, channel=9, data=[42, 0]),
   midi.NoteOnEvent(tick=0, channel=9, data=[38, 0]),
   midi.NoteOnEvent(tick=0, channel=9, data=[42, 106]),
   midi.ControlChangeEvent(tick=60, channel=9, data=[7, 1]),
   midi.ControlChangeEvent(tick=30, channel=9, data=[7, 0]),
   midi.NoteOnEvent(tick=150, channel=9, data=[42, 0]),
   midi.EndOfTrackEvent(tick=0, data=[])]),
 midi.Track(\
  [midi.PortEvent(tick=0, data=[0]),
   midi.TrackNameEvent(tick=0, text='"Welcome To The Machine"', data=[34, 87, 101, 108, 99, 111, 109, 101, 32, 84, 111, 32, 84, 104, 101, 32, 77, 97, 99, 104, 105, 110, 101, 34]),
   midi.EndOfTrackEvent(tick=0, data=[])]),
 midi.Track(\
  [midi.PortEvent(tick=0, data=[0]),
   midi.TrackNameEvent(tick=0, text='     by Pink Floyd/1975', data=[32, 32, 32, 32, 32, 98, 121, 32, 80, 105, 110, 107, 32, 70, 108, 111, 121, 100, 47, 49, 57, 55, 53]),
   midi.EndOfTrackEvent(tick=0, data=[])]),
 midi.Track(\
  [midi.PortEvent(tick=0, data=[0]),
   midi.TrackNameEvent(tick=0, text='  Seq. By Norma Williams', data=[32, 32, 83, 101, 113, 46, 32, 66, 121, 32, 78, 111, 114, 109, 97, 32, 87, 105, 108, 108, 105, 97, 109, 115]),
   midi.EndOfTrackEvent(tick=0, data=[])])])
Time Signature
Key Signature
Set Tempo
Marker
Time Signature
Time Signature
Time Signature
Time Signature
Time Signature
Time Signature
End of Track
MIDI Port/Cable
Track Name
Control Change
End of Track
MIDI Port/Cable
Track Name
Program Change
Control Change
Control Change
Control Change
Control Change
Control Change
Control Change
Control Change
Control Change
Control Change
Pitch Wheel
Control Change
Control Change
Control Change
Control Change
Note On
Note On
Note On
Note On
Note On
Note On
Note On
Note On
Note On
Note On
Note On
Note On
Note On
Note On
Note On
Note On
Note On
Note On
Note On
Note On
Note On
Note On
Note On
Note On
Note On
Note On
Note On
Note On
Note On
Note On
Note On
Note On
Note On
Note On
Note On
Note On
Note On
Note On
Note On
Note On
Note On
Note On
Note On
Note On
Note On
Note On
Note On
Note On
Note On
Note On
Note On
Note On
Note On
Note On
Note On
Note On
Note On
Note On
Note On
Note On
Note On
Note On
Note On
Note On
Note On
Note On
Note On
Note On
Note On
Note On
Note On
Note On
Note On
Note On
Note On
Note On
Note On
Note On
Note On
Note On
Note On
Note On
Note On
Note On
Note On
Note On
Note On
Note On
Note On
Note On
Note On
Note On
Note On
Note On
Note On
Note On
Note On
Note On
Note On
Note On
Note On
Note On
Note On
Note On
Note On
Note On
Note On
Note On
Note On
Note On
Note On
Note On
Note On
Note On
Note On
Note On
Note On
Note On
Note On
Note On
Note On
Note On
Note On
Note On
Note On
Note On
Note On
Note On
Note On
Note On
Note On
Note On
Note On
Note On
Note On
Note On
Note On
Note On
Note On
Note On
Note On
Note On
Note On
Note On
Note On
Note On
Note On
Note On
Note On
Note On
Note On
Note On
Note On
Note On
Note On
Note On
Note On
Note On
Note On
Note On
Note On
Note On
Note On
Note On
Note On
Note On
Note On
Note On
Note On
Note On
Note On
Note On
Note On
Note On
Note On
Note On
Note On
Note On
Note On
Note On
Note On
Note On
Note On
Note On
Note On
Note On
Note On
Note On
Note On
Note On
Note On
Note On
Note On
Note On
Note On
Note On
Note On
Note On
Note On
Note On
Note On
Note On
Note On
Note On
Note On
Note On
Note On
Note On
Note On
Note On
Note On
Note On
Note On
Note On
Note On
Note On
Note On
Note On
Note On
Note On
Note On
Note On
Note On
Note On
Note On
Note On
Note On
Note On
Note On
Note On
Note On
Note On
Note On
Note On
Note On
Note On
Note On
Note On
Note On
Note On
Note On
Note On
Note On
Note On
Note On
Note On
Note On
Note On
Note On
Note On
Note On
Note On
Note On
Note On
Note On
Note On
Note On
Note On
Note On
Note On
Note On
Note On
Note On
Note On
Note On
Note On
Note On
Note On
Note On
Note On
Note On
Note On
End of Track
MIDI Port/Cable
Track Name
Program Change
Control Change
Control Change
Control Change
Control Change
Control Change
Control Change
Control Change
Control Change
Control Change
Pitch Wheel
Control Change
Control Change
Control Change
Control Change
Control Change
Control Change
Control Change
Control Change
Control Change
Control Change
Control Change
Control Change
Control Change
Control Change
Control Change
Control Change
Control Change
Control Change
Control Change
Control Change
Control Change
Control Change
Control Change
Control Change
Note On
Note On
Note On
Control Change
Control Change
Control Change
Control Change
Control Change
Control Change
Control Change
Control Change
Note On
Note On
Note On
Control Change
Note On
Note On
Note On
Note On
Note On
Note On
Note On
Control Change
Control Change
Control Change
Control Change
Control Change
Control Change
Control Change
Control Change
Note On
Note On
Note On
Control Change
Note On
Note On
Note On
Note On
Note On
Note On
Note On
Control Change
Control Change
Control Change
Control Change
Control Change
Control Change
Control Change
Control Change
Note On
Note On
Note On
Control Change
Control Change
Control Change
Note On
Note On
Note On
Note On
Note On
Note On
Note On
Control Change
Control Change
Note On
Note On
Note On
Note On
Note On
Note On
Note On
Note On
Note On
Note On
Note On
Note On
Note On
Note On
Note On
Note On
Note On
Note On
Note On
Note On
Note On
Note On
Note On
Note On
Note On
Note On
Note On
Note On
Note On
Note On
Note On
Note On
Note On
Note On
Note On
Note On
Note On
Note On
Note On
Note On
Note On
Note On
Note On
Note On
Note On
Note On
Note On
Note On
Note On
Note On
Note On
Note On
Note On
Note On
Note On
Note On
Note On
Note On
Note On
Note On
Note On
Note On
Note On
Note On
Note On
Note On
Note On
Note On
Note On
Note On
Note On
Note On
Note On
Note On
Note On
Note On
Note On
Note On
Note On
Note On
Note On
Note On
Note On
Note On
Note On
Note On
Note On
Note On
Note On
Note On
Note On
Note On
Note On
Note On
Note On
Note On
Note On
Note On
Note On
Note On
Note On
Note On
Note On
Note On
Note On
Note On
Note On
Note On
Note On
Note On
Note On
Note On
Note On
Note On
Note On
Note On
Note On
Note On
Note On
Note On
Note On
Note On
Note On
Note On
Note On
Note On
Note On
Note On
Note On
Note On
Note On
Note On
Note On
Note On
Note On
Note On
Note On
Note On
Note On
Note On
Note On
Note On
Note On
Note On
Note On
Note On
Note On
Note On
Note On
Note On
Note On
Note On
Note On
Note On
Note On
Note On
Note On
Note On
Note On
Note On
Note On
Note On
Note On
Note On
Note On
Note On
Note On
Note On
Note On
Note On
Note On
Note On
Note On
Note On
Note On
Note On
Note On
Note On
Note On
Note On
Note On
Note On
Note On
Note On
Note On
Note On
Note On
Note On
Note On
Note On
Note On
Note On
Note On
Note On
Note On
Note On
Note On
Note On
Note On
Note On
Note On
Note On
Note On
Note On
Note On
Note On
Note On
Note On
Note On
Note On
Note On
Note On
Note On
Note On
Note On
Note On
Note On
Note On
Note On
Note On
Note On
Note On
Note On
Note On
Note On
Note On
Note On
Note On
Note On
Note On
Note On
Note On
Note On
Note On
Note On
Note On
Note On
Note On
Note On
Note On
Note On
Note On
Note On
Note On
Note On
Note On
Note On
Note On
Note On
Note On
Note On
Note On
Note On
Note On
Note On
Note On
Note On
Note On
Note On
Note On
Note On
Note On
Note On
Note On
Note On
Note On
Note On
Note On
Note On
Note On
Note On
Note On
Note On
Note On
Note On
Note On
Note On
Note On
Note On
Note On
Note On
Note On
Note On
Note On
Note On
Note On
Note On
Note On
Note On
Note On
Note On
Note On
Note On
Note On
Note On
Note On
Note On
Note On
Note On
Note On
Note On
Note On
Note On
Note On
Note On
Note On
Note On
Note On
Note On
Note On
Note On
Note On
Note On
Note On
Note On
Note On
Note On
Note On
Note On
Note On
Note On
Note On
Note On
Note On
Note On
Note On
Note On
Note On
Note On
Note On
Note On
Note On
Note On
Note On
Note On
Note On
Note On
Note On
Note On
Note On
Note On
Note On
Note On
Note On
Note On
Note On
Note On
Note On
Note On
Note On
Note On
Note On
Note On
Note On
Note On
Note On
Note On
Note On
Note On
Note On
Note On
Note On
Note On
Note On
Note On
Note On
Note On
Note On
Note On
Note On
Note On
Note On
Note On
Note On
Note On
Note On
Note On
Note On
Note On
Note On
Note On
Note On
Note On
Note On
Note On
Note On
Note On
Note On
Note On
Note On
Note On
Note On
Note On
Note On
Note On
Note On
Note On
Note On
Note On
Note On
Note On
Note On
Note On
Note On
Note On
Note On
Note On
Note On
Note On
Note On
Note On
Note On
Note On
Note On
Note On
Note On
Note On
Note On
Note On
Note On
Note On
Note On
Note On
Note On
Note On
Note On
Note On
Note On
Note On
Note On
Note On
Note On
Note On
Note On
Note On
Note On
Note On
Note On
Note On
Note On
Note On
Note On
Note On
Note On
Note On
Note On
Note On
Note On
Note On
Note On
Note On
Note On
Note On
Note On
Note On
Note On
Note On
Note On
Note On
Note On
Note On
Note On
Note On
Note On
Note On
Note On
Note On
Note On
Note On
Note On
Note On
Note On
Note On
Note On
Note On
Note On
Note On
Note On
Note On
Note On
Note On
Note On
Note On
Note On
Note On
Note On
Note On
Note On
Note On
Note On
Note On
Note On
Note On
Note On
Note On
Note On
Note On
Note On
Note On
Note On
Note On
Note On
Note On
Note On
Note On
Note On
Note On
Note On
Note On
Note On
Note On
Note On
Note On
Note On
Note On
Note On
Note On
Note On
Note On
Note On
Note On
Note On
Note On
Note On
Note On
Note On
Note On
Note On
Note On
Note On
Note On
Note On
Note On
Note On
Note On
Note On
Note On
Note On
Note On
Note On
Note On
Note On
Note On
Note On
Note On
Note On
Note On
Note On
Note On
Note On
Note On
Note On
Note On
Note On
Note On
Note On
Note On
Note On
Note On
Note On
Note On
Note On
Note On
Note On
Note On
Note On
Note On
Note On
Note On
Note On
Note On
Note On
Note On
Note On
Note On
Note On
Note On
Note On
Note On
Note On
Note On
Note On
Note On
Note On
Note On
Note On
Note On
Note On
Note On
Note On
Note On
Note On
Note On
Note On
Note On
Note On
Note On
Note On
Note On
Note On
Note On
Note On
Note On
Note On
Note On
Note On
Note On
Note On
Note On
Note On
Note On
Note On
Note On
Note On
Note On
Note On
Note On
Note On
Note On
Note On
Note On
Note On
Note On
Note On
Note On
Note On
Note On
Note On
Note On
Note On
Note On
Note On
Note On
Note On
Note On
Note On
Note On
Note On
Note On
Note On
Note On
Note On
Note On
Note On
Note On
Note On
Note On
Note On
Note On
Note On
Note On
Note On
Note On
Note On
Note On
Note On
Note On
Note On
Note On
Note On
Note On
Note On
Note On
Note On
Note On
Note On
Note On
Note On
Note On
Control Change
Note On
Note On
Note On
Control Change
Note On
Note On
Note On
Control Change
Note On
Note On
Note On
Control Change
Control Change
Note On
Note On
Note On
Control Change
Note On
Note On
Note On
Control Change
Note On
Note On
Note On
Control Change
Note On
Note On
Note On
Control Change
Note On
Note On
Note On
Note On
Note On
Note On
Control Change
Control Change
Note On
Note On
Note On
Note On
Note On
Note On
Control Change
Note On
Note On
Note On
Control Change
Note On
Note On
Note On
Control Change
Control Change
Note On
Note On
Note On
Control Change
Note On
Note On
Note On
Control Change
Control Change
Note On
Note On
Note On
Control Change
Note On
Note On
Note On
Note On
Note On
Note On
Note On
Note On
Note On
Control Change
Control Change
Note On
Note On
Note On
Note On
Note On
Note On
Control Change
Control Change
Note On
Note On
Note On
Control Change
Note On
Note On
Note On
Control Change
Note On
Note On
Note On
Control Change
Note On
Note On
Note On
Control Change
Control Change
Note On
Note On
Note On
Control Change
Note On
Note On
Note On
Note On
Note On
Note On
Control Change
Note On
Note On
Note On
Control Change
Note On
Note On
Note On
Control Change
Note On
Note On
Note On
Control Change
Note On
Note On
Note On
Control Change
Note On
Note On
Note On
Control Change
Control Change
Note On
Note On
Note On
Control Change
Note On
Note On
Note On
Control Change
Note On
Note On
Note On
Control Change
Note On
Note On
Note On
Control Change
Note On
Note On
Note On
Note On
Note On
Note On
Control Change
Control Change
Note On
Note On
Note On
Note On
Note On
Note On
Control Change
Control Change
Note On
Note On
Note On
Control Change
Note On
Note On
Note On
Control Change
Note On
Note On
Note On
Control Change
Note On
Note On
Note On
Control Change
Control Change
Note On
Note On
Note On
Control Change
Note On
Note On
Note On
Note On
Note On
Note On
Control Change
Note On
Note On
Note On
Control Change
Note On
Note On
Note On
Note On
Note On
Note On
Control Change
Control Change
Note On
Note On
Note On
Control Change
Note On
Note On
Note On
Control Change
Control Change
Note On
Note On
Note On
Control Change
Note On
Note On
Note On
Control Change
Note On
Note On
Note On
Control Change
Note On
Note On
Note On
Note On
Note On
Note On
Control Change
Note On
Note On
Note On
Control Change
Note On
Note On
Note On
Control Change
Note On
Note On
Note On
Control Change
Note On
Note On
Note On
Control Change
Note On
Note On
Note On
Control Change
Control Change
Note On
Note On
Note On
Control Change
Note On
Note On
Note On
Control Change
Control Change
Note On
Note On
Note On
Control Change
Note On
Note On
Note On
Note On
Note On
Note On
Control Change
Note On
Note On
Note On
Control Change
Note On
Note On
Note On
Note On
Note On
Note On
Control Change
Control Change
Note On
Note On
Note On
Control Change
Note On
Note On
Note On
Control Change
Note On
Note On
Note On
Control Change
Note On
Note On
Note On
Control Change
Control Change
Note On
Note On
Note On
Control Change
Note On
Note On
Note On
Note On
Note On
Note On
Control Change
Note On
Note On
Note On
Control Change
Control Change
Note On
Note On
Note On
End of Track
MIDI Port/Cable
Track Name
Program Change
Control Change
Control Change
Control Change
Control Change
Control Change
Control Change
Control Change
Control Change
Control Change
Pitch Wheel
Note On
Note On
Control Change
Control Change
Control Change
Control Change
Note On
Control Change
Note On
Control Change
Note On
Control Change
Note On
Control Change
Note On
Control Change
Note On
Control Change
Control Change
Note On
Note On
Control Change
Control Change
Note On
Control Change
Note On
Control Change
Note On
Control Change
Note On
Control Change
Note On
Note On
Control Change
Control Change
Note On
Control Change
Note On
Control Change
Note On
Control Change
Note On
Control Change
Note On
Control Change
Note On
Control Change
Control Change
Note On
Control Change
Note On
Control Change
Note On
Control Change
Note On
Control Change
Note On
Control Change
Note On
Control Change
Note On
Note On
Control Change
Control Change
Note On
Control Change
Note On
Control Change
Note On
Control Change
Note On
Control Change
Note On
Note On
Control Change
Control Change
Note On
Control Change
Note On
Control Change
Note On
Control Change
Note On
Control Change
Note On
Control Change
Note On
Control Change
Control Change
Note On
Note On
Control Change
Control Change
Note On
Control Change
Note On
Control Change
Note On
Control Change
Note On
Control Change
Note On
Note On
Control Change
Control Change
Note On
Control Change
Note On
Control Change
Note On
Control Change
Note On
Control Change
Note On
Control Change
Note On
Control Change
Control Change
Note On
Control Change
Note On
Control Change
Note On
Control Change
Note On
Control Change
Note On
Control Change
Note On
Control Change
Note On
Note On
Control Change
Control Change
Note On
Control Change
Note On
Control Change
Note On
Control Change
Note On
Control Change
Control Change
Note On
Note On
Control Change
Note On
Control Change
Note On
Control Change
Control Change
Note On
Control Change
Note On
Control Change
Note On
Control Change
Note On
Control Change
Note On
Note On
Control Change
Control Change
Note On
Control Change
Note On
Control Change
Control Change
Note On
Control Change
Note On
Control Change
Control Change
Note On
Note On
Control Change
Control Change
Note On
Control Change
Note On
Control Change
Note On
Control Change
Note On
Control Change
Control Change
Note On
Control Change
Note On
Control Change
Note On
Control Change
Note On
Control Change
Note On
Control Change
Note On
Control Change
Note On
Control Change
Note On
Control Change
Control Change
Control Change
Note On
Note On
Control Change
Control Change
Note On
Control Change
Note On
Control Change
Note On
Control Change
Note On
Control Change
Control Change
Note On
Note On
Control Change
Control Change
Note On
Control Change
Note On
Control Change
Note On
Control Change
Note On
Control Change
Note On
Control Change
Note On
Control Change
Note On
Note On
Control Change
Control Change
Control Change
Note On
Control Change
Note On
Control Change
Note On
Control Change
Note On
Control Change
Control Change
Note On
Note On
Control Change
Control Change
Note On
Control Change
Note On
Control Change
Control Change
Note On
Control Change
Note On
Control Change
Note On
Control Change
Note On
Control Change
Note On
Control Change
Note On
Control Change
Note On
Control Change
Note On
Control Change
Control Change
Note On
Control Change
Note On
Control Change
Control Change
Note On
Note On
Control Change
Control Change
Note On
Control Change
Note On
Control Change
Note On
Control Change
Control Change
Note On
Control Change
Note On
Control Change
Note On
Control Change
Note On
Control Change
Note On
Control Change
Note On
Control Change
Note On
Control Change
Note On
Control Change
Note On
Control Change
Note On
Control Change
Note On
Control Change
Note On
Control Change
Note On
Control Change
Note On
Control Change
Control Change
Note On
Control Change
Note On
Control Change
Note On
Note On
Control Change
Note On
Note On
Control Change
Note On
Note On
Control Change
Note On
Note On
Control Change
Note On
Note On
Control Change
Note On
Note On
Control Change
Note On
Note On
Control Change
Note On
Note On
Control Change
Note On
Control Change
Note On
Control Change
Note On
Control Change
Note On
Control Change
Note On
Control Change
Note On
Control Change
Control Change
Note On
Control Change
Note On
Control Change
Note On
Control Change
Note On
Control Change
Note On
Control Change
Note On
Control Change
Note On
Control Change
Note On
Control Change
Control Change
Note On
Control Change
Note On
Control Change
Note On
Control Change
Note On
Control Change
Note On
Control Change
Note On
Control Change
Note On
Control Change
Note On
Control Change
Control Change
Note On
Control Change
Note On
Control Change
Note On
Control Change
Note On
Control Change
Note On
Control Change
Note On
Control Change
Note On
Control Change
Note On
Control Change
Note On
Control Change
Note On
Control Change
Note On
Control Change
Note On
Control Change
Note On
Control Change
Note On
Control Change
Note On
Control Change
Note On
Control Change
Note On
Control Change
Note On
Control Change
Note On
Control Change
Note On
Control Change
Note On
Control Change
Note On
Control Change
Note On
Control Change
Note On
Control Change
Note On
Control Change
Note On
Control Change
Note On
Control Change
Note On
Control Change
Note On
Control Change
Note On
Control Change
Note On
Control Change
Note On
Control Change
Note On
Control Change
Note On
Control Change
Note On
Control Change
Note On
Control Change
Note On
Control Change
Note On
Note On
Control Change
Note On
Note On
Control Change
Note On
Note On
Control Change
Note On
Note On
Control Change
Note On
Note On
Control Change
Note On
Note On
Control Change
Note On
Note On
Control Change
Note On
Note On
Control Change
Note On
Note On
Control Change
Note On
Note On
Control Change
Note On
Note On
Control Change
Note On
Note On
Control Change
Note On
Note On
Control Change
Note On
Note On
Control Change
Note On
Note On
Control Change
Note On
Note On
Control Change
Note On
Note On
Control Change
Note On
Note On
Note On
Note On
Control Change
Note On
Note On
Control Change
Note On
Note On
Control Change
Note On
Note On
Control Change
Note On
Note On
Control Change
Note On
Note On
Control Change
Note On
Note On
Control Change
Note On
Note On
Control Change
Note On
Note On
Control Change
Note On
Note On
Control Change
Note On
Note On
Control Change
Note On
Note On
Control Change
Note On
Note On
Control Change
Note On
Note On
Control Change
Note On
Note On
Control Change
Note On
Note On
Control Change
Note On
Note On
Control Change
Note On
Note On
Control Change
Note On
Note On
Control Change
Note On
Note On
Control Change
Note On
Note On
Control Change
Note On
Note On
Control Change
Note On
Note On
Control Change
Note On
Note On
Control Change
Note On
Note On
Control Change
Note On
Note On
Control Change
Note On
Note On
Control Change
Note On
Note On
Control Change
Note On
Note On
Control Change
Note On
Note On
Control Change
Note On
Note On
Control Change
Note On
Note On
Control Change
Note On
Note On
Note On
Note On
Control Change
Note On
Note On
Control Change
Note On
Note On
Control Change
Note On
Note On
Control Change
Note On
Note On
Control Change
Note On
Note On
Control Change
Note On
Note On
Control Change
Note On
Note On
Control Change
Note On
Note On
Control Change
Note On
Note On
Control Change
Note On
Note On
Control Change
Note On
Note On
Control Change
Note On
Note On
Control Change
Note On
Note On
Control Change
Note On
Note On
Control Change
Note On
Note On
Control Change
Note On
Note On
Control Change
Note On
Note On
Control Change
Note On
Note On
Control Change
Note On
Note On
Control Change
Note On
Note On
Control Change
Note On
Note On
Control Change
Note On
Note On
Control Change
Note On
Note On
Control Change
Note On
Note On
Control Change
Note On
Note On
Control Change
Note On
Note On
Control Change
Note On
Note On
Control Change
Note On
Note On
Control Change
Note On
Note On
Control Change
Note On
Note On
Control Change
Note On
Note On
Control Change
Note On
Note On
Control Change
Note On
Note On
Control Change
Note On
Note On
Control Change
Note On
Note On
Control Change
Note On
Note On
Control Change
Note On
Note On
Control Change
Note On
Note On
Control Change
Note On
Note On
Control Change
Note On
Note On
Control Change
Note On
Note On
Control Change
Note On
Note On
Control Change
Note On
Note On
Control Change
Note On
Note On
Note On
Note On
Control Change
Note On
Note On
Control Change
Note On
Note On
Control Change
Note On
Note On
Control Change
Note On
Note On
Control Change
Note On
Note On
Control Change
Note On
Note On
Control Change
Note On
Note On
Control Change
Note On
Note On
Control Change
Note On
Note On
Control Change
Note On
Note On
Control Change
Note On
Note On
Control Change
Note On
Note On
Control Change
Note On
Note On
Control Change
Note On
Note On
Control Change
Note On
Note On
Control Change
Note On
Note On
Note On
Control Change
Note On
Note On
Control Change
Note On
Note On
Control Change
Note On
Note On
Control Change
Note On
Note On
Control Change
Note On
Note On
Control Change
Note On
Note On
Control Change
Note On
Note On
Control Change
Note On
Note On
Control Change
Note On
Note On
Control Change
Note On
Note On
Control Change
Note On
Note On
Control Change
Note On
Note On
Control Change
Note On
Note On
Control Change
Note On
Note On
Control Change
Note On
Note On
Control Change
Note On
Note On
Control Change
Note On
Note On
Control Change
Note On
Note On
Control Change
Note On
Note On
Control Change
Note On
Note On
Control Change
Note On
Note On
Control Change
Note On
Note On
Control Change
Note On
Note On
Control Change
Note On
Note On
Control Change
Note On
Note On
Control Change
Note On
Note On
Control Change
Note On
Note On
Control Change
Note On
Note On
Control Change
Note On
Note On
Control Change
Note On
Note On
Control Change
Note On
Note On
Control Change
Note On
Note On
Note On
Control Change
Note On
Note On
Control Change
Note On
Note On
Control Change
Note On
Note On
Control Change
Note On
Note On
Control Change
Note On
Note On
Control Change
Note On
Note On
Control Change
Note On
Note On
Control Change
Note On
Note On
Control Change
Note On
Note On
Control Change
Note On
Note On
Control Change
Note On
Note On
Control Change
Note On
Note On
Control Change
Note On
Note On
Control Change
Note On
Note On
Control Change
Note On
Note On
Control Change
Note On
Note On
Note On
Note On
Control Change
Note On
Note On
Control Change
Note On
Note On
Control Change
Note On
Note On
Control Change
Note On
Note On
Control Change
Note On
Note On
Control Change
Note On
Note On
Control Change
Note On
Note On
Control Change
Note On
Note On
Control Change
Note On
Note On
Control Change
Note On
Note On
Control Change
Note On
Note On
Control Change
Note On
Note On
Control Change
Note On
Note On
Control Change
Note On
Note On
Control Change
Note On
Note On
Control Change
Note On
Note On
Control Change
Note On
Note On
Control Change
Note On
Note On
Control Change
Note On
Note On
Control Change
Note On
Note On
Control Change
Note On
Note On
Control Change
Note On
Note On
Control Change
Note On
Note On
Control Change
Note On
Note On
Control Change
Note On
Note On
Control Change
Note On
Note On
Control Change
Note On
Note On
Control Change
Note On
Note On
Control Change
Note On
Note On
Control Change
Note On
Note On
Control Change
Note On
Note On
Control Change
Note On
Note On
Control Change
Note On
Note On
Control Change
Note On
Note On
Control Change
Note On
Note On
Control Change
Note On
Note On
Control Change
Note On
Note On
Control Change
Note On
Note On
Control Change
Note On
Note On
Control Change
Note On
Note On
Control Change
Note On
Note On
Control Change
Note On
Note On
Control Change
Note On
Note On
Control Change
Note On
Note On
Control Change
Note On
Note On
Control Change
Note On
Note On
Control Change
Note On
Note On
Control Change
Note On
Note On
Control Change
Note On
Note On
Control Change
Note On
Note On
Control Change
Note On
Note On
Control Change
Note On
Note On
Control Change
Note On
Note On
Control Change
Note On
Note On
Control Change
Note On
Note On
Control Change
Note On
Note On
Control Change
Note On
Note On
Control Change
Note On
Note On
Control Change
Note On
Note On
Control Change
Note On
Note On
Control Change
Note On
Note On
Control Change
Note On
Note On
Control Change
Note On
Note On
Control Change
Note On
Note On
Control Change
Note On
Note On
Control Change
Note On
Note On
Control Change
Note On
Note On
Control Change
Note On
Note On
Control Change
Note On
Note On
Control Change
Note On
Note On
Control Change
Note On
Note On
Control Change
Note On
Note On
Control Change
Note On
Note On
Control Change
Note On
Note On
Control Change
Note On
Note On
Control Change
Note On
Note On
Control Change
Note On
Note On
Control Change
Note On
Note On
Control Change
Note On
Note On
Control Change
Note On
Note On
Control Change
Note On
Note On
Control Change
Note On
Note On
Control Change
Note On
Note On
Control Change
Note On
Note On
Control Change
Note On
Note On
Control Change
Note On
Note On
Control Change
Note On
Note On
Control Change
Note On
Note On
Control Change
Note On
Note On
Control Change
Note On
Note On
Control Change
Note On
Note On
Control Change
Note On
Note On
Control Change
Note On
Note On
Control Change
Note On
Note On
Control Change
Note On
Note On
Control Change
Note On
Note On
Control Change
Note On
Note On
Control Change
Note On
Note On
Control Change
Note On
Note On
Control Change
Note On
Note On
Control Change
Note On
Note On
Control Change
Note On
Note On
Control Change
Note On
Note On
Control Change
Note On
Note On
Control Change
Note On
Note On
Control Change
Note On
Note On
Control Change
Note On
Note On
Control Change
Note On
Note On
Control Change
Note On
Note On
Control Change
Note On
Note On
Control Change
Note On
Note On
Control Change
Note On
Note On
Control Change
Note On
Note On
Control Change
Note On
Note On
Control Change
Note On
Note On
Control Change
Note On
Note On
Control Change
Note On
Note On
Control Change
Note On
Note On
Control Change
Note On
Note On
Control Change
Note On
Note On
Control Change
Note On
Note On
Control Change
Note On
Note On
Control Change
Note On
Note On
Control Change
Note On
Note On
Control Change
Note On
Note On
Control Change
Note On
Note On
Control Change
Note On
Note On
Control Change
Note On
Note On
Control Change
Note On
Note On
Control Change
Note On
Note On
Control Change
Note On
Note On
Control Change
Note On
Note On
Control Change
Note On
Note On
Control Change
Note On
Note On
Control Change
Note On
Note On
Control Change
Note On
Note On
Control Change
Note On
Note On
Control Change
Note On
Note On
Control Change
Note On
Note On
Control Change
Note On
Note On
Control Change
Note On
Note On
Control Change
Note On
Note On
Control Change
Note On
Note On
Control Change
Note On
Note On
Control Change
Note On
Note On
Control Change
Note On
Note On
Control Change
Note On
Note On
Control Change
Note On
Note On
Control Change
Note On
Note On
Control Change
Note On
Note On
Control Change
Note On
Note On
Control Change
Note On
Note On
Control Change
Note On
Note On
Control Change
Note On
Note On
Control Change
Note On
Note On
Control Change
Note On
Note On
Control Change
Note On
Note On
Control Change
Note On
Note On
Control Change
Note On
Note On
Control Change
Note On
Note On
Control Change
Note On
Note On
Control Change
Note On
Note On
Control Change
Note On
Note On
Control Change
Note On
Note On
Control Change
Note On
Note On
Control Change
Note On
Note On
Control Change
Note On
Note On
Control Change
Note On
Note On
Control Change
Note On
Note On
Control Change
Note On
Note On
Control Change
Note On
Note On
Control Change
Note On
Note On
Control Change
Note On
Note On
Control Change
Note On
Note On
Control Change
Note On
Note On
Control Change
Note On
Note On
Control Change
Note On
Note On
Control Change
Note On
Note On
Control Change
Note On
Note On
Control Change
Note On
Note On
Control Change
Note On
Note On
Control Change
Note On
Note On
Control Change
Note On
Note On
Control Change
Note On
Note On
Control Change
Note On
Note On
Control Change
Note On
Note On
Control Change
Note On
Note On
Control Change
Note On
Note On
Control Change
Note On
Note On
Control Change
Note On
Note On
Control Change
Note On
Note On
Control Change
Note On
Note On
Control Change
Note On
Note On
Control Change
Note On
Note On
Control Change
Note On
Note On
Control Change
Note On
Note On
Control Change
Note On
Note On
Control Change
Note On
Note On
Control Change
Note On
Note On
Control Change
Note On
Note On
Control Change
Note On
Note On
Control Change
Note On
Note On
Control Change
Note On
Note On
Control Change
Note On
Note On
Control Change
Note On
Note On
Control Change
Note On
Note On
Control Change
Note On
Note On
Control Change
Note On
Note On
Control Change
Note On
Note On
Control Change
Note On
Note On
Control Change
Note On
Note On
Control Change
Note On
Note On
Control Change
Note On
Note On
Control Change
Note On
Note On
Control Change
Note On
Note On
Control Change
Note On
Note On
Control Change
Note On
Note On
Control Change
Note On
Note On
Control Change
Note On
Note On
Control Change
Note On
Note On
Control Change
Note On
Note On
Control Change
Note On
Note On
Control Change
Note On
Note On
Control Change
Note On
Note On
Control Change
Note On
Note On
Control Change
Note On
Note On
Control Change
Note On
Note On
Control Change
Note On
Note On
Control Change
Note On
Note On
Control Change
Note On
Note On
Control Change
Note On
Note On
Control Change
Note On
Note On
Control Change
Note On
Note On
Control Change
Note On
Note On
Control Change
Note On
Note On
Control Change
Note On
Note On
Control Change
Note On
Note On
Control Change
Note On
Note On
Control Change
Note On
Note On
Control Change
Note On
Note On
Control Change
Note On
Note On
Control Change
Note On
Note On
Control Change
Note On
Note On
Control Change
Note On
Note On
Control Change
Note On
Note On
Control Change
Note On
Note On
Control Change
Note On
Note On
Note On
Note On
Control Change
Note On
Note On
Control Change
Note On
Note On
Control Change
Note On
Note On
Control Change
Note On
Note On
Control Change
Note On
Note On
Control Change
Note On
Note On
Control Change
Note On
Note On
Control Change
Note On
Note On
Control Change
Note On
Note On
Control Change
Note On
Note On
Control Change
Note On
Note On
Control Change
Note On
Note On
Control Change
Note On
Note On
Control Change
Note On
Note On
Control Change
Note On
Note On
Control Change
Note On
Note On
Control Change
Note On
Note On
Control Change
Note On
Note On
Control Change
Note On
Note On
Control Change
Note On
Note On
Control Change
Note On
Note On
Control Change
Note On
Note On
Control Change
Note On
Note On
Control Change
Note On
Note On
Control Change
Note On
Note On
Control Change
Note On
Note On
Control Change
Note On
Note On
Control Change
Note On
Note On
Control Change
Note On
Note On
Control Change
Note On
Note On
Control Change
Note On
Note On
Control Change
Note On
Note On
Control Change
Note On
Note On
Control Change
Note On
Note On
Control Change
Note On
Note On
Control Change
Note On
Note On
Control Change
Note On
Note On
Control Change
Note On
Note On
Control Change
Note On
Note On
Control Change
Note On
Note On
Control Change
Note On
Note On
Control Change
Note On
Note On
Control Change
Note On
Note On
Control Change
Note On
Note On
Control Change
Note On
Note On
Control Change
Note On
Note On
Control Change
Note On
Note On
Control Change
Note On
Note On
Control Change
Note On
Note On
Control Change
Note On
Note On
Control Change
Note On
Note On
Control Change
Note On
Note On
Control Change
Note On
Note On
Control Change
Note On
Note On
Control Change
Note On
Note On
Control Change
Note On
Note On
Control Change
Note On
Note On
Control Change
Note On
Note On
Control Change
Note On
Note On
Control Change
Note On
Note On
Control Change
Note On
Note On
Control Change
Note On
Note On
Control Change
Note On
Note On
Control Change
Note On
Note On
Control Change
Note On
Note On
Control Change
Note On
Note On
Control Change
Note On
Note On
Control Change
Note On
Note On
Control Change
Note On
Note On
Control Change
Note On
Note On
Control Change
Note On
Note On
Control Change
Note On
Note On
Control Change
Note On
Note On
Control Change
Note On
Note On
Control Change
Note On
Note On
Control Change
Note On
Note On
Control Change
Note On
Note On
Control Change
Note On
Note On
Control Change
Note On
Note On
Control Change
Note On
Note On
Control Change
Note On
Note On
Control Change
Note On
Note On
Control Change
Note On
Note On
Control Change
Note On
Note On
Control Change
Note On
Note On
Control Change
Note On
Note On
Control Change
Note On
Note On
Control Change
Note On
Note On
Control Change
Note On
Note On
Control Change
Note On
Note On
Control Change
Note On
Note On
Control Change
Note On
Note On
Control Change
Note On
Note On
Control Change
Note On
Note On
Control Change
Note On
Note On
Control Change
Note On
Note On
Control Change
Control Change
Note On
Control Change
Note On
Control Change
Note On
Control Change
Control Change
Note On
Control Change
Note On
Control Change
Note On
Control Change
Control Change
Note On
Control Change
Note On
Control Change
Control Change
Note On
Control Change
Note On
Control Change
Control Change
Note On
Control Change
Note On
Control Change
Control Change
Note On
Control Change
Note On
Control Change
Note On
Control Change
Note On
Control Change
Note On
Control Change
Note On
Control Change
Note On
Control Change
Note On
Control Change
Note On
Control Change
Control Change
Note On
Control Change
Note On
Control Change
Note On
Control Change
Control Change
Note On
Control Change
Note On
Control Change
Control Change
Note On
Control Change
Note On
Control Change
Control Change
Note On
Control Change
Note On
Control Change
Control Change
Note On
Control Change
Note On
Control Change
Control Change
Note On
Control Change
Note On
Control Change
Note On
Control Change
Note On
Control Change
Note On
Control Change
Note On
Control Change
Note On
Control Change
Control Change
Note On
Control Change
Note On
Control Change
Note On
Control Change
Control Change
Note On
Control Change
Note On
Control Change
Control Change
Note On
Control Change
Note On
Control Change
Control Change
Note On
Control Change
Note On
Control Change
Control Change
Note On
Control Change
Note On
Control Change
Control Change
Note On
Control Change
Note On
Control Change
Note On
Control Change
Note On
Control Change
Note On
Control Change
Note On
Control Change
Note On
Control Change
Control Change
Note On
Control Change
Note On
Control Change
Control Change
Note On
Control Change
Note On
Control Change
Note On
Control Change
Control Change
Note On
Control Change
Note On
Control Change
Control Change
Note On
Control Change
Note On
Control Change
Control Change
Note On
Control Change
Note On
Control Change
Control Change
Note On
Control Change
Note On
Control Change
Note On
Control Change
Note On
Control Change
Note On
Control Change
Note On
Control Change
Note On
Control Change
Control Change
Note On
Control Change
Note On
Control Change
Control Change
Note On
Control Change
Note On
Control Change
Note On
Control Change
Control Change
Note On
Control Change
Note On
Control Change
Control Change
Note On
Control Change
Note On
Control Change
Control Change
Note On
Control Change
Note On
Control Change
Control Change
Note On
Control Change
Note On
Control Change
Note On
Control Change
Note On
Control Change
Note On
Control Change
Note On
Control Change
Note On
Control Change
Control Change
Note On
Control Change
Note On
Control Change
Control Change
Note On
Control Change
Note On
Control Change
Note On
Control Change
Control Change
Note On
Control Change
Note On
Control Change
Control Change
Note On
Control Change
Note On
Control Change
Control Change
Note On
Control Change
Note On
Control Change
Control Change
Note On
Control Change
Note On
Control Change
Note On
Control Change
Note On
Control Change
Note On
Control Change
Note On
Control Change
Note On
Control Change
Control Change
Note On
Control Change
Note On
Control Change
Control Change
Note On
Control Change
Note On
Control Change
Note On
Control Change
Control Change
Note On
Control Change
Note On
Control Change
Control Change
Note On
Control Change
Note On
Control Change
Control Change
Note On
Control Change
Note On
Control Change
Control Change
Note On
Control Change
Note On
Control Change
Note On
Control Change
Note On
Control Change
Note On
Control Change
Control Change
Note On
End of Track
MIDI Port/Cable
Track Name
Program Change
Control Change
Control Change
Control Change
Control Change
Control Change
Control Change
Control Change
Control Change
Control Change
Pitch Wheel
Control Change
Note On
Note On
Control Change
Control Change
Control Change
Note On
Note On
Control Change
Control Change
Note On
Control Change
Note On
Control Change
Note On
Control Change
Note On
Control Change
Note On
Control Change
Note On
Control Change
Note On
Control Change
Note On
Control Change
Note On
Control Change
Note On
Control Change
Note On
Control Change
Note On
Control Change
Note On
Note On
Control Change
Control Change
Note On
Control Change
Note On
Control Change
Note On
Control Change
Note On
Control Change
Note On
Control Change
Note On
Control Change
Note On
Control Change
Note On
Control Change
Note On
Control Change
Note On
Control Change
Note On
Control Change
Note On
Control Change
Note On
Control Change
Note On
Control Change
Note On
Note On
Control Change
Control Change
Note On
Control Change
Note On
Control Change
Note On
Control Change
Note On
Control Change
Note On
Control Change
Note On
Control Change
Note On
Control Change
Note On
Control Change
Note On
Control Change
Note On
Control Change
Note On
Control Change
Note On
Control Change
Note On
Note On
Control Change
Control Change
Note On
Control Change
Note On
Control Change
Note On
Control Change
Note On
Control Change
Note On
Control Change
Note On
Control Change
Note On
Control Change
Note On
Control Change
Note On
Control Change
Note On
Control Change
Note On
Control Change
Note On
Control Change
Note On
Control Change
Note On
Control Change
Note On
Note On
Control Change
Control Change
Note On
Control Change
Note On
Control Change
Note On
Control Change
Note On
Control Change
Note On
Control Change
Note On
Control Change
Note On
Control Change
Note On
Control Change
Note On
Control Change
Note On
Control Change
Note On
Control Change
Note On
Control Change
Note On
Note On
Control Change
Control Change
Note On
Control Change
Note On
Control Change
Note On
Control Change
Note On
Control Change
Note On
Control Change
Note On
Control Change
Note On
Control Change
Note On
Control Change
Note On
Control Change
Note On
Control Change
Note On
Control Change
Note On
Control Change
Note On
Control Change
Note On
Control Change
Note On
Note On
Control Change
Control Change
Note On
Control Change
Note On
Control Change
Note On
Control Change
Note On
Control Change
Note On
Control Change
Note On
Control Change
Note On
Control Change
Note On
Control Change
Note On
Control Change
Note On
Control Change
Note On
Control Change
Note On
Control Change
Note On
Note On
Control Change
Control Change
Note On
Note On
Control Change
Control Change
Note On
Control Change
Note On
Control Change
Note On
Control Change
Note On
Control Change
Note On
Control Change
Note On
Control Change
Note On
Control Change
Note On
Control Change
Note On
Control Change
Note On
Control Change
Note On
Control Change
Note On
Control Change
Note On
Note On
Control Change
Control Change
Note On
Control Change
Note On
Control Change
Note On
Control Change
Note On
Control Change
Note On
Control Change
Note On
Control Change
Note On
Control Change
Note On
Control Change
Note On
Control Change
Note On
Control Change
Note On
Control Change
Control Change
Control Change
Note On
Note On
Control Change
Note On
Note On
Control Change
Note On
Note On
Control Change
Note On
Note On
Control Change
Note On
Note On
Control Change
Note On
Note On
Control Change
Note On
Note On
Control Change
Note On
Note On
Control Change
Note On
Note On
Control Change
Note On
Note On
Control Change
Note On
Note On
Control Change
Note On
Note On
Control Change
Note On
Note On
Control Change
Note On
Note On
Control Change
Note On
Note On
Control Change
Note On
Note On
Control Change
Note On
Note On
Control Change
Note On
Note On
Control Change
Note On
Note On
Control Change
Note On
Note On
Control Change
Note On
Note On
Control Change
Note On
Note On
Control Change
Note On
Note On
Control Change
Note On
Note On
Control Change
Note On
Note On
Control Change
Note On
Note On
Control Change
Note On
Note On
Control Change
Note On
Note On
Control Change
Note On
Note On
Control Change
Note On
Note On
Control Change
Note On
Note On
Control Change
Note On
Note On
Control Change
Note On
Note On
Control Change
Note On
Note On
Control Change
Note On
Note On
Control Change
Note On
Note On
Control Change
Note On
Note On
Control Change
Note On
Note On
Control Change
Note On
Note On
Control Change
Note On
Note On
Control Change
Note On
Note On
Control Change
Note On
Note On
Control Change
Note On
Note On
Control Change
Note On
Note On
Control Change
Note On
Note On
Control Change
Note On
Note On
Control Change
Note On
Note On
Control Change
Note On
Note On
Control Change
Note On
Note On
Control Change
Note On
Note On
Control Change
Note On
Note On
Control Change
Note On
Note On
Control Change
Note On
Note On
Control Change
Note On
Note On
Control Change
Note On
Note On
Control Change
Note On
Note On
Control Change
Note On
Note On
Control Change
Note On
Note On
Control Change
Note On
Note On
Control Change
Note On
Note On
Control Change
Note On
Note On
Control Change
Note On
Note On
Control Change
Note On
Note On
Control Change
Note On
Note On
Control Change
Note On
Note On
Control Change
Note On
Note On
Control Change
Note On
Note On
Control Change
Note On
Note On
Control Change
Note On
Note On
Control Change
Note On
Note On
Control Change
Note On
Note On
Control Change
Note On
Note On
Control Change
Note On
Note On
Control Change
Note On
Note On
Control Change
Note On
Note On
Control Change
Note On
Note On
Control Change
Note On
Note On
Control Change
Note On
Note On
Control Change
Note On
Note On
Control Change
Note On
Note On
Control Change
Note On
Note On
Control Change
Note On
Note On
Control Change
Note On
Note On
Control Change
Note On
Note On
Control Change
Note On
Note On
Control Change
Note On
Note On
Control Change
Note On
Note On
Control Change
Note On
Note On
Control Change
Note On
Note On
Control Change
Note On
Note On
Control Change
Note On
Note On
Control Change
Note On
Note On
Control Change
Note On
Note On
Control Change
Note On
Note On
Control Change
Note On
Note On
Control Change
Note On
Note On
Control Change
Note On
Note On
Control Change
Note On
Note On
Control Change
Note On
Note On
Control Change
Note On
Note On
Control Change
Note On
Note On
Control Change
Note On
Note On
Control Change
Note On
Note On
Control Change
Note On
Note On
Control Change
Note On
Note On
Control Change
Note On
Note On
Control Change
Note On
Note On
Control Change
Note On
Note On
Control Change
Note On
Note On
Control Change
Note On
Note On
Control Change
Note On
Note On
Control Change
Note On
Note On
Control Change
Note On
Note On
Control Change
Note On
Note On
Control Change
Note On
Note On
Control Change
Note On
Note On
Control Change
Note On
Note On
Control Change
Note On
Note On
Control Change
Note On
Note On
Control Change
Note On
Note On
Control Change
Note On
Note On
Control Change
Note On
Note On
Control Change
Note On
Note On
Control Change
Note On
Note On
Control Change
Note On
Note On
Control Change
Note On
Note On
Control Change
Note On
Note On
Control Change
Note On
Note On
Control Change
Note On
Note On
Control Change
Note On
Note On
Control Change
Note On
Note On
Control Change
Note On
Note On
Control Change
Note On
Note On
Control Change
Note On
Note On
Control Change
Note On
Note On
Control Change
Note On
Note On
Control Change
Note On
Note On
Control Change
Note On
Note On
Control Change
Note On
Note On
Control Change
Note On
Note On
Control Change
Note On
Note On
Control Change
Note On
Note On
Control Change
Note On
Note On
Control Change
Note On
Note On
Control Change
Note On
Note On
Control Change
Note On
Note On
Control Change
Note On
Note On
Control Change
Note On
Note On
Control Change
Note On
Note On
Control Change
Note On
Note On
Control Change
Note On
Note On
Control Change
Note On
Note On
Control Change
Note On
Note On
Control Change
Note On
Note On
Control Change
Note On
Note On
Control Change
Note On
Note On
Control Change
Note On
Note On
Control Change
Note On
Note On
Control Change
Note On
Note On
Control Change
Note On
Note On
Control Change
Note On
Note On
Control Change
Note On
Note On
Control Change
Note On
Note On
Control Change
Note On
Note On
Control Change
Note On
Note On
Control Change
Note On
Note On
Control Change
Note On
Note On
Control Change
Note On
Note On
Control Change
Note On
Note On
Control Change
Note On
Note On
Control Change
Note On
Note On
Control Change
Note On
Note On
Control Change
Note On
Note On
Control Change
Note On
Note On
Control Change
Note On
Note On
Control Change
Note On
Note On
Control Change
Note On
Note On
Control Change
Note On
Note On
Control Change
Note On
Note On
Control Change
Note On
Note On
Control Change
Note On
Note On
Control Change
Note On
Note On
Control Change
Note On
Note On
Control Change
Note On
Note On
Control Change
Note On
Note On
Control Change
Note On
Note On
Control Change
Note On
Note On
Control Change
Note On
Note On
Control Change
Note On
Note On
Control Change
Note On
Note On
Control Change
Note On
Note On
Control Change
Note On
Note On
Control Change
Note On
Note On
Control Change
Note On
Note On
Control Change
Note On
Note On
Control Change
Note On
Note On
Control Change
Note On
Note On
Control Change
Note On
Note On
Control Change
Note On
Note On
Control Change
Note On
Note On
Control Change
Note On
Note On
Control Change
Note On
Note On
Control Change
Note On
Note On
Control Change
Note On
Control Change
Note On
Note On
Control Change
Note On
Note On
Control Change
Note On
Note On
Control Change
Note On
Note On
Control Change
Note On
Note On
Control Change
Note On
Note On
Control Change
Note On
Note On
Control Change
Note On
Note On
Control Change
Note On
Note On
Control Change
Note On
Note On
Control Change
Note On
Note On
Control Change
Note On
Note On
Control Change
Note On
Note On
Control Change
Note On
Note On
Control Change
Note On
Note On
Control Change
Note On
Note On
Control Change
Note On
Note On
Control Change
Note On
Note On
Control Change
Note On
Note On
Control Change
Note On
Note On
Control Change
Note On
Note On
Control Change
Note On
Note On
Control Change
Note On
Note On
Control Change
Note On
Note On
Control Change
Note On
Note On
Control Change
Note On
Note On
Control Change
Note On
Note On
Control Change
Note On
Note On
Control Change
Note On
Note On
Control Change
Note On
Note On
Control Change
Note On
Note On
Control Change
Note On
Note On
Control Change
Note On
Note On
Control Change
Note On
Note On
Control Change
Note On
Note On
Control Change
Note On
Note On
Control Change
Note On
Note On
Control Change
Note On
Note On
Control Change
Note On
Note On
Control Change
Note On
Note On
Control Change
Note On
Note On
Control Change
Note On
Note On
Control Change
Note On
Note On
Control Change
Note On
Note On
Control Change
Note On
Note On
Control Change
Note On
Note On
Control Change
Note On
Note On
Control Change
Note On
Note On
Control Change
Note On
Note On
Control Change
Note On
Note On
Control Change
Note On
Note On
Control Change
Note On
Note On
Control Change
Note On
Note On
Control Change
Note On
Note On
Control Change
Note On
Note On
Control Change
Note On
Note On
Control Change
Note On
Note On
Control Change
Note On
Note On
Control Change
Note On
Note On
Control Change
Note On
Note On
Control Change
Note On
Note On
Control Change
Note On
Note On
Control Change
Note On
Note On
Control Change
Note On
Note On
Control Change
Note On
Note On
Control Change
Note On
Note On
Control Change
Note On
Note On
Control Change
Note On
Note On
Control Change
Note On
Note On
Control Change
Note On
Note On
Control Change
Note On
Note On
Control Change
Note On
Note On
Control Change
Note On
Note On
Control Change
Note On
Note On
Control Change
Note On
Note On
Control Change
Note On
Note On
Control Change
Note On
Note On
Control Change
Note On
Note On
Control Change
Note On
Note On
Control Change
Note On
Note On
Control Change
Note On
Note On
Control Change
Note On
Note On
Control Change
Note On
Note On
Control Change
Note On
Note On
Control Change
Note On
Note On
Control Change
Note On
Note On
Control Change
Note On
Note On
Control Change
Note On
Note On
Control Change
Note On
Note On
Control Change
Note On
Note On
Control Change
Note On
Note On
Control Change
Note On
Note On
Control Change
Note On
Note On
Control Change
Note On
Note On
Control Change
Note On
Note On
Control Change
Note On
Note On
Control Change
Note On
Note On
Control Change
Note On
Note On
Control Change
Note On
Note On
Control Change
Note On
Note On
Control Change
Note On
Note On
Control Change
Note On
Note On
Control Change
Note On
Note On
Control Change
Note On
Note On
Control Change
Note On
Note On
Control Change
Note On
Note On
Control Change
Note On
Note On
Control Change
Note On
Note On
Control Change
Note On
Note On
Control Change
Note On
Note On
Control Change
Note On
Note On
Control Change
Note On
Note On
Control Change
Note On
Note On
Control Change
Note On
Note On
Control Change
Note On
Note On
Control Change
Note On
Note On
Control Change
Note On
Note On
Control Change
Note On
Note On
Control Change
Note On
Note On
Control Change
Note On
Note On
Control Change
Note On
Note On
Control Change
Note On
Note On
Control Change
Note On
Note On
Control Change
Note On
Note On
Control Change
Note On
Note On
Control Change
Note On
Note On
Control Change
Note On
Note On
Control Change
Note On
Note On
Control Change
Note On
Note On
Control Change
Note On
Note On
Control Change
Note On
Note On
Control Change
Note On
Note On
Control Change
Note On
Note On
Control Change
Note On
Note On
Control Change
Note On
Note On
Control Change
Note On
Note On
Control Change
Note On
Note On
Control Change
Note On
Note On
Control Change
Note On
Note On
Control Change
Note On
Note On
Control Change
Note On
Note On
Control Change
Note On
Note On
Control Change
Note On
Note On
Control Change
Note On
Note On
Control Change
Note On
Note On
Control Change
Note On
Note On
Control Change
Note On
Note On
Control Change
Note On
Note On
Control Change
Note On
Note On
Control Change
Note On
Note On
Control Change
Note On
Note On
Control Change
Note On
Note On
Control Change
Note On
Note On
Control Change
Note On
Note On
Control Change
Note On
Note On
Control Change
Note On
Note On
Control Change
Note On
Note On
Control Change
Note On
Note On
Control Change
Note On
Note On
Control Change
Note On
Note On
Control Change
Note On
Note On
Control Change
Note On
Note On
Control Change
Note On
Note On
Control Change
Note On
Note On
Control Change
Note On
Note On
Control Change
Note On
Note On
Control Change
Note On
Note On
Control Change
Note On
Note On
Control Change
Note On
Note On
Control Change
Note On
Note On
Control Change
Note On
Note On
Control Change
Note On
Note On
Control Change
Note On
Note On
Control Change
Note On
Note On
Control Change
Note On
Note On
Control Change
Note On
Note On
Control Change
Note On
Note On
Control Change
Note On
Note On
Control Change
Note On
Note On
Control Change
Note On
Note On
Control Change
Note On
Note On
Control Change
Note On
Note On
Control Change
Note On
Note On
Control Change
Note On
Note On
Control Change
Note On
Note On
Control Change
Note On
Note On
Control Change
Note On
Note On
Control Change
Note On
Note On
Control Change
Note On
Note On
Control Change
Note On
Note On
Control Change
Note On
Note On
Control Change
Note On
Note On
Control Change
Note On
Note On
Control Change
Note On
Note On
Control Change
Note On
Note On
Control Change
Note On
Note On
Control Change
Note On
Note On
Control Change
Note On
Note On
Control Change
Note On
Note On
Control Change
Note On
Note On
Control Change
Note On
Note On
Control Change
Note On
Note On
Control Change
Note On
Note On
Control Change
Note On
Note On
Control Change
Note On
Note On
Control Change
Note On
Note On
Control Change
Note On
Note On
Control Change
Note On
Note On
Control Change
Note On
Note On
Control Change
Note On
Note On
Control Change
Note On
Note On
Control Change
Note On
Note On
Control Change
Note On
Note On
Control Change
Note On
Note On
Control Change
Note On
Note On
Control Change
Note On
Note On
Control Change
Note On
Note On
Control Change
Note On
Note On
Control Change
Note On
Note On
Control Change
Note On
Note On
Control Change
Note On
Note On
Control Change
Note On
Note On
Control Change
Note On
Note On
Control Change
Note On
Note On
Control Change
Note On
Note On
Control Change
Note On
Note On
Control Change
Note On
Note On
Control Change
Note On
Note On
Control Change
Note On
Note On
Control Change
Note On
Note On
Control Change
Note On
Note On
Control Change
Note On
Note On
Control Change
Note On
Note On
Control Change
Note On
Note On
Control Change
Note On
Note On
Control Change
Note On
Note On
Control Change
Note On
Note On
Control Change
Note On
Note On
Control Change
Note On
Note On
Control Change
Note On
Note On
Control Change
Note On
Note On
Control Change
Note On
Note On
Control Change
Note On
Note On
Control Change
Note On
Note On
Control Change
Note On
Note On
Control Change
Note On
Note On
Control Change
Note On
Note On
Control Change
Note On
Note On
Control Change
Note On
Note On
Control Change
Note On
Note On
Control Change
Note On
Note On
Control Change
Note On
Note On
Control Change
Note On
Note On
Control Change
Note On
Note On
Control Change
Note On
Note On
Control Change
Note On
Note On
Control Change
Note On
Note On
Control Change
Note On
Note On
Control Change
Note On
Note On
Control Change
Note On
Note On
Control Change
Note On
Note On
Control Change
Note On
Note On
Control Change
Note On
Note On
Control Change
Note On
Note On
Control Change
Note On
Note On
Control Change
Note On
Note On
Control Change
Note On
Note On
Control Change
Note On
Note On
Control Change
Note On
Note On
Control Change
Note On
Note On
Control Change
Note On
Note On
Control Change
Note On
Note On
Control Change
Note On
Note On
Control Change
Note On
Note On
Control Change
Note On
Note On
Control Change
Note On
Note On
Control Change
Note On
Note On
Control Change
Note On
Note On
Control Change
Note On
Note On
Control Change
Note On
Note On
Control Change
Note On
Note On
Control Change
Note On
Note On
Control Change
Note On
Note On
Control Change
Note On
Note On
Control Change
Note On
Note On
Control Change
Note On
Note On
Control Change
Note On
Note On
Control Change
Note On
Note On
Control Change
Note On
Note On
Control Change
Note On
Note On
Control Change
Note On
Note On
Control Change
Note On
Note On
Control Change
Note On
Note On
Control Change
Note On
Note On
Control Change
Note On
Note On
Control Change
Note On
Note On
Control Change
Note On
Note On
Control Change
Note On
Note On
Control Change
Note On
Note On
Control Change
Note On
Note On
Control Change
Note On
Note On
Control Change
Note On
Note On
Control Change
Note On
Note On
Control Change
Note On
Note On
Control Change
Note On
Note On
Control Change
Note On
Note On
Control Change
Note On
Note On
Control Change
Note On
Note On
Control Change
Note On
Note On
Control Change
Note On
Note On
Control Change
Note On
Note On
Control Change
Note On
Note On
Control Change
Note On
Note On
Control Change
Note On
Note On
Control Change
Note On
Note On
Control Change
Note On
Note On
Control Change
Note On
Note On
Control Change
Note On
Note On
Control Change
Note On
Note On
Control Change
Note On
Note On
Control Change
Note On
Note On
Control Change
Note On
Note On
Control Change
Note On
Note On
Control Change
Note On
Note On
Control Change
Note On
Note On
Control Change
Note On
Note On
Control Change
Note On
Note On
Control Change
Note On
Note On
Control Change
Note On
Note On
Control Change
Note On
Note On
Control Change
Note On
Note On
Control Change
Note On
Note On
Control Change
Note On
Note On
Control Change
Note On
Note On
Control Change
Note On
Note On
Control Change
Note On
Note On
Control Change
Note On
Note On
Control Change
Note On
Note On
Control Change
Note On
Note On
Control Change
Note On
Note On
Control Change
Note On
Note On
Control Change
Note On
Note On
Control Change
Note On
Note On
Control Change
Control Change
Note On
Control Change
Note On
Control Change
Note On
Control Change
Note On
Control Change
Control Change
Note On
Control Change
Note On
Control Change
Note On
Control Change
Note On
Control Change
Note On
Control Change
Control Change
Note On
Control Change
Note On
Control Change
Note On
Control Change
Control Change
Note On
Control Change
Note On
Control Change
Note On
Control Change
Control Change
Note On
Control Change
Note On
Control Change
Note On
Control Change
Control Change
Note On
Control Change
Note On
Control Change
Note On
Control Change
Note On
Control Change
Note On
Control Change
Control Change
Note On
Control Change
Note On
Control Change
Note On
Control Change
Note On
Control Change
Note On
Control Change
Note On
Control Change
Control Change
Note On
Control Change
Note On
Control Change
Note On
Control Change
Control Change
Note On
Control Change
Note On
Control Change
Note On
Control Change
Control Change
Note On
Control Change
Note On
Control Change
Note On
Control Change
Control Change
Note On
Control Change
Note On
Control Change
Note On
Control Change
Note On
Control Change
Note On
Control Change
Control Change
Note On
Control Change
Note On
Control Change
Note On
Control Change
Note On
Control Change
Note On
Control Change
Note On
Control Change
Control Change
Note On
Control Change
Note On
Control Change
Note On
Control Change
Control Change
Note On
Control Change
Note On
Control Change
Note On
Control Change
Control Change
Note On
Control Change
Note On
Control Change
Note On
Control Change
Control Change
Note On
Control Change
Note On
Control Change
Note On
Control Change
Note On
Control Change
Note On
Control Change
Control Change
Note On
Control Change
Note On
Control Change
Note On
Control Change
Note On
Control Change
Note On
Control Change
Note On
Control Change
Control Change
Note On
Control Change
Note On
Control Change
Note On
Control Change
Control Change
Note On
Control Change
Note On
Control Change
Note On
Control Change
Note On
Control Change
Note On
Control Change
Note On
Control Change
Control Change
Note On
Control Change
Note On
Control Change
Note On
Control Change
Note On
Control Change
Note On
Control Change
Control Change
Note On
Control Change
Note On
Control Change
Note On
Control Change
Control Change
Note On
Control Change
Note On
Control Change
Note On
Control Change
Control Change
Note On
Control Change
Note On
Control Change
Note On
Control Change
Control Change
Note On
Control Change
Note On
Control Change
Note On
Control Change
Note On
Control Change
Note On
Control Change
Control Change
Note On
Control Change
Note On
Control Change
Note On
Control Change
Note On
Control Change
Note On
Control Change
Note On
Control Change
Control Change
Note On
Control Change
Note On
Control Change
Note On
Control Change
Control Change
Note On
Control Change
Note On
Control Change
Note On
Control Change
Control Change
Note On
Control Change
Note On
Control Change
Note On
Control Change
Control Change
Note On
Control Change
Note On
Control Change
Note On
Control Change
Note On
Control Change
Note On
Control Change
Control Change
Note On
Control Change
Note On
Control Change
Note On
Control Change
Note On
Control Change
Note On
Control Change
Note On
Control Change
Control Change
Note On
Control Change
Note On
Control Change
Note On
Control Change
Control Change
Note On
Control Change
Control Change
Note On
End of Track
MIDI Port/Cable
Track Name
Program Change
Control Change
Control Change
Control Change
Control Change
Control Change
Control Change
Control Change
Control Change
Control Change
Pitch Wheel
Control Change
Control Change
Control Change
Control Change
Control Change
Control Change
Control Change
Control Change
Control Change
Control Change
Control Change
Control Change
Control Change
Control Change
Control Change
Control Change
Control Change
Control Change
Control Change
Control Change
Control Change
Control Change
Control Change
Control Change
Control Change
Control Change
Control Change
Control Change
Control Change
Control Change
Control Change
Control Change
Control Change
Control Change
Control Change
Control Change
Control Change
Control Change
Control Change
Control Change
Control Change
Control Change
Control Change
Control Change
Control Change
Control Change
Control Change
Control Change
Control Change
Control Change
Control Change
Control Change
Control Change
Control Change
Control Change
Control Change
Control Change
Control Change
Control Change
Control Change
Control Change
Control Change
Control Change
Note On
Note On
Note On
Note On
Note On
Note On
Note On
Note On
Note On
Note On
Control Change
Control Change
Note On
Note On
Note On
Note On
Note On
Note On
Note On
Note On
Note On
Note On
Note On
Note On
Note On
Note On
Note On
Note On
Note On
Note On
Control Change
Note On
Control Change
Control Change
Control Change
Control Change
Control Change
Control Change
Control Change
Control Change
Control Change
Control Change
Control Change
Control Change
Control Change
Note On
Control Change
Control Change
Control Change
Note On
Control Change
Control Change
Control Change
Control Change
Control Change
Control Change
Note On
Note On
Note On
Note On
Note On
Note On
Note On
Note On
Note On
Note On
Note On
Note On
Note On
Note On
Note On
Note On
Note On
Note On
Note On
Note On
Note On
Note On
Note On
Note On
Note On
Note On
Note On
Note On
Note On
Note On
Note On
Note On
Note On
Note On
Note On
Note On
Note On
Note On
Note On
Note On
Note On
Note On
Note On
Note On
Note On
Note On
Note On
Note On
Note On
Note On
Note On
Note On
Note On
Note On
Note On
Note On
Note On
Note On
Note On
Note On
Note On
Note On
Note On
Note On
Note On
Note On
Note On
Note On
Note On
Note On
Note On
Note On
Note On
Note On
Note On
Note On
Note On
Note On
Note On
Note On
Note On
Note On
Control Change
Control Change
Control Change
Control Change
Control Change
Control Change
Control Change
Control Change
Control Change
Control Change
Note On
Control Change
Note On
Control Change
Control Change
Control Change
Control Change
Control Change
Control Change
Control Change
Control Change
Note On
Control Change
Note On
Control Change
Note On
Note On
Control Change
Note On
Control Change
Note On
Control Change
Control Change
Control Change
Control Change
Control Change
Control Change
Control Change
Control Change
Control Change
Note On
Control Change
Control Change
Control Change
Control Change
Control Change
Control Change
Control Change
Control Change
Control Change
Control Change
Control Change
Control Change
Control Change
Note On
Control Change
Control Change
Control Change
Note On
Note On
Control Change
Control Change
Control Change
Control Change
Control Change
Control Change
Note On
Control Change
Control Change
Note On
Control Change
Control Change
Control Change
Control Change
Control Change
Control Change
Control Change
Note On
Control Change
Note On
Control Change
Note On
Control Change
Note On
Control Change
Note On
Note On
Control Change
Control Change
Control Change
Control Change
Control Change
Control Change
Control Change
Control Change
Control Change
Note On
Control Change
Control Change
Note On
Note On
Control Change
Control Change
Control Change
Control Change
Control Change
Control Change
Control Change
Control Change
Control Change
Control Change
Note On
Note On
Control Change
Control Change
End of Track
MIDI Port/Cable
Track Name
Program Change
Control Change
Control Change
Control Change
Control Change
Control Change
Control Change
Control Change
Control Change
Control Change
Pitch Wheel
Control Change
Control Change
Control Change
Control Change
Control Change
Control Change
Control Change
Control Change
Control Change
Control Change
Control Change
Control Change
Control Change
Control Change
Control Change
Control Change
Control Change
Control Change
Control Change
Control Change
Control Change
Control Change
Control Change
Control Change
Control Change
Control Change
Control Change
Control Change
Control Change
Control Change
Control Change
Control Change
Control Change
Control Change
Control Change
Control Change
Control Change
Note On
Note On
Note On
Note On
Note On
Note On
Note On
Control Change
Control Change
Control Change
Control Change
Control Change
Control Change
Control Change
Control Change
Control Change
Control Change
Control Change
Control Change
Note On
Note On
Note On
Control Change
Note On
Note On
Note On
Control Change
Note On
Note On
Note On
Note On
Control Change
Control Change
Control Change
Control Change
Control Change
Control Change
Control Change
Control Change
Control Change
Control Change
Control Change
Control Change
Note On
Note On
Note On
Control Change
Note On
Note On
Note On
Note On
Note On
Note On
Note On
Control Change
Control Change
Control Change
Control Change
Control Change
Control Change
Control Change
Control Change
Control Change
Control Change
Control Change
Control Change
Note On
Note On
Note On
Control Change
Control Change
Note On
Note On
Note On
Note On
Note On
Note On
Note On
Note On
Note On
Note On
Note On
Note On
Note On
Note On
Note On
Note On
Note On
Note On
Note On
Note On
Note On
Note On
Note On
Note On
Note On
Note On
Note On
Note On
Note On
Note On
Note On
Note On
Note On
Note On
Note On
Note On
Note On
Note On
Note On
Note On
Note On
Note On
Note On
Note On
Note On
Note On
Note On
Note On
Note On
Note On
Note On
Note On
Note On
Note On
Note On
Note On
Note On
Note On
Note On
Note On
Note On
Note On
Note On
Note On
Note On
Note On
Note On
Note On
Note On
Note On
Note On
Note On
Note On
Note On
Note On
Note On
Note On
Note On
Note On
Note On
Note On
Note On
Note On
Note On
Note On
Note On
Note On
Note On
Note On
Note On
Note On
Note On
Note On
Note On
Note On
Note On
Note On
Note On
Note On
Note On
Note On
Note On
Note On
Note On
Note On
Note On
Note On
Note On
Note On
Note On
Note On
Note On
Note On
Note On
Note On
Note On
Note On
Note On
Note On
Note On
Note On
Note On
Note On
Note On
Note On
Note On
Note On
Note On
Note On
Note On
Note On
Note On
Note On
Note On
Note On
Note On
Note On
Note On
Note On
Note On
Note On
Note On
Note On
Note On
Note On
Note On
Note On
Note On
Note On
Note On
Note On
Note On
Note On
Note On
Note On
Note On
Note On
Note On
Note On
Note On
Note On
Note On
Note On
Note On
Note On
Note On
Note On
Note On
Note On
Note On
Note On
Note On
Note On
Note On
Note On
Note On
Note On
Note On
Note On
Note On
Note On
Note On
Note On
Note On
Note On
Note On
Note On
Note On
Note On
Note On
Note On
Note On
Note On
Note On
Note On
Note On
Note On
Note On
Note On
Note On
Note On
Note On
Note On
Note On
Note On
Note On
Note On
Note On
Note On
Note On
Note On
Note On
Note On
Note On
Note On
Note On
Note On
Note On
Note On
Note On
Note On
Note On
Note On
Note On
Note On
Note On
Note On
Note On
Note On
Note On
Note On
Note On
Note On
Note On
Note On
Note On
Note On
Note On
Note On
Note On
Note On
Note On
Note On
Note On
Note On
Note On
Note On
Note On
Note On
Note On
Note On
Note On
Note On
Note On
Note On
Note On
Note On
Note On
Note On
Note On
Note On
Note On
Note On
Note On
Note On
Note On
Note On
Note On
Note On
Note On
Note On
Note On
Note On
Note On
Note On
Note On
Note On
Note On
Note On
Note On
Note On
Note On
Note On
Note On
Note On
Note On
Note On
Note On
Note On
Note On
Note On
Note On
Note On
Note On
Note On
Note On
Note On
Note On
Note On
Note On
Note On
Note On
Note On
Note On
Note On
Note On
Note On
Note On
Note On
Note On
Note On
Note On
Note On
Note On
Note On
Note On
Note On
Note On
Note On
Note On
Note On
Note On
Note On
Note On
Note On
Note On
Note On
Note On
Note On
Note On
Note On
Note On
Note On
Note On
Note On
Note On
Note On
Note On
Note On
Note On
Note On
Note On
Note On
Note On
Note On
Note On
Note On
Note On
Note On
Note On
Note On
Note On
Note On
Note On
Note On
Note On
Note On
Note On
Note On
Note On
Note On
Note On
Note On
Note On
Note On
Note On
Note On
Note On
Note On
Note On
Note On
Note On
Note On
Note On
Note On
Note On
Note On
Note On
Note On
Note On
Note On
Note On
Note On
Note On
Note On
Note On
Note On
Note On
Note On
Note On
Note On
Note On
Note On
Note On
Note On
Note On
Note On
Note On
Note On
Note On
Note On
Note On
Note On
Note On
Note On
Note On
Note On
Note On
Note On
Note On
Note On
Note On
Note On
Note On
Note On
Note On
Note On
Note On
Note On
Note On
Note On
Note On
Note On
Note On
Note On
Note On
Note On
Note On
Note On
Note On
Note On
Note On
Note On
Note On
Note On
Note On
Note On
Note On
Note On
Note On
Note On
Note On
Note On
Note On
Note On
Note On
Note On
Note On
Note On
Note On
Note On
Note On
Note On
Note On
Note On
Note On
Note On
Note On
Note On
Note On
Note On
Note On
Note On
Note On
Note On
Note On
Note On
Note On
Note On
Note On
Note On
Note On
Note On
Note On
Note On
Note On
Note On
Note On
Note On
Note On
Note On
Note On
Note On
Note On
Note On
Note On
Note On
Note On
Note On
Note On
Note On
Note On
Note On
Note On
Note On
Note On
Note On
Note On
Note On
Note On
Note On
Note On
Note On
Note On
Note On
Note On
Note On
Note On
Note On
Note On
Note On
Note On
Note On
Note On
Note On
Note On
Note On
Note On
Note On
Note On
Note On
Note On
Note On
Note On
Note On
Note On
Note On
Note On
Note On
Note On
Note On
Note On
Note On
Note On
Note On
Note On
Note On
Note On
Note On
Note On
Note On
Note On
Note On
Note On
Note On
Note On
Note On
Note On
Note On
Note On
Note On
Note On
Note On
Note On
Note On
Note On
Note On
Note On
Note On
Note On
Note On
Note On
Note On
Note On
Note On
Note On
Note On
Note On
Note On
Note On
Note On
Note On
Note On
Note On
Note On
Note On
Note On
Note On
Note On
Note On
Note On
Note On
Note On
Note On
Note On
Note On
Note On
Note On
Note On
Note On
Note On
Note On
Note On
Note On
Note On
Note On
Note On
Note On
Note On
Note On
Note On
Note On
Note On
Note On
Note On
Note On
Note On
Note On
Note On
Note On
Note On
Note On
Note On
Note On
Note On
Note On
Note On
Note On
Note On
Note On
Note On
Note On
Note On
Note On
Note On
Note On
Note On
Note On
Note On
Note On
Note On
Note On
Note On
Note On
Note On
Note On
Note On
Note On
Note On
Note On
Note On
Note On
Note On
Note On
Note On
Note On
Note On
Note On
Note On
Note On
Note On
Note On
Note On
Note On
Note On
Note On
Note On
Note On
Note On
Note On
Note On
Note On
Note On
Note On
Note On
Note On
Note On
Note On
Note On
Note On
Note On
Note On
Note On
Note On
Note On
Note On
Note On
Note On
Note On
Note On
Note On
Note On
Note On
Note On
Note On
Note On
Note On
Note On
Note On
Note On
Note On
Note On
Note On
Note On
Note On
Note On
Note On
Note On
Note On
Note On
Note On
Note On
Note On
Note On
Note On
Note On
Note On
Note On
Note On
Note On
Note On
Note On
Note On
Note On
Note On
Note On
Note On
Note On
Note On
Note On
Note On
Note On
Note On
Note On
Note On
Note On
Note On
Note On
Note On
Note On
Note On
Note On
Note On
Note On
Note On
Note On
Note On
Note On
Note On
Note On
Note On
Note On
Note On
Note On
Note On
Note On
Note On
Note On
Note On
Note On
Note On
Note On
Note On
Note On
Note On
Note On
Note On
Note On
Note On
Note On
Note On
Note On
Note On
Note On
Note On
Note On
Note On
Note On
Note On
Note On
Note On
Note On
Control Change
Note On
Note On
Note On
Control Change
Note On
Note On
Note On
Control Change
Control Change
Note On
Note On
Note On
Control Change
Control Change
Note On
Note On
Note On
Control Change
Note On
Note On
Note On
Control Change
Control Change
Note On
Note On
Note On
Control Change
Note On
Note On
Note On
Note On
Note On
Note On
Control Change
Note On
Note On
Note On
Control Change
Control Change
Note On
Note On
Note On
Note On
Note On
Note On
Control Change
Control Change
Note On
Note On
Note On
Control Change
Note On
Note On
Note On
Control Change
Control Change
Note On
Note On
Note On
Control Change
Note On
Note On
Note On
Control Change
Control Change
Note On
Note On
Note On
Control Change
Note On
Note On
Note On
Control Change
Note On
Note On
Note On
Note On
Note On
Note On
Control Change
Control Change
Note On
Note On
Note On
Control Change
Note On
Note On
Note On
Control Change
Note On
Note On
Note On
Control Change
Control Change
Note On
Note On
Note On
Control Change
Control Change
Note On
Note On
Note On
Control Change
Note On
Note On
Note On
Control Change
Control Change
Note On
Note On
Note On
Control Change
Note On
Note On
Note On
Note On
Note On
Note On
Control Change
Note On
Note On
Note On
Control Change
Control Change
Note On
Note On
Note On
Note On
Note On
Note On
Control Change
Control Change
Note On
Note On
Note On
Control Change
Note On
Note On
Note On
Control Change
Control Change
Note On
Note On
Note On
Control Change
Note On
Note On
Note On
Control Change
Control Change
Note On
Note On
Note On
Control Change
Note On
Note On
Note On
Control Change
Note On
Note On
Note On
Note On
Note On
Note On
Control Change
Control Change
Note On
Note On
Note On
Control Change
Note On
Note On
Note On
Control Change
Note On
Note On
Note On
Control Change
Control Change
Note On
Note On
Note On
Control Change
Control Change
Note On
Note On
Note On
Control Change
Note On
Note On
Note On
Control Change
Control Change
Note On
Note On
Note On
Control Change
Note On
Note On
Note On
Note On
Note On
Note On
Control Change
Note On
Note On
Note On
Control Change
Control Change
Note On
Note On
Note On
Note On
Note On
Note On
Control Change
Control Change
Note On
Note On
Note On
Control Change
Note On
Note On
Note On
Control Change
Control Change
Note On
Note On
Note On
Control Change
Note On
Note On
Note On
Control Change
Control Change
Note On
Note On
Note On
Control Change
Note On
Note On
Note On
Control Change
Note On
Note On
Note On
Note On
Note On
Note On
Control Change
Control Change
Note On
Note On
Note On
Control Change
Note On
Note On
Note On
Control Change
Note On
Note On
Note On
Control Change
Control Change
Note On
Note On
Note On
Control Change
Control Change
Note On
Note On
Note On
Control Change
Note On
Note On
Note On
Control Change
Control Change
Note On
Note On
Note On
Control Change
Note On
Note On
Note On
Note On
Note On
Note On
Control Change
Note On
Note On
Note On
Control Change
Control Change
Note On
Note On
Note On
Note On
Note On
Note On
Control Change
Control Change
Note On
Note On
Note On
Control Change
Note On
Note On
Note On
Control Change
Control Change
Note On
Note On
Note On
Control Change
Note On
Note On
Note On
Control Change
Control Change
Note On
Note On
Note On
Control Change
Note On
Note On
Note On
Control Change
Note On
Note On
Note On
Note On
Note On
Note On
Control Change
Control Change
Control Change
Note On
Note On
Note On
End of Track
MIDI Port/Cable
Track Name
Program Change
Control Change
Control Change
Control Change
Control Change
Control Change
Control Change
Control Change
Control Change
Control Change
Pitch Wheel
Control Change
Control Change
Control Change
Note On
Note On
Note On
Note On
Note On
Note On
Note On
Note On
Note On
Note On
Note On
Note On
Note On
Note On
Note On
Note On
Note On
Note On
Note On
Note On
Note On
Note On
Note On
Note On
Note On
Note On
Note On
Note On
Note On
Note On
Note On
Note On
Note On
Note On
Note On
Note On
Note On
Note On
Note On
Note On
Note On
Note On
Note On
Note On
Note On
Note On
Note On
Note On
Note On
Note On
Note On
Note On
Note On
Note On
Note On
Note On
Note On
Note On
Note On
Note On
Note On
Note On
Note On
Note On
Note On
Note On
Note On
Note On
Note On
Note On
Note On
Note On
Note On
Note On
Note On
Note On
Note On
Note On
Note On
Note On
Note On
Note On
Note On
Note On
Note On
Note On
Note On
Note On
Note On
Note On
Note On
Note On
Note On
Note On
Note On
Note On
Note On
Note On
Note On
Note On
Note On
Note On
Note On
Note On
Note On
Note On
Note On
Note On
Note On
Note On
Note On
Note On
Note On
Note On
Note On
Note On
Note On
Note On
Note On
Note On
Note On
Note On
Note On
Note On
Note On
Note On
Note On
Note On
Note On
Note On
Note On
Note On
Note On
Note On
Note On
Note On
Note On
Note On
Note On
Note On
Note On
Note On
Note On
Note On
Note On
Note On
Note On
Note On
Note On
Note On
Note On
Note On
Note On
Note On
Note On
Note On
Note On
Note On
Note On
Note On
Note On
Note On
Note On
Note On
Note On
Note On
Note On
Note On
Note On
Note On
Note On
Note On
Note On
Note On
Note On
Note On
Note On
Note On
Note On
Note On
Note On
Note On
Note On
Note On
Note On
Note On
Note On
Note On
Note On
Note On
Note On
Note On
Note On
Note On
Note On
Note On
Note On
Note On
Note On
Note On
Note On
Note On
Note On
Note On
Note On
Note On
Note On
Note On
Note On
Note On
Note On
Note On
Note On
Note On
Note On
Note On
Note On
Note On
Note On
Note On
Note On
Note On
Note On
Note On
Note On
Note On
Note On
Note On
Note On
Note On
Note On
Note On
Note On
Note On
Note On
Note On
Note On
Note On
Note On
Note On
Note On
Note On
Note On
Note On
Note On
Note On
Note On
Note On
Note On
Note On
Note On
Note On
Note On
Note On
Note On
Note On
Note On
Note On
Note On
Note On
Note On
Note On
Note On
Note On
Note On
Note On
Note On
Note On
Note On
Note On
Note On
Note On
End of Track
MIDI Port/Cable
Track Name
Control Change
End of Track
MIDI Port/Cable
Track Name
Program Change
Control Change
Control Change
Control Change
Control Change
Control Change
Control Change
Control Change
Control Change
Control Change
Pitch Wheel
Control Change
Control Change
Note On
Note On
Note On
Note On
Note On
Note On
Note On
Note On
Note On
Note On
Note On
Note On
Note On
Note On
Note On
Note On
Note On
Note On
Note On
Note On
Note On
Note On
Note On
Note On
Note On
Note On
Note On
Note On
Note On
Note On
Note On
Note On
Note On
Note On
Note On
Note On
Note On
Note On
Note On
Note On
Note On
Note On
Note On
Note On
Note On
Note On
Note On
Note On
Note On
Note On
Note On
Note On
Note On
Note On
Note On
Note On
Note On
Note On
Note On
Note On
Note On
Note On
Note On
Note On
Note On
Note On
Note On
Note On
Note On
Note On
Note On
Note On
Note On
Note On
Note On
Note On
Note On
Note On
Note On
Note On
Note On
Note On
Note On
Note On
Note On
Note On
Note On
Note On
Note On
Note On
Note On
Note On
Note On
Note On
Note On
Note On
Note On
Note On
Note On
Note On
Note On
Note On
Note On
Note On
Note On
Note On
Note On
Note On
Note On
Note On
Note On
Note On
Note On
Note On
Note On
Note On
Note On
Note On
Note On
Note On
Note On
Note On
Note On
Note On
Note On
Note On
Note On
Note On
Note On
Note On
Note On
Note On
Note On
Note On
Note On
Note On
Note On
Note On
Note On
Note On
Note On
Note On
Note On
Note On
Note On
Note On
Note On
Note On
Note On
Note On
Note On
Note On
Note On
Note On
Note On
Note On
Note On
Note On
Note On
Note On
Note On
Note On
Note On
Note On
Note On
Note On
Note On
Note On
Note On
Note On
Note On
Note On
Note On
Note On
Note On
Note On
Note On
Note On
Note On
Note On
Note On
Note On
Note On
Note On
Note On
Note On
Note On
Note On
Note On
Note On
Note On
Note On
Note On
Note On
Note On
Note On
Note On
Note On
Note On
Note On
Note On
Note On
Note On
Note On
Note On
Note On
Note On
Note On
Note On
Note On
Note On
Note On
Note On
Note On
Note On
Note On
Note On
Note On
Note On
Note On
Note On
Note On
Note On
Note On
Note On
Note On
Note On
Note On
Note On
Note On
Note On
Note On
Note On
Note On
Note On
Note On
Note On
Note On
Note On
Note On
Note On
Note On
Note On
Note On
Note On
Note On
Note On
Note On
Note On
Note On
Note On
Note On
Note On
Note On
Note On
Note On
Note On
Note On
Note On
Note On
Note On
Note On
Note On
Note On
Note On
Note On
Note On
Note On
Note On
Note On
Note On
Note On
Note On
Note On
Note On
Note On
Note On
Note On
Note On
Note On
Note On
Note On
Note On
Note On
Note On
Note On
Note On
Note On
Note On
Note On
Note On
Note On
Note On
Note On
Note On
Note On
Note On
Note On
Note On
Note On
Note On
Note On
Note On
Note On
Note On
Note On
Note On
Note On
Note On
Note On
Note On
Note On
Note On
Note On
Note On
Note On
Note On
Note On
Note On
Note On
Note On
Note On
Note On
Note On
Note On
Note On
Note On
Note On
Note On
Note On
Note On
Note On
Note On
Note On
Note On
Note On
Note On
Note On
Note On
Note On
Note On
Note On
Note On
Note On
Note On
Note On
Note On
Note On
Note On
Note On
Note On
Note On
Note On
Note On
Note On
Note On
Note On
Note On
Note On
Note On
Note On
Note On
Note On
Note On
Note On
Note On
Note On
Note On
Note On
Note On
Note On
Note On
Note On
Note On
Note On
Note On
Note On
Note On
Note On
Note On
Note On
Note On
Note On
Note On
Note On
Note On
Note On
Note On
Note On
Note On
Note On
Note On
Note On
Note On
Note On
Note On
Note On
Note On
Note On
Note On
Note On
Note On
Note On
Note On
Note On
Note On
Note On
Note On
Note On
Note On
Note On
Note On
Note On
Note On
Note On
Note On
Note On
Note On
Note On
Note On
Note On
Note On
Note On
Note On
Note On
Note On
Note On
Note On
Note On
Note On
Note On
Note On
Note On
Note On
Note On
Note On
Note On
Note On
Note On
Note On
Note On
Note On
Note On
Note On
Note On
Note On
Note On
Note On
Note On
Note On
Note On
Note On
Note On
Note On
Note On
Note On
Note On
Note On
Note On
Note On
Note On
Note On
Note On
Note On
Note On
Note On
Note On
Note On
Note On
Note On
Note On
Note On
Note On
Note On
Note On
Note On
Note On
Note On
Note On
Note On
Note On
Note On
Note On
Note On
Note On
Note On
Note On
Note On
Note On
Note On
Note On
Note On
Note On
Note On
Note On
Note On
Note On
Note On
Note On
Note On
Note On
Note On
Note On
Note On
Note On
Note On
Note On
Note On
Note On
Note On
Note On
Note On
Note On
Note On
Note On
Note On
Note On
Note On
Note On
Note On
Note On
Note On
Note On
Note On
Note On
Note On
Note On
Note On
Note On
Note On
Note On
Note On
Note On
Note On
Note On
Note On
Note On
Note On
Note On
Note On
Note On
Note On
Note On
Note On
Note On
Note On
Note On
Note On
Note On
Note On
Note On
Note On
Note On
Note On
Note On
Note On
Note On
Note On
Note On
Note On
Note On
Note On
Note On
Note On
Note On
Note On
Note On
Note On
Note On
Note On
Note On
Note On
Note On
Note On
Note On
Note On
Note On
Note On
Note On
Note On
Note On
Note On
Note On
Note On
Note On
Note On
Note On
Note On
Note On
Note On
Note On
Note On
Note On
Note On
Note On
Note On
Note On
Note On
Note On
Note On
Note On
Note On
Note On
Note On
Note On
Note On
Note On
Note On
Note On
Note On
Note On
Note On
Note On
Note On
Note On
Note On
Note On
Note On
Note On
Note On
Note On
Note On
Note On
Note On
Note On
Note On
Note On
Note On
Note On
Note On
Note On
Note On
Note On
Note On
Note On
Note On
Note On
Note On
Note On
Note On
Note On
Note On
Note On
Note On
Note On
Note On
Note On
Note On
Note On
Note On
Note On
Note On
Note On
Note On
Note On
Note On
Note On
Note On
Note On
Note On
Note On
Note On
Note On
Note On
Note On
Note On
Note On
Note On
Note On
Note On
Note On
Note On
Note On
Note On
Note On
Note On
Note On
Note On
Note On
Note On
Note On
Note On
Note On
Note On
Note On
Note On
Note On
Note On
Note On
Note On
Note On
Note On
Note On
Note On
Note On
Note On
Note On
Note On
Note On
Note On
Note On
Note On
Note On
Note On
Note On
Note On
Note On
Note On
Note On
Note On
Note On
Note On
Note On
Note On
Note On
Note On
Note On
Note On
Note On
Note On
Note On
Note On
Note On
Note On
Note On
Note On
Note On
Note On
Note On
Note On
Note On
Note On
Note On
Note On
Note On
Note On
Note On
Note On
Note On
Note On
Note On
Note On
Note On
Note On
Note On
Note On
Note On
Note On
Note On
Note On
Note On
Note On
Note On
Note On
Note On
Note On
Note On
Note On
Note On
Note On
Note On
Note On
Note On
Note On
Note On
Note On
Note On
Note On
Note On
Note On
Note On
Note On
Note On
Note On
Note On
Note On
Note On
Note On
Note On
Note On
Note On
Note On
Note On
Note On
Note On
Note On
Note On
Note On
Note On
Note On
Note On
Note On
Note On
Note On
Note On
Note On
Note On
Note On
Note On
Note On
Note On
Note On
Note On
Note On
Note On
Note On
Note On
Note On
Note On
Note On
Note On
Note On
Note On
Note On
Note On
Note On
Note On
Note On
Note On
Note On
Note On
Note On
Note On
Note On
Note On
Note On
Note On
Note On
Note On
Note On
Note On
Note On
Note On
Note On
Note On
Note On
Note On
Note On
Note On
Note On
Note On
Note On
Note On
Note On
Note On
Note On
Note On
Note On
Note On
Note On
Note On
Note On
Note On
Note On
Note On
Note On
Note On
Note On
Note On
Note On
Note On
Note On
Note On
Note On
Note On
Note On
Note On
Note On
Note On
Note On
Note On
Note On
Note On
Note On
Note On
Note On
Note On
Note On
Note On
Note On
Note On
Note On
Note On
Note On
Note On
Note On
Note On
Note On
Note On
Note On
Note On
Note On
Note On
Note On
Note On
Note On
Note On
Note On
Note On
Note On
Note On
Note On
Note On
Note On
Note On
Note On
Note On
Note On
Note On
Note On
Note On
Note On
Note On
Note On
Note On
Note On
Note On
Note On
Note On
Note On
Note On
Note On
Note On
Note On
Note On
Note On
Note On
Note On
Note On
Note On
Note On
Note On
Note On
Note On
Note On
Note On
Note On
Note On
Note On
Note On
Note On
Note On
Note On
Note On
Note On
Note On
Note On
Note On
Note On
Note On
Note On
Note On
Note On
Note On
Note On
Note On
Note On
Note On
Note On
Note On
Note On
Note On
Note On
Note On
Note On
Note On
Note On
Note On
Note On
Note On
Note On
Note On
Note On
Note On
Note On
Note On
Note On
Note On
Note On
Note On
Note On
Note On
Note On
Note On
Note On
Note On
Note On
Note On
Note On
Note On
Note On
Note On
Note On
Note On
Note On
Note On
Note On
Note On
Note On
Note On
Note On
Note On
Note On
Note On
Note On
Note On
Note On
Note On
Note On
Note On
Note On
Note On
Note On
Note On
Note On
Note On
Note On
Note On
Note On
Note On
Note On
Note On
Note On
Note On
Note On
Note On
Note On
Note On
Note On
Note On
Note On
Note On
Note On
Note On
Note On
Note On
Note On
Note On
Note On
Note On
Note On
Note On
Note On
Note On
Note On
Note On
Note On
Note On
Note On
Note On
Note On
Note On
Note On
Note On
Note On
Note On
Note On
Note On
Note On
Note On
Note On
Note On
Note On
Note On
Note On
Note On
Note On
Note On
Note On
Note On
Note On
Note On
Note On
Note On
Note On
Note On
Note On
Note On
Note On
Note On
Note On
Note On
Note On
Note On
Note On
Note On
Note On
Note On
Note On
Note On
Note On
Note On
Note On
Note On
Note On
Note On
Note On
Note On
Note On
Note On
Note On
Note On
Note On
Note On
Note On
Note On
Note On
Note On
Note On
Control Change
Note On
Note On
Control Change
Note On
Note On
Note On
Control Change
Note On
Note On
Note On
Control Change
Note On
Note On
Note On
Control Change
Control Change
Note On
Note On
Note On
Note On
Control Change
Note On
Note On
Note On
Control Change
Note On
Note On
Note On
Control Change
Note On
Note On
Note On
Control Change
Control Change
Note On
Note On
Note On
Control Change
Note On
Note On
Note On
Control Change
Note On
Note On
Note On
Control Change
Control Change
Note On
Note On
Note On
Control Change
Note On
Note On
Note On
Control Change
Note On
Note On
Note On
Control Change
Note On
Control Change
Note On
Note On
Control Change
Note On
Note On
Note On
Control Change
Note On
Note On
Note On
Control Change
Note On
Note On
Control Change
Note On
Control Change
Note On
Note On
Note On
Control Change
Note On
Note On
Note On
Control Change
Note On
Note On
Note On
Control Change
Control Change
Note On
Note On
Note On
Control Change
Note On
Note On
Note On
Control Change
Note On
Note On
Note On
Control Change
Note On
Control Change
Note On
Note On
Control Change
Note On
Note On
Note On
Control Change
Note On
Note On
Note On
Control Change
Note On
Note On
Note On
Control Change
Control Change
Note On
Note On
Note On
Control Change
Note On
Note On
Note On
Control Change
Note On
Note On
Note On
Control Change
Control Change
Note On
Note On
Note On
Control Change
Note On
Note On
Note On
Note On
Control Change
Note On
Note On
Note On
Note On
Control Change
Note On
Control Change
Note On
Note On
Control Change
Note On
Note On
Note On
Control Change
Note On
Note On
Note On
Control Change
Note On
Note On
Note On
Control Change
Control Change
Note On
Note On
Note On
Control Change
Note On
Note On
Note On
Control Change
Note On
Note On
Note On
Control Change
Control Change
Note On
Note On
Note On
Control Change
Note On
Note On
Note On
Control Change
Note On
Note On
Note On
Control Change
Note On
Control Change
Note On
Note On
Control Change
Note On
Note On
Note On
Control Change
Note On
Note On
Note On
Control Change
Note On
Note On
Note On
Control Change
Control Change
Note On
Note On
Note On
Control Change
Note On
Note On
Note On
Control Change
Note On
Note On
Note On
Control Change
Note On
Note On
Note On
Control Change
Control Change
Note On
Note On
Note On
Control Change
Note On
Note On
Note On
Control Change
Note On
Control Change
Note On
Note On
Control Change
Note On
Note On
Note On
Control Change
Note On
Note On
Note On
Control Change
Note On
Note On
Note On
Control Change
Control Change
Note On
Note On
Note On
Control Change
Note On
Note On
Note On
Control Change
Note On
Note On
Note On
Control Change
Note On
Note On
Control Change
Note On
Control Change
Note On
Note On
Note On
Control Change
Note On
Note On
Note On
Control Change
Control Change
Note On
End of Track
MIDI Port/Cable
Track Name
End of Track
MIDI Port/Cable
Track Name
End of Track
MIDI Port/Cable
Track Name
End of Track
